<svg width="217" height="63" viewBox="0 0 217 63" fill="none" xmlns="http://www.w3.org/2000/svg">
<rect x="0.645264" width="215.419" height="63" rx="20.3226" fill="#ACE1F8"/>
<path d="M43.5995 24.877H46.4054C47.7217 24.877 48.8909 25.1715 49.9128 25.7604C50.9347 26.3492 51.7372 27.1691 52.3203 28.2199C52.9034 29.2706 53.195 30.4888 53.195 31.8745C53.195 33.2601 52.9034 34.4812 52.3203 35.5377C51.7372 36.5943 50.9347 37.4199 49.9128 38.0145C48.8909 38.6092 47.7217 38.9065 46.4054 38.9065H43.5995C42.2831 38.9065 41.114 38.6121 40.0921 38.0232C39.0702 37.4343 38.2677 36.6145 37.6846 35.5637C37.1015 34.5129 36.8099 33.2947 36.8099 31.9091C36.8099 30.5235 37.1015 29.3024 37.6846 28.2458C38.2677 27.1893 39.0702 26.3637 40.0921 25.769C41.114 25.1743 42.2831 24.877 43.5995 24.877ZM43.5995 26.7823C42.5949 26.7823 41.7462 26.993 41.0534 27.4145C40.3663 27.8359 39.8438 28.4306 39.4859 29.1985C39.1337 29.9663 38.9576 30.8699 38.9576 31.9091C38.9576 32.9368 39.1337 33.8317 39.4859 34.5938C39.8438 35.3558 40.3663 35.9476 41.0534 36.3691C41.7462 36.7906 42.5949 37.0013 43.5995 37.0013H46.4054C47.41 37.0013 48.2558 36.7906 48.9428 36.3691C49.6356 35.9476 50.1581 35.353 50.5103 34.5851C50.8683 33.8172 51.0472 32.9137 51.0472 31.8745C51.0472 30.8468 50.8683 29.9519 50.5103 29.1898C50.1581 28.4277 49.6356 27.8359 48.9428 27.4145C48.2558 26.993 47.41 26.7823 46.4054 26.7823H43.5995ZM46.0936 22.4522V41.2275H43.9459V22.4522H46.0936ZM58.56 37.4863L64.9685 27.1979H67.3241V40.5H65.2803V30.2117L58.9064 40.5H56.5162V27.1979H58.56V37.4863ZM80.9401 22.2097L81.9793 23.4567C81.5751 23.8493 81.1075 24.1236 80.5763 24.2795C80.0452 24.4353 79.4447 24.5306 78.775 24.5652C78.1053 24.5999 77.3605 24.6345 76.5407 24.6692C75.6169 24.7038 74.8519 24.929 74.2457 25.3447C73.6395 25.7604 73.1719 26.3608 72.8428 27.146C72.5137 27.9312 72.303 28.8953 72.2106 30.0385H72.3838C72.8341 29.2071 73.4577 28.5951 74.2544 28.2025C75.0511 27.8099 75.9056 27.6136 76.8178 27.6136C77.857 27.6136 78.7923 27.8561 79.6237 28.3411C80.4551 28.8261 81.1133 29.5449 81.5982 30.4975C82.0832 31.4501 82.3257 32.625 82.3257 34.0222C82.3257 35.4136 82.0774 36.6145 81.5809 37.6248C81.0902 38.6352 80.4002 39.4146 79.5111 39.9631C78.6278 40.5058 77.5915 40.7771 76.4021 40.7771C75.2128 40.7771 74.1707 40.4971 73.2758 39.9371C72.3809 39.3713 71.6852 38.5341 71.1887 37.4256C70.6922 36.3114 70.4439 34.9344 70.4439 33.2947V31.8745C70.4439 28.9127 70.9462 26.6668 71.9508 25.1368C72.9611 23.6069 74.4796 22.8159 76.506 22.7639C77.2219 22.7408 77.8599 22.7351 78.4199 22.7466C78.98 22.7582 79.4678 22.7322 79.8835 22.6687C80.2992 22.6052 80.6514 22.4522 80.9401 22.2097ZM76.4021 38.9412C77.2046 38.9412 77.8946 38.7391 78.4719 38.335C79.055 37.9308 79.5025 37.3621 79.8142 36.6289C80.126 35.8899 80.2819 35.021 80.2819 34.0222C80.2819 33.0522 80.1231 32.2266 79.8056 31.5454C79.4938 30.8641 79.0464 30.3445 78.4632 29.9865C77.8801 29.6286 77.1815 29.4496 76.3675 29.4496C75.7728 29.4496 75.2388 29.5506 74.7653 29.7527C74.2919 29.9548 73.8878 30.2521 73.5529 30.6447C73.2181 31.0373 72.9582 31.5165 72.7735 32.0823C72.5945 32.6481 72.4993 33.2947 72.4877 34.0222C72.4877 35.5117 72.837 36.7039 73.5356 37.5988C74.2342 38.4937 75.1897 38.9412 76.4021 38.9412ZM85.452 45.4883V27.1979H87.4265V29.311H87.669C87.8191 29.0801 88.027 28.7856 88.2926 28.4277C88.5639 28.064 88.9507 27.7407 89.453 27.4578C89.9611 27.1691 90.6481 27.0247 91.5142 27.0247C92.6342 27.0247 93.6215 27.3048 94.4759 27.8648C95.3304 28.4248 95.9972 29.2187 96.4764 30.2463C96.9556 31.274 97.1952 32.4864 97.1952 33.8836C97.1952 35.2923 96.9556 36.5134 96.4764 37.5469C95.9972 38.5746 95.3333 39.3713 94.4846 39.9371C93.6359 40.4971 92.6573 40.7771 91.5488 40.7771C90.6943 40.7771 90.0102 40.6357 89.4963 40.3528C88.9825 40.0641 88.587 39.7379 88.3099 39.3742C88.0328 39.0047 87.8191 38.6987 87.669 38.4562H87.4958V45.4883H85.452ZM87.4612 33.849C87.4612 34.8536 87.6084 35.7398 87.9029 36.5077C88.1973 37.2697 88.6274 37.8673 89.1932 38.3003C89.759 38.7275 90.4518 38.9412 91.2717 38.9412C92.1261 38.9412 92.8392 38.716 93.4107 38.2657C93.9881 37.8096 94.4211 37.1976 94.7098 36.4297C95.0042 35.6561 95.1514 34.7958 95.1514 33.849C95.1514 32.9137 95.0071 32.0707 94.7184 31.3202C94.4355 30.5639 94.0054 29.9663 93.4281 29.5275C92.8565 29.083 92.1377 28.8607 91.2717 28.8607C90.4403 28.8607 89.7417 29.0714 89.1759 29.4929C88.6101 29.9086 88.1829 30.4917 87.8942 31.2423C87.6055 31.987 87.4612 32.8559 87.4612 33.849ZM102.357 37.4863L108.765 27.1979H111.121V40.5H109.077V30.2117L102.703 40.5H100.313V27.1979H102.357V37.4863ZM123.767 32.9137V34.8189H116.423V32.9137H123.767ZM116.908 27.1979V40.5H114.864V27.1979H116.908ZM125.326 27.1979V40.5H123.282V27.1979H125.326ZM134.462 40.7771C133.261 40.7771 132.208 40.4913 131.301 39.9198C130.401 39.3482 129.696 38.5486 129.188 37.5209C128.686 36.4932 128.435 35.2923 128.435 33.9183C128.435 32.5326 128.686 31.3231 129.188 30.2896C129.696 29.2562 130.401 28.4537 131.301 27.8821C132.208 27.3105 133.261 27.0247 134.462 27.0247C135.663 27.0247 136.714 27.3105 137.615 27.8821C138.521 28.4537 139.225 29.2562 139.728 30.2896C140.236 31.3231 140.49 32.5326 140.49 33.9183C140.49 35.2923 140.236 36.4932 139.728 37.5209C139.225 38.5486 138.521 39.3482 137.615 39.9198C136.714 40.4913 135.663 40.7771 134.462 40.7771ZM134.462 38.9412C135.374 38.9412 136.125 38.7073 136.714 38.2397C137.303 37.772 137.739 37.1572 138.022 36.3951C138.304 35.633 138.446 34.8074 138.446 33.9183C138.446 33.0291 138.304 32.2007 138.022 31.4328C137.739 30.6649 137.303 30.0443 136.714 29.5708C136.125 29.0974 135.374 28.8607 134.462 28.8607C133.55 28.8607 132.799 29.0974 132.211 29.5708C131.622 30.0443 131.186 30.6649 130.903 31.4328C130.62 32.2007 130.479 33.0291 130.479 33.9183C130.479 34.8074 130.62 35.633 130.903 36.3951C131.186 37.1572 131.622 37.772 132.211 38.2397C132.799 38.7073 133.55 38.9412 134.462 38.9412ZM151.819 27.1979V29.1032H145.653V40.5H143.61V27.1979H151.819ZM159.689 40.7771C158.408 40.7771 157.302 40.4942 156.372 39.9284C155.449 39.3569 154.736 38.5601 154.233 37.5382C153.737 36.5105 153.489 35.3154 153.489 33.9529C153.489 32.5904 153.737 31.3895 154.233 30.3503C154.736 29.3053 155.434 28.4912 156.329 27.9081C157.23 27.3192 158.281 27.0247 159.481 27.0247C160.174 27.0247 160.858 27.1402 161.534 27.3712C162.209 27.6021 162.824 27.9774 163.379 28.497C163.933 29.0108 164.374 29.6921 164.704 30.5408C165.033 31.3895 165.197 32.4345 165.197 33.6758V34.5418H154.944V32.7751H163.119C163.119 32.0246 162.969 31.3548 162.668 30.7659C162.374 30.1771 161.953 29.7123 161.404 29.3717C160.861 29.031 160.22 28.8607 159.481 28.8607C158.667 28.8607 157.963 29.0628 157.368 29.4669C156.78 29.8653 156.326 30.3849 156.009 31.0258C155.691 31.6666 155.532 32.3536 155.532 33.0869V34.2647C155.532 35.2692 155.706 36.1208 156.052 36.8194C156.404 37.5122 156.892 38.0405 157.516 38.4042C158.139 38.7622 158.864 38.9412 159.689 38.9412C160.226 38.9412 160.711 38.8661 161.144 38.716C161.583 38.5601 161.961 38.3292 162.279 38.0232C162.596 37.7114 162.842 37.3246 163.015 36.8627L164.989 37.417C164.782 38.0867 164.432 38.6756 163.941 39.1837C163.451 39.6859 162.845 40.0785 162.123 40.3614C161.401 40.6386 160.59 40.7771 159.689 40.7771ZM177.209 32.9137V34.8189H169.865V32.9137H177.209ZM170.35 27.1979V40.5H168.306V27.1979H170.35ZM178.768 27.1979V40.5H176.724V27.1979H178.768Z" fill="black"/>
</svg>
