<svg width="216" height="63" viewBox="0 0 216 63" fill="none" xmlns="http://www.w3.org/2000/svg">
<rect x="0.483887" width="215.419" height="63" rx="20.3226" fill="#ACE1F8"/>
<path d="M48.768 40.5L42.6712 32.3594H40.4888V40.5H38.3411V22.7639H40.4888V30.4542H41.4241L48.5255 22.7639H51.0889L43.9182 30.5581L51.3314 40.5H48.768ZM57.7442 40.8118C56.9013 40.8118 56.1363 40.653 55.4493 40.3355C54.7623 40.0121 54.2167 39.5474 53.8125 38.9412C53.4084 38.3292 53.2063 37.5902 53.2063 36.7242C53.2063 35.9621 53.3564 35.3443 53.6566 34.8709C53.9569 34.3917 54.3581 34.0164 54.8604 33.7451C55.3627 33.4737 55.9169 33.2716 56.5232 33.1388C57.1351 33.0003 57.75 32.8906 58.3678 32.8098C59.1761 32.7058 59.8313 32.6279 60.3336 32.5759C60.8417 32.5182 61.2112 32.4229 61.4421 32.2901C61.6789 32.1573 61.7972 31.9264 61.7972 31.5973V31.528C61.7972 30.6736 61.5634 30.0096 61.0957 29.5362C60.6339 29.0628 59.9324 28.8261 58.9913 28.8261C58.0156 28.8261 57.2506 29.0397 56.6964 29.4669C56.1421 29.8942 55.7524 30.3503 55.5272 30.8352L53.5874 30.1424C53.9338 29.3341 54.3956 28.7048 54.973 28.2545C55.5561 27.7984 56.1912 27.4808 56.8782 27.3019C57.571 27.1171 58.2523 27.0247 58.922 27.0247C59.3493 27.0247 59.84 27.0767 60.3943 27.1806C60.9543 27.2788 61.4941 27.4837 62.0137 27.7955C62.5391 28.1073 62.975 28.5778 63.3214 29.2071C63.6678 29.8364 63.841 30.6793 63.841 31.7359V40.5H61.7972V38.6987H61.6933C61.5547 38.9874 61.3238 39.2962 61.0005 39.6253C60.6772 39.9544 60.247 40.2344 59.7101 40.4654C59.1732 40.6963 58.5179 40.8118 57.7442 40.8118ZM58.056 38.9758C58.8643 38.9758 59.5456 38.817 60.0998 38.4995C60.6598 38.182 61.0813 37.772 61.3642 37.2697C61.6529 36.7675 61.7972 36.2392 61.7972 35.6849V33.8143C61.7106 33.9183 61.5201 34.0135 61.2256 34.1001C60.937 34.1809 60.6021 34.2531 60.2211 34.3166C59.8458 34.3744 59.4792 34.4263 59.1212 34.4725C58.769 34.5129 58.4832 34.5476 58.2639 34.5764C57.7327 34.6457 57.2362 34.7583 56.7743 34.9142C56.3182 35.0643 55.9487 35.2923 55.6658 35.5983C55.3887 35.8986 55.2501 36.3085 55.2501 36.8281C55.2501 37.5382 55.5128 38.0751 56.0382 38.4389C56.5693 38.7968 57.242 38.9758 58.056 38.9758ZM66.3936 40.5V38.5948H66.8786C67.2769 38.5948 67.6089 38.5168 67.8745 38.3609C68.1401 38.1993 68.3537 37.9193 68.5154 37.5209C68.6828 37.1168 68.8098 36.5567 68.8964 35.8408C68.9888 35.1191 69.0552 34.2012 69.0956 33.0869L69.3381 27.1979H78.2061V40.5H76.1623V29.1032H71.278L71.0701 33.849C71.0239 34.9402 70.9258 35.9014 70.7757 36.7328C70.6313 37.5584 70.4091 38.2512 70.1088 38.8113C69.8144 39.3713 69.4218 39.7928 68.931 40.0757C68.4403 40.3586 67.8254 40.5 67.0864 40.5H66.3936ZM80.7782 40.5V38.5948H81.2632C81.6615 38.5948 81.9935 38.5168 82.2591 38.3609C82.5247 38.1993 82.7383 37.9193 82.8999 37.5209C83.0674 37.1168 83.1944 36.5567 83.281 35.8408C83.3734 35.1191 83.4397 34.2012 83.4802 33.0869L83.7226 27.1979H92.5907V40.5H90.5469V29.1032H85.6625L85.4547 33.849C85.4085 34.9402 85.3104 35.9014 85.1602 36.7328C85.0159 37.5584 84.7936 38.2512 84.4934 38.8113C84.199 39.3713 83.8064 39.7928 83.3156 40.0757C82.8249 40.3586 82.21 40.5 81.471 40.5H80.7782ZM98.3844 37.4863L104.793 27.1979H107.148V40.5H105.105V30.2117L98.7308 40.5H96.3405V27.1979H98.3844V37.4863ZM110.892 40.5V27.1979H112.936V32.983H114.287L119.067 27.1979H121.7L116.33 33.6065L121.769 40.5H119.136L114.772 34.8882H112.936V40.5H110.892ZM123.99 45.4883V27.1979H125.965V29.311H126.207C126.357 29.0801 126.565 28.7856 126.831 28.4277C127.102 28.064 127.489 27.7407 127.991 27.4578C128.499 27.1691 129.186 27.0247 130.053 27.0247C131.173 27.0247 132.16 27.3048 133.014 27.8648C133.869 28.4248 134.536 29.2187 135.015 30.2463C135.494 31.274 135.734 32.4864 135.734 33.8836C135.734 35.2923 135.494 36.5134 135.015 37.5469C134.536 38.5746 133.872 39.3713 133.023 39.9371C132.174 40.4971 131.196 40.7771 130.087 40.7771C129.233 40.7771 128.549 40.6357 128.035 40.3528C127.521 40.0641 127.125 39.7379 126.848 39.3742C126.571 39.0047 126.357 38.6987 126.207 38.4562H126.034V45.4883H123.99ZM126 33.849C126 34.8536 126.147 35.7398 126.441 36.5077C126.736 37.2697 127.166 37.8673 127.732 38.3003C128.297 38.7275 128.99 38.9412 129.81 38.9412C130.664 38.9412 131.378 38.716 131.949 38.2657C132.526 37.8096 132.959 37.1976 133.248 36.4297C133.543 35.6561 133.69 34.7958 133.69 33.849C133.69 32.9137 133.545 32.0707 133.257 31.3202C132.974 30.5639 132.544 29.9663 131.966 29.5275C131.395 29.083 130.676 28.8607 129.81 28.8607C128.979 28.8607 128.28 29.0714 127.714 29.4929C127.148 29.9086 126.721 30.4917 126.433 31.2423C126.144 31.987 126 32.8559 126 33.849ZM144.428 40.7771C143.147 40.7771 142.041 40.4942 141.112 39.9284C140.188 39.3569 139.475 38.5601 138.973 37.5382C138.476 36.5105 138.228 35.3154 138.228 33.9529C138.228 32.5904 138.476 31.3895 138.973 30.3503C139.475 29.3053 140.173 28.4912 141.068 27.9081C141.969 27.3192 143.02 27.0247 144.221 27.0247C144.913 27.0247 145.598 27.1402 146.273 27.3712C146.949 27.6021 147.563 27.9774 148.118 28.497C148.672 29.0108 149.114 29.6921 149.443 30.5408C149.772 31.3895 149.936 32.4345 149.936 33.6758V34.5418H139.683V32.7751H147.858C147.858 32.0246 147.708 31.3548 147.408 30.7659C147.113 30.1771 146.692 29.7123 146.143 29.3717C145.6 29.031 144.96 28.8607 144.221 28.8607C143.407 28.8607 142.702 29.0628 142.107 29.4669C141.519 29.8653 141.065 30.3849 140.748 31.0258C140.43 31.6666 140.272 32.3536 140.272 33.0869V34.2647C140.272 35.2692 140.445 36.1208 140.791 36.8194C141.143 37.5122 141.631 38.0405 142.255 38.4042C142.878 38.7622 143.603 38.9412 144.428 38.9412C144.965 38.9412 145.45 38.8661 145.883 38.716C146.322 38.5601 146.7 38.3292 147.018 38.0232C147.335 37.7114 147.581 37.3246 147.754 36.8627L149.728 37.417C149.521 38.0867 149.171 38.6756 148.681 39.1837C148.19 39.6859 147.584 40.0785 146.862 40.3614C146.14 40.6386 145.329 40.7771 144.428 40.7771ZM155.089 37.4863L161.498 27.1979H163.853V40.5H161.809V30.2117L155.436 40.5H153.045V27.1979H155.089V37.4863ZM176.499 32.9137V34.8189H169.155V32.9137H176.499ZM169.64 27.1979V40.5H167.597V27.1979H169.64ZM178.058 27.1979V40.5H176.014V27.1979H178.058Z" fill="black"/>
</svg>
