<svg width="216" height="63" viewBox="0 0 216 63" fill="none" xmlns="http://www.w3.org/2000/svg">
<rect x="0.22583" width="215.419" height="63" rx="20.3226" fill="#ACE1F8"/>
<path d="M56.1133 24.6692V22.7639H69.4154V24.6692H63.8382V40.5H61.6905V24.6692H56.1133ZM71.0716 45.4883V27.1979H73.0462V29.311H73.2887C73.4388 29.0801 73.6466 28.7856 73.9122 28.4277C74.1835 28.064 74.5704 27.7407 75.0727 27.4578C75.5807 27.1691 76.2678 27.0247 77.1338 27.0247C78.2538 27.0247 79.2411 27.3048 80.0956 27.8648C80.95 28.4248 81.6169 29.2187 82.0961 30.2463C82.5753 31.274 82.8149 32.4864 82.8149 33.8836C82.8149 35.2923 82.5753 36.5134 82.0961 37.5469C81.6169 38.5746 80.9529 39.3713 80.1042 39.9371C79.2555 40.4971 78.2769 40.7771 77.1684 40.7771C76.3139 40.7771 75.6298 40.6357 75.116 40.3528C74.6021 40.0641 74.2066 39.7379 73.9295 39.3742C73.6524 39.0047 73.4388 38.6987 73.2887 38.4562H73.1155V45.4883H71.0716ZM73.0808 33.849C73.0808 34.8536 73.228 35.7398 73.5225 36.5077C73.8169 37.2697 74.2471 37.8673 74.8128 38.3003C75.3786 38.7275 76.0715 38.9412 76.8913 38.9412C77.7458 38.9412 78.4588 38.716 79.0304 38.2657C79.6077 37.8096 80.0407 37.1976 80.3294 36.4297C80.6238 35.6561 80.7711 34.7958 80.7711 33.849C80.7711 32.9137 80.6267 32.0707 80.3381 31.3202C80.0552 30.5639 79.625 29.9663 79.0477 29.5275C78.4761 29.083 77.7573 28.8607 76.8913 28.8607C76.0599 28.8607 75.3613 29.0714 74.7955 29.4929C74.2297 29.9086 73.8025 30.4917 73.5138 31.2423C73.2251 31.987 73.0808 32.8559 73.0808 33.849ZM91.3365 40.7771C90.1356 40.7771 89.082 40.4913 88.1755 39.9198C87.2749 39.3482 86.5705 38.5486 86.0624 37.5209C85.5601 36.4932 85.309 35.2923 85.309 33.9183C85.309 32.5326 85.5601 31.3231 86.0624 30.2896C86.5705 29.2562 87.2749 28.4537 88.1755 27.8821C89.082 27.3105 90.1356 27.0247 91.3365 27.0247C92.5374 27.0247 93.5881 27.3105 94.4888 27.8821C95.3952 28.4537 96.0996 29.2562 96.6019 30.2896C97.11 31.3231 97.364 32.5326 97.364 33.9183C97.364 35.2923 97.11 36.4932 96.6019 37.5209C96.0996 38.5486 95.3952 39.3482 94.4888 39.9198C93.5881 40.4913 92.5374 40.7771 91.3365 40.7771ZM91.3365 38.9412C92.2487 38.9412 92.9992 38.7073 93.5881 38.2397C94.177 37.772 94.6129 37.1572 94.8958 36.3951C95.1787 35.633 95.3202 34.8074 95.3202 33.9183C95.3202 33.0291 95.1787 32.2007 94.8958 31.4328C94.6129 30.6649 94.177 30.0443 93.5881 29.5708C92.9992 29.0974 92.2487 28.8607 91.3365 28.8607C90.4243 28.8607 89.6737 29.0974 89.0848 29.5708C88.4959 30.0443 88.0601 30.6649 87.7772 31.4328C87.4943 32.2007 87.3528 33.0291 87.3528 33.9183C87.3528 34.8074 87.4943 35.633 87.7772 36.3951C88.0601 37.1572 88.4959 37.772 89.0848 38.2397C89.6737 38.7073 90.4243 38.9412 91.3365 38.9412ZM107.758 37.7287L112.4 27.1979H114.34L108.59 40.5H106.927L101.281 27.1979H103.186L107.758 37.7287ZM102.528 27.1979V40.5H100.484V27.1979H102.528ZM112.989 40.5V27.1979H115.033V40.5H112.989ZM128.647 22.2097L129.686 23.4567C129.282 23.8493 128.814 24.1236 128.283 24.2795C127.752 24.4353 127.151 24.5306 126.482 24.5652C125.812 24.5999 125.067 24.6345 124.247 24.6692C123.324 24.7038 122.559 24.929 121.952 25.3447C121.346 25.7604 120.879 26.3608 120.549 27.146C120.22 27.9312 120.01 28.8953 119.917 30.0385H120.09C120.541 29.2071 121.164 28.5951 121.961 28.2025C122.758 27.8099 123.612 27.6136 124.525 27.6136C125.564 27.6136 126.499 27.8561 127.33 28.3411C128.162 28.8261 128.82 29.5449 129.305 30.4975C129.79 31.4501 130.032 32.625 130.032 34.0222C130.032 35.4136 129.784 36.6145 129.288 37.6248C128.797 38.6352 128.107 39.4146 127.218 39.9631C126.334 40.5058 125.298 40.7771 124.109 40.7771C122.919 40.7771 121.877 40.4971 120.982 39.9371C120.088 39.3713 119.392 38.5341 118.895 37.4256C118.399 36.3114 118.151 34.9344 118.151 33.2947V31.8745C118.151 28.9127 118.653 26.6668 119.657 25.1368C120.668 23.6069 122.186 22.8159 124.213 22.7639C124.929 22.7408 125.567 22.7351 126.127 22.7466C126.687 22.7582 127.175 22.7322 127.59 22.6687C128.006 22.6052 128.358 22.4522 128.647 22.2097ZM124.109 38.9412C124.911 38.9412 125.601 38.7391 126.179 38.335C126.762 37.9308 127.209 37.3621 127.521 36.6289C127.833 35.8899 127.989 35.021 127.989 34.0222C127.989 33.0522 127.83 32.2266 127.512 31.5454C127.201 30.8641 126.753 30.3445 126.17 29.9865C125.587 29.6286 124.888 29.4496 124.074 29.4496C123.48 29.4496 122.945 29.5506 122.472 29.7527C121.999 29.9548 121.594 30.2521 121.26 30.6447C120.925 31.0373 120.665 31.5165 120.48 32.0823C120.301 32.6481 120.206 33.2947 120.194 34.0222C120.194 35.5117 120.544 36.7039 121.242 37.5988C121.941 38.4937 122.896 38.9412 124.109 38.9412ZM135.203 37.4863L141.611 27.1979H143.967V40.5H141.923V30.2117L135.549 40.5H133.159V27.1979H135.203V37.4863ZM156.613 32.9137V34.8189H149.269V32.9137H156.613ZM149.754 27.1979V40.5H147.71V27.1979H149.754ZM158.172 27.1979V40.5H156.128V27.1979H158.172Z" fill="black"/>
</svg>
