<svg width="42" height="46" viewBox="0 0 42 46" fill="none" xmlns="http://www.w3.org/2000/svg">
<path d="M41.7071 8.86287C42.0976 8.47234 42.0976 7.83918 41.7071 7.44865L35.3431 1.0847C34.9526 0.694176 34.3195 0.694176 33.9289 1.0847C33.5384 1.47523 33.5384 2.10839 33.9289 2.49891L39.5858 8.15576L33.9289 13.8126C33.5384 14.2031 33.5384 14.8363 33.9289 15.2268C34.3195 15.6174 34.9526 15.6174 35.3432 15.2268L41.7071 8.86287ZM1.99129 45.2874C3.81295 31.5734 6.41429 22.6413 12.0085 17.0807C17.5707 11.552 26.3086 9.15578 41 9.15576V7.15576C26.1914 7.15578 16.7507 9.54716 10.5986 15.6623C4.47858 21.7455 1.82992 31.3134 0.00870705 45.0241L1.99129 45.2874Z" fill="black"/>
</svg>
