<svg width="97" height="97" viewBox="0 0 97 97" fill="none" xmlns="http://www.w3.org/2000/svg">
<path d="M48.1493 0.298828L89.8479 24.3735V72.5228L48.1493 96.5975L6.45079 72.5228L6.45079 24.3735L48.1493 0.298828Z" fill="#EBEBEB"/>
<path d="M39.4636 43.1768C41.1949 43.1768 42.5984 41.7733 42.5984 40.042C42.5984 38.3107 41.1949 36.9072 39.4636 36.9072C37.7323 36.9072 36.3289 38.3107 36.3289 40.042C36.3289 41.7733 37.7323 43.1768 39.4636 43.1768Z" fill="#8F00FF"/>
<path d="M46.1416 41.4089C45.7948 41.3917 45.4482 41.445 45.1227 41.5657C44.7972 41.6864 44.4996 41.872 44.2479 42.1111C43.9963 42.3503 43.7959 42.6381 43.6588 42.9571C43.5217 43.276 43.4509 43.6195 43.4505 43.9667V46.92H60.5267C60.6575 46.9188 60.7847 46.8773 60.891 46.8011C60.9972 46.7249 61.0774 46.6177 61.1205 46.4943C61.1636 46.3708 61.1676 46.237 61.1319 46.1112C61.0961 45.9854 61.0224 45.8738 60.9208 45.7914C59.0607 44.3084 54.7293 41.8442 46.1416 41.4089ZM41.0303 46.3897C41.0305 45.9989 40.8972 45.6197 40.6525 45.315C40.4078 45.0102 40.0664 44.7982 39.6848 44.7139L33.9356 43.4407C33.7925 43.4096 33.6442 43.4109 33.5017 43.4445C33.3591 43.4782 33.2259 43.5432 33.1117 43.6349C32.9975 43.7267 32.9053 43.8428 32.8418 43.9748C32.7783 44.1067 32.7451 44.2512 32.7446 44.3977V46.8278H41.0303V46.3897Z" fill="#8F00FF"/>
<path d="M67.9362 56.0521V43.6675C67.9362 43.2358 67.7648 42.8218 67.4595 42.5166C67.1543 42.2113 66.7403 42.0398 66.3086 42.0398C65.8769 42.0398 65.4629 42.2113 65.1577 42.5166C64.8524 42.8218 64.6809 43.2358 64.6809 43.6675V48.5944H30.3231V35.5094C30.3231 34.6048 29.5943 33.8789 28.694 33.8789C27.7923 33.8789 27.0649 34.6062 27.0649 35.5094V56.0521C26.471 56.349 25.9671 56.7991 25.6054 57.3559C25.2436 57.9128 25.0371 58.5561 25.0072 59.2194C24.9773 59.8827 25.125 60.542 25.4352 61.1291C25.7453 61.7162 26.2067 62.2099 26.7714 62.5591C27.3362 62.9082 27.984 63.1003 28.6478 63.1153C29.3117 63.1303 29.9675 62.9678 30.5475 62.6446C31.1275 62.3214 31.6107 61.8491 31.9471 61.2766C32.2835 60.7041 32.461 60.0522 32.4611 59.3882C32.4607 58.6809 32.2596 57.9881 31.8811 57.3906C31.5027 56.793 30.9624 56.3151 30.3231 56.0124V53.0633H64.6767V56.0124C64.0373 56.315 63.4969 56.7928 63.1184 57.3904C62.7399 57.988 62.5388 58.6808 62.5386 59.3882C62.5386 61.4455 64.2116 63.1199 66.2689 63.1199C68.3261 63.1199 69.9992 61.4455 69.9992 59.3882C69.9989 58.6955 69.8057 58.0165 69.4414 57.4273C69.077 56.838 68.5559 56.3619 67.9362 56.0521ZM30.8292 59.3882C30.8292 60.5423 29.8892 61.4852 28.7323 61.4852C28.3417 61.4837 27.9592 61.3734 27.6278 61.1667C27.2965 60.96 27.0293 60.665 26.8562 60.3148C26.6832 59.9646 26.6112 59.5731 26.6483 59.1843C26.6854 58.7955 26.8302 58.4247 27.0663 58.1136V58.356C27.0663 58.7881 27.238 59.2025 27.5435 59.508C27.849 59.8135 28.2634 59.9851 28.6954 59.9851C29.1275 59.9851 29.5418 59.8135 29.8473 59.508C30.1528 59.2025 30.3245 58.7881 30.3245 58.356V58.0243C30.6392 58.3901 30.8292 58.8679 30.8292 59.3882ZM66.2689 61.4852C65.868 61.4847 65.4756 61.3694 65.1382 61.1529C64.8007 60.9364 64.5324 60.6278 64.3649 60.2635C64.1974 59.8993 64.1377 59.4947 64.193 59.0976C64.2482 58.7005 64.4161 58.3275 64.6767 58.0229V58.3518C64.6767 58.7835 64.8482 59.1975 65.1534 59.5027C65.4587 59.808 65.8727 59.9794 66.3043 59.9794C66.736 59.9794 67.15 59.808 67.4553 59.5027C67.7605 59.1975 67.932 58.7835 67.932 58.3518V58.1136C68.1691 58.4242 68.3148 58.7949 68.3526 59.1839C68.3904 59.5728 68.3188 59.9646 68.1459 60.3151C67.973 60.6655 67.7057 60.9608 67.3741 61.1675C67.0425 61.3742 66.6597 61.4843 66.2689 61.4852Z" fill="#8F00FF"/>
</svg>
