<svg width="80" height="80" viewBox="0 0 80 80" fill="none" xmlns="http://www.w3.org/2000/svg">
<path d="M40 0L74.641 20V60L40 80L5.35898 60L5.35898 20L40 0Z" fill="#E8E8E8"/>
<path d="M44.1647 33.5464L46.4147 34.6714C46.5927 34.7603 46.7988 34.7748 46.9875 34.7118C47.081 34.6806 47.1674 34.6313 47.2418 34.5667C47.3162 34.5021 47.3772 34.4235 47.4212 34.3354C47.4652 34.2472 47.4914 34.1513 47.4984 34.053C47.5053 33.9547 47.4928 33.856 47.4616 33.7625C47.4304 33.6691 47.3811 33.5827 47.3165 33.5083C47.2519 33.4338 47.1733 33.3729 47.0852 33.3289L46.1769 32.8751L47.0852 32.4206C47.1764 32.3785 47.2582 32.3185 47.3257 32.2441C47.3933 32.1698 47.4452 32.0827 47.4784 31.9879C47.5117 31.8931 47.5255 31.7926 47.5192 31.6924C47.5128 31.5921 47.4864 31.4942 47.4415 31.4043C47.3966 31.3145 47.3341 31.2346 47.2577 31.1694C47.1813 31.1042 47.0926 31.0549 46.9968 31.0247C46.901 30.9944 46.8002 30.9836 46.7002 30.9931C46.6002 31.0025 46.5031 31.0319 46.4147 31.0796L44.1647 32.2046C44.0403 32.267 43.9357 32.3627 43.8626 32.4811C43.7895 32.5995 43.7507 32.7359 43.7507 32.8751C43.7507 33.0143 43.7895 33.1507 43.8626 33.2691C43.9357 33.3875 44.0403 33.4833 44.1647 33.5456V33.5464ZM38.8352 32.2039L36.5852 31.0789C36.497 31.0348 36.4011 31.0086 36.3028 31.0017C36.2045 30.9947 36.1058 31.0072 36.0123 31.0384C35.9189 31.0696 35.8325 31.1189 35.7581 31.1835C35.6837 31.2481 35.6227 31.3267 35.5787 31.4149C35.5347 31.503 35.5084 31.599 35.5015 31.6973C35.4945 31.7955 35.507 31.8942 35.5382 31.9877C35.5694 32.0812 35.6187 32.1676 35.6833 32.242C35.7479 32.3164 35.8265 32.3773 35.9147 32.4214L36.8229 32.8751L35.9147 33.3296C35.7431 33.4221 35.6143 33.5778 35.5556 33.7636C35.4968 33.9494 35.5127 34.1508 35.5998 34.3252C35.687 34.4995 35.8386 34.633 36.0225 34.6975C36.2064 34.762 36.4082 34.7523 36.5852 34.6706L38.8352 33.5456C38.9596 33.4833 39.0642 33.3875 39.1373 33.2691C39.2104 33.1507 39.2491 33.0143 39.2491 32.8751C39.2491 32.7359 39.2104 32.5995 39.1373 32.4811C39.0642 32.3627 38.9596 32.267 38.8352 32.2046V32.2039ZM30.9999 47.5001C31.1789 47.5003 31.3519 47.4362 31.4874 47.3194L36.7374 42.8194C36.8153 42.7563 36.8798 42.6782 36.927 42.5898C36.9742 42.5013 37.0032 42.4043 37.0123 42.3045C37.0213 42.2047 37.0103 42.104 36.9798 42.0085C36.9494 41.913 36.9 41.8246 36.8348 41.7485C36.7696 41.6724 36.6898 41.6101 36.6 41.5654C36.5103 41.5207 36.4126 41.4944 36.3125 41.4881C36.2125 41.4818 36.1122 41.4956 36.0176 41.5287C35.923 41.5618 35.836 41.6135 35.7617 41.6809L30.5117 46.1809C30.3954 46.2806 30.3124 46.4136 30.274 46.5619C30.2356 46.7102 30.2434 46.8667 30.2966 47.0104C30.3498 47.1541 30.4457 47.2781 30.5714 47.3656C30.6972 47.4532 30.8467 47.5001 30.9999 47.5001Z" fill="#8F00FF"/>
<path d="M54.7735 46.6706L53.206 46.2783C54.4168 44.6019 54.9474 42.529 54.691 40.4771L53.2038 28.5821C52.8471 25.7296 51.461 23.1056 49.3059 21.2032C47.1508 19.3007 44.375 18.2509 41.5004 18.2509C38.6257 18.2509 35.85 19.3007 33.6949 21.2032C31.5398 23.1056 30.1536 25.7296 29.797 28.5821L28.3105 40.4771C28.2186 41.2235 28.2292 41.979 28.342 42.7226L23.035 46.9113C22.887 47.0282 22.7885 47.1965 22.759 47.3827C22.7295 47.569 22.7713 47.7595 22.876 47.9163L23.9695 49.5566C24.1262 49.7905 24.3018 50.0113 24.4945 50.2166C24.3336 50.7166 24.2511 51.2385 24.25 51.7638V60.2501C24.25 60.449 24.329 60.6397 24.4697 60.7804C24.6103 60.921 24.8011 61.0001 25 61.0001H58C58.1989 61.0001 58.3897 60.921 58.5303 60.7804C58.671 60.6397 58.75 60.449 58.75 60.2501V51.7638C58.7513 50.5927 58.3605 49.4548 57.6397 48.5317C56.919 47.6086 55.91 46.9534 54.7735 46.6706ZM29.7985 40.6631L31.285 28.7681C31.5962 26.2783 32.806 23.9879 34.6871 22.3274C36.5681 20.6669 38.9909 19.7505 41.5 19.7505C44.0091 19.7505 46.4319 20.6669 48.3129 22.3274C50.194 23.9879 51.4038 26.2783 51.715 28.7681L53.2023 40.6631C53.3181 41.5954 53.2366 42.5417 52.9629 43.4405C52.6892 44.3393 52.2296 45.1705 51.6138 45.8801L46.75 44.6651V42.8028C47.9107 41.9715 48.8564 40.8752 49.5086 39.6052C50.1608 38.3351 50.5007 36.9278 50.5 35.5001V30.2501C50.4994 29.6535 50.2622 29.0816 49.8403 28.6597C49.4185 28.2379 48.8466 28.0007 48.25 28.0001H45.1075C44.323 28.0011 43.5479 27.8291 42.8374 27.4965C42.1269 27.1639 41.4984 26.6787 40.9967 26.0756C40.3464 25.293 39.441 24.7649 38.4397 24.5841C37.4384 24.4033 36.4054 24.5814 35.5225 25.0871C34.605 25.613 33.8424 26.3716 33.3118 27.2864C32.7811 28.2012 32.5011 29.2397 32.5 30.2973V35.5001C32.5037 36.6665 32.7374 37.8208 33.1877 38.8968L29.7512 41.6096C29.7449 41.2933 29.7607 40.9771 29.7985 40.6631ZM44.5 48.9828V47.5001C44.4997 46.8854 44.3483 46.2803 44.0592 45.7379C43.77 45.1956 43.3519 44.7326 42.8418 44.3898C43.6743 44.2648 44.485 44.0229 45.25 43.6713V46.7501C45.2488 47.5559 44.9855 48.3396 44.5 48.9828ZM38.5 50.5001V47.5001C38.5 46.9033 38.7371 46.331 39.159 45.9091C39.581 45.4871 40.1533 45.2501 40.75 45.2501C41.3467 45.2501 41.919 45.4871 42.341 45.9091C42.7629 46.331 43 46.9033 43 47.5001V50.5001C43 51.0968 42.7629 51.6691 42.341 52.091C41.919 52.513 41.3467 52.7501 40.75 52.7501C40.1533 52.7501 39.581 52.513 39.159 52.091C38.7371 51.6691 38.5 51.0968 38.5 50.5001ZM42.697 37.7073C42.343 37.1806 41.8839 36.7327 41.3486 36.3917C40.8133 36.0508 40.2134 35.8241 39.5864 35.7259C38.9593 35.6278 38.3188 35.6602 37.7049 35.8213C37.0911 35.9823 36.5171 36.2685 36.019 36.6618L34.414 37.9293C34.1406 37.1485 34.0006 36.3273 34 35.5001V30.2966C34.0009 29.5034 34.211 28.7245 34.6091 28.0384C35.0071 27.3524 35.5791 26.7835 36.2673 26.3891C36.8443 26.0586 37.5194 25.9422 38.1738 26.0605C38.8282 26.1787 39.4199 26.524 39.8447 27.0356C40.487 27.8078 41.2916 28.429 42.2012 28.8549C43.1108 29.2809 44.1031 29.5011 45.1075 29.5001H48.25C48.4489 29.5001 48.6397 29.5791 48.7803 29.7197C48.921 29.8604 49 30.0511 49 30.2501V35.5001C48.9987 37.2343 48.3952 38.9143 47.2926 40.253C46.1901 41.5916 44.6569 42.5059 42.955 42.8396L43.3225 41.4746C43.4937 40.8384 43.5264 40.1729 43.4185 39.5231C43.3106 38.8732 43.0646 38.254 42.697 37.7073ZM36.9482 37.8393C37.2841 37.5738 37.6711 37.3806 38.0852 37.2718C38.4992 37.1631 38.9313 37.1411 39.3542 37.2073C39.7772 37.2735 40.1819 37.4265 40.5429 37.6565C40.9039 37.8866 41.2134 38.1889 41.452 38.5443C41.7 38.913 41.8659 39.3307 41.9387 39.769C42.0114 40.2074 41.9892 40.6563 41.8735 41.0853L41.1453 43.7898C41.0143 43.7694 40.8824 43.7561 40.75 43.7501C39.7558 43.7512 38.8027 44.1467 38.0997 44.8497C37.3967 45.5527 37.0012 46.5059 37 47.5001V50.5001C37.0016 51.0859 37.1409 51.6631 37.4067 52.1851C37.6725 52.7071 38.0572 53.1594 38.53 53.5053L38.137 54.9626L35.035 51.4736C34.351 50.7099 33.453 50.1697 32.4579 49.9232C31.4627 49.6766 30.4164 49.7352 29.455 50.0913C28.6985 50.3784 27.8667 50.3995 27.0966 50.1512C26.3265 49.9028 25.6638 49.3998 25.2175 48.7248L24.508 47.6598L36.9482 37.8393ZM25.75 51.7638C25.7554 51.5821 25.7749 51.401 25.8085 51.2223C26.4444 51.5626 27.1457 51.7631 27.8654 51.8103C28.5851 51.8575 29.3066 51.7504 29.9815 51.4961C30.6589 51.245 31.3963 51.2036 32.0975 51.3772C32.7988 51.5508 33.4317 51.9315 33.9137 52.4696L37.939 56.9981C38.0093 57.0774 38.0957 57.1409 38.1924 57.1843C38.2891 57.2278 38.394 57.2502 38.5 57.2501C38.5581 57.2501 38.6159 57.2436 38.6725 57.2306C38.8042 57.1994 38.9251 57.1331 39.0223 57.0389C39.1195 56.9446 39.1893 56.8258 39.2245 56.6951L39.7967 54.5681L42.487 59.5001H31.75V55.7501C31.75 55.5511 31.671 55.3604 31.5303 55.2197C31.3897 55.0791 31.1989 55.0001 31 55.0001C30.8011 55.0001 30.6103 55.0791 30.4697 55.2197C30.329 55.3604 30.25 55.5511 30.25 55.7501V59.5001H25.75V51.7638ZM44.1955 59.5001L41.3013 54.1946C42.0437 54.084 42.7358 53.7529 43.2877 53.2441C43.8396 52.7354 44.2259 52.0725 44.3965 51.3416C47.2765 55.1546 49.4275 58.0143 50.5315 59.5001H44.1955ZM57.25 59.5001H52.75V55.7501C52.75 55.5511 52.671 55.3604 52.5303 55.2197C52.3897 55.0791 52.1989 55.0001 52 55.0001C51.8011 55.0001 51.6103 55.0791 51.4697 55.2197C51.329 55.3604 51.25 55.5511 51.25 55.7501V57.9551C50.761 57.2951 46.5355 51.6836 45.424 50.2121C46.2749 49.2593 46.7468 48.0275 46.75 46.7501V46.2101L54.409 48.1248C55.2209 48.327 55.9418 48.7952 56.4567 49.4547C56.9716 50.1142 57.2508 50.9271 57.25 51.7638V59.5001ZM25 37.7501C25 37.5511 24.921 37.3604 24.7803 37.2197C24.6397 37.0791 24.4489 37.0001 24.25 37.0001H21.25C21.0511 37.0001 20.8603 37.0791 20.7197 37.2197C20.579 37.3604 20.5 37.5511 20.5 37.7501C20.5 37.949 20.579 38.1397 20.7197 38.2804C20.8603 38.421 21.0511 38.5001 21.25 38.5001H24.25C24.4489 38.5001 24.6397 38.421 24.7803 38.2804C24.921 38.1397 25 37.949 25 37.7501Z" fill="#8F00FF"/>
<path d="M25.6701 40.4148C25.626 40.3267 25.565 40.2481 25.4906 40.1836C25.4161 40.1191 25.3297 40.0698 25.2363 40.0387C25.1428 40.0075 25.0441 39.9951 24.9458 40.0021C24.8476 40.0092 24.7516 40.0355 24.6636 40.0796L21.6636 41.5796C21.492 41.6721 21.3632 41.8277 21.3044 42.0136C21.2457 42.1994 21.2616 42.4008 21.3487 42.5751C21.4359 42.7494 21.5875 42.883 21.7714 42.9475C21.9553 43.0119 22.1571 43.0023 22.3341 42.9206L25.3341 41.4206C25.5119 41.3317 25.6473 41.1758 25.7103 40.9872C25.7733 40.7986 25.7588 40.5927 25.6701 40.4148Z" fill="#8F00FF"/>
</svg>
