<svg width="80" height="80" viewBox="0 0 80 80" fill="none" xmlns="http://www.w3.org/2000/svg">
<path d="M40 0L74.641 20V60L40 80L5.35898 60L5.35898 20L40 0Z" fill="#E8E8E8"/>
<g clip-path="url(#clip0_507_8497)">
<path d="M52.9078 46.9225C57.8411 46.1715 61.6211 41.9111 61.6211 36.7679C61.6211 31.0948 51.3489 21.626 51.3489 21.626C51.3489 21.626 46.5245 26.0734 43.4881 30.6984M35.508 30.6985C32.4717 26.0735 27.6472 21.6261 27.6472 21.6261C27.6472 21.6261 17.375 31.0948 17.375 36.7679C17.375 41.9111 21.1549 46.1715 26.0883 46.9225" stroke="#8F00FF" stroke-width="2.75392" stroke-miterlimit="10"/>
<path d="M52.916 46.451C52.916 53.8621 46.9081 59.87 39.497 59.87C32.086 59.87 26.0781 53.8621 26.0781 46.451C26.0781 39.04 39.497 26.6707 39.497 26.6707C39.497 26.6707 52.916 39.04 52.916 46.451Z" stroke="#8F00FF" stroke-width="2.75392" stroke-miterlimit="10"/>
</g>
<defs>
<clipPath id="clip0_507_8497">
<rect width="47" height="47" fill="white" transform="translate(16 17)"/>
</clipPath>
</defs>
</svg>
