<svg width="80" height="80" viewBox="0 0 80 80" fill="none" xmlns="http://www.w3.org/2000/svg">
<path d="M40 0L74.641 20V60L40 80L5.35898 60L5.35898 20L40 0Z" fill="#E8E8E8"/>
<g clip-path="url(#clip0_507_8508)">
<path d="M38.5833 50.2867C37.8333 50.74 37.0583 51.185 36.2358 51.63C23.0692 44.3058 16.6667 37.3475 16.6667 30.3583C16.6667 24.6433 20.6975 20.3333 26.0417 20.3333C27.8754 20.3193 29.6878 20.7268 31.339 21.5243C32.9902 22.3219 34.4361 23.4883 35.565 24.9333C35.6417 25.0437 35.7441 25.1339 35.8632 25.1961C35.9823 25.2584 36.1147 25.2909 36.2492 25.2909C36.3836 25.2909 36.516 25.2584 36.6352 25.1961C36.7543 25.1339 36.8566 25.0437 36.9333 24.9333C38.0627 23.4883 39.5089 22.322 41.1603 21.5245C42.8118 20.7269 44.6244 20.3194 46.4583 20.3333C47.9743 20.3198 49.4692 20.6892 50.8043 21.4074C52.1394 22.1256 53.2716 23.1693 54.0958 24.4417C54.1551 24.535 54.2324 24.6156 54.3232 24.6788C54.414 24.742 54.5164 24.7865 54.6245 24.8097C54.7327 24.8329 54.8444 24.8343 54.9531 24.8139C55.0618 24.7935 55.1653 24.7516 55.2577 24.6908C55.35 24.63 55.4294 24.5514 55.491 24.4595C55.5527 24.3677 55.5955 24.2646 55.6169 24.1561C55.6383 24.0476 55.6378 23.9359 55.6156 23.8275C55.5934 23.7192 55.5499 23.6163 55.4875 23.525C54.5131 22.0206 53.1747 20.7866 51.5963 19.9373C50.0179 19.088 48.2506 18.651 46.4583 18.6667C44.5383 18.6592 42.6381 19.0538 40.8799 19.8253C39.1217 20.5968 37.5445 21.7279 36.25 23.1458C34.9555 21.7279 33.3783 20.5968 31.6201 19.8253C29.8619 19.0538 27.9617 18.6592 26.0417 18.6667C19.85 18.6667 15 23.8025 15 30.3583C15 38.0067 21.6825 45.4417 35.4517 53.0992C35.6999 53.228 35.9754 53.2954 36.255 53.2958C36.5408 53.2958 36.8217 53.2242 37.0717 53.0867C37.872 52.6431 38.6643 52.1852 39.4483 51.7133C39.6375 51.5986 39.7734 51.4135 39.8261 51.1986C39.8787 50.9837 39.8439 50.7567 39.7292 50.5675C39.6145 50.3783 39.4293 50.2424 39.2144 50.1898C38.9995 50.1371 38.7725 50.172 38.5833 50.2867Z" fill="#8F00FF"/>
<path d="M18.3359 30.3583C18.3359 30.5793 18.4237 30.7913 18.58 30.9476C18.7363 31.1039 18.9483 31.1917 19.1693 31.1917C19.3903 31.1917 19.6022 31.1039 19.7585 30.9476C19.9148 30.7913 20.0026 30.5793 20.0026 30.3583C20.0026 27.1142 22.1201 23.6667 26.0443 23.6667C26.2653 23.6667 26.4772 23.5789 26.6335 23.4226C26.7898 23.2663 26.8776 23.0543 26.8776 22.8333C26.8776 22.6123 26.7898 22.4004 26.6335 22.2441C26.4772 22.0878 26.2653 22 26.0443 22C21.0376 22 18.3359 26.3058 18.3359 30.3583ZM51.6693 26.1667C48.4989 26.1651 45.4318 27.2936 43.0186 29.3498C40.6054 31.4059 39.0041 34.2549 38.5023 37.3852C38.0005 40.5156 38.6309 43.7224 40.2805 46.4298C41.93 49.1372 44.4906 51.168 47.5026 52.1575V55.3333C47.5044 55.9158 47.6594 56.4876 47.9519 56.9913C48.2444 57.4951 48.6643 57.913 49.1693 58.2033V62.8333C49.1693 63.4964 49.4327 64.1323 49.9015 64.6011C50.3703 65.0699 51.0062 65.3333 51.6693 65.3333C52.3323 65.3333 52.9682 65.0699 53.437 64.6011C53.9059 64.1323 54.1693 63.4964 54.1693 62.8333V58.2033C54.6743 57.913 55.0941 57.4951 55.3866 56.9913C55.6791 56.4876 55.8341 55.9158 55.8359 55.3333V52.1575C58.8479 51.168 61.4085 49.1372 63.0581 46.4298C64.7076 43.7224 65.3381 40.5156 64.8362 37.3852C64.3344 34.2549 62.7331 31.4059 60.3199 29.3498C57.9067 27.2936 54.8396 26.1651 51.6693 26.1667ZM52.5026 62.8333C52.5026 63.0544 52.4148 63.2663 52.2585 63.4226C52.1022 63.5789 51.8903 63.6667 51.6693 63.6667C51.4483 63.6667 51.2363 63.5789 51.08 63.4226C50.9237 63.2663 50.8359 63.0544 50.8359 62.8333V58.6667H52.5026V62.8333ZM54.1693 55.3333C54.1693 55.7754 53.9937 56.1993 53.6811 56.5118C53.3686 56.8244 52.9446 57 52.5026 57H50.8359C50.3939 57 49.97 56.8244 49.6574 56.5118C49.3449 56.1993 49.1693 55.7754 49.1693 55.3333V52.59C50.8201 52.915 52.5184 52.915 54.1693 52.59V55.3333ZM52.5026 51.1242V49.5C52.5026 49.279 52.4148 49.067 52.2585 48.9107C52.1022 48.7545 51.8903 48.6667 51.6693 48.6667C51.4483 48.6667 51.2363 48.7545 51.08 48.9107C50.9237 49.067 50.8359 49.279 50.8359 49.5V51.1242C48.0412 50.9212 45.4129 49.7191 43.4315 47.7377C41.4502 45.7564 40.2481 43.1281 40.0451 40.3333H41.6693C41.8903 40.3333 42.1022 40.2455 42.2585 40.0893C42.4148 39.933 42.5026 39.721 42.5026 39.5C42.5026 39.279 42.4148 39.067 42.2585 38.9107C42.1022 38.7545 41.8903 38.6667 41.6693 38.6667H40.0451C40.2481 35.8719 41.4502 33.2436 43.4315 31.2623C45.4129 29.2809 48.0412 28.0788 50.8359 27.8758V29.5C50.8359 29.721 50.9237 29.933 51.08 30.0893C51.2363 30.2455 51.4483 30.3333 51.6693 30.3333C51.8903 30.3333 52.1022 30.2455 52.2585 30.0893C52.4148 29.933 52.5026 29.721 52.5026 29.5V27.8758C55.2973 28.0788 57.9256 29.2809 59.907 31.2623C61.8884 33.2436 63.0904 35.8719 63.2934 38.6667H61.6693C61.4483 38.6667 61.2363 38.7545 61.08 38.9107C60.9237 39.067 60.8359 39.279 60.8359 39.5C60.8359 39.721 60.9237 39.933 61.08 40.0893C61.2363 40.2455 61.4483 40.3333 61.6693 40.3333H63.2934C63.0904 43.1281 61.8884 45.7564 59.907 47.7377C57.9256 49.7191 55.2973 50.9212 52.5026 51.1242Z" fill="#8F00FF"/>
<path d="M57.7429 32.2441L53.3479 36.6391C52.8399 36.3328 52.2585 36.1695 51.6654 36.1666C51.0061 36.1666 50.3616 36.3621 49.8135 36.7284C49.2653 37.0947 48.8381 37.6153 48.5858 38.2243C48.3335 38.8334 48.2675 39.5037 48.3961 40.1503C48.5247 40.7969 48.8422 41.3908 49.3083 41.857C49.7745 42.3232 50.3685 42.6406 51.0151 42.7692C51.6617 42.8979 52.3319 42.8318 52.941 42.5796C53.5501 42.3273 54.0707 41.9 54.4369 41.3519C54.8032 40.8037 54.9987 40.1592 54.9987 39.5C54.9958 38.9068 54.8325 38.3254 54.5262 37.8175L58.9212 33.4225C59.073 33.2653 59.157 33.0548 59.1551 32.8363C59.1532 32.6178 59.0656 32.4088 58.9111 32.2543C58.7565 32.0998 58.5475 32.0121 58.329 32.0102C58.1105 32.0083 57.9 32.0923 57.7429 32.2441ZM51.6654 41.1666C51.4465 41.1668 51.2297 41.1238 51.0275 41.0402C50.8252 40.9566 50.6414 40.834 50.4865 40.6793C50.3316 40.5247 50.2087 40.3411 50.1248 40.1389C50.0409 39.9368 49.9976 39.7201 49.9975 39.5012C49.9973 39.2823 50.0402 39.0656 50.1238 38.8633C50.2074 38.661 50.3301 38.4772 50.4847 38.3223C50.6394 38.1674 50.823 38.0445 51.0252 37.9606C51.2273 37.8767 51.444 37.8335 51.6629 37.8333C52.1049 37.833 52.5289 38.0082 52.8417 38.3206C53.1545 38.6329 53.3305 39.0567 53.3308 39.4987C53.3311 39.9407 53.1558 40.3648 52.8435 40.6776C52.5312 40.9904 52.1074 41.1663 51.6654 41.1666Z" fill="#8F00FF"/>
</g>
<defs>
<clipPath id="clip0_507_8508">
<rect width="50" height="50" fill="white" transform="translate(15 17)"/>
</clipPath>
</defs>
</svg>
