<svg width="80" height="80" viewBox="0 0 80 80" fill="none" xmlns="http://www.w3.org/2000/svg">
<path d="M40 0L74.641 20V60L40 80L5.35898 60L5.35898 20L40 0Z" fill="#E8E8E8"/>
<g clip-path="url(#clip0_507_8518)">
<path fill-rule="evenodd" clip-rule="evenodd" d="M39.1865 40.1895C34.2178 40.1895 30.0771 35.0137 29.5596 28.1816C29.042 22.9023 29.7666 20.9355 29.8701 20.625C31.5263 16.6914 35.4599 14 39.8076 14C42.6025 14 45.0869 15.1387 46.7431 17.1055C48.2959 18.8652 49.8486 22.2812 48.917 28.0781C48.8135 29.0098 48.7099 29.9414 48.5029 30.7695C48.3994 31.0801 48.1924 31.2871 47.9853 31.2871C45.6045 32.1152 44.0517 34.5996 44.0517 37.498V38.0156C44.0517 38.3262 43.9482 38.5332 43.7412 38.6367C42.3955 39.6719 40.7392 40.1895 39.1865 40.1895ZM31.2158 21.2461C31.2158 21.3496 30.4912 23.1094 31.0088 28.0781C31.2158 30.9766 32.251 33.7715 33.8037 35.7383C35.2529 37.7051 37.2197 38.7402 39.1865 38.7402C40.4287 38.7402 41.4638 38.4297 42.6025 37.7051V37.498C42.6025 34.1855 44.4658 31.1836 47.1572 30.1484C47.2607 29.4238 47.3642 28.5957 47.4678 27.8711C48.1924 23.627 47.5713 20.3145 45.6045 18.0371C44.2588 16.3809 42.0849 15.4492 39.8076 15.4492C35.9775 15.4492 32.5615 17.7266 31.2158 21.1426V21.2461Z" fill="#8F00FF"/>
<path fill-rule="evenodd" clip-rule="evenodd" d="M32.4609 28.8027H30.2871C29.873 28.8027 29.5625 28.4922 29.5625 28.0781C29.5625 27.6641 29.873 27.3535 30.2871 27.3535H31.7363C31.7363 25.5938 32.5645 24.1445 34.0137 23.0059C35.3594 21.9707 37.1191 21.2461 38.8789 20.625C42.0879 19.3828 44.0547 18.5547 43.8477 16.1738C43.7441 15.8633 44.0547 15.4492 44.4688 15.4492C44.8828 15.3457 45.1934 15.6563 45.2969 16.0703C45.4004 17.7266 44.8828 18.9688 43.5371 20.0039C42.3984 20.832 40.9492 21.3496 39.3965 21.9707C36.084 23.2129 32.9785 24.3516 33.1855 28.0781C33.1855 28.2852 33.082 28.3887 32.9785 28.5957C32.7715 28.6992 32.668 28.8027 32.4609 28.8027Z" fill="#8F00FF"/>
<path fill-rule="evenodd" clip-rule="evenodd" d="M48.1951 28.9062H46.1248C45.9177 28.9062 45.7107 28.8027 45.6072 28.6992C45.4002 28.5957 45.4002 28.3887 45.4002 28.1816C45.6072 24.9726 43.0193 20.832 42.3982 19.9004C42.1912 19.5898 42.1912 19.1758 42.5017 18.8652C42.9158 18.6582 43.3299 18.7617 43.5369 19.0722C44.2615 20.0039 46.7459 24.041 46.8494 27.457H48.1951C48.6091 27.457 48.9197 27.7676 48.9197 28.1816C48.9197 28.5957 48.6091 28.9062 48.1951 28.9062ZM41.9842 67C40.0174 67 37.947 66.6894 35.8767 66.0683C35.7732 66.0683 35.5662 66.0683 35.4627 66.1719C33.0818 66.3789 31.2185 66.4824 30.0799 66.4824H29.7693C26.7674 66.4824 23.5584 63.8945 22.8338 60.9961C22.6267 59.8574 22.4197 58.8223 22.1092 57.6836C21.5916 55.5098 21.074 53.2324 20.6599 50.9551C20.1424 48.2637 20.4529 46.1933 21.4881 44.8476C22.7302 43.2949 24.49 43.0879 24.697 43.0879C31.0115 42.7773 32.9783 40.8105 33.2888 40.293V37.1875C33.2888 36.7734 33.7029 36.4629 34.0134 36.4629C34.4275 36.4629 34.7381 36.7734 34.7381 37.1875V40.8105C34.531 41.1211 32.8748 44.123 24.8006 44.5371C24.697 44.5371 23.4549 44.6406 22.6267 45.6758C21.7986 46.8144 21.5916 48.4707 22.1092 50.748C22.5232 52.9219 23.0408 55.1992 23.5584 57.373C23.7654 58.5117 24.0759 59.5469 24.283 60.6855C24.8006 62.9629 27.492 65.1367 29.8728 65.0332H29.9763C31.115 65.0332 32.9783 64.9297 35.2556 64.7226C35.4627 64.7226 35.5662 64.6191 35.6697 64.6191H35.8767C43.1228 63.6875 51.8181 60.8926 52.3357 52.5078V43.2949C52.3357 43.0879 52.4392 42.8808 52.5427 42.7773C52.7498 42.6738 52.9568 42.5703 53.1638 42.5703C56.4763 42.8808 58.5466 45.4687 58.6502 49.1953C58.6502 55.4062 56.3728 60.582 52.1287 63.791C49.9549 65.3437 47.4705 66.3789 44.6756 66.793C43.8474 66.8965 42.9158 67 41.9842 67ZM39.9138 65.4473C44.158 65.8613 48.1951 64.9297 51.197 62.5488C55.1306 59.6504 57.2009 54.8887 57.2009 49.1953C57.0974 47.125 56.2693 44.8476 53.7849 44.2265V52.6113C53.3709 59.1328 48.6092 63.4805 39.9138 65.4473Z" fill="#8F00FF"/>
<path fill-rule="evenodd" clip-rule="evenodd" d="M37.9474 61.3066C36.8088 61.3066 35.7736 61.2031 34.842 60.9961C32.7717 60.4785 31.1154 59.5469 29.9767 58.0977C28.7345 56.5449 28.1135 54.3711 28.3205 51.8867C28.3205 51.4727 28.631 51.1621 29.0451 51.1621C29.4592 51.1621 29.7697 51.5762 29.7697 51.8867C29.4592 57.166 32.5646 59.0293 35.1525 59.5469C36.0842 59.7539 37.0158 59.8574 37.9474 59.8574C43.7443 59.8574 50.5763 56.4414 52.4396 52.0938C52.5431 51.6797 52.9572 51.4727 53.3713 51.6797C53.6818 51.7832 53.8888 52.3008 53.7853 52.6113C52.5431 55.4062 49.6447 57.9941 45.8146 59.6504C43.2267 60.7891 40.4318 61.3066 37.9474 61.3066ZM49.4377 45.3652C45.6076 45.3652 42.6056 41.8457 42.6056 37.498C42.6056 33.1504 45.6076 29.6309 49.4377 29.6309C53.2677 29.6309 56.3732 33.1504 56.3732 37.498C56.3732 41.8457 53.2677 45.3652 49.4377 45.3652ZM49.4377 31.0801C46.4357 31.0801 44.0549 33.9785 44.0549 37.498C44.0549 41.0176 46.4357 43.916 49.4377 43.916C52.4396 43.916 54.924 41.0176 54.924 37.498C54.924 33.9785 52.4396 31.0801 49.4377 31.0801Z" fill="#8F00FF"/>
<path fill-rule="evenodd" clip-rule="evenodd" d="M46.9525 47.0215C46.2279 47.0215 45.5033 46.918 44.5716 46.6074C44.2611 46.4004 43.847 46.2969 43.5365 46.1933C40.5345 45.2617 37.429 44.3301 33.3919 37.498C33.1849 37.1875 33.3919 36.7734 33.7025 36.5664C34.013 36.3594 34.5306 36.4629 34.6341 36.7734C38.3607 43.0879 41.2591 44.0195 43.9505 44.8476C44.2611 44.9512 44.6751 45.0547 45.0892 45.1582C46.3314 45.6758 47.263 45.6758 47.8841 45.3652C48.1947 45.2617 48.4017 44.9512 48.5052 44.5371C48.6087 44.123 48.9193 43.916 49.3333 43.916C49.7474 44.0195 49.9544 44.4336 49.8509 44.8476C49.6439 45.6758 49.2298 46.2969 48.5052 46.7109C48.0911 46.918 47.5736 47.0215 46.9525 47.0215Z" fill="#8F00FF"/>
<path fill-rule="evenodd" clip-rule="evenodd" d="M40.2231 61.2031C39.9126 61.2031 39.6021 60.9961 39.4985 60.6855C38.6704 58.2012 38.981 55.5098 40.4302 52.8184C41.0513 51.7832 41.5688 51.0586 42.0864 50.4375C40.4302 49.9199 38.7739 48.6777 37.2212 46.918C35.6685 45.2617 34.3228 42.9844 33.3911 40.8105C33.2876 40.3965 33.3911 39.9824 33.8052 39.8789C34.1157 39.6719 34.6333 39.8789 34.7368 40.1895C36.3931 44.2266 39.8091 48.7812 43.5356 49.2988C43.8462 49.2988 44.0532 49.5059 44.1567 49.8164C44.2603 50.127 44.1567 50.334 43.9497 50.541C43.9497 50.6445 39.0845 55.0957 40.8442 60.168C41.0513 60.582 40.8442 60.9961 40.4302 61.0996C40.3267 61.2031 40.3267 61.2031 40.2231 61.2031ZM29.8716 43.8125C29.6646 43.8125 29.4575 43.709 29.354 43.502C29.0435 43.2949 29.0435 42.7773 29.354 42.4668C30.2856 41.6387 30.8032 36.7734 31.0103 33.668C31.0103 33.2539 31.3208 32.9434 31.7349 32.9434C32.1489 32.9434 32.4595 33.3574 32.4595 33.668C32.4595 33.7715 32.356 35.7383 32.0454 37.9121C31.5278 42.0527 30.8032 43.0879 30.3892 43.6055C30.1821 43.709 30.0786 43.8125 29.8716 43.8125Z" fill="#8F00FF"/>
</g>
<defs>
<clipPath id="clip0_507_8518">
<rect width="53" height="53" fill="white" transform="translate(13 14)"/>
</clipPath>
</defs>
</svg>
