<svg width="80" height="80" viewBox="0 0 80 80" fill="none" xmlns="http://www.w3.org/2000/svg">
<path d="M40 0L74.641 20V60L40 80L5.35898 60L5.35898 20L40 0Z" fill="#E8E8E8"/>
<g clip-path="url(#clip0_507_8503)">
<path d="M49.4546 23.1C48.7454 23.1 48.2728 23.5728 48.2728 24.2818C48.2728 24.9909 48.7455 25.4636 49.4546 25.4636C57.2546 25.4636 63.6363 25.6999 63.6363 27.5908C63.6363 32.1999 51.9363 37.3999 45.0818 40.3544C44.2546 39.6453 43.6636 37.9908 43.6636 36.6908C43.6636 35.3908 44.1363 34.209 44.9636 33.3817C46.2636 32.1999 46.9727 30.3089 46.9727 28.418C46.9727 26.1726 45.7909 24.1635 43.7818 23.218C43.6636 23.0998 43.4272 23.0998 43.309 23.0998C41.6545 22.9816 39.8818 22.8635 38.2272 22.7452C35.509 22.5089 32.6727 22.2725 30.0727 22.2725C22.3909 22.2725 18.609 25.6997 16.7181 28.5361C15.4182 30.5454 14 34.2091 14 37.5182C14 40.7091 15.4182 44.8454 16.4818 48.1545C16.7181 48.7454 16.8363 49.3363 17.0727 49.8091C17.309 50.5182 17.5454 51.2273 17.6636 51.8182C18.7272 55.1273 19.4363 57.7273 22.6272 57.7273C24.4 57.7273 26.409 55.8364 29.8363 52.4091C32.0818 50.1637 34.6818 47.6819 36.3363 46.8545C37.5181 46.2637 38.9363 45.6728 40.4727 45.0818C41.0636 44.8454 41.2999 44.1363 41.0636 43.5454C40.8272 42.9545 40.1181 42.7181 39.5272 42.9545C37.9909 43.6637 36.5727 44.2545 35.3909 44.7273C33.2637 45.6728 30.6637 48.2728 28.1818 50.7545C26.2909 52.5273 23.4546 55.3637 22.6272 55.3637C21.4454 55.3637 20.9727 54.5363 20.0272 51.1091C19.7909 50.5182 19.6727 49.8091 19.4363 49.1C19.2 48.5091 19.0818 47.9182 18.8454 47.3272C17.7818 44.1363 16.4818 40.2363 16.4818 37.5181C16.4818 34.4453 17.9 31.2544 18.7272 29.9544C20.9727 26.409 24.8727 24.6362 30.1909 24.6362C32.6727 24.6362 35.5091 24.8726 38.2272 25.109L43.1909 25.4636C44.2546 26.0544 44.8454 27.1181 44.8454 28.4181C44.8454 29.7181 44.3727 30.8999 43.5454 31.7272C42.2454 32.909 41.5363 34.8 41.5363 36.6909C41.5363 38.4637 42.3637 41.5363 44.7272 42.7181C45.0818 42.8363 45.4363 42.8363 45.6727 42.7181C55.8363 38.2272 66 33.3818 66 27.5909C66 23.3363 59.9728 23.1 49.4546 23.1Z" fill="#8F00FF"/>
</g>
<defs>
<clipPath id="clip0_507_8503">
<rect width="52" height="52" fill="white" transform="translate(14 14)"/>
</clipPath>
</defs>
</svg>
