<svg width="80" height="80" viewBox="0 0 80 80" fill="none" xmlns="http://www.w3.org/2000/svg">
<path d="M40 0L74.641 20V60L40 80L5.35898 60L5.35898 20L40 0Z" fill="#E8E8E8"/>
<path d="M40.7716 24.3358C40.959 24.3358 41.1388 24.2613 41.2713 24.1288C41.4038 23.9963 41.4783 23.8165 41.4783 23.6291V22.2158C41.4783 22.0283 41.4038 21.8486 41.2713 21.7161C41.1388 21.5835 40.959 21.5091 40.7716 21.5091C40.5842 21.5091 40.4045 21.5835 40.2719 21.7161C40.1394 21.8486 40.0649 22.0283 40.0649 22.2158V23.6291C40.0649 23.8165 40.1394 23.9963 40.2719 24.1288C40.4045 24.2613 40.5842 24.3358 40.7716 24.3358ZM40.7716 25.7491C40.5842 25.7491 40.4045 25.8235 40.2719 25.9561C40.1394 26.0886 40.0649 26.2683 40.0649 26.4558V27.8691C40.0649 28.0565 40.1394 28.2363 40.2719 28.3688C40.4045 28.5013 40.5842 28.5758 40.7716 28.5758C40.959 28.5758 41.1388 28.5013 41.2713 28.3688C41.4038 28.2363 41.4783 28.0565 41.4783 27.8691V26.4558C41.4783 26.2683 41.4038 26.0886 41.2713 25.9561C41.1388 25.8235 40.959 25.7491 40.7716 25.7491ZM37.9449 25.7491H39.3583C39.5457 25.7491 39.7254 25.6746 39.858 25.5421C39.9905 25.4096 40.0649 25.2298 40.0649 25.0424C40.0649 24.855 39.9905 24.6753 39.858 24.5427C39.7254 24.4102 39.5457 24.3358 39.3583 24.3358H37.9449C37.7575 24.3358 37.5778 24.4102 37.4453 24.5427C37.3127 24.6753 37.2383 24.855 37.2383 25.0424C37.2383 25.2298 37.3127 25.4096 37.4453 25.5421C37.5778 25.6746 37.7575 25.7491 37.9449 25.7491ZM42.1849 25.7491H43.5983C43.7857 25.7491 43.9654 25.6746 44.098 25.5421C44.2305 25.4096 44.3049 25.2298 44.3049 25.0424C44.3049 24.855 44.2305 24.6753 44.098 24.5427C43.9654 24.4102 43.7857 24.3358 43.5983 24.3358H42.1849C41.9975 24.3358 41.8178 24.4102 41.6853 24.5427C41.5527 24.6753 41.4783 24.855 41.4783 25.0424C41.4783 25.2298 41.5527 25.4096 41.6853 25.5421C41.8178 25.6746 41.9975 25.7491 42.1849 25.7491Z" fill="#8F00FF"/>
<path d="M59.4205 35.2784C59.4205 30.2478 55.3282 26.1555 50.2976 26.1555C49.1751 26.1555 48.1208 26.3156 47.1636 26.6309C44.5049 27.5077 42.7361 30.1401 42.7625 33.1821C42.7741 34.5191 42.1061 34.9737 41.6028 35.1993C41.4986 35.246 41.4072 35.3174 41.3366 35.4072C41.2433 35.5237 41.1893 35.6666 41.1823 35.8157C41.1131 37.3058 41.5528 38.7434 42.2832 40.0272C41.5098 40.2669 40.758 40.5713 40.0358 40.9372C39.9347 39.5915 39.528 37.3034 37.9909 35.7079C36.8549 34.5295 35.3188 33.9361 33.4417 33.976C31.8379 34.005 30.6064 33.5658 29.8297 32.6814C28.4609 31.1229 28.8038 28.6149 28.8098 28.575C28.8373 28.3898 28.7903 28.2013 28.679 28.0507C28.5677 27.9002 28.4012 27.8 28.2161 27.772C27.832 27.7112 27.47 27.9794 27.4121 28.3654C27.3928 28.4942 26.9573 31.543 28.7609 33.6057C29.823 34.821 31.4001 35.4173 33.464 35.3894C34.9411 35.3621 36.1164 35.802 36.969 36.6843C38.5401 38.3098 38.6532 41.0139 38.653 41.7631C37.9066 42.293 37.2217 42.9548 36.7417 43.7538C36.5567 42.9691 36.2904 42.2516 35.9272 41.6838C35.1674 40.4954 34.2088 40.2798 33.5394 40.2691C32.0264 40.2926 30.7661 41.116 29.8085 42.0651C29.0128 41.316 27.997 40.565 26.9441 40.8749C25.8678 41.1913 25.1705 42.4269 24.5366 45.1405C24.1884 46.6301 24.6723 47.5389 25.1394 48.0392C26.0962 49.0641 27.7825 49.289 29.0807 49.289C29.5402 49.289 29.9488 49.2607 30.2613 49.2298C30.0698 51.4372 30.2965 54.3015 32.2375 56.183C33.3845 57.2948 35.1562 57.8665 37.3674 57.8665C38.2912 57.8665 39.2915 57.7668 40.3545 57.5646C43.4324 56.98 46.6924 55.573 48.862 53.8922C54.3237 49.6621 54.4482 45.562 54.2961 44.1474C57.3132 42.4225 59.4205 38.8566 59.4205 35.2784ZM52.8303 43.3081C52.7448 43.3441 52.6672 43.3965 52.6019 43.4625C52.5367 43.5285 52.4851 43.6067 52.4501 43.6927C52.4151 43.7786 52.3974 43.8706 52.398 43.9634C52.3986 44.0562 52.4174 44.148 52.4535 44.2335C52.5402 44.4391 52.7153 44.572 52.9143 44.6288C52.9598 45.9712 52.5307 49.2637 47.9966 52.7757C43.7707 56.0477 35.967 57.8296 33.221 55.169C30.3802 52.4151 32.189 46.5243 32.2077 46.4653C32.264 46.2866 32.247 46.0929 32.1605 45.9267C32.074 45.7606 31.925 45.6355 31.7464 45.5791C31.658 45.5511 31.5648 45.5407 31.4724 45.5487C31.3799 45.5566 31.29 45.5827 31.2076 45.6255C31.1253 45.6683 31.0522 45.7269 30.9925 45.798C30.9328 45.8691 30.8878 45.9512 30.8599 46.0397C30.8332 46.124 30.6265 46.7974 30.4523 47.7829C29.4308 47.9231 27.0586 48.0258 26.1713 47.0741C25.8297 46.7073 25.7449 46.18 25.9125 45.4624C26.5261 42.8366 27.0716 42.311 27.3425 42.2313C27.5103 42.1818 27.9391 42.244 28.8779 43.1309C28.1731 44.0559 27.7718 44.8682 27.7339 44.9467C27.6529 45.1154 27.6422 45.3095 27.7041 45.4861C27.766 45.6628 27.8955 45.8077 28.0641 45.889C28.2329 45.9704 28.4271 45.9815 28.604 45.9198C28.7809 45.858 28.926 45.7286 29.0075 45.5599C29.0259 45.5212 30.8933 41.7239 33.5611 41.6829C33.7284 41.6771 34.2413 41.6722 34.7363 42.4458C35.9175 44.2925 35.8601 48.615 35.157 50.0765C35.1053 50.1843 35.0817 50.3033 35.0885 50.4226C35.0952 50.5419 35.1321 50.6576 35.1957 50.7587C35.2593 50.8599 35.3474 50.9433 35.452 51.0012C35.5565 51.0591 35.674 51.0895 35.7935 51.0897C35.9266 51.0898 36.0571 51.0523 36.1698 50.9814C36.2826 50.9106 36.373 50.8094 36.4307 50.6894C36.7035 50.1223 36.9024 49.2557 37.0015 48.2616C37.0399 48.2984 37.0681 48.3394 37.1088 48.3751C38.6597 49.7356 41.7138 50.0354 44.106 50.0354C45.7488 50.0354 47.0797 49.8939 47.3961 49.8569C47.4882 49.8463 47.5774 49.8176 47.6585 49.7725C47.7396 49.7274 47.811 49.6667 47.8686 49.594C47.9263 49.5213 47.969 49.438 47.9945 49.3487C48.0199 49.2595 48.0275 49.1661 48.0169 49.074C48.0062 48.9818 47.9775 48.8926 47.9324 48.8115C47.8873 48.7304 47.8267 48.659 47.754 48.6014C47.6812 48.5437 47.5979 48.501 47.5087 48.4755C47.4194 48.4501 47.3261 48.4425 47.2339 48.4531C45.2946 48.6772 39.8616 48.91 38.0407 47.3121C37.6681 46.9852 37.4911 46.6192 37.4842 46.16C37.44 43.304 41.4936 41.6651 43.0596 41.2745C43.076 41.2704 43.0877 41.2587 43.1036 41.2536C43.6962 42.0225 44.3788 42.7175 45.1369 43.3238C43.6829 43.7347 42.5144 44.3683 42.4475 44.4052C42.2873 44.4974 42.1697 44.6486 42.1198 44.8265C42.0698 45.0044 42.0915 45.1948 42.1802 45.3568C42.2689 45.5189 42.4176 45.6398 42.5943 45.6936C42.7711 45.7474 42.9619 45.7298 43.1259 45.6447C43.1458 45.6339 45.1528 44.5456 47.0028 44.4043C47.3413 44.3785 47.6045 44.1128 47.6422 43.7752C47.6747 43.4846 47.5187 43.2076 47.2675 43.0722C44.9508 41.7501 42.6752 39.0365 42.5906 36.275C43.6419 35.6415 44.1878 34.577 44.1754 33.1695C44.1548 30.7448 45.5333 28.6566 47.6056 27.9731C48.4198 27.7045 49.3253 27.5687 50.2973 27.5687C54.5482 27.5687 58.0068 31.0271 58.0068 35.2782C58.0072 38.6669 55.83 42.0435 52.8303 43.3081Z" fill="#8F00FF"/>
<path d="M45.5426 36.6118C45.9329 36.6118 46.2493 36.2954 46.2493 35.9051C46.2493 35.5148 45.9329 35.1984 45.5426 35.1984C45.1523 35.1984 44.8359 35.5148 44.8359 35.9051C44.8359 36.2954 45.1523 36.6118 45.5426 36.6118Z" fill="#8F00FF"/>
<path d="M50.4799 22.2552C50.6803 22.2552 50.8724 22.1756 51.0141 22.0339C51.1557 21.8922 51.2353 21.7001 51.2353 21.4998C51.2353 21.2994 51.1557 21.1073 51.0141 20.9656C50.8724 20.8239 50.6803 20.7443 50.4799 20.7443C50.2796 20.7443 50.0874 20.8239 49.9457 20.9656C49.8041 21.1073 49.7245 21.2994 49.7245 21.4998C49.7245 21.7001 49.8041 21.8922 49.9457 22.0339C50.0874 22.1756 50.2796 22.2552 50.4799 22.2552ZM32.1066 25.7885C32.3069 25.7885 32.4991 25.7089 32.6407 25.5673C32.7824 25.4256 32.862 25.2334 32.862 25.0331C32.862 24.8327 32.7824 24.6406 32.6407 24.4989C32.4991 24.3572 32.3069 24.2777 32.1066 24.2777C31.9062 24.2777 31.7141 24.3572 31.5724 24.4989C31.4307 24.6406 31.3512 24.8327 31.3512 25.0331C31.3512 25.2334 31.4307 25.4256 31.5724 25.5673C31.7141 25.7089 31.9062 25.7885 32.1066 25.7885ZM22.0436 53.3091C20.68 53.3091 19.5703 54.4188 19.5703 55.7824C19.5703 57.1461 20.68 58.2558 22.0436 58.2558C23.4073 58.2558 24.517 57.1461 24.517 55.7824C24.517 54.4188 23.4073 53.3091 22.0436 53.3091ZM22.0436 56.8424C21.4591 56.8424 20.9836 56.367 20.9836 55.7824C20.9836 55.1979 21.4591 54.7224 22.0436 54.7224C22.6282 54.7224 23.1036 55.1979 23.1036 55.7824C23.1036 56.367 22.6282 56.8424 22.0436 56.8424Z" fill="#8F00FF"/>
</svg>
