<svg width="145" height="43" viewBox="0 0 145 43" fill="none" xmlns="http://www.w3.org/2000/svg">
<rect x="0.451172" y="0.5" width="143.613" height="42" rx="13.5484" fill="#E3C9FE"/>
<path d="M15.6442 27H14.1669L18.4396 15.3636H19.8942L24.1669 27H22.6896L19.2124 17.2045H19.1214L15.6442 27ZM16.1896 22.4545H22.1442V23.7045H16.1896V22.4545ZM32.6612 18.2727V25.75H33.8885V29.8182H32.5476V27H25.7976V18.2727H27.1385V25.75H31.3203V18.2727H32.6612ZM39.5192 27.1818C38.6783 27.1818 37.9529 26.9962 37.343 26.625C36.737 26.25 36.2692 25.7273 35.9396 25.0568C35.6139 24.3826 35.451 23.5985 35.451 22.7045C35.451 21.8106 35.6139 21.0227 35.9396 20.3409C36.2692 19.6553 36.7275 19.1212 37.3146 18.7386C37.9055 18.3523 38.5949 18.1591 39.3828 18.1591C39.8374 18.1591 40.2862 18.2348 40.7294 18.3864C41.1726 18.5379 41.576 18.7841 41.9396 19.125C42.3033 19.4621 42.593 19.9091 42.8089 20.4659C43.0249 21.0227 43.1328 21.7083 43.1328 22.5227V23.0909H36.4055V21.9318H41.7692C41.7692 21.4394 41.6707 21 41.4737 20.6136C41.2805 20.2273 41.004 19.9223 40.6442 19.6989C40.2881 19.4754 39.8677 19.3636 39.3828 19.3636C38.8487 19.3636 38.3866 19.4962 37.9964 19.7614C37.6101 20.0227 37.3127 20.3636 37.1044 20.7841C36.8961 21.2045 36.7919 21.6553 36.7919 22.1364V22.9091C36.7919 23.5682 36.9055 24.1269 37.1328 24.5852C37.3639 25.0398 37.6839 25.3864 38.093 25.625C38.5021 25.8598 38.9775 25.9773 39.5192 25.9773C39.8714 25.9773 40.1896 25.928 40.4737 25.8295C40.7616 25.7273 41.0097 25.5758 41.218 25.375C41.4264 25.1705 41.5874 24.9167 41.701 24.6136L42.9964 24.9773C42.8601 25.4167 42.6309 25.803 42.3089 26.1364C41.987 26.4659 41.5893 26.7235 41.1158 26.9091C40.6423 27.0909 40.1101 27.1818 39.5192 27.1818ZM51.0135 22.0227V23.2727H46.1953V22.0227H51.0135ZM46.5135 18.2727V27H45.1726V18.2727H46.5135ZM52.0362 18.2727V27H50.6953V18.2727H52.0362ZM58.0305 27.1818C57.2427 27.1818 56.5514 26.9943 55.9567 26.6193C55.3658 26.2443 54.9036 25.7197 54.5703 25.0455C54.2408 24.3712 54.076 23.5833 54.076 22.6818C54.076 21.7727 54.2408 20.9792 54.5703 20.3011C54.9036 19.6231 55.3658 19.0966 55.9567 18.7216C56.5514 18.3466 57.2427 18.1591 58.0305 18.1591C58.8184 18.1591 59.5078 18.3466 60.0987 18.7216C60.6934 19.0966 61.1555 19.6231 61.4851 20.3011C61.8184 20.9792 61.9851 21.7727 61.9851 22.6818C61.9851 23.5833 61.8184 24.3712 61.4851 25.0455C61.1555 25.7197 60.6934 26.2443 60.0987 26.6193C59.5078 26.9943 58.8184 27.1818 58.0305 27.1818ZM58.0305 25.9773C58.629 25.9773 59.1214 25.8239 59.5078 25.517C59.8942 25.2102 60.1802 24.8068 60.3658 24.3068C60.5514 23.8068 60.6442 23.2652 60.6442 22.6818C60.6442 22.0985 60.5514 21.5549 60.3658 21.0511C60.1802 20.5473 59.8942 20.1402 59.5078 19.8295C59.1214 19.5189 58.629 19.3636 58.0305 19.3636C57.4321 19.3636 56.9396 19.5189 56.5533 19.8295C56.1669 20.1402 55.8809 20.5473 55.6953 21.0511C55.5097 21.5549 55.4169 22.0985 55.4169 22.6818C55.4169 23.2652 55.5097 23.8068 55.6953 24.3068C55.8809 24.8068 56.1669 25.2102 56.5533 25.517C56.9396 25.8239 57.4321 25.9773 58.0305 25.9773ZM64.032 27V18.2727H65.3729V22.0682H66.2592L69.3956 18.2727H71.1229L67.6001 22.4773L71.1683 27H69.4411L66.5774 23.3182H65.3729V27H64.032ZM73.4893 30.2727C73.2621 30.2727 73.0594 30.2538 72.8814 30.2159C72.7034 30.1818 72.5803 30.1477 72.5121 30.1136L72.853 28.9318C73.1787 29.0152 73.4666 29.0455 73.7166 29.0227C73.9666 29 74.1882 28.8883 74.3814 28.6875C74.5784 28.4905 74.7583 28.1705 74.9212 27.7273L75.1712 27.0455L71.9439 18.2727H73.3984L75.8075 25.2273H75.8984L78.3075 18.2727H79.7621L76.0575 28.2727C75.8909 28.7235 75.6844 29.0966 75.4382 29.392C75.192 29.6913 74.906 29.9129 74.5803 30.0568C74.2583 30.2008 73.8946 30.2727 73.4893 30.2727ZM86.3047 25.1818L89.3501 18.2727H90.6229L86.8501 27H85.7592L82.0547 18.2727H83.3047L86.3047 25.1818ZM82.8729 18.2727V27H81.532V18.2727H82.8729ZM89.7365 27V18.2727H91.0774V27H89.7365ZM96.1001 27.2045C95.5471 27.2045 95.0452 27.1004 94.5945 26.892C94.1437 26.6799 93.7857 26.375 93.5206 25.9773C93.2554 25.5758 93.1229 25.0909 93.1229 24.5227C93.1229 24.0227 93.2214 23.6174 93.4183 23.3068C93.6153 22.9924 93.8786 22.7462 94.2081 22.5682C94.5376 22.3902 94.9013 22.2576 95.299 22.1705C95.7005 22.0795 96.1039 22.0076 96.5092 21.9545C97.0395 21.8864 97.4695 21.8352 97.799 21.8011C98.1323 21.7633 98.3748 21.7008 98.5263 21.6136C98.6816 21.5265 98.7592 21.375 98.7592 21.1591V21.1136C98.7592 20.553 98.6058 20.1174 98.299 19.8068C97.996 19.4962 97.5357 19.3409 96.9183 19.3409C96.2782 19.3409 95.7763 19.4811 95.4126 19.7614C95.049 20.0417 94.7933 20.3409 94.6456 20.6591L93.3729 20.2045C93.6001 19.6742 93.9032 19.2614 94.282 18.9659C94.6645 18.6667 95.0812 18.4583 95.532 18.3409C95.9865 18.2197 96.4335 18.1591 96.8729 18.1591C97.1532 18.1591 97.4751 18.1932 97.8388 18.2614C98.2062 18.3258 98.5604 18.4602 98.9013 18.6648C99.246 18.8693 99.532 19.178 99.7592 19.5909C99.9865 20.0038 100.1 20.5568 100.1 21.25V27H98.7592V25.8182H98.6911C98.6001 26.0076 98.4486 26.2102 98.2365 26.4261C98.0244 26.642 97.7422 26.8258 97.3899 26.9773C97.0376 27.1288 96.6077 27.2045 96.1001 27.2045ZM96.3047 26C96.835 26 97.282 25.8958 97.6456 25.6875C98.013 25.4792 98.2895 25.2102 98.4751 24.8807C98.6645 24.5511 98.7592 24.2045 98.7592 23.8409V22.6136C98.7024 22.6818 98.5774 22.7443 98.3842 22.8011C98.1948 22.8542 97.9751 22.9015 97.7251 22.9432C97.4789 22.9811 97.2384 23.0152 97.0036 23.0455C96.7725 23.072 96.585 23.0947 96.4411 23.1136C96.0926 23.1591 95.7668 23.233 95.4638 23.3352C95.1645 23.4337 94.9221 23.5833 94.7365 23.7841C94.5547 23.9811 94.4638 24.25 94.4638 24.5909C94.4638 25.0568 94.6361 25.4091 94.9808 25.6477C95.3293 25.8826 95.7706 26 96.3047 26ZM102.548 30.2727V18.2727H103.843V19.6591H104.002C104.101 19.5076 104.237 19.3144 104.411 19.0795C104.589 18.8409 104.843 18.6288 105.173 18.4432C105.506 18.2538 105.957 18.1591 106.525 18.1591C107.26 18.1591 107.907 18.3428 108.468 18.7102C109.029 19.0777 109.466 19.5985 109.781 20.2727C110.095 20.947 110.252 21.7424 110.252 22.6591C110.252 23.5833 110.095 24.3845 109.781 25.0625C109.466 25.7367 109.031 26.2595 108.474 26.6307C107.917 26.9981 107.275 27.1818 106.548 27.1818C105.987 27.1818 105.538 27.089 105.201 26.9034C104.864 26.714 104.604 26.5 104.423 26.2614C104.241 26.0189 104.101 25.8182 104.002 25.6591H103.888V30.2727H102.548ZM103.866 22.6364C103.866 23.2955 103.962 23.8769 104.156 24.3807C104.349 24.8807 104.631 25.2727 105.002 25.5568C105.373 25.8371 105.828 25.9773 106.366 25.9773C106.926 25.9773 107.394 25.8295 107.769 25.5341C108.148 25.2348 108.432 24.8333 108.621 24.3295C108.815 23.822 108.911 23.2576 108.911 22.6364C108.911 22.0227 108.817 21.4697 108.627 20.9773C108.442 20.4811 108.159 20.089 107.781 19.8011C107.406 19.5095 106.934 19.3636 106.366 19.3636C105.82 19.3636 105.362 19.5019 104.991 19.7784C104.62 20.0511 104.339 20.4337 104.15 20.9261C103.96 21.4148 103.866 21.9848 103.866 22.6364ZM115.843 27.1818C115.055 27.1818 114.364 26.9943 113.769 26.6193C113.178 26.2443 112.716 25.7197 112.383 25.0455C112.053 24.3712 111.888 23.5833 111.888 22.6818C111.888 21.7727 112.053 20.9792 112.383 20.3011C112.716 19.6231 113.178 19.0966 113.769 18.7216C114.364 18.3466 115.055 18.1591 115.843 18.1591C116.631 18.1591 117.32 18.3466 117.911 18.7216C118.506 19.0966 118.968 19.6231 119.298 20.3011C119.631 20.9792 119.798 21.7727 119.798 22.6818C119.798 23.5833 119.631 24.3712 119.298 25.0455C118.968 25.7197 118.506 26.2443 117.911 26.6193C117.32 26.9943 116.631 27.1818 115.843 27.1818ZM115.843 25.9773C116.442 25.9773 116.934 25.8239 117.32 25.517C117.707 25.2102 117.993 24.8068 118.178 24.3068C118.364 23.8068 118.457 23.2652 118.457 22.6818C118.457 22.0985 118.364 21.5549 118.178 21.0511C117.993 20.5473 117.707 20.1402 117.32 19.8295C116.934 19.5189 116.442 19.3636 115.843 19.3636C115.245 19.3636 114.752 19.5189 114.366 19.8295C113.979 20.1402 113.693 20.5473 113.508 21.0511C113.322 21.5549 113.229 22.0985 113.229 22.6818C113.229 23.2652 113.322 23.8068 113.508 24.3068C113.693 24.8068 113.979 25.2102 114.366 25.517C114.752 25.8239 115.245 25.9773 115.843 25.9773ZM121.072 27V25.75H121.39C121.651 25.75 121.869 25.6989 122.043 25.5966C122.218 25.4905 122.358 25.3068 122.464 25.0455C122.574 24.7803 122.657 24.4129 122.714 23.9432C122.774 23.4697 122.818 22.8674 122.844 22.1364L123.004 18.2727H128.822V27H127.481V19.5227H124.276L124.14 22.6364C124.11 23.3523 124.045 23.983 123.947 24.5284C123.852 25.0701 123.706 25.5246 123.509 25.892C123.316 26.2595 123.058 26.536 122.737 26.7216C122.415 26.9072 122.011 27 121.526 27H121.072Z" fill="black"/>
</svg>
