<svg width="145" height="43" viewBox="0 0 145 43" fill="none" xmlns="http://www.w3.org/2000/svg">
<rect x="0.837891" y="0.5" width="143.613" height="42" rx="13.5484" fill="#FFCC81"/>
<path d="M32.5309 27.5H31.0536L35.3263 15.8636H36.7809L41.0536 27.5H39.5763L36.0991 17.7045H36.0082L32.5309 27.5ZM33.0763 22.9545H39.0309V24.2045H33.0763V22.9545ZM42.6843 27.5V18.7727H49.5479V27.5H48.207V20.0227H44.0252V27.5H42.6843ZM53.3377 25.5227L57.5423 18.7727H59.0877V27.5H57.7468V20.75L53.565 27.5H51.9968V18.7727H53.3377V25.5227ZM61.5437 27.5V18.7727H62.8846V22.5682H63.771L66.9073 18.7727H68.6346L65.1119 22.9773L68.68 27.5H66.9528L64.0891 23.8182H62.8846V27.5H61.5437ZM73.3235 27.6818C72.5053 27.6818 71.8008 27.4886 71.2099 27.1023C70.619 26.7159 70.1644 26.1837 69.8462 25.5057C69.5281 24.8277 69.369 24.053 69.369 23.1818C69.369 22.2955 69.5318 21.5133 69.8576 20.8352C70.1871 20.1534 70.6455 19.6212 71.2326 19.2386C71.8235 18.8523 72.5129 18.6591 73.3008 18.6591C73.9144 18.6591 74.4674 18.7727 74.9599 19C75.4523 19.2273 75.8557 19.5455 76.1701 19.9545C76.4845 20.3636 76.6796 20.8409 76.7553 21.3864H75.4144C75.3121 20.9886 75.0849 20.6364 74.7326 20.3295C74.3841 20.0189 73.9144 19.8636 73.3235 19.8636C72.8008 19.8636 72.3424 20 71.9485 20.2727C71.5584 20.5417 71.2534 20.9223 71.0337 21.4148C70.8178 21.9034 70.7099 22.4773 70.7099 23.1364C70.7099 23.8106 70.8159 24.3977 71.0281 24.8977C71.244 25.3977 71.547 25.786 71.9371 26.0625C72.3311 26.339 72.7932 26.4773 73.3235 26.4773C73.672 26.4773 73.9883 26.4167 74.2724 26.2955C74.5565 26.1742 74.797 26 74.994 25.7727C75.1909 25.5455 75.3311 25.2727 75.4144 24.9545H76.7553C76.6796 25.4697 76.4921 25.9337 76.1928 26.3466C75.8974 26.7557 75.5053 27.0814 75.0167 27.3239C74.5318 27.5625 73.9674 27.6818 73.3235 27.6818ZM81.2837 27.7045C80.7307 27.7045 80.2288 27.6004 79.7781 27.392C79.3273 27.1799 78.9693 26.875 78.7042 26.4773C78.439 26.0758 78.3065 25.5909 78.3065 25.0227C78.3065 24.5227 78.4049 24.1174 78.6019 23.8068C78.7989 23.4924 79.0621 23.2462 79.3917 23.0682C79.7212 22.8902 80.0849 22.7576 80.4826 22.6705C80.8841 22.5795 81.2875 22.5076 81.6928 22.4545C82.2231 22.3864 82.6531 22.3352 82.9826 22.3011C83.3159 22.2633 83.5584 22.2008 83.7099 22.1136C83.8652 22.0265 83.9428 21.875 83.9428 21.6591V21.6136C83.9428 21.053 83.7894 20.6174 83.4826 20.3068C83.1796 19.9962 82.7193 19.8409 82.1019 19.8409C81.4618 19.8409 80.9599 19.9811 80.5962 20.2614C80.2326 20.5417 79.9769 20.8409 79.8292 21.1591L78.5565 20.7045C78.7837 20.1742 79.0868 19.7614 79.4656 19.4659C79.8481 19.1667 80.2648 18.9583 80.7156 18.8409C81.1701 18.7197 81.6171 18.6591 82.0565 18.6591C82.3368 18.6591 82.6587 18.6932 83.0224 18.7614C83.3898 18.8258 83.744 18.9602 84.0849 19.1648C84.4296 19.3693 84.7156 19.678 84.9428 20.0909C85.1701 20.5038 85.2837 21.0568 85.2837 21.75V27.5H83.9428V26.3182H83.8746C83.7837 26.5076 83.6322 26.7102 83.4201 26.9261C83.208 27.142 82.9258 27.3258 82.5735 27.4773C82.2212 27.6288 81.7913 27.7045 81.2837 27.7045ZM81.4883 26.5C82.0186 26.5 82.4656 26.3958 82.8292 26.1875C83.1966 25.9792 83.4731 25.7102 83.6587 25.3807C83.8481 25.0511 83.9428 24.7045 83.9428 24.3409V23.1136C83.886 23.1818 83.761 23.2443 83.5678 23.3011C83.3784 23.3542 83.1587 23.4015 82.9087 23.4432C82.6625 23.4811 82.422 23.5152 82.1871 23.5455C81.9561 23.572 81.7686 23.5947 81.6246 23.6136C81.2762 23.6591 80.9504 23.733 80.6474 23.8352C80.3481 23.9337 80.1057 24.0833 79.9201 24.2841C79.7383 24.4811 79.6474 24.75 79.6474 25.0909C79.6474 25.5568 79.8197 25.9091 80.1644 26.1477C80.5129 26.3826 80.9542 26.5 81.4883 26.5ZM94.2085 15.5L94.8903 16.3182C94.6251 16.5758 94.3183 16.7557 93.9698 16.858C93.6213 16.9602 93.2274 17.0227 92.788 17.0455C92.3486 17.0682 91.86 17.0909 91.3221 17.1136C90.716 17.1364 90.2141 17.2841 89.8164 17.5568C89.4187 17.8295 89.1119 18.2235 88.896 18.7386C88.68 19.2538 88.5418 19.8864 88.4812 20.6364H88.5948C88.8903 20.0909 89.2994 19.6894 89.8221 19.4318C90.3448 19.1742 90.9054 19.0455 91.5039 19.0455C92.1857 19.0455 92.7994 19.2045 93.3448 19.5227C93.8903 19.8409 94.3221 20.3125 94.6403 20.9375C94.9585 21.5625 95.1175 22.3333 95.1175 23.25C95.1175 24.1629 94.9547 24.9508 94.6289 25.6136C94.3069 26.2765 93.8543 26.7879 93.271 27.1477C92.6914 27.5038 92.0115 27.6818 91.2312 27.6818C90.4509 27.6818 89.7672 27.4981 89.18 27.1307C88.5929 26.7595 88.1365 26.2102 87.8107 25.483C87.485 24.7519 87.3221 23.8485 87.3221 22.7727V21.8409C87.3221 19.8977 87.6516 18.4242 88.3107 17.4205C88.9736 16.4167 89.9698 15.8977 91.2994 15.8636C91.7691 15.8485 92.1876 15.8447 92.555 15.8523C92.9225 15.8598 93.2425 15.8428 93.5153 15.8011C93.788 15.7595 94.0191 15.6591 94.2085 15.5ZM91.2312 26.4773C91.7577 26.4773 92.2103 26.3447 92.5891 26.0795C92.9717 25.8144 93.2653 25.4413 93.4698 24.9602C93.6744 24.4754 93.7766 23.9053 93.7766 23.25C93.7766 22.6136 93.6725 22.072 93.4641 21.625C93.2596 21.178 92.966 20.8371 92.5835 20.6023C92.2009 20.3674 91.7425 20.25 91.2085 20.25C90.8183 20.25 90.4679 20.3163 90.1573 20.4489C89.8467 20.5814 89.5816 20.7765 89.3619 21.0341C89.1422 21.2917 88.9717 21.6061 88.8505 21.9773C88.7331 22.3485 88.6706 22.7727 88.663 23.25C88.663 24.2273 88.8922 25.0095 89.3505 25.5966C89.8088 26.1837 90.4357 26.4773 91.2312 26.4773ZM99.7369 27.7045C99.1838 27.7045 98.6819 27.6004 98.2312 27.392C97.7804 27.1799 97.4225 26.875 97.1573 26.4773C96.8922 26.0758 96.7596 25.5909 96.7596 25.0227C96.7596 24.5227 96.8581 24.1174 97.055 23.8068C97.252 23.4924 97.5153 23.2462 97.8448 23.0682C98.1744 22.8902 98.538 22.7576 98.9357 22.6705C99.3372 22.5795 99.7406 22.5076 100.146 22.4545C100.676 22.3864 101.106 22.3352 101.436 22.3011C101.769 22.2633 102.011 22.2008 102.163 22.1136C102.318 22.0265 102.396 21.875 102.396 21.6591V21.6136C102.396 21.053 102.243 20.6174 101.936 20.3068C101.633 19.9962 101.172 19.8409 100.555 19.8409C99.9149 19.8409 99.413 19.9811 99.0494 20.2614C98.6857 20.5417 98.43 20.8409 98.2823 21.1591L97.0096 20.7045C97.2369 20.1742 97.5399 19.7614 97.9187 19.4659C98.3013 19.1667 98.7179 18.9583 99.1687 18.8409C99.6232 18.7197 100.07 18.6591 100.51 18.6591C100.79 18.6591 101.112 18.6932 101.475 18.7614C101.843 18.8258 102.197 18.9602 102.538 19.1648C102.883 19.3693 103.169 19.678 103.396 20.0909C103.623 20.5038 103.737 21.0568 103.737 21.75V27.5H102.396V26.3182H102.328C102.237 26.5076 102.085 26.7102 101.873 26.9261C101.661 27.142 101.379 27.3258 101.027 27.4773C100.674 27.6288 100.244 27.7045 99.7369 27.7045ZM99.9414 26.5C100.472 26.5 100.919 26.3958 101.282 26.1875C101.65 25.9792 101.926 25.7102 102.112 25.3807C102.301 25.0511 102.396 24.7045 102.396 24.3409V23.1136C102.339 23.1818 102.214 23.2443 102.021 23.3011C101.832 23.3542 101.612 23.4015 101.362 23.4432C101.116 23.4811 100.875 23.5152 100.64 23.5455C100.409 23.572 100.222 23.5947 100.078 23.6136C99.7293 23.6591 99.4035 23.733 99.1005 23.8352C98.8013 23.9337 98.5588 24.0833 98.3732 24.2841C98.1914 24.4811 98.1005 24.75 98.1005 25.0909C98.1005 25.5568 98.2728 25.9091 98.6175 26.1477C98.966 26.3826 99.4073 26.5 99.9414 26.5ZM112.025 22.5227V23.7727H107.207V22.5227H112.025ZM107.525 18.7727V27.5H106.184V18.7727H107.525ZM113.048 18.7727V27.5H111.707V18.7727H113.048Z" fill="black"/>
</svg>
