<svg width="144" height="43" viewBox="0 0 144 43" fill="none" xmlns="http://www.w3.org/2000/svg">
<rect x="0.226562" y="0.5" width="143.613" height="42" rx="13.5484" fill="#FFCC81"/>
<path d="M31.9176 27.5H30.4403L34.7131 15.8636H36.1676L40.4403 27.5H38.9631L35.4858 17.7045H35.3949L31.9176 27.5ZM32.4631 22.9545H38.4176V24.2045H32.4631V22.9545ZM42.071 27.5V18.7727H48.9347V27.5H47.5938V20.0227H43.4119V27.5H42.071ZM52.7244 25.5227L56.929 18.7727H58.4744V27.5H57.1335V20.75L52.9517 27.5H51.3835V18.7727H52.7244V25.5227ZM60.9304 27.5V18.7727H62.2713V22.5682H63.1577L66.294 18.7727H68.0213L64.4986 22.9773L68.0668 27.5H66.3395L63.4759 23.8182H62.2713V27.5H60.9304ZM72.7102 27.6818C71.892 27.6818 71.1875 27.4886 70.5966 27.1023C70.0057 26.7159 69.5511 26.1837 69.233 25.5057C68.9148 24.8277 68.7557 24.053 68.7557 23.1818C68.7557 22.2955 68.9186 21.5133 69.2443 20.8352C69.5739 20.1534 70.0322 19.6212 70.6193 19.2386C71.2102 18.8523 71.8996 18.6591 72.6875 18.6591C73.3011 18.6591 73.8542 18.7727 74.3466 19C74.839 19.2273 75.2424 19.5455 75.5568 19.9545C75.8712 20.3636 76.0663 20.8409 76.142 21.3864H74.8011C74.6989 20.9886 74.4716 20.6364 74.1193 20.3295C73.7708 20.0189 73.3011 19.8636 72.7102 19.8636C72.1875 19.8636 71.7292 20 71.3352 20.2727C70.9451 20.5417 70.6402 20.9223 70.4205 21.4148C70.2045 21.9034 70.0966 22.4773 70.0966 23.1364C70.0966 23.8106 70.2027 24.3977 70.4148 24.8977C70.6307 25.3977 70.9337 25.786 71.3239 26.0625C71.7178 26.339 72.1799 26.4773 72.7102 26.4773C73.0587 26.4773 73.375 26.4167 73.6591 26.2955C73.9432 26.1742 74.1837 26 74.3807 25.7727C74.5777 25.5455 74.7178 25.2727 74.8011 24.9545H76.142C76.0663 25.4697 75.8788 25.9337 75.5795 26.3466C75.2841 26.7557 74.892 27.0814 74.4034 27.3239C73.9186 27.5625 73.3542 27.6818 72.7102 27.6818ZM80.6705 27.7045C80.1174 27.7045 79.6155 27.6004 79.1648 27.392C78.714 27.1799 78.3561 26.875 78.0909 26.4773C77.8258 26.0758 77.6932 25.5909 77.6932 25.0227C77.6932 24.5227 77.7917 24.1174 77.9886 23.8068C78.1856 23.4924 78.4489 23.2462 78.7784 23.0682C79.108 22.8902 79.4716 22.7576 79.8693 22.6705C80.2708 22.5795 80.6742 22.5076 81.0795 22.4545C81.6098 22.3864 82.0398 22.3352 82.3693 22.3011C82.7027 22.2633 82.9451 22.2008 83.0966 22.1136C83.2519 22.0265 83.3295 21.875 83.3295 21.6591V21.6136C83.3295 21.053 83.1761 20.6174 82.8693 20.3068C82.5663 19.9962 82.1061 19.8409 81.4886 19.8409C80.8485 19.8409 80.3466 19.9811 79.983 20.2614C79.6193 20.5417 79.3636 20.8409 79.2159 21.1591L77.9432 20.7045C78.1705 20.1742 78.4735 19.7614 78.8523 19.4659C79.2348 19.1667 79.6515 18.9583 80.1023 18.8409C80.5568 18.7197 81.0038 18.6591 81.4432 18.6591C81.7235 18.6591 82.0455 18.6932 82.4091 18.7614C82.7765 18.8258 83.1307 18.9602 83.4716 19.1648C83.8163 19.3693 84.1023 19.678 84.3295 20.0909C84.5568 20.5038 84.6705 21.0568 84.6705 21.75V27.5H83.3295V26.3182H83.2614C83.1705 26.5076 83.0189 26.7102 82.8068 26.9261C82.5947 27.142 82.3125 27.3258 81.9602 27.4773C81.608 27.6288 81.178 27.7045 80.6705 27.7045ZM80.875 26.5C81.4053 26.5 81.8523 26.3958 82.2159 26.1875C82.5833 25.9792 82.8598 25.7102 83.0455 25.3807C83.2348 25.0511 83.3295 24.7045 83.3295 24.3409V23.1136C83.2727 23.1818 83.1477 23.2443 82.9545 23.3011C82.7652 23.3542 82.5455 23.4015 82.2955 23.4432C82.0492 23.4811 81.8087 23.5152 81.5739 23.5455C81.3428 23.572 81.1553 23.5947 81.0114 23.6136C80.6629 23.6591 80.3371 23.733 80.0341 23.8352C79.7348 23.9337 79.4924 24.0833 79.3068 24.2841C79.125 24.4811 79.0341 24.75 79.0341 25.0909C79.0341 25.5568 79.2064 25.9091 79.5511 26.1477C79.8996 26.3826 80.3409 26.5 80.875 26.5ZM93.5952 15.5L94.277 16.3182C94.0118 16.5758 93.705 16.7557 93.3565 16.858C93.008 16.9602 92.6141 17.0227 92.1747 17.0455C91.7353 17.0682 91.2467 17.0909 90.7088 17.1136C90.1027 17.1364 89.6009 17.2841 89.2031 17.5568C88.8054 17.8295 88.4986 18.2235 88.2827 18.7386C88.0668 19.2538 87.9285 19.8864 87.8679 20.6364H87.9815C88.277 20.0909 88.6861 19.6894 89.2088 19.4318C89.7315 19.1742 90.2921 19.0455 90.8906 19.0455C91.5724 19.0455 92.1861 19.2045 92.7315 19.5227C93.277 19.8409 93.7088 20.3125 94.027 20.9375C94.3452 21.5625 94.5043 22.3333 94.5043 23.25C94.5043 24.1629 94.3414 24.9508 94.0156 25.6136C93.6937 26.2765 93.241 26.7879 92.6577 27.1477C92.0781 27.5038 91.3982 27.6818 90.6179 27.6818C89.8376 27.6818 89.1539 27.4981 88.5668 27.1307C87.9796 26.7595 87.5232 26.2102 87.1974 25.483C86.8717 24.7519 86.7088 23.8485 86.7088 22.7727V21.8409C86.7088 19.8977 87.0384 18.4242 87.6974 17.4205C88.3603 16.4167 89.3565 15.8977 90.6861 15.8636C91.1558 15.8485 91.5743 15.8447 91.9418 15.8523C92.3092 15.8598 92.6293 15.8428 92.902 15.8011C93.1747 15.7595 93.4058 15.6591 93.5952 15.5ZM90.6179 26.4773C91.1444 26.4773 91.5971 26.3447 91.9759 26.0795C92.3584 25.8144 92.652 25.4413 92.8565 24.9602C93.0611 24.4754 93.1634 23.9053 93.1634 23.25C93.1634 22.6136 93.0592 22.072 92.8509 21.625C92.6463 21.178 92.3527 20.8371 91.9702 20.6023C91.5876 20.3674 91.1293 20.25 90.5952 20.25C90.205 20.25 89.8546 20.3163 89.544 20.4489C89.2334 20.5814 88.9683 20.7765 88.7486 21.0341C88.5289 21.2917 88.3584 21.6061 88.2372 21.9773C88.1198 22.3485 88.0573 22.7727 88.0497 23.25C88.0497 24.2273 88.2789 25.0095 88.7372 25.5966C89.1955 26.1837 89.8224 26.4773 90.6179 26.4773ZM99.1236 27.7045C98.5705 27.7045 98.0687 27.6004 97.6179 27.392C97.1671 27.1799 96.8092 26.875 96.544 26.4773C96.2789 26.0758 96.1463 25.5909 96.1463 25.0227C96.1463 24.5227 96.2448 24.1174 96.4418 23.8068C96.6387 23.4924 96.902 23.2462 97.2315 23.0682C97.5611 22.8902 97.9247 22.7576 98.3224 22.6705C98.724 22.5795 99.1274 22.5076 99.5327 22.4545C100.063 22.3864 100.493 22.3352 100.822 22.3011C101.156 22.2633 101.398 22.2008 101.55 22.1136C101.705 22.0265 101.783 21.875 101.783 21.6591V21.6136C101.783 21.053 101.629 20.6174 101.322 20.3068C101.019 19.9962 100.559 19.8409 99.9418 19.8409C99.3016 19.8409 98.7997 19.9811 98.4361 20.2614C98.0724 20.5417 97.8168 20.8409 97.669 21.1591L96.3963 20.7045C96.6236 20.1742 96.9266 19.7614 97.3054 19.4659C97.688 19.1667 98.1046 18.9583 98.5554 18.8409C99.0099 18.7197 99.4569 18.6591 99.8963 18.6591C100.177 18.6591 100.499 18.6932 100.862 18.7614C101.23 18.8258 101.584 18.9602 101.925 19.1648C102.269 19.3693 102.555 19.678 102.783 20.0909C103.01 20.5038 103.124 21.0568 103.124 21.75V27.5H101.783V26.3182H101.714C101.624 26.5076 101.472 26.7102 101.26 26.9261C101.048 27.142 100.766 27.3258 100.413 27.4773C100.061 27.6288 99.6312 27.7045 99.1236 27.7045ZM99.3281 26.5C99.8584 26.5 100.305 26.3958 100.669 26.1875C101.036 25.9792 101.313 25.7102 101.499 25.3807C101.688 25.0511 101.783 24.7045 101.783 24.3409V23.1136C101.726 23.1818 101.601 23.2443 101.408 23.3011C101.218 23.3542 100.999 23.4015 100.749 23.4432C100.502 23.4811 100.262 23.5152 100.027 23.5455C99.7959 23.572 99.6084 23.5947 99.4645 23.6136C99.116 23.6591 98.7902 23.733 98.4872 23.8352C98.188 23.9337 97.9455 24.0833 97.7599 24.2841C97.5781 24.4811 97.4872 24.75 97.4872 25.0909C97.4872 25.5568 97.6596 25.9091 98.0043 26.1477C98.3527 26.3826 98.794 26.5 99.3281 26.5ZM111.412 22.5227V23.7727H106.594V22.5227H111.412ZM106.912 18.7727V27.5H105.571V18.7727H106.912ZM112.435 18.7727V27.5H111.094V18.7727H112.435Z" fill="black"/>
</svg>
