<svg width="144" height="47" viewBox="0 0 144 47" fill="none" xmlns="http://www.w3.org/2000/svg">
<rect x="0.837891" width="143" height="47" rx="13.5484" fill="#81FFD1"/>
<path d="M22.3095 23.3182V19.25H23.0595C23.3171 19.0152 23.5595 18.6837 23.7868 18.2557C24.0178 17.8239 24.2129 17.2481 24.372 16.5284C24.5349 15.8049 24.6428 14.8864 24.6958 13.7727L24.9458 8.86364H31.8549V19.25H33.1958V23.2955H31.8549V20.5H23.6504V23.3182H22.3095ZM24.7413 19.25H30.514V10.1136H26.2186L26.0368 13.7727C25.9913 14.6212 25.9118 15.3902 25.7981 16.0795C25.6845 16.7652 25.5386 17.3731 25.3606 17.9034C25.1826 18.4299 24.9761 18.8788 24.7413 19.25ZM37.7115 20.7045C37.1584 20.7045 36.6565 20.6004 36.2058 20.392C35.755 20.1799 35.3971 19.875 35.1319 19.4773C34.8668 19.0758 34.7342 18.5909 34.7342 18.0227C34.7342 17.5227 34.8327 17.1174 35.0297 16.8068C35.2266 16.4924 35.4899 16.2462 35.8194 16.0682C36.149 15.8902 36.5126 15.7576 36.9103 15.6705C37.3118 15.5795 37.7153 15.5076 38.1206 15.4545C38.6509 15.3864 39.0808 15.3352 39.4103 15.3011C39.7437 15.2633 39.9861 15.2008 40.1376 15.1136C40.2929 15.0265 40.3706 14.875 40.3706 14.6591V14.6136C40.3706 14.053 40.2172 13.6174 39.9103 13.3068C39.6073 12.9962 39.1471 12.8409 38.5297 12.8409C37.8895 12.8409 37.3876 12.9811 37.024 13.2614C36.6603 13.5417 36.4047 13.8409 36.2569 14.1591L34.9842 13.7045C35.2115 13.1742 35.5145 12.7614 35.8933 12.4659C36.2759 12.1667 36.6925 11.9583 37.1433 11.8409C37.5978 11.7197 38.0448 11.6591 38.4842 11.6591C38.7645 11.6591 39.0865 11.6932 39.4501 11.7614C39.8175 11.8258 40.1717 11.9602 40.5126 12.1648C40.8573 12.3693 41.1433 12.678 41.3706 13.0909C41.5978 13.5038 41.7115 14.0568 41.7115 14.75V20.5H40.3706V19.3182H40.3024C40.2115 19.5076 40.06 19.7102 39.8478 19.9261C39.6357 20.142 39.3535 20.3258 39.0012 20.4773C38.649 20.6288 38.219 20.7045 37.7115 20.7045ZM37.916 19.5C38.4463 19.5 38.8933 19.3958 39.2569 19.1875C39.6243 18.9792 39.9009 18.7102 40.0865 18.3807C40.2759 18.0511 40.3706 17.7045 40.3706 17.3409V16.1136C40.3137 16.1818 40.1887 16.2443 39.9956 16.3011C39.8062 16.3542 39.5865 16.4015 39.3365 16.4432C39.0903 16.4811 38.8497 16.5152 38.6149 16.5455C38.3838 16.572 38.1963 16.5947 38.0524 16.6136C37.7039 16.6591 37.3781 16.733 37.0751 16.8352C36.7759 16.9337 36.5334 17.0833 36.3478 17.2841C36.166 17.4811 36.0751 17.75 36.0751 18.0909C36.0751 18.5568 36.2475 18.9091 36.5922 19.1477C36.9406 19.3826 37.3819 19.5 37.916 19.5ZM50.6362 8.5L51.318 9.31818C51.0529 9.57576 50.746 9.75568 50.3976 9.85795C50.0491 9.96023 49.6551 10.0227 49.2157 10.0455C48.7763 10.0682 48.2877 10.0909 47.7498 10.1136C47.1438 10.1364 46.6419 10.2841 46.2441 10.5568C45.8464 10.8295 45.5396 11.2235 45.3237 11.7386C45.1078 12.2538 44.9695 12.8864 44.9089 13.6364H45.0225C45.318 13.0909 45.7271 12.6894 46.2498 12.4318C46.7725 12.1742 47.3332 12.0455 47.9316 12.0455C48.6135 12.0455 49.2271 12.2045 49.7726 12.5227C50.318 12.8409 50.7498 13.3125 51.068 13.9375C51.3862 14.5625 51.5453 15.3333 51.5453 16.25C51.5453 17.1629 51.3824 17.9508 51.0566 18.6136C50.7347 19.2765 50.282 19.7879 49.6987 20.1477C49.1191 20.5038 48.4392 20.6818 47.6589 20.6818C46.8786 20.6818 46.1949 20.4981 45.6078 20.1307C45.0207 19.7595 44.5642 19.2102 44.2385 18.483C43.9127 17.7519 43.7498 16.8485 43.7498 15.7727V14.8409C43.7498 12.8977 44.0794 11.4242 44.7385 10.4205C45.4013 9.41667 46.3975 8.89773 47.7271 8.86364C48.1968 8.84848 48.6154 8.8447 48.9828 8.85227C49.3502 8.85985 49.6703 8.8428 49.943 8.80114C50.2157 8.75947 50.4468 8.65909 50.6362 8.5ZM47.6589 19.4773C48.1854 19.4773 48.6381 19.3447 49.0169 19.0795C49.3994 18.8144 49.693 18.4413 49.8976 17.9602C50.1021 17.4754 50.2044 16.9053 50.2044 16.25C50.2044 15.6136 50.1002 15.072 49.8919 14.625C49.6873 14.178 49.3938 13.8371 49.0112 13.6023C48.6286 13.3674 48.1703 13.25 47.6362 13.25C47.246 13.25 46.8957 13.3163 46.585 13.4489C46.2744 13.5814 46.0093 13.7765 45.7896 14.0341C45.5699 14.2917 45.3994 14.6061 45.2782 14.9773C45.1608 15.3485 45.0983 15.7727 45.0907 16.25C45.0907 17.2273 45.3199 18.0095 45.7782 18.5966C46.2366 19.1837 46.8635 19.4773 47.6589 19.4773ZM54.9373 18.5227L59.1419 11.7727H60.6873V20.5H59.3464V13.75L55.1646 20.5H53.5964V11.7727H54.9373V18.5227ZM68.5297 11.7727V13.0227H64.4842V20.5H63.1433V11.7727H68.5297ZM72.6021 20.7045C72.0491 20.7045 71.5472 20.6004 71.0964 20.392C70.6457 20.1799 70.2877 19.875 70.0225 19.4773C69.7574 19.0758 69.6248 18.5909 69.6248 18.0227C69.6248 17.5227 69.7233 17.1174 69.9203 16.8068C70.1172 16.4924 70.3805 16.2462 70.71 16.0682C71.0396 15.8902 71.4032 15.7576 71.801 15.6705C72.2025 15.5795 72.6059 15.5076 73.0112 15.4545C73.5415 15.3864 73.9714 15.3352 74.301 15.3011C74.6343 15.2633 74.8767 15.2008 75.0282 15.1136C75.1835 15.0265 75.2612 14.875 75.2612 14.6591V14.6136C75.2612 14.053 75.1078 13.6174 74.801 13.3068C74.4979 12.9962 74.0377 12.8409 73.4203 12.8409C72.7801 12.8409 72.2782 12.9811 71.9146 13.2614C71.551 13.5417 71.2953 13.8409 71.1475 14.1591L69.8748 13.7045C70.1021 13.1742 70.4051 12.7614 70.7839 12.4659C71.1665 12.1667 71.5832 11.9583 72.0339 11.8409C72.4885 11.7197 72.9354 11.6591 73.3748 11.6591C73.6551 11.6591 73.9771 11.6932 74.3407 11.7614C74.7082 11.8258 75.0623 11.9602 75.4032 12.1648C75.7479 12.3693 76.0339 12.678 76.2612 13.0909C76.4885 13.5038 76.6021 14.0568 76.6021 14.75V20.5H75.2612V19.3182H75.193C75.1021 19.5076 74.9506 19.7102 74.7385 19.9261C74.5263 20.142 74.2441 20.3258 73.8919 20.4773C73.5396 20.6288 73.1097 20.7045 72.6021 20.7045ZM72.8066 19.5C73.3369 19.5 73.7839 19.3958 74.1476 19.1875C74.515 18.9792 74.7915 18.7102 74.9771 18.3807C75.1665 18.0511 75.2612 17.7045 75.2612 17.3409V16.1136C75.2044 16.1818 75.0794 16.2443 74.8862 16.3011C74.6968 16.3542 74.4771 16.4015 74.2271 16.4432C73.9809 16.4811 73.7404 16.5152 73.5055 16.5455C73.2744 16.572 73.0869 16.5947 72.943 16.6136C72.5945 16.6591 72.2688 16.733 71.9657 16.8352C71.6665 16.9337 71.4241 17.0833 71.2385 17.2841C71.0566 17.4811 70.9657 17.75 70.9657 18.0909C70.9657 18.5568 71.1381 18.9091 71.4828 19.1477C71.8313 19.3826 72.2725 19.5 72.8066 19.5ZM77.862 13.0227V11.7727H84.9529V13.0227H82.0893V20.5H80.7484V13.0227H77.862ZM86.9089 23.7727V11.7727H88.2044V13.1591H88.3635C88.4619 13.0076 88.5983 12.8144 88.7725 12.5795C88.9506 12.3409 89.2044 12.1288 89.5339 11.9432C89.8672 11.7538 90.318 11.6591 90.8862 11.6591C91.621 11.6591 92.2688 11.8428 92.8294 12.2102C93.39 12.5777 93.8275 13.0985 94.1419 13.7727C94.4563 14.447 94.6135 15.2424 94.6135 16.1591C94.6135 17.0833 94.4563 17.8845 94.1419 18.5625C93.8275 19.2367 93.3919 19.7595 92.8351 20.1307C92.2782 20.4981 91.6362 20.6818 90.9089 20.6818C90.3483 20.6818 89.8994 20.589 89.5623 20.4034C89.2252 20.214 88.9657 20 88.7839 19.7614C88.6021 19.5189 88.4619 19.3182 88.3635 19.1591H88.2498V23.7727H86.9089ZM88.2271 16.1364C88.2271 16.7955 88.3237 17.3769 88.5169 17.8807C88.71 18.3807 88.9922 18.7727 89.3635 19.0568C89.7347 19.3371 90.1892 19.4773 90.7271 19.4773C91.2877 19.4773 91.7555 19.3295 92.1305 19.0341C92.5093 18.7348 92.7934 18.3333 92.9828 17.8295C93.176 17.322 93.2726 16.7576 93.2726 16.1364C93.2726 15.5227 93.1779 14.9697 92.9885 14.4773C92.8029 13.9811 92.5207 13.589 92.1419 13.3011C91.7669 13.0095 91.2953 12.8636 90.7271 12.8636C90.1816 12.8636 89.7233 13.0019 89.3521 13.2784C88.9809 13.5511 88.7006 13.9337 88.5112 14.4261C88.3218 14.9148 88.2271 15.4848 88.2271 16.1364ZM99.2271 20.7045C98.6741 20.7045 98.1722 20.6004 97.7214 20.392C97.2707 20.1799 96.9127 19.875 96.6475 19.4773C96.3824 19.0758 96.2498 18.5909 96.2498 18.0227C96.2498 17.5227 96.3483 17.1174 96.5453 16.8068C96.7422 16.4924 97.0055 16.2462 97.335 16.0682C97.6646 15.8902 98.0282 15.7576 98.426 15.6705C98.8275 15.5795 99.2309 15.5076 99.6362 15.4545C100.166 15.3864 100.596 15.3352 100.926 15.3011C101.259 15.2633 101.502 15.2008 101.653 15.1136C101.809 15.0265 101.886 14.875 101.886 14.6591V14.6136C101.886 14.053 101.733 13.6174 101.426 13.3068C101.123 12.9962 100.663 12.8409 100.045 12.8409C99.4051 12.8409 98.9032 12.9811 98.5396 13.2614C98.176 13.5417 97.9203 13.8409 97.7725 14.1591L96.4998 13.7045C96.7271 13.1742 97.0301 12.7614 97.4089 12.4659C97.7915 12.1667 98.2082 11.9583 98.6589 11.8409C99.1135 11.7197 99.5604 11.6591 99.9998 11.6591C100.28 11.6591 100.602 11.6932 100.966 11.7614C101.333 11.8258 101.687 11.9602 102.028 12.1648C102.373 12.3693 102.659 12.678 102.886 13.0909C103.113 13.5038 103.227 14.0568 103.227 14.75V20.5H101.886V19.3182H101.818C101.727 19.5076 101.576 19.7102 101.363 19.9261C101.151 20.142 100.869 20.3258 100.517 20.4773C100.165 20.6288 99.7347 20.7045 99.2271 20.7045ZM99.4316 19.5C99.9619 19.5 100.409 19.3958 100.773 19.1875C101.14 18.9792 101.416 18.7102 101.602 18.3807C101.791 18.0511 101.886 17.7045 101.886 17.3409V16.1136C101.829 16.1818 101.704 16.2443 101.511 16.3011C101.322 16.3542 101.102 16.4015 100.852 16.4432C100.606 16.4811 100.365 16.5152 100.131 16.5455C99.8994 16.572 99.7119 16.5947 99.568 16.6136C99.2195 16.6591 98.8938 16.733 98.5907 16.8352C98.2915 16.9337 98.0491 17.0833 97.8635 17.2841C97.6816 17.4811 97.5907 17.75 97.5907 18.0909C97.5907 18.5568 97.7631 18.9091 98.1078 19.1477C98.4563 19.3826 98.8975 19.5 99.4316 19.5ZM111.515 15.5227V16.7727H106.697V15.5227H111.515ZM107.015 11.7727V20.5H105.675V11.7727H107.015ZM112.538 11.7727V20.5H111.197V11.7727H112.538ZM117.555 20.7045C117.002 20.7045 116.5 20.6004 116.05 20.392C115.599 20.1799 115.241 19.875 114.976 19.4773C114.711 19.0758 114.578 18.5909 114.578 18.0227C114.578 17.5227 114.676 17.1174 114.873 16.8068C115.07 16.4924 115.334 16.2462 115.663 16.0682C115.993 15.8902 116.356 15.7576 116.754 15.6705C117.156 15.5795 117.559 15.5076 117.964 15.4545C118.495 15.3864 118.925 15.3352 119.254 15.3011C119.587 15.2633 119.83 15.2008 119.981 15.1136C120.137 15.0265 120.214 14.875 120.214 14.6591V14.6136C120.214 14.053 120.061 13.6174 119.754 13.3068C119.451 12.9962 118.991 12.8409 118.373 12.8409C117.733 12.8409 117.231 12.9811 116.868 13.2614C116.504 13.5417 116.248 13.8409 116.101 14.1591L114.828 13.7045C115.055 13.1742 115.358 12.7614 115.737 12.4659C116.12 12.1667 116.536 11.9583 116.987 11.8409C117.442 11.7197 117.889 11.6591 118.328 11.6591C118.608 11.6591 118.93 11.6932 119.294 11.7614C119.661 11.8258 120.015 11.9602 120.356 12.1648C120.701 12.3693 120.987 12.678 121.214 13.0909C121.442 13.5038 121.555 14.0568 121.555 14.75V20.5H120.214V19.3182H120.146C120.055 19.5076 119.904 19.7102 119.692 19.9261C119.479 20.142 119.197 20.3258 118.845 20.4773C118.493 20.6288 118.063 20.7045 117.555 20.7045ZM117.76 19.5C118.29 19.5 118.737 19.3958 119.101 19.1875C119.468 18.9792 119.745 18.7102 119.93 18.3807C120.12 18.0511 120.214 17.7045 120.214 17.3409V16.1136C120.157 16.1818 120.032 16.2443 119.839 16.3011C119.65 16.3542 119.43 16.4015 119.18 16.4432C118.934 16.4811 118.693 16.5152 118.459 16.5455C118.228 16.572 118.04 16.5947 117.896 16.6136C117.548 16.6591 117.222 16.733 116.919 16.8352C116.62 16.9337 116.377 17.0833 116.192 17.2841C116.01 17.4811 115.919 17.75 115.919 18.0909C115.919 18.5568 116.091 18.9091 116.436 19.1477C116.784 19.3826 117.226 19.5 117.76 19.5ZM39.475 30.9091C39.1719 30.9129 38.867 30.9905 38.5602 31.142C38.2572 31.2936 38.0034 31.4943 37.7988 31.7443C37.5981 31.9905 37.4977 32.2652 37.4977 32.5682H36.1795C36.1795 32.1894 36.2704 31.8258 36.4522 31.4773C36.6341 31.1288 36.8784 30.8182 37.1852 30.5455C37.4958 30.2727 37.8481 30.0568 38.242 29.8977C38.6397 29.7386 39.0507 29.6591 39.475 29.6591C40.2704 29.6591 40.9447 29.8598 41.4977 30.2614C42.0545 30.6629 42.4769 31.1932 42.7647 31.8523C43.0564 32.5114 43.2022 33.2273 43.2022 34V34.3182C43.2022 35.0871 43.0564 35.803 42.7647 36.4659C42.4769 37.125 42.0545 37.6553 41.4977 38.0568C40.9447 38.4583 40.2704 38.6591 39.475 38.6591C38.8386 38.6591 38.2723 38.5189 37.7761 38.2386C37.2799 37.9545 36.8897 37.5758 36.6056 37.1023C36.3216 36.6288 36.1795 36.1023 36.1795 35.5227H37.4977C37.4977 35.8523 37.5905 36.161 37.7761 36.4489C37.9655 36.733 38.2098 36.964 38.5091 37.142C38.8121 37.3163 39.1341 37.4053 39.475 37.4091C39.9825 37.4053 40.4144 37.2462 40.7704 36.9318C41.1265 36.6174 41.3973 36.2235 41.5829 35.75C41.7685 35.2765 41.8613 34.7992 41.8613 34.3182V34C41.8613 33.5076 41.7685 33.0265 41.5829 32.5568C41.4011 32.0833 41.1322 31.6913 40.7761 31.3807C40.4238 31.0701 39.9901 30.9129 39.475 30.9091ZM42.4068 33.4773V34.7273H38.5886V33.4773H42.4068ZM44.1042 31.0227V29.7727H51.1951V31.0227H48.3315V38.5H46.9906V31.0227H44.1042ZM56.3571 38.6818C55.5162 38.6818 54.7908 38.4962 54.1809 38.125C53.5749 37.75 53.1071 37.2273 52.7775 36.5568C52.4518 35.8826 52.2889 35.0985 52.2889 34.2045C52.2889 33.3106 52.4518 32.5227 52.7775 31.8409C53.1071 31.1553 53.5654 30.6212 54.1525 30.2386C54.7434 29.8523 55.4328 29.6591 56.2207 29.6591C56.6752 29.6591 57.1241 29.7348 57.5673 29.8864C58.0105 30.0379 58.4139 30.2841 58.7775 30.625C59.1412 30.9621 59.4309 31.4091 59.6468 31.9659C59.8627 32.5227 59.9707 33.2083 59.9707 34.0227V34.5909H53.2434V33.4318H58.6071C58.6071 32.9394 58.5086 32.5 58.3116 32.1136C58.1184 31.7273 57.8419 31.4223 57.4821 31.1989C57.126 30.9754 56.7056 30.8636 56.2207 30.8636C55.6866 30.8636 55.2245 30.9962 54.8343 31.2614C54.448 31.5227 54.1506 31.8636 53.9423 32.2841C53.734 32.7045 53.6298 33.1553 53.6298 33.6364V34.4091C53.6298 35.0682 53.7434 35.6269 53.9707 36.0852C54.2018 36.5398 54.5218 36.8864 54.9309 37.125C55.34 37.3598 55.8154 37.4773 56.3571 37.4773C56.7093 37.4773 57.0275 37.428 57.3116 37.3295C57.5995 37.2273 57.8476 37.0758 58.0559 36.875C58.2643 36.6705 58.4252 36.4167 58.5389 36.1136L59.8343 36.4773C59.698 36.9167 59.4688 37.303 59.1468 37.6364C58.8249 37.9659 58.4271 38.2235 57.9537 38.4091C57.4802 38.5909 56.948 38.6818 56.3571 38.6818ZM62.0105 38.5V29.7727H63.3514V33.5682H64.2377L67.3741 29.7727H69.1014L65.5787 33.9773L69.1468 38.5H67.4196L64.5559 34.8182H63.3514V38.5H62.0105ZM73.7903 38.6818C72.9721 38.6818 72.2676 38.4886 71.6767 38.1023C71.0858 37.7159 70.6312 37.1837 70.313 36.5057C69.9949 35.8277 69.8358 35.053 69.8358 34.1818C69.8358 33.2955 69.9986 32.5133 70.3244 31.8352C70.6539 31.1534 71.1123 30.6212 71.6994 30.2386C72.2903 29.8523 72.9797 29.6591 73.7676 29.6591C74.3812 29.6591 74.9342 29.7727 75.4267 30C75.9191 30.2273 76.3225 30.5455 76.6369 30.9545C76.9513 31.3636 77.1464 31.8409 77.2221 32.3864H75.8812C75.7789 31.9886 75.5517 31.6364 75.1994 31.3295C74.8509 31.0189 74.3812 30.8636 73.7903 30.8636C73.2676 30.8636 72.8092 31 72.4153 31.2727C72.0252 31.5417 71.7202 31.9223 71.5005 32.4148C71.2846 32.9034 71.1767 33.4773 71.1767 34.1364C71.1767 34.8106 71.2827 35.3977 71.4949 35.8977C71.7108 36.3977 72.0138 36.786 72.4039 37.0625C72.7979 37.339 73.26 37.4773 73.7903 37.4773C74.1388 37.4773 74.4551 37.4167 74.7392 37.2955C75.0233 37.1742 75.2638 37 75.4608 36.7727C75.6577 36.5455 75.7979 36.2727 75.8812 35.9545H77.2221C77.1464 36.4697 76.9589 36.9337 76.6596 37.3466C76.3642 37.7557 75.9721 38.0814 75.4835 38.3239C74.9986 38.5625 74.4342 38.6818 73.7903 38.6818ZM80.5233 36.5227L84.7278 29.7727H86.2733V38.5H84.9324V31.75L80.7505 38.5H79.1824V29.7727H80.5233V36.5227ZM87.9565 38.5V37.25H88.2747C88.536 37.25 88.7538 37.1989 88.9281 37.0966C89.1023 36.9905 89.2425 36.8068 89.3485 36.5455C89.4584 36.2803 89.5417 35.9129 89.5985 35.4432C89.6592 34.9697 89.7027 34.3674 89.7292 33.6364L89.8883 29.7727H95.7065V38.5H94.3656V31.0227H91.161L91.0247 34.1364C90.9944 34.8523 90.93 35.483 90.8315 36.0284C90.7368 36.5701 90.591 37.0246 90.394 37.392C90.2008 37.7595 89.9432 38.036 89.6213 38.2216C89.2993 38.4072 88.8959 38.5 88.411 38.5H87.9565ZM100.735 38.7045C100.182 38.7045 99.68 38.6004 99.2292 38.392C98.7785 38.1799 98.4205 37.875 98.1554 37.4773C97.8902 37.0758 97.7576 36.5909 97.7576 36.0227C97.7576 35.5227 97.8561 35.1174 98.0531 34.8068C98.2501 34.4924 98.5133 34.2462 98.8429 34.0682C99.1724 33.8902 99.536 33.7576 99.9338 33.6705C100.335 33.5795 100.739 33.5076 101.144 33.4545C101.674 33.3864 102.104 33.3352 102.434 33.3011C102.767 33.2633 103.01 33.2008 103.161 33.1136C103.316 33.0265 103.394 32.875 103.394 32.6591V32.6136C103.394 32.053 103.241 31.6174 102.934 31.3068C102.631 30.9962 102.171 30.8409 101.553 30.8409C100.913 30.8409 100.411 30.9811 100.047 31.2614C99.6838 31.5417 99.4281 31.8409 99.2804 32.1591L98.0076 31.7045C98.2349 31.1742 98.5379 30.7614 98.9167 30.4659C99.2993 30.1667 99.716 29.9583 100.167 29.8409C100.621 29.7197 101.068 29.6591 101.508 29.6591C101.788 29.6591 102.11 29.6932 102.474 29.7614C102.841 29.8258 103.195 29.9602 103.536 30.1648C103.881 30.3693 104.167 30.678 104.394 31.0909C104.621 31.5038 104.735 32.0568 104.735 32.75V38.5H103.394V37.3182H103.326C103.235 37.5076 103.083 37.7102 102.871 37.9261C102.659 38.142 102.377 38.3258 102.025 38.4773C101.672 38.6288 101.242 38.7045 100.735 38.7045ZM100.939 37.5C101.47 37.5 101.917 37.3958 102.28 37.1875C102.648 36.9792 102.924 36.7102 103.11 36.3807C103.299 36.0511 103.394 35.7045 103.394 35.3409V34.1136C103.337 34.1818 103.212 34.2443 103.019 34.3011C102.83 34.3542 102.61 34.4015 102.36 34.4432C102.114 34.4811 101.873 34.5152 101.638 34.5455C101.407 34.572 101.22 34.5947 101.076 34.6136C100.727 34.6591 100.402 34.733 100.099 34.8352C99.7993 34.9337 99.5569 35.0833 99.3713 35.2841C99.1895 35.4811 99.0985 35.75 99.0985 36.0909C99.0985 36.5568 99.2709 36.9091 99.6156 37.1477C99.9641 37.3826 100.405 37.5 100.939 37.5ZM105.995 31.0227V29.7727H113.086V31.0227H110.222V38.5H108.881V31.0227H105.995Z" fill="black"/>
</svg>
