<svg width="144" height="43" viewBox="0 0 144 43" fill="none" xmlns="http://www.w3.org/2000/svg">
<rect y="0.5" width="143.613" height="42" rx="13.5484" fill="#D7FEC9"/>
<path d="M37.2157 16.75H39.0566C39.9203 16.75 40.6873 16.9432 41.3578 17.3295C42.0282 17.7159 42.5547 18.2538 42.9373 18.9432C43.3199 19.6326 43.5112 20.4318 43.5112 21.3409C43.5112 22.25 43.3199 23.0511 42.9373 23.7443C42.5547 24.4375 42.0282 24.9792 41.3578 25.3693C40.6873 25.7595 39.9203 25.9545 39.0566 25.9545H37.2157C36.3521 25.9545 35.585 25.7614 34.9146 25.375C34.2441 24.9886 33.7176 24.4508 33.335 23.7614C32.9525 23.072 32.7612 22.2727 32.7612 21.3636C32.7612 20.4545 32.9525 19.6534 33.335 18.9602C33.7176 18.267 34.2441 17.7254 34.9146 17.3352C35.585 16.9451 36.3521 16.75 37.2157 16.75ZM37.2157 18C36.5566 18 35.9998 18.1383 35.5453 18.4148C35.0945 18.6913 34.7517 19.0814 34.5169 19.5852C34.2858 20.089 34.1703 20.6818 34.1703 21.3636C34.1703 22.0379 34.2858 22.625 34.5169 23.125C34.7517 23.625 35.0945 24.0133 35.5453 24.2898C35.9998 24.5663 36.5566 24.7045 37.2157 24.7045H39.0566C39.7157 24.7045 40.2707 24.5663 40.7214 24.2898C41.176 24.0133 41.5188 23.6231 41.7498 23.1193C41.9847 22.6155 42.1021 22.0227 42.1021 21.3409C42.1021 20.6667 41.9847 20.0795 41.7498 19.5795C41.5188 19.0795 41.176 18.6913 40.7214 18.4148C40.2707 18.1383 39.7157 18 39.0566 18H37.2157ZM38.8521 15.1591V27.4773H37.443V15.1591H38.8521ZM49.3493 27.1818C48.5083 27.1818 47.783 26.9962 47.1731 26.625C46.5671 26.25 46.0993 25.7273 45.7697 25.0568C45.444 24.3826 45.2811 23.5985 45.2811 22.7045C45.2811 21.8106 45.444 21.0227 45.7697 20.3409C46.0993 19.6553 46.5576 19.1212 47.1447 18.7386C47.7356 18.3523 48.425 18.1591 49.2129 18.1591C49.6674 18.1591 50.1163 18.2348 50.5595 18.3864C51.0027 18.5379 51.4061 18.7841 51.7697 19.125C52.1333 19.4621 52.4231 19.9091 52.639 20.4659C52.8549 21.0227 52.9629 21.7083 52.9629 22.5227V23.0909H46.2356V21.9318H51.5993C51.5993 21.4394 51.5008 21 51.3038 20.6136C51.1106 20.2273 50.8341 19.9223 50.4743 19.6989C50.1182 19.4754 49.6977 19.3636 49.2129 19.3636C48.6788 19.3636 48.2167 19.4962 47.8265 19.7614C47.4402 20.0227 47.1428 20.3636 46.9345 20.7841C46.7261 21.2045 46.622 21.6553 46.622 22.1364V22.9091C46.622 23.5682 46.7356 24.1269 46.9629 24.5852C47.194 25.0398 47.514 25.3864 47.9231 25.625C48.3322 25.8598 48.8076 25.9773 49.3493 25.9773C49.7015 25.9773 50.0197 25.928 50.3038 25.8295C50.5917 25.7273 50.8398 25.5758 51.0481 25.375C51.2565 25.1705 51.4174 24.9167 51.5311 24.6136L52.8265 24.9773C52.6902 25.4167 52.461 25.803 52.139 26.1364C51.8171 26.4659 51.4193 26.7235 50.9458 26.9091C50.4724 27.0909 49.9402 27.1818 49.3493 27.1818ZM60.8436 22.0227V23.2727H56.0254V22.0227H60.8436ZM56.3436 18.2727V27H55.0027V18.2727H56.3436ZM61.8663 18.2727V27H60.5254V18.2727H61.8663ZM65.6561 25.0227L69.8606 18.2727H71.4061V27H70.0652V20.25L65.8833 27H64.3152V18.2727H65.6561V25.0227ZM72.9302 29.5V25.75H73.6575C73.8355 25.5644 73.9889 25.3636 74.1177 25.1477C74.2465 24.9318 74.3583 24.6761 74.4529 24.3807C74.5514 24.0814 74.6348 23.7178 74.7029 23.2898C74.7711 22.858 74.8317 22.3371 74.8848 21.7273L75.1802 18.2727H80.7257V25.75H82.0666V29.5H80.7257V27H74.2711V29.5H72.9302ZM75.1802 25.75H79.3848V19.5227H76.4302L76.2029 21.7273C76.1083 22.6402 75.9908 23.4375 75.8507 24.1193C75.7105 24.8011 75.487 25.3447 75.1802 25.75ZM85.1873 25.0227L89.3919 18.2727H90.9373V27H89.5964V20.25L85.4146 27H83.8464V18.2727H85.1873V25.0227ZM96.9387 27.1818C96.1509 27.1818 95.4596 26.9943 94.8649 26.6193C94.274 26.2443 93.8118 25.7197 93.4785 25.0455C93.149 24.3712 92.9842 23.5833 92.9842 22.6818C92.9842 21.7727 93.149 20.9792 93.4785 20.3011C93.8118 19.6231 94.274 19.0966 94.8649 18.7216C95.4596 18.3466 96.1509 18.1591 96.9387 18.1591C97.7266 18.1591 98.416 18.3466 99.0069 18.7216C99.6016 19.0966 100.064 19.6231 100.393 20.3011C100.727 20.9792 100.893 21.7727 100.893 22.6818C100.893 23.5833 100.727 24.3712 100.393 25.0455C100.064 25.7197 99.6016 26.2443 99.0069 26.6193C98.416 26.9943 97.7266 27.1818 96.9387 27.1818ZM96.9387 25.9773C97.5372 25.9773 98.0297 25.8239 98.416 25.517C98.8024 25.2102 99.0884 24.8068 99.274 24.3068C99.4596 23.8068 99.5524 23.2652 99.5524 22.6818C99.5524 22.0985 99.4596 21.5549 99.274 21.0511C99.0884 20.5473 98.8024 20.1402 98.416 19.8295C98.0297 19.5189 97.5372 19.3636 96.9387 19.3636C96.3403 19.3636 95.8478 19.5189 95.4615 19.8295C95.0751 20.1402 94.7891 20.5473 94.6035 21.0511C94.4179 21.5549 94.3251 22.0985 94.3251 22.6818C94.3251 23.2652 94.4179 23.8068 94.6035 24.3068C94.7891 24.8068 95.0751 25.2102 95.4615 25.517C95.8478 25.8239 96.3403 25.9773 96.9387 25.9773ZM108.781 22.0227V23.2727H103.963V22.0227H108.781ZM104.281 18.2727V27H102.94V18.2727H104.281ZM109.804 18.2727V27H108.463V18.2727H109.804Z" fill="black"/>
</svg>
