<svg width="847" height="484" viewBox="0 0 847 484" fill="none" xmlns="http://www.w3.org/2000/svg">
<rect width="847" height="484" fill="white"/>
<path d="M372.794 242.364V254H371.731V242.364H372.794ZM376.95 242.364V254H375.887V242.364H376.95ZM381.106 242.364V254H380.044V242.364H381.106ZM385.671 252.409L385.569 253.017C385.505 253.426 385.414 253.877 385.296 254.369C385.179 254.862 385.058 255.33 384.933 255.773C384.808 256.216 384.7 256.572 384.609 256.841H383.83C383.88 256.583 383.942 256.256 384.018 255.858C384.097 255.46 384.179 255.019 384.262 254.534C384.346 254.053 384.421 253.557 384.49 253.045L384.569 252.409H385.671ZM402.173 246H401.105C401.025 245.602 400.881 245.235 400.673 244.898C400.468 244.557 400.211 244.259 399.9 244.006C399.589 243.752 399.237 243.555 398.843 243.415C398.449 243.275 398.023 243.205 397.565 243.205C396.83 243.205 396.16 243.396 395.553 243.778C394.951 244.161 394.468 244.723 394.105 245.466C393.745 246.205 393.565 247.11 393.565 248.182C393.565 249.261 393.745 250.17 394.105 250.909C394.468 251.648 394.951 252.208 395.553 252.591C396.16 252.97 396.83 253.159 397.565 253.159C398.023 253.159 398.449 253.089 398.843 252.949C399.237 252.809 399.589 252.614 399.9 252.364C400.211 252.11 400.468 251.812 400.673 251.472C400.881 251.131 401.025 250.761 401.105 250.364H402.173C402.078 250.898 401.9 251.396 401.639 251.858C401.381 252.316 401.052 252.718 400.65 253.062C400.252 253.407 399.794 253.676 399.275 253.869C398.756 254.062 398.186 254.159 397.565 254.159C396.588 254.159 395.72 253.915 394.963 253.426C394.205 252.934 393.61 252.241 393.178 251.347C392.75 250.453 392.536 249.398 392.536 248.182C392.536 246.966 392.75 245.911 393.178 245.017C393.61 244.123 394.205 243.432 394.963 242.943C395.72 242.451 396.588 242.205 397.565 242.205C398.186 242.205 398.756 242.301 399.275 242.494C399.794 242.684 400.252 242.953 400.65 243.301C401.052 243.646 401.381 244.047 401.639 244.506C401.9 244.964 402.078 245.462 402.173 246ZM406.896 254.199C406.369 254.199 405.888 254.097 405.453 253.892C405.017 253.684 404.67 253.384 404.413 252.994C404.155 252.6 404.026 252.123 404.026 251.562C404.026 251.131 404.108 250.767 404.271 250.472C404.434 250.176 404.665 249.934 404.964 249.744C405.263 249.555 405.617 249.405 406.026 249.295C406.436 249.186 406.886 249.1 407.379 249.04C407.867 248.979 408.28 248.926 408.617 248.881C408.958 248.835 409.218 248.763 409.396 248.665C409.574 248.566 409.663 248.407 409.663 248.188V247.983C409.663 247.388 409.485 246.92 409.129 246.58C408.776 246.235 408.269 246.062 407.606 246.062C406.977 246.062 406.464 246.201 406.066 246.477C405.672 246.754 405.396 247.08 405.237 247.455L404.276 247.108C404.473 246.631 404.746 246.25 405.095 245.966C405.443 245.678 405.833 245.472 406.265 245.347C406.697 245.218 407.134 245.153 407.578 245.153C407.911 245.153 408.258 245.197 408.617 245.284C408.981 245.371 409.318 245.523 409.629 245.739C409.939 245.951 410.191 246.248 410.384 246.631C410.578 247.009 410.674 247.491 410.674 248.074V254H409.663V252.619H409.6C409.479 252.877 409.299 253.127 409.061 253.369C408.822 253.612 408.523 253.811 408.163 253.966C407.803 254.121 407.381 254.199 406.896 254.199ZM407.032 253.273C407.57 253.273 408.036 253.153 408.43 252.915C408.824 252.676 409.127 252.36 409.339 251.966C409.555 251.568 409.663 251.131 409.663 250.653V249.392C409.587 249.464 409.46 249.528 409.282 249.585C409.108 249.642 408.905 249.693 408.674 249.739C408.447 249.78 408.22 249.816 407.992 249.847C407.765 249.877 407.561 249.903 407.379 249.926C406.886 249.987 406.466 250.081 406.117 250.21C405.769 250.339 405.502 250.517 405.316 250.744C405.131 250.968 405.038 251.256 405.038 251.608C405.038 252.138 405.227 252.549 405.606 252.841C405.985 253.129 406.46 253.273 407.032 253.273Z" fill="black"/>
<path d="M380.801 302.364L384.437 312.619H384.539L388.176 302.364H389.289L385.056 314H383.92L379.687 302.364H380.801ZM391.208 312.409L391.106 313.017C391.042 313.426 390.951 313.877 390.833 314.369C390.716 314.862 390.595 315.33 390.47 315.773C390.345 316.216 390.237 316.572 390.146 316.841H389.368C389.417 316.583 389.479 316.256 389.555 315.858C389.635 315.46 389.716 315.019 389.799 314.534C389.883 314.053 389.958 313.557 390.027 313.045L390.106 312.409H391.208ZM407.71 306H406.642C406.562 305.602 406.418 305.235 406.21 304.898C406.005 304.557 405.748 304.259 405.437 304.006C405.127 303.752 404.774 303.555 404.38 303.415C403.986 303.275 403.56 303.205 403.102 303.205C402.367 303.205 401.697 303.396 401.091 303.778C400.488 304.161 400.005 304.723 399.642 305.466C399.282 306.205 399.102 307.11 399.102 308.182C399.102 309.261 399.282 310.17 399.642 310.909C400.005 311.648 400.488 312.208 401.091 312.591C401.697 312.97 402.367 313.159 403.102 313.159C403.56 313.159 403.986 313.089 404.38 312.949C404.774 312.809 405.127 312.614 405.437 312.364C405.748 312.11 406.005 311.812 406.21 311.472C406.418 311.131 406.562 310.761 406.642 310.364H407.71C407.615 310.898 407.437 311.396 407.176 311.858C406.918 312.316 406.589 312.718 406.187 313.062C405.789 313.407 405.331 313.676 404.812 313.869C404.293 314.062 403.723 314.159 403.102 314.159C402.125 314.159 401.257 313.915 400.5 313.426C399.742 312.934 399.147 312.241 398.716 311.347C398.288 310.453 398.074 309.398 398.074 308.182C398.074 306.966 398.288 305.911 398.716 305.017C399.147 304.123 399.742 303.432 400.5 302.943C401.257 302.451 402.125 302.205 403.102 302.205C403.723 302.205 404.293 302.301 404.812 302.494C405.331 302.684 405.789 302.953 406.187 303.301C406.589 303.646 406.918 304.047 407.176 304.506C407.437 304.964 407.615 305.462 407.71 306ZM412.433 314.199C411.906 314.199 411.425 314.097 410.99 313.892C410.554 313.684 410.208 313.384 409.95 312.994C409.692 312.6 409.564 312.123 409.564 311.562C409.564 311.131 409.645 310.767 409.808 310.472C409.971 310.176 410.202 309.934 410.501 309.744C410.8 309.555 411.154 309.405 411.564 309.295C411.973 309.186 412.423 309.1 412.916 309.04C413.404 308.979 413.817 308.926 414.154 308.881C414.495 308.835 414.755 308.763 414.933 308.665C415.111 308.566 415.2 308.407 415.2 308.188V307.983C415.2 307.388 415.022 306.92 414.666 306.58C414.314 306.235 413.806 306.062 413.143 306.062C412.514 306.062 412.001 306.201 411.603 306.477C411.209 306.754 410.933 307.08 410.774 307.455L409.814 307.108C410.011 306.631 410.283 306.25 410.632 305.966C410.98 305.678 411.37 305.472 411.802 305.347C412.234 305.218 412.672 305.153 413.115 305.153C413.448 305.153 413.795 305.197 414.154 305.284C414.518 305.371 414.855 305.523 415.166 305.739C415.476 305.951 415.728 306.248 415.922 306.631C416.115 307.009 416.211 307.491 416.211 308.074V314H415.2V312.619H415.137C415.016 312.877 414.836 313.127 414.598 313.369C414.359 313.612 414.06 313.811 413.7 313.966C413.34 314.121 412.918 314.199 412.433 314.199ZM412.569 313.273C413.107 313.273 413.573 313.153 413.967 312.915C414.361 312.676 414.664 312.36 414.876 311.966C415.092 311.568 415.2 311.131 415.2 310.653V309.392C415.124 309.464 414.997 309.528 414.819 309.585C414.645 309.642 414.442 309.693 414.211 309.739C413.984 309.78 413.757 309.816 413.529 309.847C413.302 309.877 413.098 309.903 412.916 309.926C412.423 309.987 412.003 310.081 411.654 310.21C411.306 310.339 411.039 310.517 410.853 310.744C410.668 310.968 410.575 311.256 410.575 311.608C410.575 312.138 410.764 312.549 411.143 312.841C411.522 313.129 411.997 313.273 412.569 313.273Z" fill="black"/>
<path d="M187.66 242.364L191.297 252.619H191.399L195.035 242.364H196.149L191.916 254H190.779L186.547 242.364H187.66ZM199.206 242.364V254H198.143V242.364H199.206ZM203.362 242.364V254H202.299V242.364H203.362ZM207.518 242.364V254H206.456V242.364H207.518ZM212.083 252.409L211.981 253.017C211.917 253.426 211.826 253.877 211.708 254.369C211.591 254.862 211.47 255.33 211.345 255.773C211.22 256.216 211.112 256.572 211.021 256.841H210.243C210.292 256.583 210.354 256.256 210.43 255.858C210.51 255.46 210.591 255.019 210.674 254.534C210.758 254.053 210.833 253.557 210.902 253.045L210.981 252.409H212.083ZM228.585 246H227.517C227.437 245.602 227.293 245.235 227.085 244.898C226.88 244.557 226.623 244.259 226.312 244.006C226.002 243.752 225.649 243.555 225.255 243.415C224.861 243.275 224.435 243.205 223.977 243.205C223.242 243.205 222.572 243.396 221.966 243.778C221.363 244.161 220.88 244.723 220.517 245.466C220.157 246.205 219.977 247.11 219.977 248.182C219.977 249.261 220.157 250.17 220.517 250.909C220.88 251.648 221.363 252.208 221.966 252.591C222.572 252.97 223.242 253.159 223.977 253.159C224.435 253.159 224.861 253.089 225.255 252.949C225.649 252.809 226.002 252.614 226.312 252.364C226.623 252.11 226.88 251.812 227.085 251.472C227.293 251.131 227.437 250.761 227.517 250.364H228.585C228.49 250.898 228.312 251.396 228.051 251.858C227.793 252.316 227.464 252.718 227.062 253.062C226.664 253.407 226.206 253.676 225.687 253.869C225.168 254.062 224.598 254.159 223.977 254.159C223 254.159 222.132 253.915 221.375 253.426C220.617 252.934 220.022 252.241 219.591 251.347C219.163 250.453 218.949 249.398 218.949 248.182C218.949 246.966 219.163 245.911 219.591 245.017C220.022 244.123 220.617 243.432 221.375 242.943C222.132 242.451 223 242.205 223.977 242.205C224.598 242.205 225.168 242.301 225.687 242.494C226.206 242.684 226.664 242.953 227.062 243.301C227.464 243.646 227.793 244.047 228.051 244.506C228.312 244.964 228.49 245.462 228.585 246ZM233.308 254.199C232.781 254.199 232.3 254.097 231.865 253.892C231.429 253.684 231.083 253.384 230.825 252.994C230.567 252.6 230.439 252.123 230.439 251.562C230.439 251.131 230.52 250.767 230.683 250.472C230.846 250.176 231.077 249.934 231.376 249.744C231.675 249.555 232.029 249.405 232.439 249.295C232.848 249.186 233.298 249.1 233.791 249.04C234.279 248.979 234.692 248.926 235.029 248.881C235.37 248.835 235.63 248.763 235.808 248.665C235.986 248.566 236.075 248.407 236.075 248.188V247.983C236.075 247.388 235.897 246.92 235.541 246.58C235.189 246.235 234.681 246.062 234.018 246.062C233.389 246.062 232.876 246.201 232.478 246.477C232.084 246.754 231.808 247.08 231.649 247.455L230.689 247.108C230.886 246.631 231.158 246.25 231.507 245.966C231.855 245.678 232.245 245.472 232.677 245.347C233.109 245.218 233.547 245.153 233.99 245.153C234.323 245.153 234.67 245.197 235.029 245.284C235.393 245.371 235.73 245.523 236.041 245.739C236.351 245.951 236.603 246.248 236.797 246.631C236.99 247.009 237.086 247.491 237.086 248.074V254H236.075V252.619H236.012C235.891 252.877 235.711 253.127 235.473 253.369C235.234 253.612 234.935 253.811 234.575 253.966C234.215 254.121 233.793 254.199 233.308 254.199ZM233.444 253.273C233.982 253.273 234.448 253.153 234.842 252.915C235.236 252.676 235.539 252.36 235.751 251.966C235.967 251.568 236.075 251.131 236.075 250.653V249.392C235.999 249.464 235.872 249.528 235.694 249.585C235.52 249.642 235.317 249.693 235.086 249.739C234.859 249.78 234.632 249.816 234.404 249.847C234.177 249.877 233.973 249.903 233.791 249.926C233.298 249.987 232.878 250.081 232.529 250.21C232.181 250.339 231.914 250.517 231.728 250.744C231.543 250.968 231.45 251.256 231.45 251.608C231.45 252.138 231.639 252.549 232.018 252.841C232.397 253.129 232.872 253.273 233.444 253.273Z" fill="black"/>
<line x1="635.754" y1="136" x2="619.659" y2="136" stroke="#A72F77" stroke-width="2"/>
<line x1="635.754" y1="174" x2="619.659" y2="174" stroke="#A72F77" stroke-width="2"/>
<line x1="635.754" y1="211" x2="619.659" y2="211" stroke="#A72F77" stroke-width="2"/>
<line x1="618.646" y1="135" x2="618.646" y2="212" stroke="#A72F77" stroke-width="2"/>
<rect x="638.771" y="119" width="106.629" height="31" rx="10" fill="#C9E1FE"/>
<path d="M663.643 139V130.273H666.694C667.302 130.273 667.803 130.378 668.198 130.588C668.593 130.795 668.887 131.075 669.08 131.428C669.273 131.777 669.37 132.165 669.37 132.591C669.37 132.966 669.303 133.276 669.17 133.52C669.039 133.764 668.866 133.957 668.65 134.099C668.437 134.241 668.205 134.347 667.955 134.415V134.5C668.222 134.517 668.491 134.611 668.761 134.781C669.031 134.952 669.256 135.196 669.438 135.514C669.62 135.832 669.711 136.222 669.711 136.682C669.711 137.119 669.612 137.513 669.413 137.862C669.214 138.212 668.9 138.489 668.471 138.693C668.042 138.898 667.484 139 666.796 139H663.643ZM664.7 138.062H666.796C667.487 138.062 667.977 137.929 668.266 137.662C668.559 137.392 668.705 137.065 668.705 136.682C668.705 136.386 668.63 136.114 668.479 135.864C668.329 135.611 668.114 135.409 667.836 135.259C667.558 135.105 667.228 135.028 666.847 135.028H664.7V138.062ZM664.7 134.108H666.66C666.978 134.108 667.265 134.045 667.521 133.92C667.779 133.795 667.984 133.619 668.134 133.392C668.288 133.165 668.364 132.898 668.364 132.591C668.364 132.207 668.231 131.882 667.964 131.615C667.697 131.345 667.273 131.21 666.694 131.21H664.7V134.108ZM673.237 139.153C672.822 139.153 672.446 139.075 672.108 138.919C671.77 138.76 671.501 138.531 671.303 138.233C671.104 137.932 671.004 137.568 671.004 137.142C671.004 136.767 671.078 136.463 671.226 136.23C671.374 135.994 671.571 135.81 671.818 135.676C672.065 135.543 672.338 135.443 672.636 135.378C672.938 135.31 673.24 135.256 673.544 135.216C673.942 135.165 674.264 135.126 674.511 135.101C674.761 135.072 674.943 135.026 675.057 134.96C675.173 134.895 675.232 134.781 675.232 134.619V134.585C675.232 134.165 675.116 133.838 674.886 133.605C674.659 133.372 674.314 133.256 673.851 133.256C673.371 133.256 672.994 133.361 672.722 133.571C672.449 133.781 672.257 134.006 672.146 134.244L671.192 133.903C671.362 133.506 671.589 133.196 671.874 132.974C672.161 132.75 672.473 132.594 672.811 132.506C673.152 132.415 673.487 132.369 673.817 132.369C674.027 132.369 674.268 132.395 674.541 132.446C674.817 132.494 675.082 132.595 675.338 132.749C675.597 132.902 675.811 133.134 675.982 133.443C676.152 133.753 676.237 134.168 676.237 134.688V139H675.232V138.114H675.18C675.112 138.256 674.999 138.408 674.839 138.57C674.68 138.732 674.469 138.869 674.205 138.983C673.94 139.097 673.618 139.153 673.237 139.153ZM673.391 138.25C673.788 138.25 674.124 138.172 674.396 138.016C674.672 137.859 674.879 137.658 675.018 137.411C675.161 137.163 675.232 136.903 675.232 136.631V135.71C675.189 135.761 675.095 135.808 674.95 135.851C674.808 135.891 674.643 135.926 674.456 135.957C674.271 135.986 674.091 136.011 673.915 136.034C673.741 136.054 673.601 136.071 673.493 136.085C673.232 136.119 672.987 136.175 672.76 136.251C672.536 136.325 672.354 136.437 672.214 136.588C672.078 136.736 672.01 136.937 672.01 137.193C672.01 137.543 672.139 137.807 672.398 137.986C672.659 138.162 672.99 138.25 673.391 138.25ZM678.073 141.455V132.455H679.044V133.494H679.164C679.238 133.381 679.34 133.236 679.471 133.06C679.604 132.881 679.794 132.722 680.042 132.582C680.292 132.44 680.63 132.369 681.056 132.369C681.607 132.369 682.093 132.507 682.513 132.783C682.934 133.058 683.262 133.449 683.498 133.955C683.733 134.46 683.851 135.057 683.851 135.744C683.851 136.438 683.733 137.038 683.498 137.547C683.262 138.053 682.935 138.445 682.517 138.723C682.1 138.999 681.618 139.136 681.073 139.136C680.652 139.136 680.316 139.067 680.063 138.928C679.81 138.786 679.615 138.625 679.479 138.446C679.343 138.264 679.238 138.114 679.164 137.994H679.078V141.455H678.073ZM679.061 135.727C679.061 136.222 679.134 136.658 679.279 137.036C679.424 137.411 679.635 137.705 679.914 137.918C680.192 138.128 680.533 138.233 680.936 138.233C681.357 138.233 681.708 138.122 681.989 137.901C682.273 137.676 682.486 137.375 682.628 136.997C682.773 136.616 682.846 136.193 682.846 135.727C682.846 135.267 682.775 134.852 682.632 134.483C682.493 134.111 682.282 133.817 681.998 133.601C681.716 133.382 681.363 133.273 680.936 133.273C680.527 133.273 680.184 133.376 679.905 133.584C679.627 133.788 679.417 134.075 679.275 134.445C679.132 134.811 679.061 135.239 679.061 135.727ZM688.044 141.233V130.273H689.05V141.233H688.044ZM688.044 139.136C687.601 139.136 687.198 139.057 686.834 138.898C686.471 138.736 686.158 138.507 685.897 138.212C685.635 137.913 685.434 137.557 685.292 137.142C685.15 136.727 685.078 136.267 685.078 135.761C685.078 135.25 685.15 134.787 685.292 134.372C685.434 133.955 685.635 133.597 685.897 133.298C686.158 133 686.471 132.771 686.834 132.612C687.198 132.45 687.601 132.369 688.044 132.369H688.351V139.136H688.044ZM688.044 138.233H688.215V133.273H688.044C687.709 133.273 687.418 133.341 687.171 133.477C686.924 133.611 686.719 133.794 686.557 134.027C686.398 134.257 686.279 134.521 686.199 134.82C686.123 135.118 686.084 135.432 686.084 135.761C686.084 136.199 686.154 136.605 686.293 136.98C686.432 137.355 686.647 137.658 686.936 137.888C687.226 138.118 687.596 138.233 688.044 138.233ZM689.05 139.136H688.743V132.369H689.05C689.493 132.369 689.897 132.45 690.26 132.612C690.624 132.771 690.936 133 691.198 133.298C691.459 133.597 691.661 133.955 691.803 134.372C691.945 134.787 692.016 135.25 692.016 135.761C692.016 136.267 691.945 136.727 691.803 137.142C691.661 137.557 691.459 137.913 691.198 138.212C690.936 138.507 690.624 138.736 690.26 138.898C689.897 139.057 689.493 139.136 689.05 139.136ZM689.05 138.233C689.388 138.233 689.679 138.168 689.924 138.037C690.171 137.903 690.374 137.722 690.533 137.491C690.695 137.259 690.814 136.994 690.891 136.699C690.971 136.401 691.01 136.088 691.01 135.761C691.01 135.324 690.941 134.916 690.801 134.538C690.662 134.161 690.448 133.855 690.158 133.622C689.868 133.389 689.499 133.273 689.05 133.273H688.88V138.233H689.05ZM695.479 139.153C695.065 139.153 694.688 139.075 694.35 138.919C694.012 138.76 693.744 138.531 693.545 138.233C693.346 137.932 693.246 137.568 693.246 137.142C693.246 136.767 693.32 136.463 693.468 136.23C693.616 135.994 693.813 135.81 694.06 135.676C694.308 135.543 694.58 135.443 694.879 135.378C695.18 135.31 695.482 135.256 695.786 135.216C696.184 135.165 696.506 135.126 696.754 135.101C697.004 135.072 697.185 135.026 697.299 134.96C697.415 134.895 697.474 134.781 697.474 134.619V134.585C697.474 134.165 697.359 133.838 697.129 133.605C696.901 133.372 696.556 133.256 696.093 133.256C695.613 133.256 695.237 133.361 694.964 133.571C694.691 133.781 694.499 134.006 694.388 134.244L693.434 133.903C693.604 133.506 693.832 133.196 694.116 132.974C694.403 132.75 694.715 132.594 695.053 132.506C695.394 132.415 695.729 132.369 696.059 132.369C696.269 132.369 696.511 132.395 696.783 132.446C697.059 132.494 697.325 132.595 697.58 132.749C697.839 132.902 698.053 133.134 698.224 133.443C698.394 133.753 698.479 134.168 698.479 134.688V139H697.474V138.114H697.423C697.354 138.256 697.241 138.408 697.082 138.57C696.923 138.732 696.711 138.869 696.447 138.983C696.183 139.097 695.86 139.153 695.479 139.153ZM695.633 138.25C696.031 138.25 696.366 138.172 696.638 138.016C696.914 137.859 697.121 137.658 697.261 137.411C697.403 137.163 697.474 136.903 697.474 136.631V135.71C697.431 135.761 697.337 135.808 697.192 135.851C697.05 135.891 696.886 135.926 696.698 135.957C696.513 135.986 696.333 136.011 696.157 136.034C695.984 136.054 695.843 136.071 695.735 136.085C695.474 136.119 695.229 136.175 695.002 136.251C694.778 136.325 694.596 136.437 694.457 136.588C694.32 136.736 694.252 136.937 694.252 137.193C694.252 137.543 694.381 137.807 694.64 137.986C694.901 138.162 695.232 138.25 695.633 138.25ZM700.315 141.455V132.455H701.287V133.494H701.406C701.48 133.381 701.582 133.236 701.713 133.06C701.846 132.881 702.037 132.722 702.284 132.582C702.534 132.44 702.872 132.369 703.298 132.369C703.849 132.369 704.335 132.507 704.755 132.783C705.176 133.058 705.504 133.449 705.74 133.955C705.975 134.46 706.093 135.057 706.093 135.744C706.093 136.438 705.975 137.038 705.74 137.547C705.504 138.053 705.177 138.445 704.76 138.723C704.342 138.999 703.86 139.136 703.315 139.136C702.895 139.136 702.558 139.067 702.305 138.928C702.052 138.786 701.858 138.625 701.721 138.446C701.585 138.264 701.48 138.114 701.406 137.994H701.321V141.455H700.315ZM701.304 135.727C701.304 136.222 701.376 136.658 701.521 137.036C701.666 137.411 701.877 137.705 702.156 137.918C702.434 138.128 702.775 138.233 703.179 138.233C703.599 138.233 703.95 138.122 704.231 137.901C704.515 137.676 704.728 137.375 704.87 136.997C705.015 136.616 705.088 136.193 705.088 135.727C705.088 135.267 705.017 134.852 704.875 134.483C704.735 134.111 704.524 133.817 704.24 133.601C703.958 133.382 703.605 133.273 703.179 133.273C702.77 133.273 702.426 133.376 702.147 133.584C701.869 133.788 701.659 134.075 701.517 134.445C701.375 134.811 701.304 135.239 701.304 135.727ZM708.633 137.517L711.787 132.455H712.946V139H711.94V133.938L708.804 139H707.627V132.455H708.633V137.517ZM719.168 135.267V136.205H715.555V135.267H719.168ZM715.793 132.455V139H714.788V132.455H715.793ZM719.935 132.455V139H718.93V132.455H719.935Z" fill="black"/>
<rect x="638.771" y="157" width="106.629" height="31" rx="10" fill="#E3C9FE"/>
<path d="M649.501 177H648.393L651.597 168.273H652.688L655.893 177H654.785L652.177 169.653H652.109L649.501 177ZM649.91 173.591H654.376V174.528H649.91V173.591ZM662.263 170.455V176.062H663.184V179.114H662.178V177H657.116V170.455H658.121V176.062H661.258V170.455H662.263ZM667.407 177.136C666.776 177.136 666.232 176.997 665.775 176.719C665.32 176.438 664.969 176.045 664.722 175.543C664.478 175.037 664.356 174.449 664.356 173.778C664.356 173.108 664.478 172.517 664.722 172.006C664.969 171.491 665.313 171.091 665.754 170.804C666.197 170.514 666.714 170.369 667.305 170.369C667.646 170.369 667.982 170.426 668.315 170.54C668.647 170.653 668.95 170.838 669.222 171.094C669.495 171.347 669.712 171.682 669.874 172.099C670.036 172.517 670.117 173.031 670.117 173.642V174.068H665.072V173.199H669.094C669.094 172.83 669.021 172.5 668.873 172.21C668.728 171.92 668.521 171.692 668.251 171.524C667.984 171.357 667.668 171.273 667.305 171.273C666.904 171.273 666.558 171.372 666.265 171.571C665.975 171.767 665.752 172.023 665.596 172.338C665.44 172.653 665.362 172.991 665.362 173.352V173.932C665.362 174.426 665.447 174.845 665.617 175.189C665.79 175.53 666.031 175.79 666.337 175.969C666.644 176.145 667.001 176.233 667.407 176.233C667.671 176.233 667.91 176.196 668.123 176.122C668.339 176.045 668.525 175.932 668.681 175.781C668.837 175.628 668.958 175.437 669.043 175.21L670.015 175.483C669.913 175.812 669.741 176.102 669.499 176.352C669.258 176.599 668.96 176.793 668.604 176.932C668.249 177.068 667.85 177.136 667.407 177.136ZM676.028 173.267V174.205H672.414V173.267H676.028ZM672.653 170.455V177H671.647V170.455H672.653ZM676.795 170.455V177H675.789V170.455H676.795ZM681.29 177.136C680.7 177.136 680.181 176.996 679.735 176.714C679.292 176.433 678.945 176.04 678.695 175.534C678.448 175.028 678.325 174.437 678.325 173.761C678.325 173.08 678.448 172.484 678.695 171.976C678.945 171.467 679.292 171.072 679.735 170.791C680.181 170.51 680.7 170.369 681.29 170.369C681.881 170.369 682.398 170.51 682.842 170.791C683.288 171.072 683.634 171.467 683.881 171.976C684.131 172.484 684.256 173.08 684.256 173.761C684.256 174.437 684.131 175.028 683.881 175.534C683.634 176.04 683.288 176.433 682.842 176.714C682.398 176.996 681.881 177.136 681.29 177.136ZM681.29 176.233C681.739 176.233 682.109 176.118 682.398 175.888C682.688 175.658 682.903 175.355 683.042 174.98C683.181 174.605 683.251 174.199 683.251 173.761C683.251 173.324 683.181 172.916 683.042 172.538C682.903 172.161 682.688 171.855 682.398 171.622C682.109 171.389 681.739 171.273 681.29 171.273C680.842 171.273 680.472 171.389 680.183 171.622C679.893 171.855 679.678 172.161 679.539 172.538C679.4 172.916 679.33 173.324 679.33 173.761C679.33 174.199 679.4 174.605 679.539 174.98C679.678 175.355 679.893 175.658 680.183 175.888C680.472 176.118 680.842 176.233 681.29 176.233ZM685.792 177V170.455H686.797V173.301H687.462L689.814 170.455H691.11L688.468 173.608L691.144 177H689.848L687.701 174.239H686.797V177H685.792ZM692.885 179.455C692.714 179.455 692.562 179.44 692.429 179.412C692.295 179.386 692.203 179.361 692.152 179.335L692.407 178.449C692.652 178.511 692.868 178.534 693.055 178.517C693.243 178.5 693.409 178.416 693.554 178.266C693.701 178.118 693.836 177.878 693.958 177.545L694.146 177.034L691.725 170.455H692.816L694.623 175.67H694.691L696.498 170.455H697.589L694.811 177.955C694.686 178.293 694.531 178.572 694.346 178.794C694.162 179.018 693.947 179.185 693.703 179.293C693.461 179.401 693.189 179.455 692.885 179.455ZM702.496 175.636L704.78 170.455H705.735L702.905 177H702.087L699.309 170.455H700.246L702.496 175.636ZM699.922 170.455V177H698.917V170.455H699.922ZM705.07 177V170.455H706.076V177H705.07ZM709.843 177.153C709.428 177.153 709.051 177.075 708.713 176.919C708.375 176.76 708.107 176.531 707.908 176.233C707.709 175.932 707.61 175.568 707.61 175.142C707.61 174.767 707.684 174.463 707.831 174.23C707.979 173.994 708.176 173.81 708.424 173.676C708.671 173.543 708.944 173.443 709.242 173.378C709.543 173.31 709.846 173.256 710.15 173.216C710.547 173.165 710.87 173.126 711.117 173.101C711.367 173.072 711.549 173.026 711.662 172.96C711.779 172.895 711.837 172.781 711.837 172.619V172.585C711.837 172.165 711.722 171.838 711.492 171.605C711.265 171.372 710.919 171.256 710.456 171.256C709.976 171.256 709.6 171.361 709.327 171.571C709.054 171.781 708.863 172.006 708.752 172.244L707.797 171.903C707.968 171.506 708.195 171.196 708.479 170.974C708.766 170.75 709.078 170.594 709.417 170.506C709.757 170.415 710.093 170.369 710.422 170.369C710.632 170.369 710.874 170.395 711.147 170.446C711.422 170.494 711.688 170.595 711.944 170.749C712.202 170.902 712.417 171.134 712.587 171.443C712.757 171.753 712.843 172.168 712.843 172.688V177H711.837V176.114H711.786C711.718 176.256 711.604 176.408 711.445 176.57C711.286 176.732 711.074 176.869 710.81 176.983C710.546 177.097 710.223 177.153 709.843 177.153ZM709.996 176.25C710.394 176.25 710.729 176.172 711.002 176.016C711.277 175.859 711.485 175.658 711.624 175.411C711.766 175.163 711.837 174.903 711.837 174.631V173.71C711.794 173.761 711.701 173.808 711.556 173.851C711.414 173.891 711.249 173.926 711.061 173.957C710.877 173.986 710.696 174.011 710.52 174.034C710.347 174.054 710.206 174.071 710.098 174.085C709.837 174.119 709.593 174.175 709.365 174.251C709.141 174.325 708.959 174.437 708.82 174.588C708.684 174.736 708.615 174.937 708.615 175.193C708.615 175.543 708.745 175.807 709.003 175.986C709.265 176.162 709.596 176.25 709.996 176.25ZM714.678 179.455V170.455H715.65V171.494H715.769C715.843 171.381 715.945 171.236 716.076 171.06C716.21 170.881 716.4 170.722 716.647 170.582C716.897 170.44 717.235 170.369 717.661 170.369C718.212 170.369 718.698 170.507 719.119 170.783C719.539 171.058 719.867 171.449 720.103 171.955C720.339 172.46 720.457 173.057 720.457 173.744C720.457 174.438 720.339 175.038 720.103 175.547C719.867 176.053 719.54 176.445 719.123 176.723C718.705 176.999 718.224 177.136 717.678 177.136C717.258 177.136 716.921 177.067 716.668 176.928C716.415 176.786 716.221 176.625 716.085 176.446C715.948 176.264 715.843 176.114 715.769 175.994H715.684V179.455H714.678ZM715.667 173.727C715.667 174.222 715.739 174.658 715.884 175.036C716.029 175.411 716.241 175.705 716.519 175.918C716.798 176.128 717.138 176.233 717.542 176.233C717.962 176.233 718.313 176.122 718.594 175.901C718.879 175.676 719.092 175.375 719.234 174.997C719.379 174.616 719.451 174.193 719.451 173.727C719.451 173.267 719.38 172.852 719.238 172.483C719.099 172.111 718.887 171.817 718.603 171.601C718.322 171.382 717.968 171.273 717.542 171.273C717.133 171.273 716.789 171.376 716.511 171.584C716.232 171.788 716.022 172.075 715.88 172.445C715.738 172.811 715.667 173.239 715.667 173.727ZM724.65 177.136C724.059 177.136 723.54 176.996 723.094 176.714C722.651 176.433 722.305 176.04 722.055 175.534C721.808 175.028 721.684 174.437 721.684 173.761C721.684 173.08 721.808 172.484 722.055 171.976C722.305 171.467 722.651 171.072 723.094 170.791C723.54 170.51 724.059 170.369 724.65 170.369C725.241 170.369 725.758 170.51 726.201 170.791C726.647 171.072 726.994 171.467 727.241 171.976C727.491 172.484 727.616 173.08 727.616 173.761C727.616 174.437 727.491 175.028 727.241 175.534C726.994 176.04 726.647 176.433 726.201 176.714C725.758 176.996 725.241 177.136 724.65 177.136ZM724.65 176.233C725.099 176.233 725.468 176.118 725.758 175.888C726.048 175.658 726.262 175.355 726.401 174.98C726.54 174.605 726.61 174.199 726.61 173.761C726.61 173.324 726.54 172.916 726.401 172.538C726.262 172.161 726.048 171.855 725.758 171.622C725.468 171.389 725.099 171.273 724.65 171.273C724.201 171.273 723.832 171.389 723.542 171.622C723.252 171.855 723.038 172.161 722.898 172.538C722.759 172.916 722.69 173.324 722.69 173.761C722.69 174.199 722.759 174.605 722.898 174.98C723.038 175.355 723.252 175.658 723.542 175.888C723.832 176.118 724.201 176.233 724.65 176.233ZM728.571 177V176.062H728.81C729.006 176.062 729.169 176.024 729.3 175.947C729.431 175.868 729.536 175.73 729.615 175.534C729.698 175.335 729.76 175.06 729.803 174.707C729.848 174.352 729.881 173.901 729.901 173.352L730.02 170.455H734.384V177H733.378V171.392H730.975L730.873 173.727C730.85 174.264 730.801 174.737 730.728 175.146C730.657 175.553 730.547 175.893 730.4 176.169C730.255 176.445 730.061 176.652 729.82 176.791C729.578 176.93 729.276 177 728.912 177H728.571Z" fill="black"/>
<rect x="638.771" y="196" width="106.629" height="31" rx="10" fill="#D7FEC9"/>
<path d="M666.143 208.312H667.523C668.171 208.312 668.746 208.457 669.249 208.747C669.752 209.037 670.147 209.44 670.434 209.957C670.721 210.474 670.864 211.074 670.864 211.756C670.864 212.438 670.721 213.038 670.434 213.558C670.147 214.078 669.752 214.484 669.249 214.777C668.746 215.07 668.171 215.216 667.523 215.216H666.143C665.495 215.216 664.92 215.071 664.417 214.781C663.914 214.491 663.519 214.088 663.232 213.571C662.945 213.054 662.802 212.455 662.802 211.773C662.802 211.091 662.945 210.49 663.232 209.97C663.519 209.45 663.914 209.044 664.417 208.751C664.92 208.459 665.495 208.312 666.143 208.312ZM666.143 209.25C665.648 209.25 665.231 209.354 664.89 209.561C664.552 209.768 664.295 210.061 664.119 210.439C663.945 210.817 663.859 211.261 663.859 211.773C663.859 212.278 663.945 212.719 664.119 213.094C664.295 213.469 664.552 213.76 664.89 213.967C665.231 214.175 665.648 214.278 666.143 214.278H667.523C668.018 214.278 668.434 214.175 668.772 213.967C669.113 213.76 669.37 213.467 669.543 213.089C669.719 212.712 669.808 212.267 669.808 211.756C669.808 211.25 669.719 210.81 669.543 210.435C669.37 210.06 669.113 209.768 668.772 209.561C668.434 209.354 668.018 209.25 667.523 209.25H666.143ZM667.37 207.119V216.358H666.313V207.119H667.37ZM675.243 216.136C674.612 216.136 674.068 215.997 673.611 215.719C673.156 215.438 672.805 215.045 672.558 214.543C672.314 214.037 672.192 213.449 672.192 212.778C672.192 212.108 672.314 211.517 672.558 211.006C672.805 210.491 673.149 210.091 673.589 209.804C674.033 209.514 674.55 209.369 675.141 209.369C675.482 209.369 675.818 209.426 676.151 209.54C676.483 209.653 676.786 209.838 677.058 210.094C677.331 210.347 677.548 210.682 677.71 211.099C677.872 211.517 677.953 212.031 677.953 212.642V213.068H672.908V212.199H676.93C676.93 211.83 676.857 211.5 676.709 211.21C676.564 210.92 676.357 210.692 676.087 210.524C675.82 210.357 675.504 210.273 675.141 210.273C674.74 210.273 674.393 210.372 674.101 210.571C673.811 210.767 673.588 211.023 673.432 211.338C673.276 211.653 673.197 211.991 673.197 212.352V212.932C673.197 213.426 673.283 213.845 673.453 214.189C673.626 214.53 673.866 214.79 674.173 214.969C674.48 215.145 674.837 215.233 675.243 215.233C675.507 215.233 675.746 215.196 675.959 215.122C676.175 215.045 676.361 214.932 676.517 214.781C676.673 214.628 676.794 214.437 676.879 214.21L677.851 214.483C677.749 214.812 677.577 215.102 677.335 215.352C677.094 215.599 676.795 215.793 676.44 215.932C676.085 216.068 675.686 216.136 675.243 216.136ZM683.864 212.267V213.205H680.25V212.267H683.864ZM680.489 209.455V216H679.483V209.455H680.489ZM684.631 209.455V216H683.625V209.455H684.631ZM687.473 214.517L690.626 209.455H691.786V216H690.78V210.938L687.643 216H686.467V209.455H687.473V214.517ZM692.929 217.875V215.062H693.474C693.608 214.923 693.723 214.773 693.819 214.611C693.916 214.449 694 214.257 694.071 214.036C694.145 213.811 694.207 213.538 694.258 213.217C694.309 212.893 694.355 212.503 694.395 212.045L694.616 209.455H698.775V215.062H699.781V217.875H698.775V216H693.934V217.875H692.929ZM694.616 215.062H697.77V210.392H695.554L695.383 212.045C695.312 212.73 695.224 213.328 695.119 213.839C695.014 214.351 694.846 214.759 694.616 215.062ZM702.121 214.517L705.275 209.455H706.434V216H705.428V210.938L702.292 216H701.116V209.455H702.121V214.517ZM710.935 216.136C710.344 216.136 709.826 215.996 709.38 215.714C708.936 215.433 708.59 215.04 708.34 214.534C708.093 214.028 707.969 213.437 707.969 212.761C707.969 212.08 708.093 211.484 708.34 210.976C708.59 210.467 708.936 210.072 709.38 209.791C709.826 209.51 710.344 209.369 710.935 209.369C711.526 209.369 712.043 209.51 712.486 209.791C712.932 210.072 713.279 210.467 713.526 210.976C713.776 211.484 713.901 212.08 713.901 212.761C713.901 213.437 713.776 214.028 713.526 214.534C713.279 215.04 712.932 215.433 712.486 215.714C712.043 215.996 711.526 216.136 710.935 216.136ZM710.935 215.233C711.384 215.233 711.753 215.118 712.043 214.888C712.333 214.658 712.547 214.355 712.686 213.98C712.826 213.605 712.895 213.199 712.895 212.761C712.895 212.324 712.826 211.916 712.686 211.538C712.547 211.161 712.333 210.855 712.043 210.622C711.753 210.389 711.384 210.273 710.935 210.273C710.486 210.273 710.117 210.389 709.827 210.622C709.537 210.855 709.323 211.161 709.184 211.538C709.044 211.916 708.975 212.324 708.975 212.761C708.975 213.199 709.044 213.605 709.184 213.98C709.323 214.355 709.537 214.658 709.827 214.888C710.117 215.118 710.486 215.233 710.935 215.233ZM719.817 212.267V213.205H716.203V212.267H719.817ZM716.442 209.455V216H715.436V209.455H716.442ZM720.584 209.455V216H719.578V209.455H720.584Z" fill="black"/>
<path d="M141.129 151.707C141.519 152.098 142.153 152.098 142.543 151.707L148.907 145.343C149.298 144.953 149.298 144.319 148.907 143.929C148.516 143.538 147.883 143.538 147.493 143.929L141.836 149.586L136.179 143.929C135.789 143.538 135.155 143.538 134.765 143.929C134.374 144.319 134.374 144.953 134.765 145.343L141.129 151.707ZM140.836 116L140.836 151L142.836 151L142.836 116L140.836 116Z" fill="black"/>
<path d="M243.734 271.707C244.125 272.098 244.758 272.098 245.149 271.707L251.512 265.343C251.903 264.953 251.903 264.319 251.512 263.929C251.122 263.538 250.489 263.538 250.098 263.929L244.441 269.586L238.785 263.929C238.394 263.538 237.761 263.538 237.37 263.929C236.98 264.319 236.98 264.953 237.37 265.343L243.734 271.707ZM243.441 236L243.441 271L245.441 271L245.441 236L243.441 236Z" fill="black"/>
<rect x="212.252" y="20" width="106.629" height="31" rx="10" fill="#ACE1F8"/>
<path d="M220.987 40V33.4545H226.135V40H225.129V34.392H221.993V40H220.987ZM227.971 42.4545V33.4545H228.943V34.4943H229.062C229.136 34.3807 229.238 34.2358 229.369 34.0597C229.502 33.8807 229.693 33.7216 229.94 33.5824C230.19 33.4403 230.528 33.3693 230.954 33.3693C231.505 33.3693 231.991 33.5071 232.412 33.7827C232.832 34.0582 233.16 34.4489 233.396 34.9545C233.632 35.4602 233.75 36.0568 233.75 36.7443C233.75 37.4375 233.632 38.0384 233.396 38.5469C233.16 39.0526 232.833 39.4446 232.416 39.723C231.998 39.9986 231.517 40.1364 230.971 40.1364C230.551 40.1364 230.214 40.0668 229.961 39.9276C229.708 39.7855 229.514 39.625 229.377 39.446C229.241 39.2642 229.136 39.1136 229.062 38.9943H228.977V42.4545H227.971ZM228.96 36.7273C228.96 37.2216 229.032 37.6577 229.177 38.0355C229.322 38.4105 229.534 38.7045 229.812 38.9176C230.091 39.1278 230.431 39.233 230.835 39.233C231.255 39.233 231.606 39.1222 231.887 38.9006C232.172 38.6761 232.385 38.375 232.527 37.9972C232.672 37.6165 232.744 37.1932 232.744 36.7273C232.744 36.267 232.673 35.8523 232.531 35.483C232.392 35.1108 232.18 34.8168 231.896 34.6009C231.615 34.3821 231.261 34.2727 230.835 34.2727C230.426 34.2727 230.082 34.3764 229.804 34.5838C229.525 34.7884 229.315 35.0753 229.173 35.4446C229.031 35.8111 228.96 36.2386 228.96 36.7273ZM238.028 40.1364C237.397 40.1364 236.853 39.9972 236.396 39.7188C235.941 39.4375 235.591 39.0455 235.343 38.5426C235.099 38.0369 234.977 37.4489 234.977 36.7784C234.977 36.108 235.099 35.517 235.343 35.0057C235.591 34.4915 235.934 34.0909 236.375 33.804C236.818 33.5142 237.335 33.3693 237.926 33.3693C238.267 33.3693 238.603 33.4261 238.936 33.5398C239.268 33.6534 239.571 33.8381 239.843 34.0938C240.116 34.3466 240.333 34.6818 240.495 35.0994C240.657 35.517 240.738 36.0312 240.738 36.642V37.0682H235.693V36.1989H239.716C239.716 35.8295 239.642 35.5 239.494 35.2102C239.349 34.9205 239.142 34.6918 238.872 34.5241C238.605 34.3565 238.289 34.2727 237.926 34.2727C237.525 34.2727 237.179 34.3722 236.886 34.571C236.596 34.767 236.373 35.0227 236.217 35.3381C236.061 35.6534 235.983 35.9915 235.983 36.3523V36.9318C235.983 37.4261 236.068 37.8452 236.238 38.1889C236.412 38.5298 236.652 38.7898 236.958 38.9688C237.265 39.1449 237.622 39.233 238.028 39.233C238.292 39.233 238.531 39.196 238.744 39.1222C238.96 39.0455 239.146 38.9318 239.302 38.7812C239.458 38.6278 239.579 38.4375 239.664 38.2102L240.636 38.483C240.534 38.8125 240.362 39.1023 240.12 39.3523C239.879 39.5994 239.581 39.7926 239.225 39.9318C238.87 40.0682 238.471 40.1364 238.028 40.1364ZM242.268 40V33.4545H243.274V36.3011H243.939L246.291 33.4545H247.586L244.944 36.608L247.62 40H246.325L244.177 37.2386H243.274V40H242.268ZM250.64 40.1534C250.225 40.1534 249.848 40.0753 249.51 39.919C249.172 39.7599 248.904 39.5312 248.705 39.233C248.506 38.9318 248.407 38.5682 248.407 38.142C248.407 37.767 248.48 37.4631 248.628 37.2301C248.776 36.9943 248.973 36.8097 249.221 36.6761C249.468 36.5426 249.74 36.4432 250.039 36.3778C250.34 36.3097 250.642 36.2557 250.946 36.2159C251.344 36.1648 251.667 36.1264 251.914 36.1009C252.164 36.0724 252.346 36.0256 252.459 35.9602C252.576 35.8949 252.634 35.7812 252.634 35.6193V35.5852C252.634 35.1648 252.519 34.8381 252.289 34.6051C252.061 34.3722 251.716 34.2557 251.253 34.2557C250.773 34.2557 250.397 34.3608 250.124 34.571C249.851 34.7812 249.659 35.0057 249.549 35.2443L248.594 34.9034C248.765 34.5057 248.992 34.196 249.276 33.9744C249.563 33.75 249.875 33.5937 250.213 33.5057C250.554 33.4148 250.89 33.3693 251.219 33.3693C251.429 33.3693 251.671 33.3949 251.944 33.446C252.219 33.4943 252.485 33.5952 252.74 33.7486C252.999 33.902 253.213 34.1335 253.384 34.4432C253.554 34.7528 253.64 35.1676 253.64 35.6875V40H252.634V39.1136H252.583C252.515 39.2557 252.401 39.4077 252.242 39.5696C252.083 39.7315 251.871 39.8693 251.607 39.983C251.343 40.0966 251.02 40.1534 250.64 40.1534ZM250.793 39.25C251.191 39.25 251.526 39.1719 251.799 39.0156C252.074 38.8594 252.282 38.6577 252.421 38.4105C252.563 38.1634 252.634 37.9034 252.634 37.6307V36.7102C252.591 36.7614 252.498 36.8082 252.353 36.8509C252.211 36.8906 252.046 36.9261 251.858 36.9574C251.674 36.9858 251.493 37.0114 251.317 37.0341C251.144 37.054 251.003 37.071 250.895 37.0852C250.634 37.1193 250.39 37.1747 250.162 37.2514C249.938 37.3253 249.756 37.4375 249.617 37.5881C249.48 37.7358 249.412 37.9375 249.412 38.1932C249.412 38.5426 249.542 38.8068 249.8 38.9858C250.061 39.1619 250.392 39.25 250.793 39.25ZM254.896 40V39.0625H255.134C255.33 39.0625 255.494 39.0241 255.624 38.9474C255.755 38.8679 255.86 38.7301 255.94 38.5341C256.022 38.3352 256.085 38.0597 256.127 37.7074C256.173 37.3523 256.205 36.9006 256.225 36.3523L256.344 33.4545H260.708V40H259.702V34.392H257.299L257.197 36.7273C257.174 37.2642 257.126 37.7372 257.052 38.1463C256.981 38.5526 256.871 38.8935 256.724 39.169C256.579 39.4446 256.386 39.652 256.144 39.7912C255.903 39.9304 255.6 40 255.237 40H254.896ZM261.974 40V39.0625H262.212C262.408 39.0625 262.572 39.0241 262.702 38.9474C262.833 38.8679 262.938 38.7301 263.018 38.5341C263.1 38.3352 263.163 38.0597 263.205 37.7074C263.251 37.3523 263.283 36.9006 263.303 36.3523L263.423 33.4545H267.786V40H266.781V34.392H264.377L264.275 36.7273C264.252 37.2642 264.204 37.7372 264.13 38.1463C264.059 38.5526 263.95 38.8935 263.802 39.169C263.657 39.4446 263.464 39.652 263.222 39.7912C262.981 39.9304 262.678 40 262.315 40H261.974ZM270.637 38.517L273.79 33.4545H274.95V40H273.944V34.9375L270.808 40H269.631V33.4545H270.637V38.517ZM276.792 40V33.4545H277.797V36.3011H278.462L280.814 33.4545H282.11L279.468 36.608L282.144 40H280.848L278.701 37.2386H277.797V40H276.792ZM283.237 42.4545V33.4545H284.208V34.4943H284.328C284.402 34.3807 284.504 34.2358 284.635 34.0597C284.768 33.8807 284.958 33.7216 285.206 33.5824C285.456 33.4403 285.794 33.3693 286.22 33.3693C286.771 33.3693 287.257 33.5071 287.677 33.7827C288.098 34.0582 288.426 34.4489 288.662 34.9545C288.897 35.4602 289.015 36.0568 289.015 36.7443C289.015 37.4375 288.897 38.0384 288.662 38.5469C288.426 39.0526 288.099 39.4446 287.681 39.723C287.264 39.9986 286.782 40.1364 286.237 40.1364C285.816 40.1364 285.48 40.0668 285.227 39.9276C284.974 39.7855 284.779 39.625 284.643 39.446C284.507 39.2642 284.402 39.1136 284.328 38.9943H284.243V42.4545H283.237ZM284.225 36.7273C284.225 37.2216 284.298 37.6577 284.443 38.0355C284.588 38.4105 284.799 38.7045 285.078 38.9176C285.356 39.1278 285.697 39.233 286.1 39.233C286.521 39.233 286.872 39.1222 287.153 38.9006C287.437 38.6761 287.65 38.375 287.792 37.9972C287.937 37.6165 288.01 37.1932 288.01 36.7273C288.01 36.267 287.939 35.8523 287.797 35.483C287.657 35.1108 287.446 34.8168 287.162 34.6009C286.88 34.3821 286.527 34.2727 286.1 34.2727C285.691 34.2727 285.348 34.3764 285.069 34.5838C284.791 34.7884 284.581 35.0753 284.439 35.4446C284.297 35.8111 284.225 36.2386 284.225 36.7273ZM293.294 40.1364C292.663 40.1364 292.119 39.9972 291.662 39.7188C291.207 39.4375 290.856 39.0455 290.609 38.5426C290.365 38.0369 290.243 37.4489 290.243 36.7784C290.243 36.108 290.365 35.517 290.609 35.0057C290.856 34.4915 291.2 34.0909 291.64 33.804C292.083 33.5142 292.6 33.3693 293.191 33.3693C293.532 33.3693 293.869 33.4261 294.201 33.5398C294.534 33.6534 294.836 33.8381 295.109 34.0938C295.382 34.3466 295.599 34.6818 295.761 35.0994C295.923 35.517 296.004 36.0312 296.004 36.642V37.0682H290.958V36.1989H294.981C294.981 35.8295 294.907 35.5 294.76 35.2102C294.615 34.9205 294.407 34.6918 294.137 34.5241C293.87 34.3565 293.555 34.2727 293.191 34.2727C292.791 34.2727 292.444 34.3722 292.152 34.571C291.862 34.767 291.639 35.0227 291.483 35.3381C291.326 35.6534 291.248 35.9915 291.248 36.3523V36.9318C291.248 37.4261 291.333 37.8452 291.504 38.1889C291.677 38.5298 291.917 38.7898 292.224 38.9688C292.531 39.1449 292.887 39.233 293.294 39.233C293.558 39.233 293.797 39.196 294.01 39.1222C294.225 39.0455 294.412 38.9318 294.568 38.7812C294.724 38.6278 294.845 38.4375 294.93 38.2102L295.902 38.483C295.799 38.8125 295.627 39.1023 295.386 39.3523C295.145 39.5994 294.846 39.7926 294.491 39.9318C294.136 40.0682 293.737 40.1364 293.294 40.1364ZM298.539 38.517L301.693 33.4545H302.852V40H301.846V34.9375L298.71 40H297.534V33.4545H298.539V38.517ZM309.075 36.267V37.2045H305.461V36.267H309.075ZM305.7 33.4545V40H304.694V33.4545H305.7ZM309.842 33.4545V40H308.836V33.4545H309.842Z" fill="black"/>
<rect x="37.2188" y="20" width="106.629" height="31" rx="10" fill="#ACE1F8"/>
<path d="M56.4537 40V33.4545H57.4593V36.3011H58.1241L60.4764 33.4545H61.7718L59.1298 36.608L61.8059 40H60.5105L58.3627 37.2386H57.4593V40H56.4537ZM64.8251 40.1534C64.4103 40.1534 64.0339 40.0753 63.6958 39.919C63.3578 39.7599 63.0893 39.5312 62.8904 39.233C62.6916 38.9318 62.5922 38.5682 62.5922 38.142C62.5922 37.767 62.666 37.4631 62.8137 37.2301C62.9615 36.9943 63.1589 36.8097 63.4061 36.6761C63.6532 36.5426 63.926 36.4432 64.2243 36.3778C64.5254 36.3097 64.8279 36.2557 65.1319 36.2159C65.5297 36.1648 65.8521 36.1264 66.0993 36.1009C66.3493 36.0724 66.5311 36.0256 66.6447 35.9602C66.7612 35.8949 66.8194 35.7812 66.8194 35.6193V35.5852C66.8194 35.1648 66.7044 34.8381 66.4743 34.6051C66.247 34.3722 65.9018 34.2557 65.4387 34.2557C64.9586 34.2557 64.5822 34.3608 64.3095 34.571C64.0368 34.7812 63.845 35.0057 63.7342 35.2443L62.7797 34.9034C62.9501 34.5057 63.1774 34.196 63.4615 33.9744C63.7484 33.75 64.0609 33.5937 64.399 33.5057C64.7399 33.4148 65.0751 33.3693 65.4047 33.3693C65.6149 33.3693 65.8564 33.3949 66.1291 33.446C66.4047 33.4943 66.6703 33.5952 66.926 33.7486C67.1845 33.902 67.399 34.1335 67.5694 34.4432C67.7399 34.7528 67.8251 35.1676 67.8251 35.6875V40H66.8194V39.1136H66.7683C66.7001 39.2557 66.5865 39.4077 66.4274 39.5696C66.2683 39.7315 66.0566 39.8693 65.7924 39.983C65.5282 40.0966 65.2058 40.1534 64.8251 40.1534ZM64.9785 39.25C65.3762 39.25 65.7115 39.1719 65.9842 39.0156C66.2598 38.8594 66.4672 38.6577 66.6064 38.4105C66.7484 38.1634 66.8194 37.9034 66.8194 37.6307V36.7102C66.7768 36.7614 66.6831 36.8082 66.5382 36.8509C66.3961 36.8906 66.2314 36.9261 66.0439 36.9574C65.8592 36.9858 65.6788 37.0114 65.5027 37.0341C65.3294 37.054 65.1887 37.071 65.0808 37.0852C64.8194 37.1193 64.5751 37.1747 64.3478 37.2514C64.1234 37.3253 63.9416 37.4375 63.8024 37.5881C63.666 37.7358 63.5978 37.9375 63.5978 38.1932C63.5978 38.5426 63.7271 38.8068 63.9856 38.9858C64.247 39.1619 64.5779 39.25 64.9785 39.25ZM69.0811 40V39.0625H69.3198C69.5158 39.0625 69.6792 39.0241 69.8098 38.9474C69.9405 38.8679 70.0456 38.7301 70.1252 38.5341C70.2076 38.3352 70.2701 38.0597 70.3127 37.7074C70.3581 37.3523 70.3908 36.9006 70.4107 36.3523L70.53 33.4545H74.8936V40H73.888V34.392H71.4846L71.3823 36.7273C71.3596 37.2642 71.3113 37.7372 71.2374 38.1463C71.1664 38.5526 71.057 38.8935 70.9093 39.169C70.7644 39.4446 70.5712 39.652 70.3297 39.7912C70.0882 39.9304 69.7857 40 69.4221 40H69.0811ZM76.1593 40V39.0625H76.3979C76.5939 39.0625 76.7573 39.0241 76.888 38.9474C77.0186 38.8679 77.1238 38.7301 77.2033 38.5341C77.2857 38.3352 77.3482 38.0597 77.3908 37.7074C77.4363 37.3523 77.4689 36.9006 77.4888 36.3523L77.6081 33.4545H81.9718V40H80.9661V34.392H78.5627L78.4604 36.7273C78.4377 37.2642 78.3894 37.7372 78.3155 38.1463C78.2445 38.5526 78.1351 38.8935 77.9874 39.169C77.8425 39.4446 77.6493 39.652 77.4078 39.7912C77.1664 39.9304 76.8638 40 76.5002 40H76.1593ZM84.8226 38.517L87.976 33.4545H89.1351V40H88.1294V34.9375L84.9931 40H83.8169V33.4545H84.8226V38.517ZM90.9771 40V33.4545H91.9828V36.3011H92.6475L94.9998 33.4545H96.2953L93.6532 36.608L96.3294 40H95.0339L92.8862 37.2386H91.9828V40H90.9771ZM97.4224 42.4545V33.4545H98.394V34.4943H98.5133C98.5872 34.3807 98.6895 34.2358 98.8201 34.0597C98.9537 33.8807 99.144 33.7216 99.3912 33.5824C99.6412 33.4403 99.9792 33.3693 100.405 33.3693C100.956 33.3693 101.442 33.5071 101.863 33.7827C102.283 34.0582 102.611 34.4489 102.847 34.9545C103.083 35.4602 103.201 36.0568 103.201 36.7443C103.201 37.4375 103.083 38.0384 102.847 38.5469C102.611 39.0526 102.285 39.4446 101.867 39.723C101.449 39.9986 100.968 40.1364 100.422 40.1364C100.002 40.1364 99.6653 40.0668 99.4125 39.9276C99.1596 39.7855 98.965 39.625 98.8287 39.446C98.6923 39.2642 98.5872 39.1136 98.5133 38.9943H98.4281V42.4545H97.4224ZM98.411 36.7273C98.411 37.2216 98.4835 37.6577 98.6284 38.0355C98.7733 38.4105 98.9849 38.7045 99.2633 38.9176C99.5417 39.1278 99.8826 39.233 100.286 39.233C100.706 39.233 101.057 39.1222 101.339 38.9006C101.623 38.6761 101.836 38.375 101.978 37.9972C102.123 37.6165 102.195 37.1932 102.195 36.7273C102.195 36.267 102.124 35.8523 101.982 35.483C101.843 35.1108 101.631 34.8168 101.347 34.6009C101.066 34.3821 100.712 34.2727 100.286 34.2727C99.877 34.2727 99.5332 34.3764 99.2548 34.5838C98.9764 34.7884 98.7662 35.0753 98.6241 35.4446C98.4821 35.8111 98.411 36.2386 98.411 36.7273ZM107.479 40.1364C106.849 40.1364 106.305 39.9972 105.847 39.7188C105.393 39.4375 105.042 39.0455 104.795 38.5426C104.55 38.0369 104.428 37.4489 104.428 36.7784C104.428 36.108 104.55 35.517 104.795 35.0057C105.042 34.4915 105.385 34.0909 105.826 33.804C106.269 33.5142 106.786 33.3693 107.377 33.3693C107.718 33.3693 108.055 33.4261 108.387 33.5398C108.719 33.6534 109.022 33.8381 109.295 34.0938C109.567 34.3466 109.785 34.6818 109.947 35.0994C110.108 35.517 110.189 36.0312 110.189 36.642V37.0682H105.144V36.1989H109.167C109.167 35.8295 109.093 35.5 108.945 35.2102C108.8 34.9205 108.593 34.6918 108.323 34.5241C108.056 34.3565 107.741 34.2727 107.377 34.2727C106.976 34.2727 106.63 34.3722 106.337 34.571C106.047 34.767 105.824 35.0227 105.668 35.3381C105.512 35.6534 105.434 35.9915 105.434 36.3523V36.9318C105.434 37.4261 105.519 37.8452 105.689 38.1889C105.863 38.5298 106.103 38.7898 106.41 38.9688C106.716 39.1449 107.073 39.233 107.479 39.233C107.743 39.233 107.982 39.196 108.195 39.1222C108.411 39.0455 108.597 38.9318 108.753 38.7812C108.91 38.6278 109.03 38.4375 109.116 38.2102L110.087 38.483C109.985 38.8125 109.813 39.1023 109.572 39.3523C109.33 39.5994 109.032 39.7926 108.677 39.9318C108.322 40.0682 107.922 40.1364 107.479 40.1364ZM112.725 38.517L115.878 33.4545H117.037V40H116.032V34.9375L112.895 40H111.719V33.4545H112.725V38.517ZM123.26 36.267V37.2045H119.646V36.267H123.26ZM119.885 33.4545V40H118.879V33.4545H119.885ZM124.027 33.4545V40H123.021V33.4545H124.027Z" fill="black"/>
<path d="M148.171 36.7071C147.781 36.3166 147.781 35.6834 148.171 35.2929L154.535 28.9289C154.926 28.5384 155.559 28.5384 155.949 28.9289C156.34 29.3195 156.34 29.9526 155.949 30.3431L150.292 36L155.949 41.6569C156.34 42.0474 156.34 42.6805 155.949 43.0711C155.559 43.4616 154.926 43.4616 154.535 43.0711L148.171 36.7071ZM207.223 37H148.878V35H207.223V37Z" fill="black"/>
<rect x="121.717" y="80" width="40.2375" height="31" rx="10" fill="#8F00FF"/>
<path d="M132.904 91.2727L135.154 94.9034H135.222L137.472 91.2727H138.717L135.972 95.6364L138.717 100H137.472L135.222 96.4375H135.154L132.904 100H131.66L134.472 95.6364L131.66 91.2727H132.904ZM141.149 91.2727V100H140.092V91.2727H141.149ZM144.325 91.2727V100H143.268V91.2727H144.325ZM148.233 100.153C147.819 100.153 147.442 100.075 147.104 99.919C146.766 99.7599 146.498 99.5312 146.299 99.233C146.1 98.9318 146 98.5682 146 98.142C146 97.767 146.074 97.4631 146.222 97.2301C146.37 96.9943 146.567 96.8097 146.814 96.6761C147.061 96.5426 147.334 96.4432 147.632 96.3778C147.934 96.3097 148.236 96.2557 148.54 96.2159C148.938 96.1648 149.26 96.1264 149.507 96.1009C149.757 96.0724 149.939 96.0256 150.053 95.9602C150.169 95.8949 150.228 95.7812 150.228 95.6193V95.5852C150.228 95.1648 150.113 94.8381 149.882 94.6051C149.655 94.3722 149.31 94.2557 148.847 94.2557C148.367 94.2557 147.99 94.3608 147.718 94.571C147.445 94.7812 147.253 95.0057 147.142 95.2443L146.188 94.9034C146.358 94.5057 146.586 94.196 146.87 93.9744C147.157 93.75 147.469 93.5937 147.807 93.5057C148.148 93.4148 148.483 93.3693 148.813 93.3693C149.023 93.3693 149.265 93.3949 149.537 93.446C149.813 93.4943 150.078 93.5952 150.334 93.7486C150.593 93.902 150.807 94.1335 150.978 94.4432C151.148 94.7528 151.233 95.1676 151.233 95.6875V100H150.228V99.1136H150.176C150.108 99.2557 149.995 99.4077 149.836 99.5696C149.676 99.7315 149.465 99.8693 149.201 99.983C148.936 100.097 148.614 100.153 148.233 100.153ZM148.387 99.25C148.784 99.25 149.12 99.1719 149.392 99.0156C149.668 98.8594 149.875 98.6577 150.015 98.4105C150.157 98.1634 150.228 97.9034 150.228 97.6307V96.7102C150.185 96.7614 150.091 96.8082 149.946 96.8509C149.804 96.8906 149.64 96.9261 149.452 96.9574C149.267 96.9858 149.087 97.0114 148.911 97.0341C148.738 97.054 148.597 97.071 148.489 97.0852C148.228 97.1193 147.983 97.1747 147.756 97.2514C147.532 97.3253 147.35 97.4375 147.211 97.5881C147.074 97.7358 147.006 97.9375 147.006 98.1932C147.006 98.5426 147.135 98.8068 147.394 98.9858C147.655 99.1619 147.986 99.25 148.387 99.25Z" fill="white"/>
<rect x="20.1172" y="80" width="40.2375" height="31" rx="10" fill="#FFDA57"/>
<path d="M34.3045 91.2727L36.5545 94.9034H36.6227L38.8727 91.2727H40.117L37.3727 95.6364L40.117 100H38.8727L36.6227 96.4375H36.5545L34.3045 100H33.0602L35.8727 95.6364L33.0602 91.2727H34.3045ZM42.5492 91.2727V100H41.4924V91.2727H42.5492ZM45.725 91.2727V100H44.6681V91.2727H45.725Z" fill="black"/>
<path d="M117.395 96.7071C117.785 96.3166 117.785 95.6834 117.395 95.2929L111.031 88.9289C110.64 88.5384 110.007 88.5384 109.617 88.9289C109.226 89.3195 109.226 89.9526 109.617 90.3431L115.273 96L109.617 101.657C109.226 102.047 109.226 102.681 109.617 103.071C110.007 103.462 110.64 103.462 111.031 103.071L117.395 96.7071ZM65.3848 97H116.688V95H65.3848V97Z" fill="black"/>
<path d="M89.8261 91.7071C90.2166 92.0976 90.8498 92.0976 91.2403 91.7071L97.6043 85.3431C97.9948 84.9526 97.9948 84.3195 97.6043 83.9289C97.2137 83.5384 96.5806 83.5384 96.1901 83.9289L90.5332 89.5858L84.8763 83.9289C84.4858 83.5384 83.8527 83.5384 83.4621 83.9289C83.0716 84.3195 83.0716 84.9526 83.4621 85.3431L89.8261 91.7071ZM89.5332 56L89.5332 91L91.5332 91L91.5332 56L89.5332 56Z" fill="black"/>
<rect x="167.99" y="260" width="40.2375" height="31" rx="10" fill="#FFDA57"/>
<path d="M185.678 271.273L187.928 274.903H187.996L190.246 271.273H191.49L188.746 275.636L191.49 280H190.246L187.996 276.438H187.928L185.678 280H184.433L187.246 275.636L184.433 271.273H185.678Z" fill="black"/>
<rect x="403.379" y="260" width="40.2375" height="31" rx="10" fill="#8F00FF"/>
<path d="M417.566 271.273L419.816 274.903H419.884L422.134 271.273H423.379L420.634 275.636L423.379 280H422.134L419.884 276.438H419.816L417.566 280H416.322L419.134 275.636L416.322 271.273H417.566ZM426.544 280.153C426.129 280.153 425.753 280.075 425.415 279.919C425.077 279.76 424.808 279.531 424.609 279.233C424.41 278.932 424.311 278.568 424.311 278.142C424.311 277.767 424.385 277.463 424.532 277.23C424.68 276.994 424.878 276.81 425.125 276.676C425.372 276.543 425.645 276.443 425.943 276.378C426.244 276.31 426.547 276.256 426.851 276.216C427.248 276.165 427.571 276.126 427.818 276.101C428.068 276.072 428.25 276.026 428.363 275.96C428.48 275.895 428.538 275.781 428.538 275.619V275.585C428.538 275.165 428.423 274.838 428.193 274.605C427.966 274.372 427.621 274.256 427.157 274.256C426.677 274.256 426.301 274.361 426.028 274.571C425.756 274.781 425.564 275.006 425.453 275.244L424.498 274.903C424.669 274.506 424.896 274.196 425.18 273.974C425.467 273.75 425.78 273.594 426.118 273.506C426.459 273.415 426.794 273.369 427.123 273.369C427.334 273.369 427.575 273.395 427.848 273.446C428.123 273.494 428.389 273.595 428.645 273.749C428.903 273.902 429.118 274.134 429.288 274.443C429.459 274.753 429.544 275.168 429.544 275.688V280H428.538V279.114H428.487C428.419 279.256 428.305 279.408 428.146 279.57C427.987 279.732 427.775 279.869 427.511 279.983C427.247 280.097 426.925 280.153 426.544 280.153ZM426.697 279.25C427.095 279.25 427.43 279.172 427.703 279.016C427.979 278.859 428.186 278.658 428.325 278.411C428.467 278.163 428.538 277.903 428.538 277.631V276.71C428.496 276.761 428.402 276.808 428.257 276.851C428.115 276.891 427.95 276.926 427.763 276.957C427.578 276.986 427.398 277.011 427.221 277.034C427.048 277.054 426.907 277.071 426.8 277.085C426.538 277.119 426.294 277.175 426.067 277.251C425.842 277.325 425.66 277.437 425.521 277.588C425.385 277.736 425.317 277.937 425.317 278.193C425.317 278.543 425.446 278.807 425.704 278.986C425.966 279.162 426.297 279.25 426.697 279.25Z" fill="white"/>
<path d="M399.058 275.707C399.448 275.317 399.448 274.683 399.058 274.293L392.694 267.929C392.303 267.538 391.67 267.538 391.279 267.929C390.889 268.319 390.889 268.953 391.279 269.343L396.936 275L391.279 280.657C390.889 281.047 390.889 281.681 391.279 282.071C391.67 282.462 392.303 282.462 392.694 282.071L399.058 275.707ZM213.258 276L398.35 276L398.35 274L213.258 274L213.258 276Z" fill="black"/>
<path d="M422.791 331.707C423.181 332.098 423.815 332.098 424.205 331.707L430.569 325.343C430.96 324.953 430.96 324.319 430.569 323.929C430.179 323.538 429.545 323.538 429.155 323.929L423.498 329.586L417.841 323.929C417.451 323.538 416.818 323.538 416.427 323.929C416.036 324.319 416.036 324.953 416.427 325.343L422.791 331.707ZM422.498 296L422.498 331L424.498 331L424.498 296L422.498 296Z" fill="black"/>
<path d="M507.291 391.707C507.681 392.098 508.315 392.098 508.705 391.707L515.069 385.343C515.46 384.953 515.46 384.319 515.069 383.929C514.679 383.538 514.045 383.538 513.655 383.929L507.998 389.586L502.341 383.929C501.951 383.538 501.318 383.538 500.927 383.929C500.536 384.319 500.536 384.953 500.927 385.343L507.291 391.707ZM506.998 356L506.998 391L508.998 391L508.998 356L506.998 356Z" fill="black"/>
<path d="M364.447 271.707C364.838 272.098 365.471 272.098 365.861 271.707L372.225 265.343C372.616 264.953 372.616 264.319 372.225 263.929C371.835 263.538 371.202 263.538 370.811 263.929L365.154 269.586L359.497 263.929C359.107 263.538 358.474 263.538 358.083 263.929C357.693 264.319 357.693 264.953 358.083 265.343L364.447 271.707ZM364.154 236L364.154 271L366.154 271L366.154 236L364.154 236Z" fill="black"/>
<rect x="458.707" y="200" width="40.2375" height="31" rx="10" fill="#FFDA57"/>
<path d="M472.741 211.273L475.332 218.619H475.434L478.025 211.273H479.133L475.928 220H474.838L471.633 211.273H472.741ZM481.549 211.273V220H480.492V211.273H481.549ZM484.725 211.273V220H483.668V211.273H484.725Z" fill="black"/>
<rect x="345.035" y="200" width="40.2375" height="31" rx="10" fill="#8F00FF"/>
<path d="M355.569 211.273L358.16 218.619H358.262L360.853 211.273H361.961L358.757 220H357.666L354.461 211.273H355.569ZM364.377 211.273V220H363.32V211.273H364.377ZM367.553 211.273V220H366.496V211.273H367.553ZM371.462 220.153C371.047 220.153 370.671 220.075 370.333 219.919C369.994 219.76 369.726 219.531 369.527 219.233C369.328 218.932 369.229 218.568 369.229 218.142C369.229 217.767 369.303 217.463 369.45 217.23C369.598 216.994 369.796 216.81 370.043 216.676C370.29 216.543 370.563 216.443 370.861 216.378C371.162 216.31 371.465 216.256 371.769 216.216C372.166 216.165 372.489 216.126 372.736 216.101C372.986 216.072 373.168 216.026 373.281 215.96C373.398 215.895 373.456 215.781 373.456 215.619V215.585C373.456 215.165 373.341 214.838 373.111 214.605C372.884 214.372 372.539 214.256 372.075 214.256C371.595 214.256 371.219 214.361 370.946 214.571C370.673 214.781 370.482 215.006 370.371 215.244L369.416 214.903C369.587 214.506 369.814 214.196 370.098 213.974C370.385 213.75 370.698 213.594 371.036 213.506C371.377 213.415 371.712 213.369 372.041 213.369C372.252 213.369 372.493 213.395 372.766 213.446C373.041 213.494 373.307 213.595 373.563 213.749C373.821 213.902 374.036 214.134 374.206 214.443C374.377 214.753 374.462 215.168 374.462 215.688V220H373.456V219.114H373.405C373.337 219.256 373.223 219.408 373.064 219.57C372.905 219.732 372.693 219.869 372.429 219.983C372.165 220.097 371.843 220.153 371.462 220.153ZM371.615 219.25C372.013 219.25 372.348 219.172 372.621 219.016C372.896 218.859 373.104 218.658 373.243 218.411C373.385 218.163 373.456 217.903 373.456 217.631V216.71C373.414 216.761 373.32 216.808 373.175 216.851C373.033 216.891 372.868 216.926 372.681 216.957C372.496 216.986 372.316 217.011 372.139 217.034C371.966 217.054 371.825 217.071 371.718 217.085C371.456 217.119 371.212 217.175 370.985 217.251C370.76 217.325 370.578 217.437 370.439 217.588C370.303 217.736 370.235 217.937 370.235 218.193C370.235 218.543 370.364 218.807 370.622 218.986C370.884 219.162 371.215 219.25 371.615 219.25Z" fill="white"/>
<path d="M389.595 214.293C389.204 214.683 389.204 215.317 389.595 215.707L395.959 222.071C396.349 222.462 396.982 222.462 397.373 222.071C397.763 221.681 397.763 221.047 397.373 220.657L391.716 215L397.373 209.343C397.763 208.953 397.763 208.319 397.373 207.929C396.982 207.538 396.349 207.538 395.959 207.929L389.595 214.293ZM453.676 214L390.302 214L390.302 216L453.676 216L453.676 214Z" fill="black"/>
<rect x="286.691" y="320" width="106.629" height="31" rx="10" fill="#ACE1F8"/>
<path d="M310.591 331.273V340H309.534V332.21H305.137V340H304.08V331.273H310.591ZM312.586 342.455V333.455H313.558V334.494H313.677C313.751 334.381 313.854 334.236 313.984 334.06C314.118 333.881 314.308 333.722 314.555 333.582C314.805 333.44 315.143 333.369 315.569 333.369C316.121 333.369 316.606 333.507 317.027 333.783C317.447 334.058 317.775 334.449 318.011 334.955C318.247 335.46 318.365 336.057 318.365 336.744C318.365 337.438 318.247 338.038 318.011 338.547C317.775 339.053 317.449 339.445 317.031 339.723C316.613 339.999 316.132 340.136 315.586 340.136C315.166 340.136 314.829 340.067 314.577 339.928C314.324 339.786 314.129 339.625 313.993 339.446C313.856 339.264 313.751 339.114 313.677 338.994H313.592V342.455H312.586ZM313.575 336.727C313.575 337.222 313.648 337.658 313.792 338.036C313.937 338.411 314.149 338.705 314.427 338.918C314.706 339.128 315.047 339.233 315.45 339.233C315.871 339.233 316.221 339.122 316.503 338.901C316.787 338.676 317 338.375 317.142 337.997C317.287 337.616 317.359 337.193 317.359 336.727C317.359 336.267 317.288 335.852 317.146 335.483C317.007 335.111 316.795 334.817 316.511 334.601C316.23 334.382 315.876 334.273 315.45 334.273C315.041 334.273 314.697 334.376 314.419 334.584C314.14 334.788 313.93 335.075 313.788 335.445C313.646 335.811 313.575 336.239 313.575 336.727ZM322.558 340.136C321.967 340.136 321.449 339.996 321.003 339.714C320.559 339.433 320.213 339.04 319.963 338.534C319.716 338.028 319.592 337.437 319.592 336.761C319.592 336.08 319.716 335.484 319.963 334.976C320.213 334.467 320.559 334.072 321.003 333.791C321.449 333.51 321.967 333.369 322.558 333.369C323.149 333.369 323.666 333.51 324.109 333.791C324.555 334.072 324.902 334.467 325.149 334.976C325.399 335.484 325.524 336.08 325.524 336.761C325.524 337.437 325.399 338.028 325.149 338.534C324.902 339.04 324.555 339.433 324.109 339.714C323.666 339.996 323.149 340.136 322.558 340.136ZM322.558 339.233C323.007 339.233 323.376 339.118 323.666 338.888C323.956 338.658 324.17 338.355 324.309 337.98C324.449 337.605 324.518 337.199 324.518 336.761C324.518 336.324 324.449 335.916 324.309 335.538C324.17 335.161 323.956 334.855 323.666 334.622C323.376 334.389 323.007 334.273 322.558 334.273C322.109 334.273 321.74 334.389 321.45 334.622C321.16 334.855 320.946 335.161 320.807 335.538C320.667 335.916 320.598 336.324 320.598 336.761C320.598 337.199 320.667 337.605 320.807 337.98C320.946 338.355 321.16 338.658 321.45 338.888C321.74 339.118 322.109 339.233 322.558 339.233ZM326.204 334.392V333.455H331.522V334.392H329.374V340H328.368V334.392H326.204ZM332.989 342.455V333.455H333.96V334.494H334.08C334.154 334.381 334.256 334.236 334.387 334.06C334.52 333.881 334.71 333.722 334.958 333.582C335.208 333.44 335.546 333.369 335.972 333.369C336.523 333.369 337.009 333.507 337.429 333.783C337.85 334.058 338.178 334.449 338.414 334.955C338.649 335.46 338.767 336.057 338.767 336.744C338.767 337.438 338.649 338.038 338.414 338.547C338.178 339.053 337.851 339.445 337.433 339.723C337.016 339.999 336.534 340.136 335.989 340.136C335.568 340.136 335.232 340.067 334.979 339.928C334.726 339.786 334.531 339.625 334.395 339.446C334.259 339.264 334.154 339.114 334.08 338.994H333.994V342.455H332.989ZM333.977 336.727C333.977 337.222 334.05 337.658 334.195 338.036C334.34 338.411 334.551 338.705 334.83 338.918C335.108 339.128 335.449 339.233 335.852 339.233C336.273 339.233 336.624 339.122 336.905 338.901C337.189 338.676 337.402 338.375 337.544 337.997C337.689 337.616 337.762 337.193 337.762 336.727C337.762 336.267 337.691 335.852 337.548 335.483C337.409 335.111 337.198 334.817 336.914 334.601C336.632 334.382 336.279 334.273 335.852 334.273C335.443 334.273 335.1 334.376 334.821 334.584C334.543 334.788 334.333 335.075 334.191 335.445C334.048 335.811 333.977 336.239 333.977 336.727ZM342.96 340.136C342.369 340.136 341.851 339.996 341.405 339.714C340.962 339.433 340.615 339.04 340.365 338.534C340.118 338.028 339.994 337.437 339.994 336.761C339.994 336.08 340.118 335.484 340.365 334.976C340.615 334.467 340.962 334.072 341.405 333.791C341.851 333.51 342.369 333.369 342.96 333.369C343.551 333.369 344.068 333.51 344.512 333.791C344.958 334.072 345.304 334.467 345.551 334.976C345.801 335.484 345.926 336.08 345.926 336.761C345.926 337.437 345.801 338.028 345.551 338.534C345.304 339.04 344.958 339.433 344.512 339.714C344.068 339.996 343.551 340.136 342.96 340.136ZM342.96 339.233C343.409 339.233 343.779 339.118 344.068 338.888C344.358 338.658 344.573 338.355 344.712 337.98C344.851 337.605 344.921 337.199 344.921 336.761C344.921 336.324 344.851 335.916 344.712 335.538C344.573 335.161 344.358 334.855 344.068 334.622C343.779 334.389 343.409 334.273 342.96 334.273C342.512 334.273 342.142 334.389 341.852 334.622C341.563 334.855 341.348 335.161 341.209 335.538C341.07 335.916 341 336.324 341 336.761C341 337.199 341.07 337.605 341.209 337.98C341.348 338.355 341.563 338.658 341.852 338.888C342.142 339.118 342.512 339.233 342.96 339.233ZM351.041 338.636L353.325 333.455H354.28L351.45 340H350.632L347.854 333.455H348.791L351.041 338.636ZM348.467 333.455V340H347.461V333.455H348.467ZM353.615 340V333.455H354.621V340H353.615ZM361.319 331L361.831 331.614C361.632 331.807 361.402 331.942 361.14 332.018C360.879 332.095 360.584 332.142 360.254 332.159C359.925 332.176 359.558 332.193 359.155 332.21C358.7 332.227 358.324 332.338 358.025 332.543C357.727 332.747 357.497 333.043 357.335 333.429C357.173 333.815 357.069 334.29 357.024 334.852H357.109C357.331 334.443 357.638 334.142 358.03 333.949C358.422 333.756 358.842 333.659 359.291 333.659C359.802 333.659 360.263 333.778 360.672 334.017C361.081 334.256 361.405 334.609 361.643 335.078C361.882 335.547 362.001 336.125 362.001 336.812C362.001 337.497 361.879 338.088 361.635 338.585C361.393 339.082 361.054 339.466 360.616 339.736C360.182 340.003 359.672 340.136 359.086 340.136C358.501 340.136 357.988 339.999 357.548 339.723C357.108 339.445 356.765 339.033 356.521 338.487C356.277 337.939 356.155 337.261 356.155 336.455V335.756C356.155 334.298 356.402 333.193 356.896 332.44C357.393 331.687 358.14 331.298 359.138 331.273C359.49 331.261 359.804 331.259 360.079 331.264C360.355 331.27 360.595 331.257 360.8 331.226C361.004 331.195 361.177 331.119 361.319 331ZM359.086 339.233C359.481 339.233 359.821 339.134 360.105 338.935C360.392 338.736 360.612 338.456 360.765 338.095C360.919 337.732 360.996 337.304 360.996 336.812C360.996 336.335 360.917 335.929 360.761 335.594C360.608 335.259 360.388 335.003 360.101 334.827C359.814 334.651 359.47 334.562 359.069 334.562C358.777 334.562 358.514 334.612 358.281 334.712C358.048 334.811 357.849 334.957 357.684 335.151C357.52 335.344 357.392 335.58 357.301 335.858C357.213 336.136 357.166 336.455 357.16 336.812C357.16 337.545 357.332 338.132 357.676 338.572C358.02 339.013 358.49 339.233 359.086 339.233ZM364.545 338.517L367.699 333.455H368.858V340H367.852V334.938L364.716 340H363.54V333.455H364.545V338.517ZM375.08 336.267V337.205H371.467V336.267H375.08ZM371.705 333.455V340H370.7V333.455H371.705ZM375.847 333.455V340H374.842V333.455H375.847Z" fill="black"/>
<rect x="454.684" y="320" width="106.629" height="31" rx="10" fill="#ACE1F8"/>
<path d="M482.578 332.21V331.273H489.123V332.21H486.379V340H485.322V332.21H482.578ZM489.938 342.455V333.455H490.91V334.494H491.029C491.103 334.381 491.205 334.236 491.336 334.06C491.469 333.881 491.66 333.722 491.907 333.582C492.157 333.44 492.495 333.369 492.921 333.369C493.472 333.369 493.958 333.507 494.378 333.783C494.799 334.058 495.127 334.449 495.363 334.955C495.599 335.46 495.716 336.057 495.716 336.744C495.716 337.438 495.599 338.038 495.363 338.547C495.127 339.053 494.8 339.445 494.383 339.723C493.965 339.999 493.483 340.136 492.938 340.136C492.518 340.136 492.181 340.067 491.928 339.928C491.675 339.786 491.481 339.625 491.344 339.446C491.208 339.264 491.103 339.114 491.029 338.994H490.944V342.455H489.938ZM490.927 336.727C490.927 337.222 490.999 337.658 491.144 338.036C491.289 338.411 491.501 338.705 491.779 338.918C492.057 339.128 492.398 339.233 492.802 339.233C493.222 339.233 493.573 339.122 493.854 338.901C494.138 338.676 494.351 338.375 494.493 337.997C494.638 337.616 494.711 337.193 494.711 336.727C494.711 336.267 494.64 335.852 494.498 335.483C494.358 335.111 494.147 334.817 493.863 334.601C493.581 334.382 493.228 334.273 492.802 334.273C492.393 334.273 492.049 334.376 491.77 334.584C491.492 334.788 491.282 335.075 491.14 335.445C490.998 335.811 490.927 336.239 490.927 336.727ZM499.91 340.136C499.319 340.136 498.8 339.996 498.354 339.714C497.911 339.433 497.564 339.04 497.314 338.534C497.067 338.028 496.944 337.437 496.944 336.761C496.944 336.08 497.067 335.484 497.314 334.976C497.564 334.467 497.911 334.072 498.354 333.791C498.8 333.51 499.319 333.369 499.91 333.369C500.501 333.369 501.018 333.51 501.461 333.791C501.907 334.072 502.253 334.467 502.501 334.976C502.751 335.484 502.876 336.08 502.876 336.761C502.876 337.437 502.751 338.028 502.501 338.534C502.253 339.04 501.907 339.433 501.461 339.714C501.018 339.996 500.501 340.136 499.91 340.136ZM499.91 339.233C500.358 339.233 500.728 339.118 501.018 338.888C501.307 338.658 501.522 338.355 501.661 337.98C501.8 337.605 501.87 337.199 501.87 336.761C501.87 336.324 501.8 335.916 501.661 335.538C501.522 335.161 501.307 334.855 501.018 334.622C500.728 334.389 500.358 334.273 499.91 334.273C499.461 334.273 499.091 334.389 498.802 334.622C498.512 334.855 498.297 335.161 498.158 335.538C498.019 335.916 497.949 336.324 497.949 336.761C497.949 337.199 498.019 337.605 498.158 337.98C498.297 338.355 498.512 338.658 498.802 338.888C499.091 339.118 499.461 339.233 499.91 339.233ZM507.99 338.636L510.274 333.455H511.229L508.399 340H507.581L504.803 333.455H505.74L507.99 338.636ZM505.416 333.455V340H504.411V333.455H505.416ZM510.564 340V333.455H511.57V340H510.564ZM518.269 331L518.78 331.614C518.581 331.807 518.351 331.942 518.09 332.018C517.828 332.095 517.533 332.142 517.203 332.159C516.874 332.176 516.507 332.193 516.104 332.21C515.649 332.227 515.273 332.338 514.975 332.543C514.676 332.747 514.446 333.043 514.284 333.429C514.122 333.815 514.019 334.29 513.973 334.852H514.058C514.28 334.443 514.587 334.142 514.979 333.949C515.371 333.756 515.791 333.659 516.24 333.659C516.752 333.659 517.212 333.778 517.621 334.017C518.03 334.256 518.354 334.609 518.593 335.078C518.831 335.547 518.95 336.125 518.95 336.812C518.95 337.497 518.828 338.088 518.584 338.585C518.343 339.082 518.003 339.466 517.566 339.736C517.131 340.003 516.621 340.136 516.036 340.136C515.45 340.136 514.938 339.999 514.497 339.723C514.057 339.445 513.715 339.033 513.47 338.487C513.226 337.939 513.104 337.261 513.104 336.455V335.756C513.104 334.298 513.351 333.193 513.845 332.44C514.343 331.687 515.09 331.298 516.087 331.273C516.439 331.261 516.753 331.259 517.029 331.264C517.304 331.27 517.544 331.257 517.749 331.226C517.953 331.195 518.127 331.119 518.269 331ZM516.036 339.233C516.431 339.233 516.77 339.134 517.054 338.935C517.341 338.736 517.561 338.456 517.715 338.095C517.868 337.732 517.945 337.304 517.945 336.812C517.945 336.335 517.867 335.929 517.71 335.594C517.557 335.259 517.337 335.003 517.05 334.827C516.763 334.651 516.419 334.562 516.019 334.562C515.726 334.562 515.463 334.612 515.23 334.712C514.997 334.811 514.798 334.957 514.634 335.151C514.469 335.344 514.341 335.58 514.25 335.858C514.162 336.136 514.115 336.455 514.11 336.812C514.11 337.545 514.281 338.132 514.625 338.572C514.969 339.013 515.439 339.233 516.036 339.233ZM521.494 338.517L524.648 333.455H525.807V340H524.801V334.938L521.665 340H520.489V333.455H521.494V338.517ZM532.03 336.267V337.205H528.416V336.267H532.03ZM528.655 333.455V340H527.649V333.455H528.655ZM532.797 333.455V340H531.791V333.455H532.797Z" fill="black"/>
<path d="M450.36 336.707C450.75 336.317 450.75 335.683 450.36 335.293L443.996 328.929C443.605 328.538 442.972 328.538 442.581 328.929C442.191 329.319 442.191 329.953 442.581 330.343L448.238 336L442.581 341.657C442.191 342.047 442.191 342.681 442.581 343.071C442.972 343.462 443.605 343.462 443.996 343.071L450.36 336.707ZM398.35 337H449.652V335H398.35V337Z" fill="black"/>
<path d="M192.432 211.707C192.822 212.098 193.455 212.098 193.846 211.707L200.21 205.343C200.6 204.953 200.6 204.319 200.21 203.929C199.819 203.538 199.186 203.538 198.796 203.929L193.139 209.586L187.482 203.929C187.091 203.538 186.458 203.538 186.068 203.929C185.677 204.319 185.677 204.953 186.068 205.343L192.432 211.707ZM192.139 176L192.139 211L194.139 211L194.139 176L192.139 176Z" fill="black"/>
<rect x="71.4199" y="140" width="40.2375" height="31" rx="10" fill="#FFDA57"/>
<path d="M87.6072 151.273L89.8572 154.903H89.9254L92.1754 151.273H93.4197L90.6754 155.636L93.4197 160H92.1754L89.9254 156.438H89.8572L87.6072 160H86.3629L89.1754 155.636L86.3629 151.273H87.6072ZM95.8519 151.273V160H94.7951V151.273H95.8519Z" fill="black"/>
<rect x="173.02" y="140" width="40.2375" height="31" rx="10" fill="#8F00FF"/>
<path d="M185.707 151.273L187.957 154.903H188.025L190.275 151.273H191.519L188.775 155.636L191.519 160H190.275L188.025 156.438H187.957L185.707 160H184.463L187.275 155.636L184.463 151.273H185.707ZM193.952 151.273V160H192.895V151.273H193.952ZM197.86 160.153C197.445 160.153 197.069 160.075 196.731 159.919C196.393 159.76 196.124 159.531 195.926 159.233C195.727 158.932 195.627 158.568 195.627 158.142C195.627 157.767 195.701 157.463 195.849 157.23C195.997 156.994 196.194 156.81 196.441 156.676C196.688 156.543 196.961 156.443 197.259 156.378C197.561 156.31 197.863 156.256 198.167 156.216C198.565 156.165 198.887 156.126 199.134 156.101C199.384 156.072 199.566 156.026 199.68 155.96C199.796 155.895 199.855 155.781 199.855 155.619V155.585C199.855 155.165 199.74 154.838 199.509 154.605C199.282 154.372 198.937 154.256 198.474 154.256C197.994 154.256 197.617 154.361 197.345 154.571C197.072 154.781 196.88 155.006 196.769 155.244L195.815 154.903C195.985 154.506 196.213 154.196 196.497 153.974C196.784 153.75 197.096 153.594 197.434 153.506C197.775 153.415 198.11 153.369 198.44 153.369C198.65 153.369 198.892 153.395 199.164 153.446C199.44 153.494 199.705 153.595 199.961 153.749C200.22 153.902 200.434 154.134 200.605 154.443C200.775 154.753 200.86 155.168 200.86 155.688V160H199.855V159.114H199.803C199.735 159.256 199.622 159.408 199.463 159.57C199.303 159.732 199.092 159.869 198.828 159.983C198.563 160.097 198.241 160.153 197.86 160.153ZM198.014 159.25C198.411 159.25 198.747 159.172 199.019 159.016C199.295 158.859 199.502 158.658 199.642 158.411C199.784 158.163 199.855 157.903 199.855 157.631V156.71C199.812 156.761 199.718 156.808 199.573 156.851C199.431 156.891 199.267 156.926 199.079 156.957C198.894 156.986 198.714 157.011 198.538 157.034C198.365 157.054 198.224 157.071 198.116 157.085C197.855 157.119 197.61 157.175 197.383 157.251C197.159 157.325 196.977 157.437 196.838 157.588C196.701 157.736 196.633 157.937 196.633 158.193C196.633 158.543 196.762 158.807 197.021 158.986C197.282 159.162 197.613 159.25 198.014 159.25Z" fill="white"/>
<path d="M168.697 156.707C169.088 156.317 169.088 155.683 168.697 155.293L162.333 148.929C161.943 148.538 161.31 148.538 160.919 148.929C160.529 149.319 160.529 149.953 160.919 150.343L166.576 156L160.919 161.657C160.529 162.047 160.529 162.681 160.919 163.071C161.31 163.462 161.943 163.462 162.333 163.071L168.697 156.707ZM116.688 157H167.99V155H116.688V157Z" fill="black"/>
<rect x="371.189" y="380" width="106.629" height="31" rx="10" fill="#ACE1F8"/>
<path d="M392.561 392.312H393.941C394.589 392.312 395.164 392.457 395.667 392.747C396.17 393.037 396.565 393.44 396.852 393.957C397.139 394.474 397.282 395.074 397.282 395.756C397.282 396.438 397.139 397.038 396.852 397.558C396.565 398.078 396.17 398.484 395.667 398.777C395.164 399.07 394.589 399.216 393.941 399.216H392.561C391.913 399.216 391.338 399.071 390.835 398.781C390.332 398.491 389.937 398.088 389.65 397.571C389.363 397.054 389.22 396.455 389.22 395.773C389.22 395.091 389.363 394.49 389.65 393.97C389.937 393.45 390.332 393.044 390.835 392.751C391.338 392.459 391.913 392.312 392.561 392.312ZM392.561 393.25C392.066 393.25 391.649 393.354 391.308 393.561C390.97 393.768 390.713 394.061 390.537 394.439C390.363 394.817 390.277 395.261 390.277 395.773C390.277 396.278 390.363 396.719 390.537 397.094C390.713 397.469 390.97 397.76 391.308 397.967C391.649 398.175 392.066 398.278 392.561 398.278H393.941C394.436 398.278 394.852 398.175 395.19 397.967C395.531 397.76 395.788 397.467 395.961 397.089C396.137 396.712 396.225 396.267 396.225 395.756C396.225 395.25 396.137 394.81 395.961 394.435C395.788 394.06 395.531 393.768 395.19 393.561C394.852 393.354 394.436 393.25 393.941 393.25H392.561ZM393.788 391.119V400.358H392.731V391.119H393.788ZM399.922 398.517L403.076 393.455H404.235V400H403.229V394.938L400.093 400H398.917V393.455H399.922V398.517ZM410.935 391L411.446 391.614C411.247 391.807 411.017 391.942 410.756 392.018C410.494 392.095 410.199 392.142 409.869 392.159C409.54 392.176 409.173 392.193 408.77 392.21C408.315 392.227 407.939 392.338 407.641 392.543C407.342 392.747 407.112 393.043 406.95 393.429C406.788 393.815 406.685 394.29 406.639 394.852H406.724C406.946 394.443 407.253 394.142 407.645 393.949C408.037 393.756 408.457 393.659 408.906 393.659C409.418 393.659 409.878 393.778 410.287 394.017C410.696 394.256 411.02 394.609 411.259 395.078C411.497 395.547 411.616 396.125 411.616 396.812C411.616 397.497 411.494 398.088 411.25 398.585C411.009 399.082 410.669 399.466 410.232 399.736C409.797 400.003 409.287 400.136 408.702 400.136C408.116 400.136 407.604 399.999 407.163 399.723C406.723 399.445 406.381 399.033 406.136 398.487C405.892 397.939 405.77 397.261 405.77 396.455V395.756C405.77 394.298 406.017 393.193 406.511 392.44C407.009 391.687 407.756 391.298 408.753 391.273C409.105 391.261 409.419 391.259 409.695 391.264C409.97 391.27 410.21 391.257 410.415 391.226C410.619 391.195 410.793 391.119 410.935 391ZM408.702 399.233C409.097 399.233 409.436 399.134 409.72 398.935C410.007 398.736 410.227 398.456 410.381 398.095C410.534 397.732 410.611 397.304 410.611 396.812C410.611 396.335 410.533 395.929 410.376 395.594C410.223 395.259 410.003 395.003 409.716 394.827C409.429 394.651 409.085 394.562 408.685 394.562C408.392 394.562 408.129 394.612 407.896 394.712C407.663 394.811 407.464 394.957 407.3 395.151C407.135 395.344 407.007 395.58 406.916 395.858C406.828 396.136 406.781 396.455 406.776 396.812C406.776 397.545 406.947 398.132 407.291 398.572C407.635 399.013 408.105 399.233 408.702 399.233ZM413.155 402.455V393.455H414.126V394.494H414.246C414.32 394.381 414.422 394.236 414.553 394.06C414.686 393.881 414.876 393.722 415.124 393.582C415.374 393.44 415.712 393.369 416.138 393.369C416.689 393.369 417.175 393.507 417.595 393.783C418.016 394.058 418.344 394.449 418.58 394.955C418.815 395.46 418.933 396.057 418.933 396.744C418.933 397.438 418.815 398.038 418.58 398.547C418.344 399.053 418.017 399.445 417.599 399.723C417.182 399.999 416.7 400.136 416.155 400.136C415.734 400.136 415.398 400.067 415.145 399.928C414.892 399.786 414.697 399.625 414.561 399.446C414.425 399.264 414.32 399.114 414.246 398.994H414.161V402.455H413.155ZM414.143 396.727C414.143 397.222 414.216 397.658 414.361 398.036C414.506 398.411 414.717 398.705 414.996 398.918C415.274 399.128 415.615 399.233 416.018 399.233C416.439 399.233 416.79 399.122 417.071 398.901C417.355 398.676 417.568 398.375 417.71 397.997C417.855 397.616 417.928 397.193 417.928 396.727C417.928 396.267 417.857 395.852 417.714 395.483C417.575 395.111 417.364 394.817 417.08 394.601C416.798 394.382 416.445 394.273 416.018 394.273C415.609 394.273 415.266 394.376 414.987 394.584C414.709 394.788 414.499 395.075 414.357 395.445C414.214 395.811 414.143 396.239 414.143 396.727ZM421.473 398.517L424.626 393.455H425.786V400H424.78V394.938L421.643 400H420.467V393.455H421.473V398.517ZM432.008 396.267V397.205H428.395V396.267H432.008ZM428.633 393.455V400H427.627V393.455H428.633ZM432.775 393.455V400H431.77V393.455H432.775ZM437.271 400.136C436.68 400.136 436.162 399.996 435.716 399.714C435.272 399.433 434.926 399.04 434.676 398.534C434.429 398.028 434.305 397.437 434.305 396.761C434.305 396.08 434.429 395.484 434.676 394.976C434.926 394.467 435.272 394.072 435.716 393.791C436.162 393.51 436.68 393.369 437.271 393.369C437.862 393.369 438.379 393.51 438.822 393.791C439.268 394.072 439.615 394.467 439.862 394.976C440.112 395.484 440.237 396.08 440.237 396.761C440.237 397.437 440.112 398.028 439.862 398.534C439.615 399.04 439.268 399.433 438.822 399.714C438.379 399.996 437.862 400.136 437.271 400.136ZM437.271 399.233C437.72 399.233 438.089 399.118 438.379 398.888C438.669 398.658 438.883 398.355 439.022 397.98C439.162 397.605 439.231 397.199 439.231 396.761C439.231 396.324 439.162 395.916 439.022 395.538C438.883 395.161 438.669 394.855 438.379 394.622C438.089 394.389 437.72 394.273 437.271 394.273C436.822 394.273 436.453 394.389 436.163 394.622C435.873 394.855 435.659 395.161 435.52 395.538C435.38 395.916 435.311 396.324 435.311 396.761C435.311 397.199 435.38 397.605 435.52 397.98C435.659 398.355 435.873 398.658 436.163 398.888C436.453 399.118 436.822 399.233 437.271 399.233ZM445.812 393.455V394.392H442.778V400H441.772V393.455H445.812ZM449.684 400.136C449.054 400.136 448.51 399.997 448.052 399.719C447.598 399.438 447.247 399.045 447 398.543C446.755 398.037 446.633 397.449 446.633 396.778C446.633 396.108 446.755 395.517 447 395.006C447.247 394.491 447.591 394.091 448.031 393.804C448.474 393.514 448.991 393.369 449.582 393.369C449.923 393.369 450.26 393.426 450.592 393.54C450.924 393.653 451.227 393.838 451.5 394.094C451.772 394.347 451.99 394.682 452.152 395.099C452.314 395.517 452.395 396.031 452.395 396.642V397.068H447.349V396.199H451.372C451.372 395.83 451.298 395.5 451.15 395.21C451.005 394.92 450.798 394.692 450.528 394.524C450.261 394.357 449.946 394.273 449.582 394.273C449.181 394.273 448.835 394.372 448.542 394.571C448.252 394.767 448.029 395.023 447.873 395.338C447.717 395.653 447.639 395.991 447.639 396.352V396.932C447.639 397.426 447.724 397.845 447.895 398.189C448.068 398.53 448.308 398.79 448.615 398.969C448.922 399.145 449.278 399.233 449.684 399.233C449.949 399.233 450.187 399.196 450.4 399.122C450.616 399.045 450.802 398.932 450.958 398.781C451.115 398.628 451.235 398.437 451.321 398.21L452.292 398.483C452.19 398.812 452.018 399.102 451.777 399.352C451.535 399.599 451.237 399.793 450.882 399.932C450.527 400.068 450.127 400.136 449.684 400.136ZM458.305 396.267V397.205H454.691V396.267H458.305ZM454.93 393.455V400H453.924V393.455H454.93ZM459.072 393.455V400H458.066V393.455H459.072Z" fill="black"/>
<rect x="539.182" y="380" width="106.629" height="31" rx="10" fill="#ACE1F8"/>
<path d="M573.553 392.312H574.934C575.581 392.312 576.157 392.457 576.659 392.747C577.162 393.037 577.557 393.44 577.844 393.957C578.131 394.474 578.275 395.074 578.275 395.756C578.275 396.438 578.131 397.038 577.844 397.558C577.557 398.078 577.162 398.484 576.659 398.777C576.157 399.07 575.581 399.216 574.934 399.216H573.553C572.905 399.216 572.33 399.071 571.827 398.781C571.324 398.491 570.929 398.088 570.642 397.571C570.355 397.054 570.212 396.455 570.212 395.773C570.212 395.091 570.355 394.49 570.642 393.97C570.929 393.45 571.324 393.044 571.827 392.751C572.33 392.459 572.905 392.312 573.553 392.312ZM573.553 393.25C573.059 393.25 572.641 393.354 572.3 393.561C571.962 393.768 571.705 394.061 571.529 394.439C571.355 394.817 571.269 395.261 571.269 395.773C571.269 396.278 571.355 396.719 571.529 397.094C571.705 397.469 571.962 397.76 572.3 397.967C572.641 398.175 573.059 398.278 573.553 398.278H574.934C575.428 398.278 575.844 398.175 576.182 397.967C576.523 397.76 576.78 397.467 576.953 397.089C577.13 396.712 577.218 396.267 577.218 395.756C577.218 395.25 577.13 394.81 576.953 394.435C576.78 394.06 576.523 393.768 576.182 393.561C575.844 393.354 575.428 393.25 574.934 393.25H573.553ZM574.78 391.119V400.358H573.723V391.119H574.78ZM580.914 398.517L584.068 393.455H585.227V400H584.221V394.938L581.085 400H579.909V393.455H580.914V398.517ZM591.927 391L592.438 391.614C592.239 391.807 592.009 391.942 591.748 392.018C591.487 392.095 591.191 392.142 590.862 392.159C590.532 392.176 590.165 392.193 589.762 392.21C589.308 392.227 588.931 392.338 588.633 392.543C588.335 392.747 588.104 393.043 587.942 393.429C587.781 393.815 587.677 394.29 587.631 394.852H587.717C587.938 394.443 588.245 394.142 588.637 393.949C589.029 393.756 589.45 393.659 589.898 393.659C590.41 393.659 590.87 393.778 591.279 394.017C591.688 394.256 592.012 394.609 592.251 395.078C592.489 395.547 592.609 396.125 592.609 396.812C592.609 397.497 592.487 398.088 592.242 398.585C592.001 399.082 591.661 399.466 591.224 399.736C590.789 400.003 590.279 400.136 589.694 400.136C589.109 400.136 588.596 399.999 588.156 399.723C587.715 399.445 587.373 399.033 587.129 398.487C586.884 397.939 586.762 397.261 586.762 396.455V395.756C586.762 394.298 587.009 393.193 587.504 392.44C588.001 391.687 588.748 391.298 589.745 391.273C590.097 391.261 590.411 391.259 590.687 391.264C590.962 391.27 591.202 391.257 591.407 391.226C591.612 391.195 591.785 391.119 591.927 391ZM589.694 399.233C590.089 399.233 590.428 399.134 590.712 398.935C590.999 398.736 591.219 398.456 591.373 398.095C591.526 397.732 591.603 397.304 591.603 396.812C591.603 396.335 591.525 395.929 591.369 395.594C591.215 395.259 590.995 395.003 590.708 394.827C590.421 394.651 590.077 394.562 589.677 394.562C589.384 394.562 589.121 394.612 588.888 394.712C588.656 394.811 588.457 394.957 588.292 395.151C588.127 395.344 587.999 395.58 587.908 395.858C587.82 396.136 587.773 396.455 587.768 396.812C587.768 397.545 587.94 398.132 588.283 398.572C588.627 399.013 589.097 399.233 589.694 399.233ZM594.147 402.455V393.455H595.119V394.494H595.238C595.312 394.381 595.414 394.236 595.545 394.06C595.678 393.881 595.869 393.722 596.116 393.582C596.366 393.44 596.704 393.369 597.13 393.369C597.681 393.369 598.167 393.507 598.587 393.783C599.008 394.058 599.336 394.449 599.572 394.955C599.808 395.46 599.925 396.057 599.925 396.744C599.925 397.438 599.808 398.038 599.572 398.547C599.336 399.053 599.009 399.445 598.592 399.723C598.174 399.999 597.692 400.136 597.147 400.136C596.727 400.136 596.39 400.067 596.137 399.928C595.884 399.786 595.69 399.625 595.553 399.446C595.417 399.264 595.312 399.114 595.238 398.994H595.153V402.455H594.147ZM595.136 396.727C595.136 397.222 595.208 397.658 595.353 398.036C595.498 398.411 595.71 398.705 595.988 398.918C596.266 399.128 596.607 399.233 597.011 399.233C597.431 399.233 597.782 399.122 598.063 398.901C598.347 398.676 598.56 398.375 598.702 397.997C598.847 397.616 598.92 397.193 598.92 396.727C598.92 396.267 598.849 395.852 598.707 395.483C598.567 395.111 598.356 394.817 598.072 394.601C597.79 394.382 597.437 394.273 597.011 394.273C596.602 394.273 596.258 394.376 595.979 394.584C595.701 394.788 595.491 395.075 595.349 395.445C595.207 395.811 595.136 396.239 595.136 396.727ZM602.465 398.517L605.619 393.455H606.778V400H605.772V394.938L602.636 400H601.46V393.455H602.465V398.517ZM613 396.267V397.205H609.387V396.267H613ZM609.625 393.455V400H608.62V393.455H609.625ZM613.767 393.455V400H612.762V393.455H613.767Z" fill="black"/>
<path d="M534.858 396.707C535.248 396.317 535.248 395.683 534.858 395.293L528.494 388.929C528.103 388.538 527.47 388.538 527.079 388.929C526.689 389.319 526.689 389.953 527.079 390.343L532.736 396L527.079 401.657C526.689 402.047 526.689 402.681 527.079 403.071C527.47 403.462 528.103 403.462 528.494 403.071L534.858 396.707ZM482.848 397H534.151V395H482.848V397Z" fill="black"/>
<path d="M633.441 337.707C633.831 337.317 633.831 336.683 633.441 336.293L627.077 329.929C626.686 329.538 626.053 329.538 625.663 329.929C625.272 330.319 625.272 330.953 625.663 331.343L631.319 337L625.663 342.657C625.272 343.047 625.272 343.681 625.663 344.071C626.053 344.462 626.686 344.462 627.077 344.071L633.441 337.707ZM593.487 374.132C595.32 360.419 597.936 351.488 603.564 345.927C609.161 340.397 617.954 338 632.734 338L632.734 336C617.838 336 608.345 338.391 602.158 344.504C596.002 350.588 593.337 360.156 591.505 373.868L593.487 374.132Z" fill="black"/>
<rect x="640.781" y="320" width="131.778" height="31" rx="10" fill="#ACE1F8"/>
<path d="M665.727 340V331.273H666.784V335.159H671.437V331.273H672.494V340H671.437V336.097H666.784V340H665.727ZM675.479 338.517L678.632 333.455H679.791V340H678.786V334.938L675.649 340H674.473V333.455H675.479V338.517ZM680.743 334.392V333.455H686.061V334.392H683.913V340H682.907V334.392H680.743ZM688.534 338.517L691.687 333.455H692.846V340H691.84V334.938L688.704 340H687.528V333.455H688.534V338.517ZM700.722 342.233V331.273H701.728V342.233H700.722ZM700.722 340.136C700.279 340.136 699.876 340.057 699.512 339.898C699.148 339.736 698.836 339.507 698.574 339.212C698.313 338.913 698.111 338.557 697.969 338.142C697.827 337.727 697.756 337.267 697.756 336.761C697.756 336.25 697.827 335.787 697.969 335.372C698.111 334.955 698.313 334.597 698.574 334.298C698.836 334 699.148 333.771 699.512 333.612C699.876 333.45 700.279 333.369 700.722 333.369H701.029V340.136H700.722ZM700.722 339.233H700.893V334.273H700.722C700.387 334.273 700.096 334.341 699.849 334.477C699.601 334.611 699.397 334.794 699.235 335.027C699.076 335.257 698.956 335.521 698.877 335.82C698.8 336.118 698.762 336.432 698.762 336.761C698.762 337.199 698.831 337.605 698.971 337.98C699.11 338.355 699.324 338.658 699.614 338.888C699.904 339.118 700.273 339.233 700.722 339.233ZM701.728 340.136H701.421V333.369H701.728C702.171 333.369 702.574 333.45 702.938 333.612C703.302 333.771 703.614 334 703.876 334.298C704.137 334.597 704.339 334.955 704.481 335.372C704.623 335.787 704.694 336.25 704.694 336.761C704.694 337.267 704.623 337.727 704.481 338.142C704.339 338.557 704.137 338.913 703.876 339.212C703.614 339.507 703.302 339.736 702.938 339.898C702.574 340.057 702.171 340.136 701.728 340.136ZM701.728 339.233C702.066 339.233 702.357 339.168 702.601 339.037C702.849 338.903 703.052 338.722 703.211 338.491C703.373 338.259 703.492 337.994 703.569 337.699C703.648 337.401 703.688 337.088 703.688 336.761C703.688 336.324 703.618 335.916 703.479 335.538C703.34 335.161 703.126 334.855 702.836 334.622C702.546 334.389 702.177 334.273 701.728 334.273H701.557V339.233H701.728ZM707.237 338.517L710.39 333.455H711.549V340H710.544V334.938L707.407 340H706.231V333.455H707.237V338.517ZM718.249 331L718.76 331.614C718.562 331.807 718.331 331.942 718.07 332.018C717.809 332.095 717.513 332.142 717.184 332.159C716.854 332.176 716.488 332.193 716.084 332.21C715.63 332.227 715.253 332.338 714.955 332.543C714.657 332.747 714.427 333.043 714.265 333.429C714.103 333.815 713.999 334.29 713.954 334.852H714.039C714.26 334.443 714.567 334.142 714.959 333.949C715.351 333.756 715.772 333.659 716.221 333.659C716.732 333.659 717.192 333.778 717.601 334.017C718.01 334.256 718.334 334.609 718.573 335.078C718.812 335.547 718.931 336.125 718.931 336.812C718.931 337.497 718.809 338.088 718.564 338.585C718.323 339.082 717.983 339.466 717.546 339.736C717.111 340.003 716.601 340.136 716.016 340.136C715.431 340.136 714.918 339.999 714.478 339.723C714.037 339.445 713.695 339.033 713.451 338.487C713.206 337.939 713.084 337.261 713.084 336.455V335.756C713.084 334.298 713.331 333.193 713.826 332.44C714.323 331.687 715.07 331.298 716.067 331.273C716.42 331.261 716.733 331.259 717.009 331.264C717.285 331.27 717.525 331.257 717.729 331.226C717.934 331.195 718.107 331.119 718.249 331ZM716.016 339.233C716.411 339.233 716.751 339.134 717.035 338.935C717.322 338.736 717.542 338.456 717.695 338.095C717.849 337.732 717.925 337.304 717.925 336.812C717.925 336.335 717.847 335.929 717.691 335.594C717.537 335.259 717.317 335.003 717.03 334.827C716.743 334.651 716.4 334.562 715.999 334.562C715.706 334.562 715.444 334.612 715.211 334.712C714.978 334.811 714.779 334.957 714.614 335.151C714.449 335.344 714.322 335.58 714.231 335.858C714.143 336.136 714.096 336.455 714.09 336.812C714.09 337.545 714.262 338.132 714.606 338.572C714.949 339.013 715.42 339.233 716.016 339.233ZM720.469 342.455V333.455H721.441V334.494H721.56C721.634 334.381 721.736 334.236 721.867 334.06C722.001 333.881 722.191 333.722 722.438 333.582C722.688 333.44 723.026 333.369 723.452 333.369C724.003 333.369 724.489 333.507 724.91 333.783C725.33 334.058 725.658 334.449 725.894 334.955C726.13 335.46 726.248 336.057 726.248 336.744C726.248 337.438 726.13 338.038 725.894 338.547C725.658 339.053 725.331 339.445 724.914 339.723C724.496 339.999 724.015 340.136 723.469 340.136C723.049 340.136 722.712 340.067 722.459 339.928C722.206 339.786 722.012 339.625 721.876 339.446C721.739 339.264 721.634 339.114 721.56 338.994H721.475V342.455H720.469ZM721.458 336.727C721.458 337.222 721.53 337.658 721.675 338.036C721.82 338.411 722.032 338.705 722.31 338.918C722.589 339.128 722.93 339.233 723.333 339.233C723.753 339.233 724.104 339.122 724.385 338.901C724.67 338.676 724.883 338.375 725.025 337.997C725.17 337.616 725.242 337.193 725.242 336.727C725.242 336.267 725.171 335.852 725.029 335.483C724.89 335.111 724.678 334.817 724.394 334.601C724.113 334.382 723.759 334.273 723.333 334.273C722.924 334.273 722.58 334.376 722.302 334.584C722.023 334.788 721.813 335.075 721.671 335.445C721.529 335.811 721.458 336.239 721.458 336.727ZM728.787 338.517L731.941 333.455H733.1V340H732.094V334.938L728.958 340H727.782V333.455H728.787V338.517ZM739.323 336.267V337.205H735.709V336.267H739.323ZM735.948 333.455V340H734.942V333.455H735.948ZM740.09 333.455V340H739.084V333.455H740.09ZM743.852 340.153C743.438 340.153 743.061 340.075 742.723 339.919C742.385 339.76 742.117 339.531 741.918 339.233C741.719 338.932 741.619 338.568 741.619 338.142C741.619 337.767 741.693 337.463 741.841 337.23C741.989 336.994 742.186 336.81 742.433 336.676C742.681 336.543 742.953 336.443 743.252 336.378C743.553 336.31 743.855 336.256 744.159 336.216C744.557 336.165 744.879 336.126 745.127 336.101C745.377 336.072 745.558 336.026 745.672 335.96C745.789 335.895 745.847 335.781 745.847 335.619V335.585C745.847 335.165 745.732 334.838 745.502 334.605C745.274 334.372 744.929 334.256 744.466 334.256C743.986 334.256 743.61 334.361 743.337 334.571C743.064 334.781 742.872 335.006 742.762 335.244L741.807 334.903C741.977 334.506 742.205 334.196 742.489 333.974C742.776 333.75 743.088 333.594 743.426 333.506C743.767 333.415 744.102 333.369 744.432 333.369C744.642 333.369 744.884 333.395 745.156 333.446C745.432 333.494 745.698 333.595 745.953 333.749C746.212 333.902 746.426 334.134 746.597 334.443C746.767 334.753 746.852 335.168 746.852 335.688V340H745.847V339.114H745.796C745.727 339.256 745.614 339.408 745.455 339.57C745.296 339.732 745.084 339.869 744.82 339.983C744.556 340.097 744.233 340.153 743.852 340.153ZM744.006 339.25C744.404 339.25 744.739 339.172 745.012 339.016C745.287 338.859 745.494 338.658 745.634 338.411C745.776 338.163 745.847 337.903 745.847 337.631V336.71C745.804 336.761 745.71 336.808 745.566 336.851C745.423 336.891 745.259 336.926 745.071 336.957C744.887 336.986 744.706 337.011 744.53 337.034C744.357 337.054 744.216 337.071 744.108 337.085C743.847 337.119 743.602 337.175 743.375 337.251C743.151 337.325 742.969 337.437 742.83 337.588C742.693 337.736 742.625 337.937 742.625 338.193C742.625 338.543 742.754 338.807 743.013 338.986C743.274 339.162 743.605 339.25 744.006 339.25Z" fill="black"/>
<rect x="122.723" y="200" width="40.2375" height="31" rx="10" fill="#FFDA57"/>
<path d="M139.455 211.273V220H138.399V211.273H139.455ZM142.086 211.273L144.336 214.903H144.404L146.654 211.273H147.898L145.154 215.636L147.898 220H146.654L144.404 216.438H144.336L142.086 220H140.841L143.654 215.636L140.841 211.273H142.086Z" fill="black"/>
<rect x="224.322" y="200" width="40.2375" height="31" rx="10" fill="#8F00FF"/>
<path d="M237.555 211.273V220H236.498V211.273H237.555ZM240.185 211.273L242.435 214.903H242.504L244.754 211.273H245.998L243.254 215.636L245.998 220H244.754L242.504 216.438H242.435L240.185 220H238.941L241.754 215.636L238.941 211.273H240.185ZM249.163 220.153C248.748 220.153 248.372 220.075 248.034 219.919C247.696 219.76 247.427 219.531 247.228 219.233C247.029 218.932 246.93 218.568 246.93 218.142C246.93 217.767 247.004 217.463 247.152 217.23C247.299 216.994 247.497 216.81 247.744 216.676C247.991 216.543 248.264 216.443 248.562 216.378C248.863 216.31 249.166 216.256 249.47 216.216C249.868 216.165 250.19 216.126 250.437 216.101C250.687 216.072 250.869 216.026 250.983 215.96C251.099 215.895 251.157 215.781 251.157 215.619V215.585C251.157 215.165 251.042 214.838 250.812 214.605C250.585 214.372 250.24 214.256 249.777 214.256C249.297 214.256 248.92 214.361 248.647 214.571C248.375 214.781 248.183 215.006 248.072 215.244L247.118 214.903C247.288 214.506 247.515 214.196 247.799 213.974C248.086 213.75 248.399 213.594 248.737 213.506C249.078 213.415 249.413 213.369 249.743 213.369C249.953 213.369 250.194 213.395 250.467 213.446C250.743 213.494 251.008 213.595 251.264 213.749C251.522 213.902 251.737 214.134 251.907 214.443C252.078 214.753 252.163 215.168 252.163 215.688V220H251.157V219.114H251.106C251.038 219.256 250.924 219.408 250.765 219.57C250.606 219.732 250.395 219.869 250.13 219.983C249.866 220.097 249.544 220.153 249.163 220.153ZM249.316 219.25C249.714 219.25 250.049 219.172 250.322 219.016C250.598 218.859 250.805 218.658 250.944 218.411C251.086 218.163 251.157 217.903 251.157 217.631V216.71C251.115 216.761 251.021 216.808 250.876 216.851C250.734 216.891 250.569 216.926 250.382 216.957C250.197 216.986 250.017 217.011 249.841 217.034C249.667 217.054 249.527 217.071 249.419 217.085C249.157 217.119 248.913 217.175 248.686 217.251C248.461 217.325 248.279 217.437 248.14 217.588C248.004 217.736 247.936 217.937 247.936 218.193C247.936 218.543 248.065 218.807 248.324 218.986C248.585 219.162 248.916 219.25 249.316 219.25Z" fill="white"/>
<path d="M220 215.707C220.391 215.317 220.391 214.683 220 214.293L213.636 207.929C213.246 207.538 212.613 207.538 212.222 207.929C211.831 208.319 211.831 208.953 212.222 209.343L217.879 215L212.222 220.657C211.831 221.047 211.831 221.681 212.222 222.071C212.613 222.462 213.246 222.462 213.636 222.071L220 215.707ZM167.99 216H219.293V214H167.99V216Z" fill="black"/>
</svg>
