<svg width="842" height="484" viewBox="0 0 842 484" fill="none" xmlns="http://www.w3.org/2000/svg">
<rect width="842" height="484" fill="white"/>
<path d="M370.608 242.364V254H369.545V242.364H370.608ZM374.764 242.364V254H373.702V242.364H374.764ZM378.92 242.364V254H377.858V242.364H378.92ZM383.486 252.409L383.384 253.017C383.319 253.426 383.228 253.877 383.111 254.369C382.993 254.862 382.872 255.33 382.747 255.773C382.622 256.216 382.514 256.572 382.423 256.841H381.645C381.694 256.583 381.757 256.256 381.832 255.858C381.912 255.46 381.993 255.019 382.077 254.534C382.16 254.053 382.236 253.557 382.304 253.045L382.384 252.409H383.486ZM399.987 246H398.919C398.839 245.602 398.696 245.235 398.487 244.898C398.283 244.557 398.025 244.259 397.714 244.006C397.404 243.752 397.052 243.555 396.658 243.415C396.264 243.275 395.838 243.205 395.379 243.205C394.644 243.205 393.974 243.396 393.368 243.778C392.766 244.161 392.283 244.723 391.919 245.466C391.559 246.205 391.379 247.11 391.379 248.182C391.379 249.261 391.559 250.17 391.919 250.909C392.283 251.648 392.766 252.208 393.368 252.591C393.974 252.97 394.644 253.159 395.379 253.159C395.838 253.159 396.264 253.089 396.658 252.949C397.052 252.809 397.404 252.614 397.714 252.364C398.025 252.11 398.283 251.812 398.487 251.472C398.696 251.131 398.839 250.761 398.919 250.364H399.987C399.893 250.898 399.714 251.396 399.453 251.858C399.196 252.316 398.866 252.718 398.464 253.062C398.067 253.407 397.608 253.676 397.089 253.869C396.571 254.062 396 254.159 395.379 254.159C394.402 254.159 393.535 253.915 392.777 253.426C392.019 252.934 391.425 252.241 390.993 251.347C390.565 250.453 390.351 249.398 390.351 248.182C390.351 246.966 390.565 245.911 390.993 245.017C391.425 244.123 392.019 243.432 392.777 242.943C393.535 242.451 394.402 242.205 395.379 242.205C396 242.205 396.571 242.301 397.089 242.494C397.608 242.684 398.067 242.953 398.464 243.301C398.866 243.646 399.196 244.047 399.453 244.506C399.714 244.964 399.893 245.462 399.987 246ZM404.71 254.199C404.184 254.199 403.703 254.097 403.267 253.892C402.831 253.684 402.485 253.384 402.227 252.994C401.97 252.6 401.841 252.123 401.841 251.562C401.841 251.131 401.922 250.767 402.085 250.472C402.248 250.176 402.479 249.934 402.778 249.744C403.078 249.555 403.432 249.405 403.841 249.295C404.25 249.186 404.701 249.1 405.193 249.04C405.682 248.979 406.095 248.926 406.432 248.881C406.773 248.835 407.032 248.763 407.21 248.665C407.388 248.566 407.477 248.407 407.477 248.188V247.983C407.477 247.388 407.299 246.92 406.943 246.58C406.591 246.235 406.083 246.062 405.42 246.062C404.792 246.062 404.278 246.201 403.881 246.477C403.487 246.754 403.21 247.08 403.051 247.455L402.091 247.108C402.288 246.631 402.561 246.25 402.909 245.966C403.258 245.678 403.648 245.472 404.08 245.347C404.511 245.218 404.949 245.153 405.392 245.153C405.725 245.153 406.072 245.197 406.432 245.284C406.795 245.371 407.133 245.523 407.443 245.739C407.754 245.951 408.006 246.248 408.199 246.631C408.392 247.009 408.489 247.491 408.489 248.074V254H407.477V252.619H407.415C407.294 252.877 407.114 253.127 406.875 253.369C406.636 253.612 406.337 253.811 405.977 253.966C405.617 254.121 405.195 254.199 404.71 254.199ZM404.847 253.273C405.384 253.273 405.85 253.153 406.244 252.915C406.638 252.676 406.941 252.36 407.153 251.966C407.369 251.568 407.477 251.131 407.477 250.653V249.392C407.402 249.464 407.275 249.528 407.097 249.585C406.922 249.642 406.72 249.693 406.489 249.739C406.261 249.78 406.034 249.816 405.807 249.847C405.58 249.877 405.375 249.903 405.193 249.926C404.701 249.987 404.28 250.081 403.932 250.21C403.583 250.339 403.316 250.517 403.131 250.744C402.945 250.968 402.852 251.256 402.852 251.608C402.852 252.138 403.042 252.549 403.42 252.841C403.799 253.129 404.275 253.273 404.847 253.273Z" fill="black"/>
<path d="M378.562 302.364L382.199 312.619H382.301L385.938 302.364H387.051L382.818 314H381.682L377.449 302.364H378.562ZM388.97 312.409L388.868 313.017C388.804 313.426 388.713 313.877 388.595 314.369C388.478 314.862 388.357 315.33 388.232 315.773C388.107 316.216 387.999 316.572 387.908 316.841H387.129C387.179 316.583 387.241 316.256 387.317 315.858C387.396 315.46 387.478 315.019 387.561 314.534C387.644 314.053 387.72 313.557 387.788 313.045L387.868 312.409H388.97ZM405.472 306H404.403C404.324 305.602 404.18 305.235 403.972 304.898C403.767 304.557 403.509 304.259 403.199 304.006C402.888 303.752 402.536 303.555 402.142 303.415C401.748 303.275 401.322 303.205 400.864 303.205C400.129 303.205 399.458 303.396 398.852 303.778C398.25 304.161 397.767 304.723 397.403 305.466C397.044 306.205 396.864 307.11 396.864 308.182C396.864 309.261 397.044 310.17 397.403 310.909C397.767 311.648 398.25 312.208 398.852 312.591C399.458 312.97 400.129 313.159 400.864 313.159C401.322 313.159 401.748 313.089 402.142 312.949C402.536 312.809 402.888 312.614 403.199 312.364C403.509 312.11 403.767 311.812 403.972 311.472C404.18 311.131 404.324 310.761 404.403 310.364H405.472C405.377 310.898 405.199 311.396 404.938 311.858C404.68 312.316 404.35 312.718 403.949 313.062C403.551 313.407 403.093 313.676 402.574 313.869C402.055 314.062 401.485 314.159 400.864 314.159C399.886 314.159 399.019 313.915 398.261 313.426C397.504 312.934 396.909 312.241 396.477 311.347C396.049 310.453 395.835 309.398 395.835 308.182C395.835 306.966 396.049 305.911 396.477 305.017C396.909 304.123 397.504 303.432 398.261 302.943C399.019 302.451 399.886 302.205 400.864 302.205C401.485 302.205 402.055 302.301 402.574 302.494C403.093 302.684 403.551 302.953 403.949 303.301C404.35 303.646 404.68 304.047 404.938 304.506C405.199 304.964 405.377 305.462 405.472 306ZM410.195 314.199C409.668 314.199 409.187 314.097 408.751 313.892C408.316 313.684 407.969 313.384 407.712 312.994C407.454 312.6 407.325 312.123 407.325 311.562C407.325 311.131 407.407 310.767 407.57 310.472C407.732 310.176 407.964 309.934 408.263 309.744C408.562 309.555 408.916 309.405 409.325 309.295C409.734 309.186 410.185 309.1 410.678 309.04C411.166 308.979 411.579 308.926 411.916 308.881C412.257 308.835 412.517 308.763 412.695 308.665C412.873 308.566 412.962 308.407 412.962 308.188V307.983C412.962 307.388 412.784 306.92 412.428 306.58C412.075 306.235 411.568 306.062 410.905 306.062C410.276 306.062 409.763 306.201 409.365 306.477C408.971 306.754 408.695 307.08 408.536 307.455L407.575 307.108C407.772 306.631 408.045 306.25 408.393 305.966C408.742 305.678 409.132 305.472 409.564 305.347C409.996 305.218 410.433 305.153 410.876 305.153C411.21 305.153 411.556 305.197 411.916 305.284C412.28 305.371 412.617 305.523 412.928 305.739C413.238 305.951 413.49 306.248 413.683 306.631C413.876 307.009 413.973 307.491 413.973 308.074V314H412.962V312.619H412.899C412.778 312.877 412.598 313.127 412.359 313.369C412.121 313.612 411.821 313.811 411.462 313.966C411.102 314.121 410.679 314.199 410.195 314.199ZM410.331 313.273C410.869 313.273 411.335 313.153 411.729 312.915C412.123 312.676 412.426 312.36 412.638 311.966C412.854 311.568 412.962 311.131 412.962 310.653V309.392C412.886 309.464 412.759 309.528 412.581 309.585C412.407 309.642 412.204 309.693 411.973 309.739C411.746 309.78 411.518 309.816 411.291 309.847C411.064 309.877 410.859 309.903 410.678 309.926C410.185 309.987 409.765 310.081 409.416 310.21C409.068 310.339 408.801 310.517 408.615 310.744C408.429 310.968 408.337 311.256 408.337 311.608C408.337 312.138 408.526 312.549 408.905 312.841C409.284 313.129 409.759 313.273 410.331 313.273Z" fill="black"/>
<path d="M186.562 242.364L190.199 252.619H190.301L193.938 242.364H195.051L190.818 254H189.682L185.449 242.364H186.562ZM198.108 242.364V254H197.045V242.364H198.108ZM202.264 242.364V254H201.202V242.364H202.264ZM206.42 242.364V254H205.358V242.364H206.42ZM210.986 252.409L210.884 253.017C210.819 253.426 210.728 253.877 210.611 254.369C210.493 254.862 210.372 255.33 210.247 255.773C210.122 256.216 210.014 256.572 209.923 256.841H209.145C209.194 256.583 209.257 256.256 209.332 255.858C209.412 255.46 209.493 255.019 209.577 254.534C209.66 254.053 209.736 253.557 209.804 253.045L209.884 252.409H210.986ZM227.487 246H226.419C226.339 245.602 226.196 245.235 225.987 244.898C225.783 244.557 225.525 244.259 225.214 244.006C224.904 243.752 224.552 243.555 224.158 243.415C223.764 243.275 223.338 243.205 222.879 243.205C222.144 243.205 221.474 243.396 220.868 243.778C220.266 244.161 219.783 244.723 219.419 245.466C219.059 246.205 218.879 247.11 218.879 248.182C218.879 249.261 219.059 250.17 219.419 250.909C219.783 251.648 220.266 252.208 220.868 252.591C221.474 252.97 222.144 253.159 222.879 253.159C223.338 253.159 223.764 253.089 224.158 252.949C224.552 252.809 224.904 252.614 225.214 252.364C225.525 252.11 225.783 251.812 225.987 251.472C226.196 251.131 226.339 250.761 226.419 250.364H227.487C227.393 250.898 227.214 251.396 226.953 251.858C226.696 252.316 226.366 252.718 225.964 253.062C225.567 253.407 225.108 253.676 224.589 253.869C224.071 254.062 223.5 254.159 222.879 254.159C221.902 254.159 221.035 253.915 220.277 253.426C219.519 252.934 218.925 252.241 218.493 251.347C218.065 250.453 217.851 249.398 217.851 248.182C217.851 246.966 218.065 245.911 218.493 245.017C218.925 244.123 219.519 243.432 220.277 242.943C221.035 242.451 221.902 242.205 222.879 242.205C223.5 242.205 224.071 242.301 224.589 242.494C225.108 242.684 225.567 242.953 225.964 243.301C226.366 243.646 226.696 244.047 226.953 244.506C227.214 244.964 227.393 245.462 227.487 246ZM232.21 254.199C231.684 254.199 231.203 254.097 230.767 253.892C230.331 253.684 229.985 253.384 229.727 252.994C229.47 252.6 229.341 252.123 229.341 251.562C229.341 251.131 229.422 250.767 229.585 250.472C229.748 250.176 229.979 249.934 230.278 249.744C230.578 249.555 230.932 249.405 231.341 249.295C231.75 249.186 232.201 249.1 232.693 249.04C233.182 248.979 233.595 248.926 233.932 248.881C234.273 248.835 234.532 248.763 234.71 248.665C234.888 248.566 234.977 248.407 234.977 248.188V247.983C234.977 247.388 234.799 246.92 234.443 246.58C234.091 246.235 233.583 246.062 232.92 246.062C232.292 246.062 231.778 246.201 231.381 246.477C230.987 246.754 230.71 247.08 230.551 247.455L229.591 247.108C229.788 246.631 230.061 246.25 230.409 245.966C230.758 245.678 231.148 245.472 231.58 245.347C232.011 245.218 232.449 245.153 232.892 245.153C233.225 245.153 233.572 245.197 233.932 245.284C234.295 245.371 234.633 245.523 234.943 245.739C235.254 245.951 235.506 246.248 235.699 246.631C235.892 247.009 235.989 247.491 235.989 248.074V254H234.977V252.619H234.915C234.794 252.877 234.614 253.127 234.375 253.369C234.136 253.612 233.837 253.811 233.477 253.966C233.117 254.121 232.695 254.199 232.21 254.199ZM232.347 253.273C232.884 253.273 233.35 253.153 233.744 252.915C234.138 252.676 234.441 252.36 234.653 251.966C234.869 251.568 234.977 251.131 234.977 250.653V249.392C234.902 249.464 234.775 249.528 234.597 249.585C234.422 249.642 234.22 249.693 233.989 249.739C233.761 249.78 233.534 249.816 233.307 249.847C233.08 249.877 232.875 249.903 232.693 249.926C232.201 249.987 231.78 250.081 231.432 250.21C231.083 250.339 230.816 250.517 230.631 250.744C230.445 250.968 230.352 251.256 230.352 251.608C230.352 252.138 230.542 252.549 230.92 252.841C231.299 253.129 231.775 253.273 232.347 253.273Z" fill="black"/>
<path d="M140.293 151.707C140.683 152.098 141.317 152.098 141.707 151.707L148.071 145.343C148.462 144.953 148.462 144.319 148.071 143.929C147.681 143.538 147.047 143.538 146.657 143.929L141 149.586L135.343 143.929C134.953 143.538 134.319 143.538 133.929 143.929C133.538 144.319 133.538 144.953 133.929 145.343L140.293 151.707ZM140 116L140 151L142 151L142 116L140 116Z" fill="black"/>
<path d="M242.293 271.707C242.683 272.098 243.317 272.098 243.707 271.707L250.071 265.343C250.462 264.953 250.462 264.319 250.071 263.929C249.681 263.538 249.047 263.538 248.657 263.929L243 269.586L237.343 263.929C236.953 263.538 236.319 263.538 235.929 263.929C235.538 264.319 235.538 264.953 235.929 265.343L242.293 271.707ZM242 236L242 271L244 271L244 236L242 236Z" fill="black"/>
<rect x="211" y="20" width="106" height="31" rx="10" fill="#ACE1F8"/>
<path d="M219.42 40V33.4545H224.568V40H223.562V34.392H220.426V40H219.42ZM226.405 42.4545V33.4545H227.376V34.4943H227.496C227.57 34.3807 227.672 34.2358 227.803 34.0597C227.936 33.8807 228.126 33.7216 228.374 33.5824C228.624 33.4403 228.962 33.3693 229.388 33.3693C229.939 33.3693 230.425 33.5071 230.845 33.7827C231.266 34.0582 231.594 34.4489 231.83 34.9545C232.065 35.4602 232.183 36.0568 232.183 36.7443C232.183 37.4375 232.065 38.0384 231.83 38.5469C231.594 39.0526 231.267 39.4446 230.849 39.723C230.432 39.9986 229.95 40.1364 229.405 40.1364C228.984 40.1364 228.648 40.0668 228.395 39.9276C228.142 39.7855 227.947 39.625 227.811 39.446C227.675 39.2642 227.57 39.1136 227.496 38.9943H227.411V42.4545H226.405ZM227.393 36.7273C227.393 37.2216 227.466 37.6577 227.611 38.0355C227.756 38.4105 227.967 38.7045 228.246 38.9176C228.524 39.1278 228.865 39.233 229.268 39.233C229.689 39.233 230.04 39.1222 230.321 38.9006C230.605 38.6761 230.818 38.375 230.96 37.9972C231.105 37.6165 231.178 37.1932 231.178 36.7273C231.178 36.267 231.107 35.8523 230.964 35.483C230.825 35.1108 230.614 34.8168 230.33 34.6009C230.048 34.3821 229.695 34.2727 229.268 34.2727C228.859 34.2727 228.516 34.3764 228.237 34.5838C227.959 34.7884 227.749 35.0753 227.607 35.4446C227.464 35.8111 227.393 36.2386 227.393 36.7273ZM236.462 40.1364C235.831 40.1364 235.287 39.9972 234.83 39.7188C234.375 39.4375 234.024 39.0455 233.777 38.5426C233.533 38.0369 233.411 37.4489 233.411 36.7784C233.411 36.108 233.533 35.517 233.777 35.0057C234.024 34.4915 234.368 34.0909 234.808 33.804C235.251 33.5142 235.768 33.3693 236.359 33.3693C236.7 33.3693 237.037 33.4261 237.369 33.5398C237.702 33.6534 238.004 33.8381 238.277 34.0938C238.55 34.3466 238.767 34.6818 238.929 35.0994C239.091 35.517 239.172 36.0312 239.172 36.642V37.0682H234.126V36.1989H238.149C238.149 35.8295 238.075 35.5 237.928 35.2102C237.783 34.9205 237.575 34.6918 237.305 34.5241C237.038 34.3565 236.723 34.2727 236.359 34.2727C235.959 34.2727 235.612 34.3722 235.32 34.571C235.03 34.767 234.807 35.0227 234.651 35.3381C234.494 35.6534 234.416 35.9915 234.416 36.3523V36.9318C234.416 37.4261 234.501 37.8452 234.672 38.1889C234.845 38.5298 235.085 38.7898 235.392 38.9688C235.699 39.1449 236.055 39.233 236.462 39.233C236.726 39.233 236.964 39.196 237.178 39.1222C237.393 39.0455 237.58 38.9318 237.736 38.7812C237.892 38.6278 238.013 38.4375 238.098 38.2102L239.07 38.483C238.967 38.8125 238.795 39.1023 238.554 39.3523C238.313 39.5994 238.014 39.7926 237.659 39.9318C237.304 40.0682 236.905 40.1364 236.462 40.1364ZM240.702 40V33.4545H241.707V36.3011H242.372L244.724 33.4545H246.02L243.378 36.608L246.054 40H244.759L242.611 37.2386H241.707V40H240.702ZM249.073 40.1534C248.658 40.1534 248.282 40.0753 247.944 39.919C247.606 39.7599 247.337 39.5312 247.138 39.233C246.94 38.9318 246.84 38.5682 246.84 38.142C246.84 37.767 246.914 37.4631 247.062 37.2301C247.21 36.9943 247.407 36.8097 247.654 36.6761C247.901 36.5426 248.174 36.4432 248.472 36.3778C248.773 36.3097 249.076 36.2557 249.38 36.2159C249.778 36.1648 250.1 36.1264 250.347 36.1009C250.597 36.0724 250.779 36.0256 250.893 35.9602C251.009 35.8949 251.067 35.7812 251.067 35.6193V35.5852C251.067 35.1648 250.952 34.8381 250.722 34.6051C250.495 34.3722 250.15 34.2557 249.687 34.2557C249.207 34.2557 248.83 34.3608 248.558 34.571C248.285 34.7812 248.093 35.0057 247.982 35.2443L247.028 34.9034C247.198 34.5057 247.425 34.196 247.71 33.9744C247.996 33.75 248.309 33.5937 248.647 33.5057C248.988 33.4148 249.323 33.3693 249.653 33.3693C249.863 33.3693 250.104 33.3949 250.377 33.446C250.653 33.4943 250.918 33.5952 251.174 33.7486C251.433 33.902 251.647 34.1335 251.817 34.4432C251.988 34.7528 252.073 35.1676 252.073 35.6875V40H251.067V39.1136H251.016C250.948 39.2557 250.835 39.4077 250.675 39.5696C250.516 39.7315 250.305 39.8693 250.04 39.983C249.776 40.0966 249.454 40.1534 249.073 40.1534ZM249.227 39.25C249.624 39.25 249.96 39.1719 250.232 39.0156C250.508 38.8594 250.715 38.6577 250.854 38.4105C250.996 38.1634 251.067 37.9034 251.067 37.6307V36.7102C251.025 36.7614 250.931 36.8082 250.786 36.8509C250.644 36.8906 250.479 36.9261 250.292 36.9574C250.107 36.9858 249.927 37.0114 249.751 37.0341C249.577 37.054 249.437 37.071 249.329 37.0852C249.067 37.1193 248.823 37.1747 248.596 37.2514C248.371 37.3253 248.19 37.4375 248.05 37.5881C247.914 37.7358 247.846 37.9375 247.846 38.1932C247.846 38.5426 247.975 38.8068 248.234 38.9858C248.495 39.1619 248.826 39.25 249.227 39.25ZM253.329 40V39.0625H253.568C253.764 39.0625 253.927 39.0241 254.058 38.9474C254.189 38.8679 254.294 38.7301 254.373 38.5341C254.456 38.3352 254.518 38.0597 254.561 37.7074C254.606 37.3523 254.639 36.9006 254.659 36.3523L254.778 33.4545H259.142V40H258.136V34.392H255.733L255.63 36.7273C255.608 37.2642 255.559 37.7372 255.485 38.1463C255.414 38.5526 255.305 38.8935 255.157 39.169C255.012 39.4446 254.819 39.652 254.578 39.7912C254.336 39.9304 254.034 40 253.67 40H253.329ZM260.407 40V39.0625H260.646C260.842 39.0625 261.005 39.0241 261.136 38.9474C261.267 38.8679 261.372 38.7301 261.451 38.5341C261.534 38.3352 261.596 38.0597 261.639 37.7074C261.684 37.3523 261.717 36.9006 261.737 36.3523L261.856 33.4545H266.22V40H265.214V34.392H262.811L262.708 36.7273C262.686 37.2642 262.637 37.7372 262.564 38.1463C262.493 38.5526 262.383 38.8935 262.235 39.169C262.091 39.4446 261.897 39.652 261.656 39.7912C261.414 39.9304 261.112 40 260.748 40H260.407ZM269.071 38.517L272.224 33.4545H273.383V40H272.377V34.9375L269.241 40H268.065V33.4545H269.071V38.517ZM275.225 40V33.4545H276.231V36.3011H276.896L279.248 33.4545H280.543L277.901 36.608L280.577 40H279.282L277.134 37.2386H276.231V40H275.225ZM281.67 42.4545V33.4545H282.642V34.4943H282.761C282.835 34.3807 282.938 34.2358 283.068 34.0597C283.202 33.8807 283.392 33.7216 283.639 33.5824C283.889 33.4403 284.227 33.3693 284.653 33.3693C285.205 33.3693 285.69 33.5071 286.111 33.7827C286.531 34.0582 286.859 34.4489 287.095 34.9545C287.331 35.4602 287.449 36.0568 287.449 36.7443C287.449 37.4375 287.331 38.0384 287.095 38.5469C286.859 39.0526 286.533 39.4446 286.115 39.723C285.697 39.9986 285.216 40.1364 284.67 40.1364C284.25 40.1364 283.913 40.0668 283.661 39.9276C283.408 39.7855 283.213 39.625 283.077 39.446C282.94 39.2642 282.835 39.1136 282.761 38.9943H282.676V42.4545H281.67ZM282.659 36.7273C282.659 37.2216 282.732 37.6577 282.876 38.0355C283.021 38.4105 283.233 38.7045 283.511 38.9176C283.79 39.1278 284.131 39.233 284.534 39.233C284.955 39.233 285.305 39.1222 285.587 38.9006C285.871 38.6761 286.084 38.375 286.226 37.9972C286.371 37.6165 286.443 37.1932 286.443 36.7273C286.443 36.267 286.372 35.8523 286.23 35.483C286.091 35.1108 285.879 34.8168 285.595 34.6009C285.314 34.3821 284.96 34.2727 284.534 34.2727C284.125 34.2727 283.781 34.3764 283.503 34.5838C283.224 34.7884 283.014 35.0753 282.872 35.4446C282.73 35.8111 282.659 36.2386 282.659 36.7273ZM291.727 40.1364C291.097 40.1364 290.553 39.9972 290.095 39.7188C289.641 39.4375 289.29 39.0455 289.043 38.5426C288.798 38.0369 288.676 37.4489 288.676 36.7784C288.676 36.108 288.798 35.517 289.043 35.0057C289.29 34.4915 289.634 34.0909 290.074 33.804C290.517 33.5142 291.034 33.3693 291.625 33.3693C291.966 33.3693 292.303 33.4261 292.635 33.5398C292.967 33.6534 293.27 33.8381 293.543 34.0938C293.815 34.3466 294.033 34.6818 294.195 35.0994C294.357 35.517 294.438 36.0312 294.438 36.642V37.0682H289.392V36.1989H293.415C293.415 35.8295 293.341 35.5 293.193 35.2102C293.048 34.9205 292.841 34.6918 292.571 34.5241C292.304 34.3565 291.989 34.2727 291.625 34.2727C291.224 34.2727 290.878 34.3722 290.585 34.571C290.295 34.767 290.072 35.0227 289.916 35.3381C289.76 35.6534 289.682 35.9915 289.682 36.3523V36.9318C289.682 37.4261 289.767 37.8452 289.938 38.1889C290.111 38.5298 290.351 38.7898 290.658 38.9688C290.964 39.1449 291.321 39.233 291.727 39.233C291.991 39.233 292.23 39.196 292.443 39.1222C292.659 39.0455 292.845 38.9318 293.001 38.7812C293.158 38.6278 293.278 38.4375 293.364 38.2102L294.335 38.483C294.233 38.8125 294.061 39.1023 293.82 39.3523C293.578 39.5994 293.28 39.7926 292.925 39.9318C292.57 40.0682 292.17 40.1364 291.727 40.1364ZM296.973 38.517L300.126 33.4545H301.286V40H300.28V34.9375L297.143 40H295.967V33.4545H296.973V38.517ZM307.508 36.267V37.2045H303.895V36.267H307.508ZM304.133 33.4545V40H303.127V33.4545H304.133ZM308.275 33.4545V40H307.27V33.4545H308.275Z" fill="black"/>
<rect x="37" y="20" width="106" height="31" rx="10" fill="#ACE1F8"/>
<path d="M55.9205 40V33.4545H56.9261V36.3011H57.5909L59.9432 33.4545H61.2386L58.5966 36.608L61.2727 40H59.9773L57.8295 37.2386H56.9261V40H55.9205ZM64.2919 40.1534C63.8771 40.1534 63.5007 40.0753 63.1626 39.919C62.8246 39.7599 62.5561 39.5312 62.3572 39.233C62.1584 38.9318 62.0589 38.5682 62.0589 38.142C62.0589 37.767 62.1328 37.4631 62.2805 37.2301C62.4283 36.9943 62.6257 36.8097 62.8729 36.6761C63.12 36.5426 63.3928 36.4432 63.6911 36.3778C63.9922 36.3097 64.2947 36.2557 64.5987 36.2159C64.9964 36.1648 65.3189 36.1264 65.5661 36.1009C65.8161 36.0724 65.9979 36.0256 66.1115 35.9602C66.228 35.8949 66.2862 35.7812 66.2862 35.6193V35.5852C66.2862 35.1648 66.1712 34.8381 65.9411 34.6051C65.7138 34.3722 65.3686 34.2557 64.9055 34.2557C64.4254 34.2557 64.049 34.3608 63.7763 34.571C63.5036 34.7812 63.3118 35.0057 63.201 35.2443L62.2464 34.9034C62.4169 34.5057 62.6442 34.196 62.9283 33.9744C63.2152 33.75 63.5277 33.5937 63.8658 33.5057C64.2067 33.4148 64.5419 33.3693 64.8714 33.3693C65.0817 33.3693 65.3232 33.3949 65.5959 33.446C65.8714 33.4943 66.1371 33.5952 66.3928 33.7486C66.6513 33.902 66.8658 34.1335 67.0362 34.4432C67.2067 34.7528 67.2919 35.1676 67.2919 35.6875V40H66.2862V39.1136H66.2351C66.1669 39.2557 66.0533 39.4077 65.8942 39.5696C65.7351 39.7315 65.5234 39.8693 65.2592 39.983C64.995 40.0966 64.6726 40.1534 64.2919 40.1534ZM64.4453 39.25C64.843 39.25 65.1783 39.1719 65.451 39.0156C65.7266 38.8594 65.9339 38.6577 66.0732 38.4105C66.2152 38.1634 66.2862 37.9034 66.2862 37.6307V36.7102C66.2436 36.7614 66.1499 36.8082 66.005 36.8509C65.8629 36.8906 65.6982 36.9261 65.5107 36.9574C65.326 36.9858 65.1456 37.0114 64.9695 37.0341C64.7962 37.054 64.6555 37.071 64.5476 37.0852C64.2862 37.1193 64.0419 37.1747 63.8146 37.2514C63.5902 37.3253 63.4084 37.4375 63.2692 37.5881C63.1328 37.7358 63.0646 37.9375 63.0646 38.1932C63.0646 38.5426 63.1939 38.8068 63.4524 38.9858C63.7138 39.1619 64.0447 39.25 64.4453 39.25ZM68.5479 40V39.0625H68.7866C68.9826 39.0625 69.146 39.0241 69.2766 38.9474C69.4073 38.8679 69.5124 38.7301 69.592 38.5341C69.6744 38.3352 69.7369 38.0597 69.7795 37.7074C69.8249 37.3523 69.8576 36.9006 69.8775 36.3523L69.9968 33.4545H74.3604V40H73.3548V34.392H70.9513L70.8491 36.7273C70.8263 37.2642 70.7781 37.7372 70.7042 38.1463C70.6332 38.5526 70.5238 38.8935 70.3761 39.169C70.2312 39.4446 70.038 39.652 69.7965 39.7912C69.555 39.9304 69.2525 40 68.8888 40H68.5479ZM75.6261 40V39.0625H75.8647C76.0607 39.0625 76.2241 39.0241 76.3548 38.9474C76.4854 38.8679 76.5906 38.7301 76.6701 38.5341C76.7525 38.3352 76.815 38.0597 76.8576 37.7074C76.9031 37.3523 76.9357 36.9006 76.9556 36.3523L77.0749 33.4545H81.4386V40H80.4329V34.392H78.0295L77.9272 36.7273C77.9045 37.2642 77.8562 37.7372 77.7823 38.1463C77.7113 38.5526 77.6019 38.8935 77.4542 39.169C77.3093 39.4446 77.1161 39.652 76.8746 39.7912C76.6332 39.9304 76.3306 40 75.967 40H75.6261ZM84.2894 38.517L87.4428 33.4545H88.6019V40H87.5962V34.9375L84.4599 40H83.2837V33.4545H84.2894V38.517ZM90.4439 40V33.4545H91.4496V36.3011H92.1143L94.4666 33.4545H95.7621L93.12 36.608L95.7962 40H94.5007L92.353 37.2386H91.4496V40H90.4439ZM96.8892 42.4545V33.4545H97.8608V34.4943H97.9801C98.054 34.3807 98.1563 34.2358 98.2869 34.0597C98.4205 33.8807 98.6108 33.7216 98.858 33.5824C99.108 33.4403 99.446 33.3693 99.8722 33.3693C100.423 33.3693 100.909 33.5071 101.33 33.7827C101.75 34.0582 102.078 34.4489 102.314 34.9545C102.55 35.4602 102.668 36.0568 102.668 36.7443C102.668 37.4375 102.55 38.0384 102.314 38.5469C102.078 39.0526 101.751 39.4446 101.334 39.723C100.916 39.9986 100.435 40.1364 99.8892 40.1364C99.4688 40.1364 99.1321 40.0668 98.8793 39.9276C98.6264 39.7855 98.4318 39.625 98.2955 39.446C98.1591 39.2642 98.054 39.1136 97.9801 38.9943H97.8949V42.4545H96.8892ZM97.8778 36.7273C97.8778 37.2216 97.9503 37.6577 98.0952 38.0355C98.2401 38.4105 98.4517 38.7045 98.7301 38.9176C99.0085 39.1278 99.3494 39.233 99.7528 39.233C100.173 39.233 100.524 39.1222 100.805 38.9006C101.089 38.6761 101.303 38.375 101.445 37.9972C101.589 37.6165 101.662 37.1932 101.662 36.7273C101.662 36.267 101.591 35.8523 101.449 35.483C101.31 35.1108 101.098 34.8168 100.814 34.6009C100.533 34.3821 100.179 34.2727 99.7528 34.2727C99.3438 34.2727 99 34.3764 98.7216 34.5838C98.4432 34.7884 98.233 35.0753 98.0909 35.4446C97.9489 35.8111 97.8778 36.2386 97.8778 36.7273ZM106.946 40.1364C106.315 40.1364 105.771 39.9972 105.314 39.7188C104.859 39.4375 104.509 39.0455 104.261 38.5426C104.017 38.0369 103.895 37.4489 103.895 36.7784C103.895 36.108 104.017 35.517 104.261 35.0057C104.509 34.4915 104.852 34.0909 105.293 33.804C105.736 33.5142 106.253 33.3693 106.844 33.3693C107.185 33.3693 107.521 33.4261 107.854 33.5398C108.186 33.6534 108.489 33.8381 108.761 34.0938C109.034 34.3466 109.251 34.6818 109.413 35.0994C109.575 35.517 109.656 36.0312 109.656 36.642V37.0682H104.611V36.1989H108.634C108.634 35.8295 108.56 35.5 108.412 35.2102C108.267 34.9205 108.06 34.6918 107.79 34.5241C107.523 34.3565 107.207 34.2727 106.844 34.2727C106.443 34.2727 106.097 34.3722 105.804 34.571C105.514 34.767 105.291 35.0227 105.135 35.3381C104.979 35.6534 104.901 35.9915 104.901 36.3523V36.9318C104.901 37.4261 104.986 37.8452 105.156 38.1889C105.33 38.5298 105.57 38.7898 105.876 38.9688C106.183 39.1449 106.54 39.233 106.946 39.233C107.21 39.233 107.449 39.196 107.662 39.1222C107.878 39.0455 108.064 38.9318 108.22 38.7812C108.376 38.6278 108.497 38.4375 108.582 38.2102L109.554 38.483C109.452 38.8125 109.28 39.1023 109.038 39.3523C108.797 39.5994 108.499 39.7926 108.143 39.9318C107.788 40.0682 107.389 40.1364 106.946 40.1364ZM112.192 38.517L115.345 33.4545H116.504V40H115.499V34.9375L112.362 40H111.186V33.4545H112.192V38.517ZM122.727 36.267V37.2045H119.113V36.267H122.727ZM119.352 33.4545V40H118.346V33.4545H119.352ZM123.494 33.4545V40H122.488V33.4545H123.494Z" fill="black"/>
<path d="M147.293 36.7071C146.902 36.3166 146.902 35.6834 147.293 35.2929L153.657 28.9289C154.047 28.5384 154.681 28.5384 155.071 28.9289C155.462 29.3195 155.462 29.9526 155.071 30.3431L149.414 36L155.071 41.6569C155.462 42.0474 155.462 42.6805 155.071 43.0711C154.681 43.4616 154.047 43.4616 153.657 43.0711L147.293 36.7071ZM206 37H148V35H206V37Z" fill="black"/>
<rect x="121" y="80" width="40" height="31" rx="10" fill="#8F00FF"/>
<path d="M132.068 91.2727L134.318 94.9034H134.386L136.636 91.2727H137.881L135.136 95.6364L137.881 100H136.636L134.386 96.4375H134.318L132.068 100H130.824L133.636 95.6364L130.824 91.2727H132.068ZM140.313 91.2727V100H139.256V91.2727H140.313ZM143.489 91.2727V100H142.432V91.2727H143.489ZM147.397 100.153C146.983 100.153 146.606 100.075 146.268 99.919C145.93 99.7599 145.662 99.5312 145.463 99.233C145.264 98.9318 145.164 98.5682 145.164 98.142C145.164 97.767 145.238 97.4631 145.386 97.2301C145.534 96.9943 145.731 96.8097 145.978 96.6761C146.225 96.5426 146.498 96.4432 146.797 96.3778C147.098 96.3097 147.4 96.2557 147.704 96.2159C148.102 96.1648 148.424 96.1264 148.672 96.1009C148.922 96.0724 149.103 96.0256 149.217 95.9602C149.333 95.8949 149.392 95.7812 149.392 95.6193V95.5852C149.392 95.1648 149.277 94.8381 149.047 94.6051C148.819 94.3722 148.474 94.2557 148.011 94.2557C147.531 94.2557 147.154 94.3608 146.882 94.571C146.609 94.7812 146.417 95.0057 146.306 95.2443L145.352 94.9034C145.522 94.5057 145.75 94.196 146.034 93.9744C146.321 93.75 146.633 93.5937 146.971 93.5057C147.312 93.4148 147.647 93.3693 147.977 93.3693C148.187 93.3693 148.429 93.3949 148.701 93.446C148.977 93.4943 149.243 93.5952 149.498 93.7486C149.757 93.902 149.971 94.1335 150.142 94.4432C150.312 94.7528 150.397 95.1676 150.397 95.6875V100H149.392V99.1136H149.341C149.272 99.2557 149.159 99.4077 149 99.5696C148.841 99.7315 148.629 99.8693 148.365 99.983C148.1 100.097 147.778 100.153 147.397 100.153ZM147.551 99.25C147.949 99.25 148.284 99.1719 148.556 99.0156C148.832 98.8594 149.039 98.6577 149.179 98.4105C149.321 98.1634 149.392 97.9034 149.392 97.6307V96.7102C149.349 96.7614 149.255 96.8082 149.11 96.8509C148.968 96.8906 148.804 96.9261 148.616 96.9574C148.431 96.9858 148.251 97.0114 148.075 97.0341C147.902 97.054 147.761 97.071 147.653 97.0852C147.392 97.1193 147.147 97.1747 146.92 97.2514C146.696 97.3253 146.514 97.4375 146.375 97.5881C146.238 97.7358 146.17 97.9375 146.17 98.1932C146.17 98.5426 146.299 98.8068 146.558 98.9858C146.819 99.1619 147.15 99.25 147.551 99.25Z" fill="white"/>
<rect x="20" y="80" width="40" height="31" rx="10" fill="#FFDA57"/>
<path d="M34.0682 91.2727L36.3182 94.9034H36.3864L38.6364 91.2727H39.8807L37.1364 95.6364L39.8807 100H38.6364L36.3864 96.4375H36.3182L34.0682 100H32.8239L35.6364 95.6364L32.8239 91.2727H34.0682ZM42.3129 91.2727V100H41.256V91.2727H42.3129ZM45.4886 91.2727V100H44.4318V91.2727H45.4886Z" fill="black"/>
<path d="M116.707 96.7071C117.098 96.3166 117.098 95.6834 116.707 95.2929L110.343 88.9289C109.953 88.5384 109.319 88.5384 108.929 88.9289C108.538 89.3195 108.538 89.9526 108.929 90.3431L114.586 96L108.929 101.657C108.538 102.047 108.538 102.681 108.929 103.071C109.319 103.462 109.953 103.462 110.343 103.071L116.707 96.7071ZM65 97H116V95H65V97Z" fill="black"/>
<path d="M89.2929 91.7071C89.6834 92.0976 90.3166 92.0976 90.7071 91.7071L97.0711 85.3431C97.4616 84.9526 97.4616 84.3195 97.0711 83.9289C96.6805 83.5384 96.0474 83.5384 95.6569 83.9289L90 89.5858L84.3431 83.9289C83.9526 83.5384 83.3195 83.5384 82.9289 83.9289C82.5384 84.3195 82.5384 84.9526 82.9289 85.3431L89.2929 91.7071ZM89 56L89 91L91 91L91 56L89 56Z" fill="black"/>
<rect x="167" y="260" width="40" height="31" rx="10" fill="#FFDA57"/>
<path d="M184.568 271.273L186.818 274.903H186.886L189.136 271.273H190.381L187.636 275.636L190.381 280H189.136L186.886 276.438H186.818L184.568 280H183.324L186.136 275.636L183.324 271.273H184.568Z" fill="black"/>
<rect x="401" y="260" width="40" height="31" rx="10" fill="#8F00FF"/>
<path d="M415.068 271.273L417.318 274.903H417.386L419.636 271.273H420.881L418.136 275.636L420.881 280H419.636L417.386 276.438H417.318L415.068 280H413.824L416.636 275.636L413.824 271.273H415.068ZM424.046 280.153C423.631 280.153 423.255 280.075 422.917 279.919C422.578 279.76 422.31 279.531 422.111 279.233C421.912 278.932 421.813 278.568 421.813 278.142C421.813 277.767 421.887 277.463 422.034 277.23C422.182 276.994 422.38 276.81 422.627 276.676C422.874 276.543 423.147 276.443 423.445 276.378C423.746 276.31 424.049 276.256 424.353 276.216C424.75 276.165 425.073 276.126 425.32 276.101C425.57 276.072 425.752 276.026 425.865 275.96C425.982 275.895 426.04 275.781 426.04 275.619V275.585C426.04 275.165 425.925 274.838 425.695 274.605C425.468 274.372 425.123 274.256 424.659 274.256C424.179 274.256 423.803 274.361 423.53 274.571C423.257 274.781 423.066 275.006 422.955 275.244L422 274.903C422.171 274.506 422.398 274.196 422.682 273.974C422.969 273.75 423.282 273.594 423.62 273.506C423.961 273.415 424.296 273.369 424.625 273.369C424.836 273.369 425.077 273.395 425.35 273.446C425.625 273.494 425.891 273.595 426.147 273.749C426.405 273.902 426.62 274.134 426.79 274.443C426.961 274.753 427.046 275.168 427.046 275.688V280H426.04V279.114H425.989C425.921 279.256 425.807 279.408 425.648 279.57C425.489 279.732 425.277 279.869 425.013 279.983C424.749 280.097 424.426 280.153 424.046 280.153ZM424.199 279.25C424.597 279.25 424.932 279.172 425.205 279.016C425.48 278.859 425.688 278.658 425.827 278.411C425.969 278.163 426.04 277.903 426.04 277.631V276.71C425.998 276.761 425.904 276.808 425.759 276.851C425.617 276.891 425.452 276.926 425.265 276.957C425.08 276.986 424.9 277.011 424.723 277.034C424.55 277.054 424.409 277.071 424.301 277.085C424.04 277.119 423.796 277.175 423.569 277.251C423.344 277.325 423.162 277.437 423.023 277.588C422.887 277.736 422.819 277.937 422.819 278.193C422.819 278.543 422.948 278.807 423.206 278.986C423.468 279.162 423.799 279.25 424.199 279.25Z" fill="white"/>
<path d="M396.707 275.707C397.098 275.317 397.098 274.683 396.707 274.293L390.343 267.929C389.953 267.538 389.319 267.538 388.929 267.929C388.538 268.319 388.538 268.953 388.929 269.343L394.586 275L388.929 280.657C388.538 281.047 388.538 281.681 388.929 282.071C389.319 282.462 389.953 282.462 390.343 282.071L396.707 275.707ZM212 276L396 276L396 274L212 274L212 276Z" fill="black"/>
<path d="M420.293 331.707C420.683 332.098 421.317 332.098 421.707 331.707L428.071 325.343C428.462 324.953 428.462 324.319 428.071 323.929C427.681 323.538 427.047 323.538 426.657 323.929L421 329.586L415.343 323.929C414.953 323.538 414.319 323.538 413.929 323.929C413.538 324.319 413.538 324.953 413.929 325.343L420.293 331.707ZM420 296L420 331L422 331L422 296L420 296Z" fill="black"/>
<path d="M504.293 391.707C504.683 392.098 505.317 392.098 505.707 391.707L512.071 385.343C512.462 384.953 512.462 384.319 512.071 383.929C511.681 383.538 511.047 383.538 510.657 383.929L505 389.586L499.343 383.929C498.953 383.538 498.319 383.538 497.929 383.929C497.538 384.319 497.538 384.953 497.929 385.343L504.293 391.707ZM504 356L504 391L506 391L506 356L504 356Z" fill="black"/>
<path d="M362.293 271.707C362.683 272.098 363.317 272.098 363.707 271.707L370.071 265.343C370.462 264.953 370.462 264.319 370.071 263.929C369.681 263.538 369.047 263.538 368.657 263.929L363 269.586L357.343 263.929C356.953 263.538 356.319 263.538 355.929 263.929C355.538 264.319 355.538 264.953 355.929 265.343L362.293 271.707ZM362 236L362 271L364 271L364 236L362 236Z" fill="black"/>
<rect x="456" y="200" width="40" height="31" rx="10" fill="#FFDA57"/>
<path d="M469.915 211.273L472.506 218.619H472.608L475.199 211.273H476.307L473.102 220H472.011L468.807 211.273H469.915ZM478.723 211.273V220H477.666V211.273H478.723ZM481.899 211.273V220H480.842V211.273H481.899Z" fill="black"/>
<rect x="343" y="200" width="40" height="31" rx="10" fill="#8F00FF"/>
<path d="M353.415 211.273L356.006 218.619H356.108L358.699 211.273H359.807L356.602 220H355.511L352.307 211.273H353.415ZM362.223 211.273V220H361.166V211.273H362.223ZM365.399 211.273V220H364.342V211.273H365.399ZM369.308 220.153C368.893 220.153 368.516 220.075 368.178 219.919C367.84 219.76 367.572 219.531 367.373 219.233C367.174 218.932 367.075 218.568 367.075 218.142C367.075 217.767 367.148 217.463 367.296 217.23C367.444 216.994 367.641 216.81 367.888 216.676C368.136 216.543 368.408 216.443 368.707 216.378C369.008 216.31 369.31 216.256 369.614 216.216C370.012 216.165 370.335 216.126 370.582 216.101C370.832 216.072 371.013 216.026 371.127 215.96C371.244 215.895 371.302 215.781 371.302 215.619V215.585C371.302 215.165 371.187 214.838 370.957 214.605C370.729 214.372 370.384 214.256 369.921 214.256C369.441 214.256 369.065 214.361 368.792 214.571C368.519 214.781 368.327 215.006 368.217 215.244L367.262 214.903C367.433 214.506 367.66 214.196 367.944 213.974C368.231 213.75 368.543 213.594 368.881 213.506C369.222 213.415 369.558 213.369 369.887 213.369C370.097 213.369 370.339 213.395 370.612 213.446C370.887 213.494 371.153 213.595 371.408 213.749C371.667 213.902 371.881 214.134 372.052 214.443C372.222 214.753 372.308 215.168 372.308 215.688V220H371.302V219.114H371.251C371.183 219.256 371.069 219.408 370.91 219.57C370.751 219.732 370.539 219.869 370.275 219.983C370.011 220.097 369.688 220.153 369.308 220.153ZM369.461 219.25C369.859 219.25 370.194 219.172 370.467 219.016C370.742 218.859 370.95 218.658 371.089 218.411C371.231 218.163 371.302 217.903 371.302 217.631V216.71C371.259 216.761 371.165 216.808 371.021 216.851C370.879 216.891 370.714 216.926 370.526 216.957C370.342 216.986 370.161 217.011 369.985 217.034C369.812 217.054 369.671 217.071 369.563 217.085C369.302 217.119 369.058 217.175 368.83 217.251C368.606 217.325 368.424 217.437 368.285 217.588C368.148 217.736 368.08 217.937 368.08 218.193C368.08 218.543 368.21 218.807 368.468 218.986C368.729 219.162 369.06 219.25 369.461 219.25Z" fill="white"/>
<path d="M387.293 214.293C386.902 214.683 386.902 215.317 387.293 215.707L393.657 222.071C394.047 222.462 394.681 222.462 395.071 222.071C395.462 221.681 395.462 221.047 395.071 220.657L389.414 215L395.071 209.343C395.462 208.953 395.462 208.319 395.071 207.929C394.681 207.538 394.047 207.538 393.657 207.929L387.293 214.293ZM451 214L388 214L388 216L451 216L451 214Z" fill="black"/>
<rect x="285" y="320" width="106" height="31" rx="10" fill="#ACE1F8"/>
<path d="M308.585 331.273V340H307.528V332.21H303.131V340H302.074V331.273H308.585ZM310.581 342.455V333.455H311.552V334.494H311.672C311.745 334.381 311.848 334.236 311.978 334.06C312.112 333.881 312.302 333.722 312.549 333.582C312.799 333.44 313.137 333.369 313.564 333.369C314.115 333.369 314.6 333.507 315.021 333.783C315.441 334.058 315.77 334.449 316.005 334.955C316.241 335.46 316.359 336.057 316.359 336.744C316.359 337.438 316.241 338.038 316.005 338.547C315.77 339.053 315.443 339.445 315.025 339.723C314.608 339.999 314.126 340.136 313.581 340.136C313.16 340.136 312.824 340.067 312.571 339.928C312.318 339.786 312.123 339.625 311.987 339.446C311.85 339.264 311.745 339.114 311.672 338.994H311.586V342.455H310.581ZM311.569 336.727C311.569 337.222 311.642 337.658 311.787 338.036C311.931 338.411 312.143 338.705 312.422 338.918C312.7 339.128 313.041 339.233 313.444 339.233C313.865 339.233 314.216 339.122 314.497 338.901C314.781 338.676 314.994 338.375 315.136 337.997C315.281 337.616 315.353 337.193 315.353 336.727C315.353 336.267 315.282 335.852 315.14 335.483C315.001 335.111 314.789 334.817 314.505 334.601C314.224 334.382 313.87 334.273 313.444 334.273C313.035 334.273 312.691 334.376 312.413 334.584C312.135 334.788 311.924 335.075 311.782 335.445C311.64 335.811 311.569 336.239 311.569 336.727ZM320.552 340.136C319.961 340.136 319.443 339.996 318.997 339.714C318.554 339.433 318.207 339.04 317.957 338.534C317.71 338.028 317.586 337.437 317.586 336.761C317.586 336.08 317.71 335.484 317.957 334.976C318.207 334.467 318.554 334.072 318.997 333.791C319.443 333.51 319.961 333.369 320.552 333.369C321.143 333.369 321.66 333.51 322.103 333.791C322.549 334.072 322.896 334.467 323.143 334.976C323.393 335.484 323.518 336.08 323.518 336.761C323.518 337.437 323.393 338.028 323.143 338.534C322.896 339.04 322.549 339.433 322.103 339.714C321.66 339.996 321.143 340.136 320.552 340.136ZM320.552 339.233C321.001 339.233 321.37 339.118 321.66 338.888C321.95 338.658 322.164 338.355 322.304 337.98C322.443 337.605 322.512 337.199 322.512 336.761C322.512 336.324 322.443 335.916 322.304 335.538C322.164 335.161 321.95 334.855 321.66 334.622C321.37 334.389 321.001 334.273 320.552 334.273C320.103 334.273 319.734 334.389 319.444 334.622C319.154 334.855 318.94 335.161 318.801 335.538C318.662 335.916 318.592 336.324 318.592 336.761C318.592 337.199 318.662 337.605 318.801 337.98C318.94 338.355 319.154 338.658 319.444 338.888C319.734 339.118 320.103 339.233 320.552 339.233ZM324.198 334.392V333.455H329.516V334.392H327.368V340H326.363V334.392H324.198ZM330.983 342.455V333.455H331.955V334.494H332.074C332.148 334.381 332.25 334.236 332.381 334.06C332.514 333.881 332.705 333.722 332.952 333.582C333.202 333.44 333.54 333.369 333.966 333.369C334.517 333.369 335.003 333.507 335.423 333.783C335.844 334.058 336.172 334.449 336.408 334.955C336.643 335.46 336.761 336.057 336.761 336.744C336.761 337.438 336.643 338.038 336.408 338.547C336.172 339.053 335.845 339.445 335.428 339.723C335.01 339.999 334.528 340.136 333.983 340.136C333.563 340.136 333.226 340.067 332.973 339.928C332.72 339.786 332.526 339.625 332.389 339.446C332.253 339.264 332.148 339.114 332.074 338.994H331.989V342.455H330.983ZM331.972 336.727C331.972 337.222 332.044 337.658 332.189 338.036C332.334 338.411 332.545 338.705 332.824 338.918C333.102 339.128 333.443 339.233 333.847 339.233C334.267 339.233 334.618 339.122 334.899 338.901C335.183 338.676 335.396 338.375 335.538 337.997C335.683 337.616 335.756 337.193 335.756 336.727C335.756 336.267 335.685 335.852 335.543 335.483C335.403 335.111 335.192 334.817 334.908 334.601C334.626 334.382 334.273 334.273 333.847 334.273C333.438 334.273 333.094 334.376 332.815 334.584C332.537 334.788 332.327 335.075 332.185 335.445C332.043 335.811 331.972 336.239 331.972 336.727ZM340.955 340.136C340.364 340.136 339.845 339.996 339.399 339.714C338.956 339.433 338.609 339.04 338.359 338.534C338.112 338.028 337.989 337.437 337.989 336.761C337.989 336.08 338.112 335.484 338.359 334.976C338.609 334.467 338.956 334.072 339.399 333.791C339.845 333.51 340.364 333.369 340.955 333.369C341.545 333.369 342.063 333.51 342.506 333.791C342.952 334.072 343.298 334.467 343.545 334.976C343.795 335.484 343.92 336.08 343.92 336.761C343.92 337.437 343.795 338.028 343.545 338.534C343.298 339.04 342.952 339.433 342.506 339.714C342.063 339.996 341.545 340.136 340.955 340.136ZM340.955 339.233C341.403 339.233 341.773 339.118 342.062 338.888C342.352 338.658 342.567 338.355 342.706 337.98C342.845 337.605 342.915 337.199 342.915 336.761C342.915 336.324 342.845 335.916 342.706 335.538C342.567 335.161 342.352 334.855 342.062 334.622C341.773 334.389 341.403 334.273 340.955 334.273C340.506 334.273 340.136 334.389 339.847 334.622C339.557 334.855 339.342 335.161 339.203 335.538C339.064 335.916 338.994 336.324 338.994 336.761C338.994 337.199 339.064 337.605 339.203 337.98C339.342 338.355 339.557 338.658 339.847 338.888C340.136 339.118 340.506 339.233 340.955 339.233ZM349.035 338.636L351.319 333.455H352.274L349.444 340H348.626L345.848 333.455H346.785L349.035 338.636ZM346.461 333.455V340H345.456V333.455H346.461ZM351.609 340V333.455H352.615V340H351.609ZM359.314 331L359.825 331.614C359.626 331.807 359.396 331.942 359.135 332.018C358.873 332.095 358.578 332.142 358.248 332.159C357.919 332.176 357.552 332.193 357.149 332.21C356.694 332.227 356.318 332.338 356.02 332.543C355.721 332.747 355.491 333.043 355.329 333.429C355.167 333.815 355.064 334.29 355.018 334.852H355.103C355.325 334.443 355.632 334.142 356.024 333.949C356.416 333.756 356.836 333.659 357.285 333.659C357.797 333.659 358.257 333.778 358.666 334.017C359.075 334.256 359.399 334.609 359.637 335.078C359.876 335.547 359.995 336.125 359.995 336.812C359.995 337.497 359.873 338.088 359.629 338.585C359.387 339.082 359.048 339.466 358.61 339.736C358.176 340.003 357.666 340.136 357.081 340.136C356.495 340.136 355.983 339.999 355.542 339.723C355.102 339.445 354.76 339.033 354.515 338.487C354.271 337.939 354.149 337.261 354.149 336.455V335.756C354.149 334.298 354.396 333.193 354.89 332.44C355.387 331.687 356.135 331.298 357.132 331.273C357.484 331.261 357.798 331.259 358.074 331.264C358.349 331.27 358.589 331.257 358.794 331.226C358.998 331.195 359.172 331.119 359.314 331ZM357.081 339.233C357.475 339.233 357.815 339.134 358.099 338.935C358.386 338.736 358.606 338.456 358.76 338.095C358.913 337.732 358.99 337.304 358.99 336.812C358.99 336.335 358.912 335.929 358.755 335.594C358.602 335.259 358.382 335.003 358.095 334.827C357.808 334.651 357.464 334.562 357.064 334.562C356.771 334.562 356.508 334.612 356.275 334.712C356.042 334.811 355.843 334.957 355.679 335.151C355.514 335.344 355.386 335.58 355.295 335.858C355.207 336.136 355.16 336.455 355.154 336.812C355.154 337.545 355.326 338.132 355.67 338.572C356.014 339.013 356.484 339.233 357.081 339.233ZM362.539 338.517L365.693 333.455H366.852V340H365.846V334.938L362.71 340H361.534V333.455H362.539V338.517ZM373.075 336.267V337.205H369.461V336.267H373.075ZM369.7 333.455V340H368.694V333.455H369.7ZM373.842 333.455V340H372.836V333.455H373.842Z" fill="black"/>
<rect x="452" y="320" width="106" height="31" rx="10" fill="#ACE1F8"/>
<path d="M479.58 332.21V331.273H486.125V332.21H483.381V340H482.324V332.21H479.58ZM486.94 342.455V333.455H487.912V334.494H488.031C488.105 334.381 488.207 334.236 488.338 334.06C488.471 333.881 488.662 333.722 488.909 333.582C489.159 333.44 489.497 333.369 489.923 333.369C490.474 333.369 490.96 333.507 491.38 333.783C491.801 334.058 492.129 334.449 492.365 334.955C492.6 335.46 492.718 336.057 492.718 336.744C492.718 337.438 492.6 338.038 492.365 338.547C492.129 339.053 491.802 339.445 491.385 339.723C490.967 339.999 490.485 340.136 489.94 340.136C489.52 340.136 489.183 340.067 488.93 339.928C488.677 339.786 488.483 339.625 488.346 339.446C488.21 339.264 488.105 339.114 488.031 338.994H487.946V342.455H486.94ZM487.929 336.727C487.929 337.222 488.001 337.658 488.146 338.036C488.291 338.411 488.502 338.705 488.781 338.918C489.059 339.128 489.4 339.233 489.804 339.233C490.224 339.233 490.575 339.122 490.856 338.901C491.14 338.676 491.353 338.375 491.495 337.997C491.64 337.616 491.713 337.193 491.713 336.727C491.713 336.267 491.642 335.852 491.5 335.483C491.36 335.111 491.149 334.817 490.865 334.601C490.583 334.382 490.23 334.273 489.804 334.273C489.395 334.273 489.051 334.376 488.772 334.584C488.494 334.788 488.284 335.075 488.142 335.445C488 335.811 487.929 336.239 487.929 336.727ZM496.912 340.136C496.321 340.136 495.802 339.996 495.356 339.714C494.913 339.433 494.566 339.04 494.316 338.534C494.069 338.028 493.946 337.437 493.946 336.761C493.946 336.08 494.069 335.484 494.316 334.976C494.566 334.467 494.913 334.072 495.356 333.791C495.802 333.51 496.321 333.369 496.912 333.369C497.502 333.369 498.02 333.51 498.463 333.791C498.909 334.072 499.255 334.467 499.502 334.976C499.752 335.484 499.877 336.08 499.877 336.761C499.877 337.437 499.752 338.028 499.502 338.534C499.255 339.04 498.909 339.433 498.463 339.714C498.02 339.996 497.502 340.136 496.912 340.136ZM496.912 339.233C497.36 339.233 497.73 339.118 498.02 338.888C498.309 338.658 498.524 338.355 498.663 337.98C498.802 337.605 498.872 337.199 498.872 336.761C498.872 336.324 498.802 335.916 498.663 335.538C498.524 335.161 498.309 334.855 498.02 334.622C497.73 334.389 497.36 334.273 496.912 334.273C496.463 334.273 496.093 334.389 495.804 334.622C495.514 334.855 495.299 335.161 495.16 335.538C495.021 335.916 494.951 336.324 494.951 336.761C494.951 337.199 495.021 337.605 495.16 337.98C495.299 338.355 495.514 338.658 495.804 338.888C496.093 339.118 496.463 339.233 496.912 339.233ZM504.992 338.636L507.276 333.455H508.231L505.401 340H504.583L501.805 333.455H502.742L504.992 338.636ZM502.418 333.455V340H501.413V333.455H502.418ZM507.566 340V333.455H508.572V340H507.566ZM515.271 331L515.782 331.614C515.583 331.807 515.353 331.942 515.092 332.018C514.83 332.095 514.535 332.142 514.205 332.159C513.876 332.176 513.509 332.193 513.106 332.21C512.651 332.227 512.275 332.338 511.977 332.543C511.678 332.747 511.448 333.043 511.286 333.429C511.124 333.815 511.021 334.29 510.975 334.852H511.06C511.282 334.443 511.589 334.142 511.981 333.949C512.373 333.756 512.793 333.659 513.242 333.659C513.754 333.659 514.214 333.778 514.623 334.017C515.032 334.256 515.356 334.609 515.594 335.078C515.833 335.547 515.952 336.125 515.952 336.812C515.952 337.497 515.83 338.088 515.586 338.585C515.344 339.082 515.005 339.466 514.567 339.736C514.133 340.003 513.623 340.136 513.038 340.136C512.452 340.136 511.94 339.999 511.499 339.723C511.059 339.445 510.717 339.033 510.472 338.487C510.228 337.939 510.106 337.261 510.106 336.455V335.756C510.106 334.298 510.353 333.193 510.847 332.44C511.344 331.687 512.092 331.298 513.089 331.273C513.441 331.261 513.755 331.259 514.031 331.264C514.306 331.27 514.546 331.257 514.751 331.226C514.955 331.195 515.129 331.119 515.271 331ZM513.038 339.233C513.433 339.233 513.772 339.134 514.056 338.935C514.343 338.736 514.563 338.456 514.717 338.095C514.87 337.732 514.947 337.304 514.947 336.812C514.947 336.335 514.869 335.929 514.712 335.594C514.559 335.259 514.339 335.003 514.052 334.827C513.765 334.651 513.421 334.562 513.021 334.562C512.728 334.562 512.465 334.612 512.232 334.712C511.999 334.811 511.8 334.957 511.636 335.151C511.471 335.344 511.343 335.58 511.252 335.858C511.164 336.136 511.117 336.455 511.112 336.812C511.112 337.545 511.283 338.132 511.627 338.572C511.971 339.013 512.441 339.233 513.038 339.233ZM518.496 338.517L521.65 333.455H522.809V340H521.803V334.938L518.667 340H517.491V333.455H518.496V338.517ZM529.032 336.267V337.205H525.418V336.267H529.032ZM525.657 333.455V340H524.651V333.455H525.657ZM529.799 333.455V340H528.793V333.455H529.799Z" fill="black"/>
<path d="M447.707 336.707C448.098 336.317 448.098 335.683 447.707 335.293L441.343 328.929C440.953 328.538 440.319 328.538 439.929 328.929C439.538 329.319 439.538 329.953 439.929 330.343L445.586 336L439.929 341.657C439.538 342.047 439.538 342.681 439.929 343.071C440.319 343.462 440.953 343.462 441.343 343.071L447.707 336.707ZM396 337H447V335H396V337Z" fill="black"/>
<path d="M191.293 211.707C191.683 212.098 192.317 212.098 192.707 211.707L199.071 205.343C199.462 204.953 199.462 204.319 199.071 203.929C198.681 203.538 198.047 203.538 197.657 203.929L192 209.586L186.343 203.929C185.953 203.538 185.319 203.538 184.929 203.929C184.538 204.319 184.538 204.953 184.929 205.343L191.293 211.707ZM191 176L191 211L193 211L193 176L191 176Z" fill="black"/>
<rect x="71" y="140" width="40" height="31" rx="10" fill="#FFDA57"/>
<path d="M87.0682 151.273L89.3182 154.903H89.3864L91.6364 151.273H92.8807L90.1364 155.636L92.8807 160H91.6364L89.3864 156.438H89.3182L87.0682 160H85.8239L88.6364 155.636L85.8239 151.273H87.0682ZM95.3129 151.273V160H94.256V151.273H95.3129Z" fill="black"/>
<rect x="172" y="140" width="40" height="31" rx="10" fill="#8F00FF"/>
<path d="M184.568 151.273L186.818 154.903H186.886L189.136 151.273H190.381L187.636 155.636L190.381 160H189.136L186.886 156.438H186.818L184.568 160H183.324L186.136 155.636L183.324 151.273H184.568ZM192.813 151.273V160H191.756V151.273H192.813ZM196.722 160.153C196.307 160.153 195.93 160.075 195.592 159.919C195.254 159.76 194.986 159.531 194.787 159.233C194.588 158.932 194.489 158.568 194.489 158.142C194.489 157.767 194.563 157.463 194.71 157.23C194.858 156.994 195.055 156.81 195.303 156.676C195.55 156.543 195.822 156.443 196.121 156.378C196.422 156.31 196.724 156.256 197.028 156.216C197.426 156.165 197.749 156.126 197.996 156.101C198.246 156.072 198.428 156.026 198.541 155.96C198.658 155.895 198.716 155.781 198.716 155.619V155.585C198.716 155.165 198.601 154.838 198.371 154.605C198.143 154.372 197.798 154.256 197.335 154.256C196.855 154.256 196.479 154.361 196.206 154.571C195.933 154.781 195.741 155.006 195.631 155.244L194.676 154.903C194.847 154.506 195.074 154.196 195.358 153.974C195.645 153.75 195.957 153.594 196.295 153.506C196.636 153.415 196.972 153.369 197.301 153.369C197.511 153.369 197.753 153.395 198.026 153.446C198.301 153.494 198.567 153.595 198.822 153.749C199.081 153.902 199.295 154.134 199.466 154.443C199.636 154.753 199.722 155.168 199.722 155.688V160H198.716V159.114H198.665C198.597 159.256 198.483 159.408 198.324 159.57C198.165 159.732 197.953 159.869 197.689 159.983C197.425 160.097 197.102 160.153 196.722 160.153ZM196.875 159.25C197.273 159.25 197.608 159.172 197.881 159.016C198.156 158.859 198.364 158.658 198.503 158.411C198.645 158.163 198.716 157.903 198.716 157.631V156.71C198.673 156.761 198.58 156.808 198.435 156.851C198.293 156.891 198.128 156.926 197.94 156.957C197.756 156.986 197.575 157.011 197.399 157.034C197.226 157.054 197.085 157.071 196.977 157.085C196.716 157.119 196.472 157.175 196.244 157.251C196.02 157.325 195.838 157.437 195.699 157.588C195.563 157.736 195.494 157.937 195.494 158.193C195.494 158.543 195.624 158.807 195.882 158.986C196.143 159.162 196.474 159.25 196.875 159.25Z" fill="white"/>
<path d="M167.707 156.707C168.098 156.317 168.098 155.683 167.707 155.293L161.343 148.929C160.953 148.538 160.319 148.538 159.929 148.929C159.538 149.319 159.538 149.953 159.929 150.343L165.586 156L159.929 161.657C159.538 162.047 159.538 162.681 159.929 163.071C160.319 163.462 160.953 163.462 161.343 163.071L167.707 156.707ZM116 157H167V155H116V157Z" fill="black"/>
<rect x="369" y="380" width="106" height="31" rx="10" fill="#ACE1F8"/>
<path d="M390.057 392.312H391.438C392.085 392.312 392.661 392.457 393.163 392.747C393.666 393.037 394.061 393.44 394.348 393.957C394.635 394.474 394.778 395.074 394.778 395.756C394.778 396.438 394.635 397.038 394.348 397.558C394.061 398.078 393.666 398.484 393.163 398.777C392.661 399.07 392.085 399.216 391.438 399.216H390.057C389.409 399.216 388.834 399.071 388.331 398.781C387.828 398.491 387.433 398.088 387.146 397.571C386.859 397.054 386.716 396.455 386.716 395.773C386.716 395.091 386.859 394.49 387.146 393.97C387.433 393.45 387.828 393.044 388.331 392.751C388.834 392.459 389.409 392.312 390.057 392.312ZM390.057 393.25C389.562 393.25 389.145 393.354 388.804 393.561C388.466 393.768 388.209 394.061 388.033 394.439C387.859 394.817 387.773 395.261 387.773 395.773C387.773 396.278 387.859 396.719 388.033 397.094C388.209 397.469 388.466 397.76 388.804 397.967C389.145 398.175 389.562 398.278 390.057 398.278H391.438C391.932 398.278 392.348 398.175 392.686 397.967C393.027 397.76 393.284 397.467 393.457 397.089C393.634 396.712 393.722 396.267 393.722 395.756C393.722 395.25 393.634 394.81 393.457 394.435C393.284 394.06 393.027 393.768 392.686 393.561C392.348 393.354 391.932 393.25 391.438 393.25H390.057ZM391.284 391.119V400.358H390.227V391.119H391.284ZM397.418 398.517L400.572 393.455H401.731V400H400.725V394.938L397.589 400H396.413V393.455H397.418V398.517ZM408.431 391L408.942 391.614C408.743 391.807 408.513 391.942 408.252 392.018C407.99 392.095 407.695 392.142 407.365 392.159C407.036 392.176 406.669 392.193 406.266 392.21C405.811 392.227 405.435 392.338 405.137 392.543C404.838 392.747 404.608 393.043 404.446 393.429C404.284 393.815 404.181 394.29 404.135 394.852H404.221C404.442 394.443 404.749 394.142 405.141 393.949C405.533 393.756 405.953 393.659 406.402 393.659C406.914 393.659 407.374 393.778 407.783 394.017C408.192 394.256 408.516 394.609 408.755 395.078C408.993 395.547 409.113 396.125 409.113 396.812C409.113 397.497 408.99 398.088 408.746 398.585C408.505 399.082 408.165 399.466 407.728 399.736C407.293 400.003 406.783 400.136 406.198 400.136C405.613 400.136 405.1 399.999 404.659 399.723C404.219 399.445 403.877 399.033 403.632 398.487C403.388 397.939 403.266 397.261 403.266 396.455V395.756C403.266 394.298 403.513 393.193 404.007 392.44C404.505 391.687 405.252 391.298 406.249 391.273C406.601 391.261 406.915 391.259 407.191 391.264C407.466 391.27 407.706 391.257 407.911 391.226C408.115 391.195 408.289 391.119 408.431 391ZM406.198 399.233C406.593 399.233 406.932 399.134 407.216 398.935C407.503 398.736 407.723 398.456 407.877 398.095C408.03 397.732 408.107 397.304 408.107 396.812C408.107 396.335 408.029 395.929 407.873 395.594C407.719 395.259 407.499 395.003 407.212 394.827C406.925 394.651 406.581 394.562 406.181 394.562C405.888 394.562 405.625 394.612 405.392 394.712C405.159 394.811 404.961 394.957 404.796 395.151C404.631 395.344 404.503 395.58 404.412 395.858C404.324 396.136 404.277 396.455 404.272 396.812C404.272 397.545 404.444 398.132 404.787 398.572C405.131 399.013 405.601 399.233 406.198 399.233ZM410.651 402.455V393.455H411.623V394.494H411.742C411.816 394.381 411.918 394.236 412.049 394.06C412.182 393.881 412.373 393.722 412.62 393.582C412.87 393.44 413.208 393.369 413.634 393.369C414.185 393.369 414.671 393.507 415.091 393.783C415.512 394.058 415.84 394.449 416.076 394.955C416.311 395.46 416.429 396.057 416.429 396.744C416.429 397.438 416.311 398.038 416.076 398.547C415.84 399.053 415.513 399.445 415.096 399.723C414.678 399.999 414.196 400.136 413.651 400.136C413.23 400.136 412.894 400.067 412.641 399.928C412.388 399.786 412.194 399.625 412.057 399.446C411.921 399.264 411.816 399.114 411.742 398.994H411.657V402.455H410.651ZM411.64 396.727C411.64 397.222 411.712 397.658 411.857 398.036C412.002 398.411 412.213 398.705 412.492 398.918C412.77 399.128 413.111 399.233 413.515 399.233C413.935 399.233 414.286 399.122 414.567 398.901C414.851 398.676 415.064 398.375 415.206 397.997C415.351 397.616 415.424 397.193 415.424 396.727C415.424 396.267 415.353 395.852 415.211 395.483C415.071 395.111 414.86 394.817 414.576 394.601C414.294 394.382 413.941 394.273 413.515 394.273C413.105 394.273 412.762 394.376 412.483 394.584C412.205 394.788 411.995 395.075 411.853 395.445C411.711 395.811 411.64 396.239 411.64 396.727ZM418.969 398.517L422.123 393.455H423.282V400H422.276V394.938L419.14 400H417.963V393.455H418.969V398.517ZM429.504 396.267V397.205H425.891V396.267H429.504ZM426.129 393.455V400H425.124V393.455H426.129ZM430.271 393.455V400H429.266V393.455H430.271ZM434.767 400.136C434.176 400.136 433.658 399.996 433.212 399.714C432.768 399.433 432.422 399.04 432.172 398.534C431.925 398.028 431.801 397.437 431.801 396.761C431.801 396.08 431.925 395.484 432.172 394.976C432.422 394.467 432.768 394.072 433.212 393.791C433.658 393.51 434.176 393.369 434.767 393.369C435.358 393.369 435.875 393.51 436.318 393.791C436.764 394.072 437.111 394.467 437.358 394.976C437.608 395.484 437.733 396.08 437.733 396.761C437.733 397.437 437.608 398.028 437.358 398.534C437.111 399.04 436.764 399.433 436.318 399.714C435.875 399.996 435.358 400.136 434.767 400.136ZM434.767 399.233C435.216 399.233 435.585 399.118 435.875 398.888C436.165 398.658 436.379 398.355 436.518 397.98C436.658 397.605 436.727 397.199 436.727 396.761C436.727 396.324 436.658 395.916 436.518 395.538C436.379 395.161 436.165 394.855 435.875 394.622C435.585 394.389 435.216 394.273 434.767 394.273C434.318 394.273 433.949 394.389 433.659 394.622C433.369 394.855 433.155 395.161 433.016 395.538C432.876 395.916 432.807 396.324 432.807 396.761C432.807 397.199 432.876 397.605 433.016 397.98C433.155 398.355 433.369 398.658 433.659 398.888C433.949 399.118 434.318 399.233 434.767 399.233ZM443.308 393.455V394.392H440.274V400H439.268V393.455H443.308ZM447.18 400.136C446.55 400.136 446.006 399.997 445.548 399.719C445.094 399.438 444.743 399.045 444.496 398.543C444.251 398.037 444.129 397.449 444.129 396.778C444.129 396.108 444.251 395.517 444.496 395.006C444.743 394.491 445.087 394.091 445.527 393.804C445.97 393.514 446.487 393.369 447.078 393.369C447.419 393.369 447.756 393.426 448.088 393.54C448.42 393.653 448.723 393.838 448.996 394.094C449.268 394.347 449.486 394.682 449.648 395.099C449.81 395.517 449.891 396.031 449.891 396.642V397.068H444.845V396.199H448.868C448.868 395.83 448.794 395.5 448.646 395.21C448.501 394.92 448.294 394.692 448.024 394.524C447.757 394.357 447.442 394.273 447.078 394.273C446.678 394.273 446.331 394.372 446.038 394.571C445.749 394.767 445.526 395.023 445.369 395.338C445.213 395.653 445.135 395.991 445.135 396.352V396.932C445.135 397.426 445.22 397.845 445.391 398.189C445.564 398.53 445.804 398.79 446.111 398.969C446.418 399.145 446.774 399.233 447.18 399.233C447.445 399.233 447.683 399.196 447.896 399.122C448.112 399.045 448.298 398.932 448.455 398.781C448.611 398.628 448.732 398.437 448.817 398.21L449.788 398.483C449.686 398.812 449.514 399.102 449.273 399.352C449.031 399.599 448.733 399.793 448.378 399.932C448.023 400.068 447.624 400.136 447.18 400.136ZM455.801 396.267V397.205H452.188V396.267H455.801ZM452.426 393.455V400H451.42V393.455H452.426ZM456.568 393.455V400H455.562V393.455H456.568Z" fill="black"/>
<rect x="536" y="380" width="106" height="31" rx="10" fill="#ACE1F8"/>
<path d="M570.057 392.312H571.438C572.085 392.312 572.661 392.457 573.163 392.747C573.666 393.037 574.061 393.44 574.348 393.957C574.635 394.474 574.778 395.074 574.778 395.756C574.778 396.438 574.635 397.038 574.348 397.558C574.061 398.078 573.666 398.484 573.163 398.777C572.661 399.07 572.085 399.216 571.438 399.216H570.057C569.409 399.216 568.834 399.071 568.331 398.781C567.828 398.491 567.433 398.088 567.146 397.571C566.859 397.054 566.716 396.455 566.716 395.773C566.716 395.091 566.859 394.49 567.146 393.97C567.433 393.45 567.828 393.044 568.331 392.751C568.834 392.459 569.409 392.312 570.057 392.312ZM570.057 393.25C569.562 393.25 569.145 393.354 568.804 393.561C568.466 393.768 568.209 394.061 568.033 394.439C567.859 394.817 567.773 395.261 567.773 395.773C567.773 396.278 567.859 396.719 568.033 397.094C568.209 397.469 568.466 397.76 568.804 397.967C569.145 398.175 569.562 398.278 570.057 398.278H571.438C571.932 398.278 572.348 398.175 572.686 397.967C573.027 397.76 573.284 397.467 573.457 397.089C573.634 396.712 573.722 396.267 573.722 395.756C573.722 395.25 573.634 394.81 573.457 394.435C573.284 394.06 573.027 393.768 572.686 393.561C572.348 393.354 571.932 393.25 571.438 393.25H570.057ZM571.284 391.119V400.358H570.227V391.119H571.284ZM577.418 398.517L580.572 393.455H581.731V400H580.725V394.938L577.589 400H576.413V393.455H577.418V398.517ZM588.431 391L588.942 391.614C588.743 391.807 588.513 391.942 588.252 392.018C587.99 392.095 587.695 392.142 587.365 392.159C587.036 392.176 586.669 392.193 586.266 392.21C585.811 392.227 585.435 392.338 585.137 392.543C584.838 392.747 584.608 393.043 584.446 393.429C584.284 393.815 584.181 394.29 584.135 394.852H584.221C584.442 394.443 584.749 394.142 585.141 393.949C585.533 393.756 585.953 393.659 586.402 393.659C586.914 393.659 587.374 393.778 587.783 394.017C588.192 394.256 588.516 394.609 588.755 395.078C588.993 395.547 589.113 396.125 589.113 396.812C589.113 397.497 588.99 398.088 588.746 398.585C588.505 399.082 588.165 399.466 587.728 399.736C587.293 400.003 586.783 400.136 586.198 400.136C585.613 400.136 585.1 399.999 584.659 399.723C584.219 399.445 583.877 399.033 583.632 398.487C583.388 397.939 583.266 397.261 583.266 396.455V395.756C583.266 394.298 583.513 393.193 584.007 392.44C584.505 391.687 585.252 391.298 586.249 391.273C586.601 391.261 586.915 391.259 587.191 391.264C587.466 391.27 587.706 391.257 587.911 391.226C588.115 391.195 588.289 391.119 588.431 391ZM586.198 399.233C586.593 399.233 586.932 399.134 587.216 398.935C587.503 398.736 587.723 398.456 587.877 398.095C588.03 397.732 588.107 397.304 588.107 396.812C588.107 396.335 588.029 395.929 587.873 395.594C587.719 395.259 587.499 395.003 587.212 394.827C586.925 394.651 586.581 394.562 586.181 394.562C585.888 394.562 585.625 394.612 585.392 394.712C585.159 394.811 584.961 394.957 584.796 395.151C584.631 395.344 584.503 395.58 584.412 395.858C584.324 396.136 584.277 396.455 584.272 396.812C584.272 397.545 584.444 398.132 584.787 398.572C585.131 399.013 585.601 399.233 586.198 399.233ZM590.651 402.455V393.455H591.623V394.494H591.742C591.816 394.381 591.918 394.236 592.049 394.06C592.182 393.881 592.373 393.722 592.62 393.582C592.87 393.44 593.208 393.369 593.634 393.369C594.185 393.369 594.671 393.507 595.091 393.783C595.512 394.058 595.84 394.449 596.076 394.955C596.311 395.46 596.429 396.057 596.429 396.744C596.429 397.438 596.311 398.038 596.076 398.547C595.84 399.053 595.513 399.445 595.096 399.723C594.678 399.999 594.196 400.136 593.651 400.136C593.23 400.136 592.894 400.067 592.641 399.928C592.388 399.786 592.194 399.625 592.057 399.446C591.921 399.264 591.816 399.114 591.742 398.994H591.657V402.455H590.651ZM591.64 396.727C591.64 397.222 591.712 397.658 591.857 398.036C592.002 398.411 592.213 398.705 592.492 398.918C592.77 399.128 593.111 399.233 593.515 399.233C593.935 399.233 594.286 399.122 594.567 398.901C594.851 398.676 595.064 398.375 595.206 397.997C595.351 397.616 595.424 397.193 595.424 396.727C595.424 396.267 595.353 395.852 595.211 395.483C595.071 395.111 594.86 394.817 594.576 394.601C594.294 394.382 593.941 394.273 593.515 394.273C593.105 394.273 592.762 394.376 592.483 394.584C592.205 394.788 591.995 395.075 591.853 395.445C591.711 395.811 591.64 396.239 591.64 396.727ZM598.969 398.517L602.123 393.455H603.282V400H602.276V394.938L599.14 400H597.963V393.455H598.969V398.517ZM609.504 396.267V397.205H605.891V396.267H609.504ZM606.129 393.455V400H605.124V393.455H606.129ZM610.271 393.455V400H609.266V393.455H610.271Z" fill="black"/>
<path d="M531.707 396.707C532.098 396.317 532.098 395.683 531.707 395.293L525.343 388.929C524.953 388.538 524.319 388.538 523.929 388.929C523.538 389.319 523.538 389.953 523.929 390.343L529.586 396L523.929 401.657C523.538 402.047 523.538 402.681 523.929 403.071C524.319 403.462 524.953 403.462 525.343 403.071L531.707 396.707ZM480 397H531V395H480V397Z" fill="black"/>
<path d="M629.707 337.707C630.098 337.317 630.098 336.683 629.707 336.293L623.343 329.929C622.953 329.538 622.319 329.538 621.929 329.929C621.538 330.319 621.538 330.953 621.929 331.343L627.586 337L621.929 342.657C621.538 343.047 621.538 343.681 621.929 344.071C622.319 344.462 622.953 344.462 623.343 344.071L629.707 337.707ZM589.991 374.132C591.813 360.418 594.414 351.486 600.009 345.925C605.571 340.396 614.309 338 629 338V336C614.191 336 604.751 338.391 598.599 344.506C592.479 350.59 589.83 360.158 588.009 373.868L589.991 374.132Z" fill="black"/>
<rect x="637" y="320" width="131" height="31" rx="10" fill="#ACE1F8"/>
<path d="M661.557 340V331.273H662.614V335.159H667.267V331.273H668.324V340H667.267V336.097H662.614V340H661.557ZM671.309 338.517L674.462 333.455H675.621V340H674.616V334.938L671.479 340H670.303V333.455H671.309V338.517ZM676.573 334.392V333.455H681.891V334.392H679.743V340H678.738V334.392H676.573ZM684.364 338.517L687.517 333.455H688.676V340H687.67V334.938L684.534 340H683.358V333.455H684.364V338.517ZM696.552 342.233V331.273H697.558V342.233H696.552ZM696.552 340.136C696.109 340.136 695.706 340.057 695.342 339.898C694.978 339.736 694.666 339.507 694.404 339.212C694.143 338.913 693.941 338.557 693.799 338.142C693.657 337.727 693.586 337.267 693.586 336.761C693.586 336.25 693.657 335.787 693.799 335.372C693.941 334.955 694.143 334.597 694.404 334.298C694.666 334 694.978 333.771 695.342 333.612C695.706 333.45 696.109 333.369 696.552 333.369H696.859V340.136H696.552ZM696.552 339.233H696.723V334.273H696.552C696.217 334.273 695.926 334.341 695.679 334.477C695.431 334.611 695.227 334.794 695.065 335.027C694.906 335.257 694.787 335.521 694.707 335.82C694.63 336.118 694.592 336.432 694.592 336.761C694.592 337.199 694.662 337.605 694.801 337.98C694.94 338.355 695.154 338.658 695.444 338.888C695.734 339.118 696.103 339.233 696.552 339.233ZM697.558 340.136H697.251V333.369H697.558C698.001 333.369 698.404 333.45 698.768 333.612C699.132 333.771 699.444 334 699.706 334.298C699.967 334.597 700.169 334.955 700.311 335.372C700.453 335.787 700.524 336.25 700.524 336.761C700.524 337.267 700.453 337.727 700.311 338.142C700.169 338.557 699.967 338.913 699.706 339.212C699.444 339.507 699.132 339.736 698.768 339.898C698.404 340.057 698.001 340.136 697.558 340.136ZM697.558 339.233C697.896 339.233 698.187 339.168 698.431 339.037C698.679 338.903 698.882 338.722 699.041 338.491C699.203 338.259 699.322 337.994 699.399 337.699C699.478 337.401 699.518 337.088 699.518 336.761C699.518 336.324 699.449 335.916 699.309 335.538C699.17 335.161 698.956 334.855 698.666 334.622C698.376 334.389 698.007 334.273 697.558 334.273H697.387V339.233H697.558ZM703.067 338.517L706.22 333.455H707.379V340H706.374V334.938L703.237 340H702.061V333.455H703.067V338.517ZM714.079 331L714.591 331.614C714.392 331.807 714.162 331.942 713.9 332.018C713.639 332.095 713.343 332.142 713.014 332.159C712.684 332.176 712.318 332.193 711.914 332.21C711.46 332.227 711.083 332.338 710.785 332.543C710.487 332.747 710.257 333.043 710.095 333.429C709.933 333.815 709.829 334.29 709.784 334.852H709.869C710.091 334.443 710.397 334.142 710.789 333.949C711.181 333.756 711.602 333.659 712.051 333.659C712.562 333.659 713.022 333.778 713.431 334.017C713.841 334.256 714.164 334.609 714.403 335.078C714.642 335.547 714.761 336.125 714.761 336.812C714.761 337.497 714.639 338.088 714.395 338.585C714.153 339.082 713.814 339.466 713.376 339.736C712.941 340.003 712.431 340.136 711.846 340.136C711.261 340.136 710.748 339.999 710.308 339.723C709.868 339.445 709.525 339.033 709.281 338.487C709.037 337.939 708.914 337.261 708.914 336.455V335.756C708.914 334.298 709.162 333.193 709.656 332.44C710.153 331.687 710.9 331.298 711.897 331.273C712.25 331.261 712.564 331.259 712.839 331.264C713.115 331.27 713.355 331.257 713.559 331.226C713.764 331.195 713.937 331.119 714.079 331ZM711.846 339.233C712.241 339.233 712.581 339.134 712.865 338.935C713.152 338.736 713.372 338.456 713.525 338.095C713.679 337.732 713.755 337.304 713.755 336.812C713.755 336.335 713.677 335.929 713.521 335.594C713.368 335.259 713.147 335.003 712.86 334.827C712.574 334.651 712.23 334.562 711.829 334.562C711.537 334.562 711.274 334.612 711.041 334.712C710.808 334.811 710.609 334.957 710.444 335.151C710.279 335.344 710.152 335.58 710.061 335.858C709.973 336.136 709.926 336.455 709.92 336.812C709.92 337.545 710.092 338.132 710.436 338.572C710.779 339.013 711.25 339.233 711.846 339.233ZM716.299 342.455V333.455H717.271V334.494H717.39C717.464 334.381 717.566 334.236 717.697 334.06C717.831 333.881 718.021 333.722 718.268 333.582C718.518 333.44 718.856 333.369 719.282 333.369C719.833 333.369 720.319 333.507 720.74 333.783C721.16 334.058 721.488 334.449 721.724 334.955C721.96 335.46 722.078 336.057 722.078 336.744C722.078 337.438 721.96 338.038 721.724 338.547C721.488 339.053 721.162 339.445 720.744 339.723C720.326 339.999 719.845 340.136 719.299 340.136C718.879 340.136 718.542 340.067 718.289 339.928C718.037 339.786 717.842 339.625 717.706 339.446C717.569 339.264 717.464 339.114 717.39 338.994H717.305V342.455H716.299ZM717.288 336.727C717.288 337.222 717.36 337.658 717.505 338.036C717.65 338.411 717.862 338.705 718.14 338.918C718.419 339.128 718.76 339.233 719.163 339.233C719.583 339.233 719.934 339.122 720.216 338.901C720.5 338.676 720.713 338.375 720.855 337.997C721 337.616 721.072 337.193 721.072 336.727C721.072 336.267 721.001 335.852 720.859 335.483C720.72 335.111 720.508 334.817 720.224 334.601C719.943 334.382 719.589 334.273 719.163 334.273C718.754 334.273 718.41 334.376 718.132 334.584C717.853 334.788 717.643 335.075 717.501 335.445C717.359 335.811 717.288 336.239 717.288 336.727ZM724.618 338.517L727.771 333.455H728.93V340H727.924V334.938L724.788 340H723.612V333.455H724.618V338.517ZM735.153 336.267V337.205H731.539V336.267H735.153ZM731.778 333.455V340H730.772V333.455H731.778ZM735.92 333.455V340H734.914V333.455H735.92ZM739.683 340.153C739.268 340.153 738.891 340.075 738.553 339.919C738.215 339.76 737.947 339.531 737.748 339.233C737.549 338.932 737.45 338.568 737.45 338.142C737.45 337.767 737.523 337.463 737.671 337.23C737.819 336.994 738.016 336.81 738.263 336.676C738.511 336.543 738.783 336.443 739.082 336.378C739.383 336.31 739.685 336.256 739.989 336.216C740.387 336.165 740.71 336.126 740.957 336.101C741.207 336.072 741.388 336.026 741.502 335.96C741.619 335.895 741.677 335.781 741.677 335.619V335.585C741.677 335.165 741.562 334.838 741.332 334.605C741.104 334.372 740.759 334.256 740.296 334.256C739.816 334.256 739.44 334.361 739.167 334.571C738.894 334.781 738.702 335.006 738.592 335.244L737.637 334.903C737.808 334.506 738.035 334.196 738.319 333.974C738.606 333.75 738.918 333.594 739.256 333.506C739.597 333.415 739.933 333.369 740.262 333.369C740.472 333.369 740.714 333.395 740.987 333.446C741.262 333.494 741.528 333.595 741.783 333.749C742.042 333.902 742.256 334.134 742.427 334.443C742.597 334.753 742.683 335.168 742.683 335.688V340H741.677V339.114H741.626C741.558 339.256 741.444 339.408 741.285 339.57C741.126 339.732 740.914 339.869 740.65 339.983C740.386 340.097 740.063 340.153 739.683 340.153ZM739.836 339.25C740.234 339.25 740.569 339.172 740.842 339.016C741.117 338.859 741.325 338.658 741.464 338.411C741.606 338.163 741.677 337.903 741.677 337.631V336.71C741.634 336.761 741.54 336.808 741.396 336.851C741.254 336.891 741.089 336.926 740.901 336.957C740.717 336.986 740.536 337.011 740.36 337.034C740.187 337.054 740.046 337.071 739.938 337.085C739.677 337.119 739.433 337.175 739.205 337.251C738.981 337.325 738.799 337.437 738.66 337.588C738.523 337.736 738.455 337.937 738.455 338.193C738.455 338.543 738.585 338.807 738.843 338.986C739.104 339.162 739.435 339.25 739.836 339.25Z" fill="black"/>
<rect x="122" y="200" width="40" height="31" rx="10" fill="#FFDA57"/>
<path d="M138.614 211.273V220H137.557V211.273H138.614ZM141.244 211.273L143.494 214.903H143.562L145.812 211.273H147.056L144.312 215.636L147.056 220H145.812L143.562 216.438H143.494L141.244 220H140L142.812 215.636L140 211.273H141.244Z" fill="black"/>
<rect x="223" y="200" width="40" height="31" rx="10" fill="#8F00FF"/>
<path d="M236.114 211.273V220H235.057V211.273H236.114ZM238.744 211.273L240.994 214.903H241.062L243.312 211.273H244.556L241.812 215.636L244.556 220H243.312L241.062 216.438H240.994L238.744 220H237.5L240.312 215.636L237.5 211.273H238.744ZM247.722 220.153C247.307 220.153 246.93 220.075 246.592 219.919C246.254 219.76 245.986 219.531 245.787 219.233C245.588 218.932 245.489 218.568 245.489 218.142C245.489 217.767 245.563 217.463 245.71 217.23C245.858 216.994 246.055 216.81 246.303 216.676C246.55 216.543 246.822 216.443 247.121 216.378C247.422 216.31 247.724 216.256 248.028 216.216C248.426 216.165 248.749 216.126 248.996 216.101C249.246 216.072 249.428 216.026 249.541 215.96C249.658 215.895 249.716 215.781 249.716 215.619V215.585C249.716 215.165 249.601 214.838 249.371 214.605C249.143 214.372 248.798 214.256 248.335 214.256C247.855 214.256 247.479 214.361 247.206 214.571C246.933 214.781 246.741 215.006 246.631 215.244L245.676 214.903C245.847 214.506 246.074 214.196 246.358 213.974C246.645 213.75 246.957 213.594 247.295 213.506C247.636 213.415 247.972 213.369 248.301 213.369C248.511 213.369 248.753 213.395 249.026 213.446C249.301 213.494 249.567 213.595 249.822 213.749C250.081 213.902 250.295 214.134 250.466 214.443C250.636 214.753 250.722 215.168 250.722 215.688V220H249.716V219.114H249.665C249.597 219.256 249.483 219.408 249.324 219.57C249.165 219.732 248.953 219.869 248.689 219.983C248.425 220.097 248.102 220.153 247.722 220.153ZM247.875 219.25C248.273 219.25 248.608 219.172 248.881 219.016C249.156 218.859 249.364 218.658 249.503 218.411C249.645 218.163 249.716 217.903 249.716 217.631V216.71C249.673 216.761 249.58 216.808 249.435 216.851C249.293 216.891 249.128 216.926 248.94 216.957C248.756 216.986 248.575 217.011 248.399 217.034C248.226 217.054 248.085 217.071 247.977 217.085C247.716 217.119 247.472 217.175 247.244 217.251C247.02 217.325 246.838 217.437 246.699 217.588C246.563 217.736 246.494 217.937 246.494 218.193C246.494 218.543 246.624 218.807 246.882 218.986C247.143 219.162 247.474 219.25 247.875 219.25Z" fill="white"/>
<path d="M218.707 215.707C219.098 215.317 219.098 214.683 218.707 214.293L212.343 207.929C211.953 207.538 211.319 207.538 210.929 207.929C210.538 208.319 210.538 208.953 210.929 209.343L216.586 215L210.929 220.657C210.538 221.047 210.538 221.681 210.929 222.071C211.319 222.462 211.953 222.462 212.343 222.071L218.707 215.707ZM167 216H218V214H167V216Z" fill="black"/>
<line x1="611" y1="136" x2="594" y2="136" stroke="#A72F77" stroke-width="2"/>
<line x1="611" y1="174" x2="594" y2="174" stroke="#A72F77" stroke-width="2"/>
<line x1="611" y1="211" x2="594" y2="211" stroke="#A72F77" stroke-width="2"/>
<line x1="593" y1="135" x2="593" y2="212" stroke="#A72F77" stroke-width="2"/>
<rect x="613" y="119" width="107" height="31" rx="10" fill="#C9E1FE"/>
<path d="M638.057 139V130.273H641.108C641.716 130.273 642.217 130.378 642.612 130.588C643.007 130.795 643.301 131.075 643.494 131.428C643.688 131.777 643.784 132.165 643.784 132.591C643.784 132.966 643.717 133.276 643.584 133.52C643.453 133.764 643.28 133.957 643.064 134.099C642.851 134.241 642.619 134.347 642.369 134.415V134.5C642.636 134.517 642.905 134.611 643.175 134.781C643.445 134.952 643.67 135.196 643.852 135.514C644.034 135.832 644.125 136.222 644.125 136.682C644.125 137.119 644.026 137.513 643.827 137.862C643.628 138.212 643.314 138.489 642.885 138.693C642.456 138.898 641.898 139 641.21 139H638.057ZM639.114 138.062H641.21C641.901 138.062 642.391 137.929 642.68 137.662C642.973 137.392 643.119 137.065 643.119 136.682C643.119 136.386 643.044 136.114 642.893 135.864C642.743 135.611 642.528 135.409 642.25 135.259C641.972 135.105 641.642 135.028 641.261 135.028H639.114V138.062ZM639.114 134.108H641.074C641.392 134.108 641.679 134.045 641.935 133.92C642.193 133.795 642.398 133.619 642.548 133.392C642.702 133.165 642.778 132.898 642.778 132.591C642.778 132.207 642.645 131.882 642.378 131.615C642.111 131.345 641.688 131.21 641.108 131.21H639.114V134.108ZM647.651 139.153C647.237 139.153 646.86 139.075 646.522 138.919C646.184 138.76 645.915 138.531 645.717 138.233C645.518 137.932 645.418 137.568 645.418 137.142C645.418 136.767 645.492 136.463 645.64 136.23C645.788 135.994 645.985 135.81 646.232 135.676C646.479 135.543 646.752 135.443 647.05 135.378C647.352 135.31 647.654 135.256 647.958 135.216C648.356 135.165 648.678 135.126 648.925 135.101C649.175 135.072 649.357 135.026 649.471 134.96C649.587 134.895 649.646 134.781 649.646 134.619V134.585C649.646 134.165 649.531 133.838 649.3 133.605C649.073 133.372 648.728 133.256 648.265 133.256C647.785 133.256 647.408 133.361 647.136 133.571C646.863 133.781 646.671 134.006 646.56 134.244L645.606 133.903C645.776 133.506 646.004 133.196 646.288 132.974C646.575 132.75 646.887 132.594 647.225 132.506C647.566 132.415 647.901 132.369 648.231 132.369C648.441 132.369 648.683 132.395 648.955 132.446C649.231 132.494 649.496 132.595 649.752 132.749C650.011 132.902 650.225 133.134 650.396 133.443C650.566 133.753 650.651 134.168 650.651 134.688V139H649.646V138.114H649.594C649.526 138.256 649.413 138.408 649.254 138.57C649.094 138.732 648.883 138.869 648.619 138.983C648.354 139.097 648.032 139.153 647.651 139.153ZM647.805 138.25C648.202 138.25 648.538 138.172 648.81 138.016C649.086 137.859 649.293 137.658 649.433 137.411C649.575 137.163 649.646 136.903 649.646 136.631V135.71C649.603 135.761 649.509 135.808 649.364 135.851C649.222 135.891 649.058 135.926 648.87 135.957C648.685 135.986 648.505 136.011 648.329 136.034C648.156 136.054 648.015 136.071 647.907 136.085C647.646 136.119 647.401 136.175 647.174 136.251C646.95 136.325 646.768 136.437 646.629 136.588C646.492 136.736 646.424 136.937 646.424 137.193C646.424 137.543 646.553 137.807 646.812 137.986C647.073 138.162 647.404 138.25 647.805 138.25ZM652.487 141.455V132.455H653.458V133.494H653.578C653.652 133.381 653.754 133.236 653.885 133.06C654.018 132.881 654.208 132.722 654.456 132.582C654.706 132.44 655.044 132.369 655.47 132.369C656.021 132.369 656.507 132.507 656.927 132.783C657.348 133.058 657.676 133.449 657.912 133.955C658.147 134.46 658.265 135.057 658.265 135.744C658.265 136.438 658.147 137.038 657.912 137.547C657.676 138.053 657.349 138.445 656.931 138.723C656.514 138.999 656.032 139.136 655.487 139.136C655.066 139.136 654.73 139.067 654.477 138.928C654.224 138.786 654.029 138.625 653.893 138.446C653.757 138.264 653.652 138.114 653.578 137.994H653.493V141.455H652.487ZM653.475 135.727C653.475 136.222 653.548 136.658 653.693 137.036C653.838 137.411 654.049 137.705 654.328 137.918C654.606 138.128 654.947 138.233 655.35 138.233C655.771 138.233 656.122 138.122 656.403 137.901C656.687 137.676 656.9 137.375 657.042 136.997C657.187 136.616 657.26 136.193 657.26 135.727C657.26 135.267 657.189 134.852 657.047 134.483C656.907 134.111 656.696 133.817 656.412 133.601C656.13 133.382 655.777 133.273 655.35 133.273C654.941 133.273 654.598 133.376 654.319 133.584C654.041 133.788 653.831 134.075 653.689 134.445C653.547 134.811 653.475 135.239 653.475 135.727ZM662.458 141.233V130.273H663.464V141.233H662.458ZM662.458 139.136C662.015 139.136 661.612 139.057 661.248 138.898C660.885 138.736 660.572 138.507 660.311 138.212C660.049 137.913 659.848 137.557 659.706 137.142C659.564 136.727 659.493 136.267 659.493 135.761C659.493 135.25 659.564 134.787 659.706 134.372C659.848 133.955 660.049 133.597 660.311 133.298C660.572 133 660.885 132.771 661.248 132.612C661.612 132.45 662.015 132.369 662.458 132.369H662.765V139.136H662.458ZM662.458 138.233H662.629V133.273H662.458C662.123 133.273 661.832 133.341 661.585 133.477C661.338 133.611 661.133 133.794 660.971 134.027C660.812 134.257 660.693 134.521 660.613 134.82C660.537 135.118 660.498 135.432 660.498 135.761C660.498 136.199 660.568 136.605 660.707 136.98C660.846 137.355 661.061 137.658 661.35 137.888C661.64 138.118 662.01 138.233 662.458 138.233ZM663.464 139.136H663.157V132.369H663.464C663.907 132.369 664.311 132.45 664.674 132.612C665.038 132.771 665.35 133 665.612 133.298C665.873 133.597 666.075 133.955 666.217 134.372C666.359 134.787 666.43 135.25 666.43 135.761C666.43 136.267 666.359 136.727 666.217 137.142C666.075 137.557 665.873 137.913 665.612 138.212C665.35 138.507 665.038 138.736 664.674 138.898C664.311 139.057 663.907 139.136 663.464 139.136ZM663.464 138.233C663.802 138.233 664.093 138.168 664.338 138.037C664.585 137.903 664.788 137.722 664.947 137.491C665.109 137.259 665.228 136.994 665.305 136.699C665.385 136.401 665.424 136.088 665.424 135.761C665.424 135.324 665.355 134.916 665.216 134.538C665.076 134.161 664.862 133.855 664.572 133.622C664.282 133.389 663.913 133.273 663.464 133.273H663.294V138.233H663.464ZM669.893 139.153C669.479 139.153 669.102 139.075 668.764 138.919C668.426 138.76 668.158 138.531 667.959 138.233C667.76 137.932 667.661 137.568 667.661 137.142C667.661 136.767 667.734 136.463 667.882 136.23C668.03 135.994 668.227 135.81 668.474 135.676C668.722 135.543 668.994 135.443 669.293 135.378C669.594 135.31 669.896 135.256 670.2 135.216C670.598 135.165 670.92 135.126 671.168 135.101C671.418 135.072 671.599 135.026 671.713 134.96C671.83 134.895 671.888 134.781 671.888 134.619V134.585C671.888 134.165 671.773 133.838 671.543 133.605C671.315 133.372 670.97 133.256 670.507 133.256C670.027 133.256 669.651 133.361 669.378 133.571C669.105 133.781 668.913 134.006 668.803 134.244L667.848 133.903C668.018 133.506 668.246 133.196 668.53 132.974C668.817 132.75 669.129 132.594 669.467 132.506C669.808 132.415 670.143 132.369 670.473 132.369C670.683 132.369 670.925 132.395 671.197 132.446C671.473 132.494 671.739 132.595 671.994 132.749C672.253 132.902 672.467 133.134 672.638 133.443C672.808 133.753 672.893 134.168 672.893 134.688V139H671.888V138.114H671.837C671.768 138.256 671.655 138.408 671.496 138.57C671.337 138.732 671.125 138.869 670.861 138.983C670.597 139.097 670.274 139.153 669.893 139.153ZM670.047 138.25C670.445 138.25 670.78 138.172 671.053 138.016C671.328 137.859 671.536 137.658 671.675 137.411C671.817 137.163 671.888 136.903 671.888 136.631V135.71C671.845 135.761 671.751 135.808 671.607 135.851C671.464 135.891 671.3 135.926 671.112 135.957C670.928 135.986 670.747 136.011 670.571 136.034C670.398 136.054 670.257 136.071 670.149 136.085C669.888 136.119 669.643 136.175 669.416 136.251C669.192 136.325 669.01 136.437 668.871 136.588C668.734 136.736 668.666 136.937 668.666 137.193C668.666 137.543 668.795 137.807 669.054 137.986C669.315 138.162 669.646 138.25 670.047 138.25ZM674.729 141.455V132.455H675.701V133.494H675.82C675.894 133.381 675.996 133.236 676.127 133.06C676.26 132.881 676.451 132.722 676.698 132.582C676.948 132.44 677.286 132.369 677.712 132.369C678.263 132.369 678.749 132.507 679.169 132.783C679.59 133.058 679.918 133.449 680.154 133.955C680.39 134.46 680.507 135.057 680.507 135.744C680.507 136.438 680.39 137.038 680.154 137.547C679.918 138.053 679.591 138.445 679.174 138.723C678.756 138.999 678.275 139.136 677.729 139.136C677.309 139.136 676.972 139.067 676.719 138.928C676.466 138.786 676.272 138.625 676.135 138.446C675.999 138.264 675.894 138.114 675.82 137.994H675.735V141.455H674.729ZM675.718 135.727C675.718 136.222 675.79 136.658 675.935 137.036C676.08 137.411 676.292 137.705 676.57 137.918C676.848 138.128 677.189 138.233 677.593 138.233C678.013 138.233 678.364 138.122 678.645 137.901C678.929 137.676 679.142 137.375 679.284 136.997C679.429 136.616 679.502 136.193 679.502 135.727C679.502 135.267 679.431 134.852 679.289 134.483C679.15 134.111 678.938 133.817 678.654 133.601C678.373 133.382 678.019 133.273 677.593 133.273C677.184 133.273 676.84 133.376 676.561 133.584C676.283 133.788 676.073 134.075 675.931 134.445C675.789 134.811 675.718 135.239 675.718 135.727ZM683.047 137.517L686.201 132.455H687.36V139H686.354V133.938L683.218 139H682.042V132.455H683.047V137.517ZM693.582 135.267V136.205H689.969V135.267H693.582ZM690.207 132.455V139H689.202V132.455H690.207ZM694.349 132.455V139H693.344V132.455H694.349Z" fill="black"/>
<rect x="613" y="157" width="107" height="31" rx="10" fill="#E3C9FE"/>
<path d="M623.915 177H622.807L626.011 168.273H627.102L630.307 177H629.199L626.591 169.653H626.523L623.915 177ZM624.324 173.591H628.79V174.528H624.324V173.591ZM636.678 170.455V176.062H637.598V179.114H636.592V177H631.53V170.455H632.536V176.062H635.672V170.455H636.678ZM641.821 177.136C641.19 177.136 640.646 176.997 640.189 176.719C639.734 176.438 639.384 176.045 639.136 175.543C638.892 175.037 638.77 174.449 638.77 173.778C638.77 173.108 638.892 172.517 639.136 172.006C639.384 171.491 639.727 171.091 640.168 170.804C640.611 170.514 641.128 170.369 641.719 170.369C642.06 170.369 642.396 170.426 642.729 170.54C643.061 170.653 643.364 170.838 643.636 171.094C643.909 171.347 644.126 171.682 644.288 172.099C644.45 172.517 644.531 173.031 644.531 173.642V174.068H639.486V173.199H643.509C643.509 172.83 643.435 172.5 643.287 172.21C643.142 171.92 642.935 171.692 642.665 171.524C642.398 171.357 642.082 171.273 641.719 171.273C641.318 171.273 640.972 171.372 640.679 171.571C640.389 171.767 640.166 172.023 640.01 172.338C639.854 172.653 639.776 172.991 639.776 173.352V173.932C639.776 174.426 639.861 174.845 640.031 175.189C640.205 175.53 640.445 175.79 640.751 175.969C641.058 176.145 641.415 176.233 641.821 176.233C642.085 176.233 642.324 176.196 642.537 176.122C642.753 176.045 642.939 175.932 643.095 175.781C643.251 175.628 643.372 175.437 643.457 175.21L644.429 175.483C644.327 175.812 644.155 176.102 643.913 176.352C643.672 176.599 643.374 176.793 643.018 176.932C642.663 177.068 642.264 177.136 641.821 177.136ZM650.442 173.267V174.205H646.828V173.267H650.442ZM647.067 170.455V177H646.061V170.455H647.067ZM651.209 170.455V177H650.203V170.455H651.209ZM655.705 177.136C655.114 177.136 654.595 176.996 654.149 176.714C653.706 176.433 653.359 176.04 653.109 175.534C652.862 175.028 652.739 174.437 652.739 173.761C652.739 173.08 652.862 172.484 653.109 171.976C653.359 171.467 653.706 171.072 654.149 170.791C654.595 170.51 655.114 170.369 655.705 170.369C656.295 170.369 656.813 170.51 657.256 170.791C657.702 171.072 658.048 171.467 658.295 171.976C658.545 172.484 658.67 173.08 658.67 173.761C658.67 174.437 658.545 175.028 658.295 175.534C658.048 176.04 657.702 176.433 657.256 176.714C656.813 176.996 656.295 177.136 655.705 177.136ZM655.705 176.233C656.153 176.233 656.523 176.118 656.812 175.888C657.102 175.658 657.317 175.355 657.456 174.98C657.595 174.605 657.665 174.199 657.665 173.761C657.665 173.324 657.595 172.916 657.456 172.538C657.317 172.161 657.102 171.855 656.812 171.622C656.523 171.389 656.153 171.273 655.705 171.273C655.256 171.273 654.886 171.389 654.597 171.622C654.307 171.855 654.092 172.161 653.953 172.538C653.814 172.916 653.744 173.324 653.744 173.761C653.744 174.199 653.814 174.605 653.953 174.98C654.092 175.355 654.307 175.658 654.597 175.888C654.886 176.118 655.256 176.233 655.705 176.233ZM660.206 177V170.455H661.211V173.301H661.876L664.228 170.455H665.524L662.882 173.608L665.558 177H664.262L662.115 174.239H661.211V177H660.206ZM667.299 179.455C667.128 179.455 666.976 179.44 666.843 179.412C666.709 179.386 666.617 179.361 666.566 179.335L666.821 178.449C667.066 178.511 667.282 178.534 667.469 178.517C667.657 178.5 667.823 178.416 667.968 178.266C668.115 178.118 668.25 177.878 668.373 177.545L668.56 177.034L666.14 170.455H667.23L669.037 175.67H669.105L670.912 170.455H672.003L669.225 177.955C669.1 178.293 668.945 178.572 668.76 178.794C668.576 179.018 668.361 179.185 668.117 179.293C667.875 179.401 667.603 179.455 667.299 179.455ZM676.91 175.636L679.194 170.455H680.149L677.319 177H676.501L673.723 170.455H674.66L676.91 175.636ZM674.336 170.455V177H673.331V170.455H674.336ZM679.484 177V170.455H680.49V177H679.484ZM684.257 177.153C683.842 177.153 683.466 177.075 683.127 176.919C682.789 176.76 682.521 176.531 682.322 176.233C682.123 175.932 682.024 175.568 682.024 175.142C682.024 174.767 682.098 174.463 682.245 174.23C682.393 173.994 682.591 173.81 682.838 173.676C683.085 173.543 683.358 173.443 683.656 173.378C683.957 173.31 684.26 173.256 684.564 173.216C684.961 173.165 685.284 173.126 685.531 173.101C685.781 173.072 685.963 173.026 686.076 172.96C686.193 172.895 686.251 172.781 686.251 172.619V172.585C686.251 172.165 686.136 171.838 685.906 171.605C685.679 171.372 685.333 171.256 684.87 171.256C684.39 171.256 684.014 171.361 683.741 171.571C683.468 171.781 683.277 172.006 683.166 172.244L682.211 171.903C682.382 171.506 682.609 171.196 682.893 170.974C683.18 170.75 683.493 170.594 683.831 170.506C684.172 170.415 684.507 170.369 684.836 170.369C685.047 170.369 685.288 170.395 685.561 170.446C685.836 170.494 686.102 170.595 686.358 170.749C686.616 170.902 686.831 171.134 687.001 171.443C687.172 171.753 687.257 172.168 687.257 172.688V177H686.251V176.114H686.2C686.132 176.256 686.018 176.408 685.859 176.57C685.7 176.732 685.488 176.869 685.224 176.983C684.96 177.097 684.637 177.153 684.257 177.153ZM684.41 176.25C684.808 176.25 685.143 176.172 685.416 176.016C685.691 175.859 685.899 175.658 686.038 175.411C686.18 175.163 686.251 174.903 686.251 174.631V173.71C686.208 173.761 686.115 173.808 685.97 173.851C685.828 173.891 685.663 173.926 685.475 173.957C685.291 173.986 685.11 174.011 684.934 174.034C684.761 174.054 684.62 174.071 684.512 174.085C684.251 174.119 684.007 174.175 683.779 174.251C683.555 174.325 683.373 174.437 683.234 174.588C683.098 174.736 683.029 174.937 683.029 175.193C683.029 175.543 683.159 175.807 683.417 175.986C683.679 176.162 684.01 176.25 684.41 176.25ZM689.092 179.455V170.455H690.064V171.494H690.183C690.257 171.381 690.359 171.236 690.49 171.06C690.624 170.881 690.814 170.722 691.061 170.582C691.311 170.44 691.649 170.369 692.075 170.369C692.626 170.369 693.112 170.507 693.533 170.783C693.953 171.058 694.281 171.449 694.517 171.955C694.753 172.46 694.871 173.057 694.871 173.744C694.871 174.438 694.753 175.038 694.517 175.547C694.281 176.053 693.955 176.445 693.537 176.723C693.119 176.999 692.638 177.136 692.092 177.136C691.672 177.136 691.335 177.067 691.082 176.928C690.83 176.786 690.635 176.625 690.499 176.446C690.362 176.264 690.257 176.114 690.183 175.994H690.098V179.455H689.092ZM690.081 173.727C690.081 174.222 690.153 174.658 690.298 175.036C690.443 175.411 690.655 175.705 690.933 175.918C691.212 176.128 691.553 176.233 691.956 176.233C692.376 176.233 692.727 176.122 693.009 175.901C693.293 175.676 693.506 175.375 693.648 174.997C693.793 174.616 693.865 174.193 693.865 173.727C693.865 173.267 693.794 172.852 693.652 172.483C693.513 172.111 693.301 171.817 693.017 171.601C692.736 171.382 692.382 171.273 691.956 171.273C691.547 171.273 691.203 171.376 690.925 171.584C690.646 171.788 690.436 172.075 690.294 172.445C690.152 172.811 690.081 173.239 690.081 173.727ZM699.064 177.136C698.473 177.136 697.955 176.996 697.509 176.714C697.065 176.433 696.719 176.04 696.469 175.534C696.222 175.028 696.098 174.437 696.098 173.761C696.098 173.08 696.222 172.484 696.469 171.976C696.719 171.467 697.065 171.072 697.509 170.791C697.955 170.51 698.473 170.369 699.064 170.369C699.655 170.369 700.172 170.51 700.615 170.791C701.061 171.072 701.408 171.467 701.655 171.976C701.905 172.484 702.03 173.08 702.03 173.761C702.03 174.437 701.905 175.028 701.655 175.534C701.408 176.04 701.061 176.433 700.615 176.714C700.172 176.996 699.655 177.136 699.064 177.136ZM699.064 176.233C699.513 176.233 699.882 176.118 700.172 175.888C700.462 175.658 700.676 175.355 700.815 174.98C700.955 174.605 701.024 174.199 701.024 173.761C701.024 173.324 700.955 172.916 700.815 172.538C700.676 172.161 700.462 171.855 700.172 171.622C699.882 171.389 699.513 171.273 699.064 171.273C698.615 171.273 698.246 171.389 697.956 171.622C697.666 171.855 697.452 172.161 697.312 172.538C697.173 172.916 697.104 173.324 697.104 173.761C697.104 174.199 697.173 174.605 697.312 174.98C697.452 175.355 697.666 175.658 697.956 175.888C698.246 176.118 698.615 176.233 699.064 176.233ZM702.985 177V176.062H703.224C703.42 176.062 703.583 176.024 703.714 175.947C703.845 175.868 703.95 175.73 704.029 175.534C704.112 175.335 704.174 175.06 704.217 174.707C704.262 174.352 704.295 173.901 704.315 173.352L704.434 170.455H708.798V177H707.792V171.392H705.389L705.287 173.727C705.264 174.264 705.216 174.737 705.142 175.146C705.071 175.553 704.961 175.893 704.814 176.169C704.669 176.445 704.475 176.652 704.234 176.791C703.993 176.93 703.69 177 703.326 177H702.985Z" fill="black"/>
<rect x="613" y="196" width="107" height="31" rx="10" fill="#D7FEC9"/>
<path d="M640.557 208.312H641.938C642.585 208.312 643.161 208.457 643.663 208.747C644.166 209.037 644.561 209.44 644.848 209.957C645.135 210.474 645.278 211.074 645.278 211.756C645.278 212.438 645.135 213.038 644.848 213.558C644.561 214.078 644.166 214.484 643.663 214.777C643.161 215.07 642.585 215.216 641.938 215.216H640.557C639.909 215.216 639.334 215.071 638.831 214.781C638.328 214.491 637.933 214.088 637.646 213.571C637.359 213.054 637.216 212.455 637.216 211.773C637.216 211.091 637.359 210.49 637.646 209.97C637.933 209.45 638.328 209.044 638.831 208.751C639.334 208.459 639.909 208.312 640.557 208.312ZM640.557 209.25C640.062 209.25 639.645 209.354 639.304 209.561C638.966 209.768 638.709 210.061 638.533 210.439C638.359 210.817 638.273 211.261 638.273 211.773C638.273 212.278 638.359 212.719 638.533 213.094C638.709 213.469 638.966 213.76 639.304 213.967C639.645 214.175 640.062 214.278 640.557 214.278H641.938C642.432 214.278 642.848 214.175 643.186 213.967C643.527 213.76 643.784 213.467 643.957 213.089C644.134 212.712 644.222 212.267 644.222 211.756C644.222 211.25 644.134 210.81 643.957 210.435C643.784 210.06 643.527 209.768 643.186 209.561C642.848 209.354 642.432 209.25 641.938 209.25H640.557ZM641.784 207.119V216.358H640.727V207.119H641.784ZM649.657 216.136C649.026 216.136 648.482 215.997 648.025 215.719C647.57 215.438 647.219 215.045 646.972 214.543C646.728 214.037 646.606 213.449 646.606 212.778C646.606 212.108 646.728 211.517 646.972 211.006C647.219 210.491 647.563 210.091 648.004 209.804C648.447 209.514 648.964 209.369 649.555 209.369C649.896 209.369 650.232 209.426 650.565 209.54C650.897 209.653 651.2 209.838 651.472 210.094C651.745 210.347 651.962 210.682 652.124 211.099C652.286 211.517 652.367 212.031 652.367 212.642V213.068H647.322V212.199H651.344C651.344 211.83 651.271 211.5 651.123 211.21C650.978 210.92 650.771 210.692 650.501 210.524C650.234 210.357 649.918 210.273 649.555 210.273C649.154 210.273 648.808 210.372 648.515 210.571C648.225 210.767 648.002 211.023 647.846 211.338C647.69 211.653 647.612 211.991 647.612 212.352V212.932C647.612 213.426 647.697 213.845 647.867 214.189C648.04 214.53 648.281 214.79 648.587 214.969C648.894 215.145 649.251 215.233 649.657 215.233C649.921 215.233 650.16 215.196 650.373 215.122C650.589 215.045 650.775 214.932 650.931 214.781C651.087 214.628 651.208 214.437 651.293 214.21L652.265 214.483C652.163 214.812 651.991 215.102 651.749 215.352C651.508 215.599 651.21 215.793 650.854 215.932C650.499 216.068 650.1 216.136 649.657 216.136ZM658.278 212.267V213.205H654.664V212.267H658.278ZM654.903 209.455V216H653.897V209.455H654.903ZM659.045 209.455V216H658.039V209.455H659.045ZM661.887 214.517L665.04 209.455H666.2V216H665.194V210.938L662.058 216H660.881V209.455H661.887V214.517ZM667.343 217.875V215.062H667.888C668.022 214.923 668.137 214.773 668.233 214.611C668.33 214.449 668.414 214.257 668.485 214.036C668.559 213.811 668.621 213.538 668.672 213.217C668.723 212.893 668.769 212.503 668.809 212.045L669.03 209.455H673.189V215.062H674.195V217.875H673.189V216H668.348V217.875H667.343ZM669.03 215.062H672.184V210.392H669.968L669.797 212.045C669.726 212.73 669.638 213.328 669.533 213.839C669.428 214.351 669.26 214.759 669.03 215.062ZM676.536 214.517L679.689 209.455H680.848V216H679.842V210.938L676.706 216H675.53V209.455H676.536V214.517ZM685.349 216.136C684.758 216.136 684.24 215.996 683.794 215.714C683.35 215.433 683.004 215.04 682.754 214.534C682.507 214.028 682.383 213.437 682.383 212.761C682.383 212.08 682.507 211.484 682.754 210.976C683.004 210.467 683.35 210.072 683.794 209.791C684.24 209.51 684.758 209.369 685.349 209.369C685.94 209.369 686.457 209.51 686.9 209.791C687.346 210.072 687.693 210.467 687.94 210.976C688.19 211.484 688.315 212.08 688.315 212.761C688.315 213.437 688.19 214.028 687.94 214.534C687.693 215.04 687.346 215.433 686.9 215.714C686.457 215.996 685.94 216.136 685.349 216.136ZM685.349 215.233C685.798 215.233 686.167 215.118 686.457 214.888C686.747 214.658 686.961 214.355 687.1 213.98C687.24 213.605 687.309 213.199 687.309 212.761C687.309 212.324 687.24 211.916 687.1 211.538C686.961 211.161 686.747 210.855 686.457 210.622C686.167 210.389 685.798 210.273 685.349 210.273C684.9 210.273 684.531 210.389 684.241 210.622C683.951 210.855 683.737 211.161 683.598 211.538C683.458 211.916 683.389 212.324 683.389 212.761C683.389 213.199 683.458 213.605 683.598 213.98C683.737 214.355 683.951 214.658 684.241 214.888C684.531 215.118 684.9 215.233 685.349 215.233ZM694.231 212.267V213.205H690.617V212.267H694.231ZM690.856 209.455V216H689.85V209.455H690.856ZM694.998 209.455V216H693.992V209.455H694.998Z" fill="black"/>
</svg>
