<svg width="145" height="43" viewBox="0 0 145 43" fill="none" xmlns="http://www.w3.org/2000/svg">
<rect x="0.613281" y="0.5" width="143.613" height="42" rx="13.5484" fill="#A1FF81"/>
<path d="M18.329 27.5V15.8636H22.2608C23.1737 15.8636 23.9199 16.0284 24.4995 16.358C25.0828 16.6837 25.5146 17.125 25.7949 17.6818C26.0752 18.2386 26.2154 18.8598 26.2154 19.5455C26.2154 20.2311 26.0752 20.8542 25.7949 21.4148C25.5184 21.9754 25.0904 22.4223 24.5108 22.7557C23.9313 23.0852 23.1889 23.25 22.2836 23.25H19.4654V22H22.2381C22.8631 22 23.365 21.892 23.7438 21.6761C24.1226 21.4602 24.3972 21.1686 24.5676 20.8011C24.7419 20.4299 24.829 20.0114 24.829 19.5455C24.829 19.0795 24.7419 18.6629 24.5676 18.2955C24.3972 17.928 24.1207 17.6402 23.7381 17.4318C23.3555 17.2197 22.848 17.1136 22.2154 17.1136H19.7381V27.5H18.329ZM29.6444 25.5227L33.8489 18.7727H35.3944V27.5H34.0534V20.75L29.8716 27.5H28.3034V18.7727H29.6444V25.5227ZM37.8503 27.5V18.7727H41.4185C42.3579 18.7727 43.1041 18.9848 43.6571 19.4091C44.2102 19.8333 44.4867 20.3939 44.4867 21.0909C44.4867 21.6212 44.3295 22.0322 44.0151 22.3239C43.7007 22.6117 43.2973 22.8068 42.8049 22.9091C43.1268 22.9545 43.4393 23.0682 43.7424 23.25C44.0492 23.4318 44.303 23.6818 44.5037 24C44.7045 24.3144 44.8049 24.7008 44.8049 25.1591C44.8049 25.6061 44.6912 26.0057 44.464 26.358C44.2367 26.7102 43.9109 26.9886 43.4867 27.1932C43.0624 27.3977 42.5549 27.5 41.964 27.5H37.8503ZM39.123 26.2727H41.964C42.4261 26.2727 42.7878 26.1629 43.0492 25.9432C43.3105 25.7235 43.4412 25.4242 43.4412 25.0455C43.4412 24.5947 43.3105 24.2405 43.0492 23.983C42.7878 23.7216 42.4261 23.5909 41.964 23.5909H39.123V26.2727ZM39.123 22.4318H41.4185C41.7784 22.4318 42.0871 22.3826 42.3446 22.2841C42.6022 22.1818 42.7992 22.0379 42.9355 21.8523C43.0757 21.6629 43.1458 21.4394 43.1458 21.1818C43.1458 20.8144 42.9924 20.5265 42.6855 20.3182C42.3787 20.1061 41.9564 20 41.4185 20H39.123V22.4318ZM49.4029 27.7045C48.8498 27.7045 48.348 27.6004 47.8972 27.392C47.4464 27.1799 47.0885 26.875 46.8233 26.4773C46.5582 26.0758 46.4256 25.5909 46.4256 25.0227C46.4256 24.5227 46.5241 24.1174 46.7211 23.8068C46.918 23.4924 47.1813 23.2462 47.5108 23.0682C47.8404 22.8902 48.204 22.7576 48.6017 22.6705C49.0033 22.5795 49.4067 22.5076 49.812 22.4545C50.3423 22.3864 50.7722 22.3352 51.1017 22.3011C51.4351 22.2633 51.6775 22.2008 51.829 22.1136C51.9843 22.0265 52.062 21.875 52.062 21.6591V21.6136C52.062 21.053 51.9086 20.6174 51.6017 20.3068C51.2987 19.9962 50.8385 19.8409 50.2211 19.8409C49.5809 19.8409 49.079 19.9811 48.7154 20.2614C48.3517 20.5417 48.0961 20.8409 47.9483 21.1591L46.6756 20.7045C46.9029 20.1742 47.2059 19.7614 47.5847 19.4659C47.9673 19.1667 48.3839 18.9583 48.8347 18.8409C49.2892 18.7197 49.7362 18.6591 50.1756 18.6591C50.4559 18.6591 50.7779 18.6932 51.1415 18.7614C51.5089 18.8258 51.8631 18.9602 52.204 19.1648C52.5487 19.3693 52.8347 19.678 53.062 20.0909C53.2892 20.5038 53.4029 21.0568 53.4029 21.75V27.5H52.062V26.3182H51.9938C51.9029 26.5076 51.7514 26.7102 51.5392 26.9261C51.3271 27.142 51.0449 27.3258 50.6926 27.4773C50.3404 27.6288 49.9105 27.7045 49.4029 27.7045ZM49.6074 26.5C50.1377 26.5 50.5847 26.3958 50.9483 26.1875C51.3158 25.9792 51.5923 25.7102 51.7779 25.3807C51.9673 25.0511 52.062 24.7045 52.062 24.3409V23.1136C52.0051 23.1818 51.8801 23.2443 51.687 23.3011C51.4976 23.3542 51.2779 23.4015 51.0279 23.4432C50.7817 23.4811 50.5411 23.5152 50.3063 23.5455C50.0752 23.572 49.8877 23.5947 49.7438 23.6136C49.3953 23.6591 49.0695 23.733 48.7665 23.8352C48.4673 23.9337 48.2248 24.0833 48.0392 24.2841C47.8574 24.4811 47.7665 24.75 47.7665 25.0909C47.7665 25.5568 47.9389 25.9091 48.2836 26.1477C48.632 26.3826 49.0733 26.5 49.6074 26.5ZM55.8503 30.7727V18.7727H57.1458V20.1591H57.3049C57.4033 20.0076 57.5397 19.8144 57.714 19.5795C57.892 19.3409 58.1458 19.1288 58.4753 18.9432C58.8087 18.7538 59.2594 18.6591 59.8276 18.6591C60.5624 18.6591 61.2102 18.8428 61.7708 19.2102C62.3314 19.5777 62.7689 20.0985 63.0833 20.7727C63.3977 21.447 63.5549 22.2424 63.5549 23.1591C63.5549 24.0833 63.3977 24.8845 63.0833 25.5625C62.7689 26.2367 62.3333 26.7595 61.7765 27.1307C61.2196 27.4981 60.5776 27.6818 59.8503 27.6818C59.2897 27.6818 58.8409 27.589 58.5037 27.4034C58.1666 27.214 57.9071 27 57.7253 26.7614C57.5435 26.5189 57.4033 26.3182 57.3049 26.1591H57.1912V30.7727H55.8503ZM57.1685 23.1364C57.1685 23.7955 57.2651 24.3769 57.4583 24.8807C57.6515 25.3807 57.9337 25.7727 58.3049 26.0568C58.6761 26.3371 59.1306 26.4773 59.6685 26.4773C60.2291 26.4773 60.6969 26.3295 61.0719 26.0341C61.4507 25.7348 61.7348 25.3333 61.9242 24.8295C62.1174 24.322 62.214 23.7576 62.214 23.1364C62.214 22.5227 62.1193 21.9697 61.9299 21.4773C61.7443 20.9811 61.4621 20.589 61.0833 20.3011C60.7083 20.0095 60.2367 19.8636 59.6685 19.8636C59.123 19.8636 58.6647 20.0019 58.2935 20.2784C57.9223 20.5511 57.642 20.9337 57.4526 21.4261C57.2632 21.9148 57.1685 22.4848 57.1685 23.1364ZM69.1458 27.6818C68.3579 27.6818 67.6666 27.4943 67.0719 27.1193C66.481 26.7443 66.0189 26.2197 65.6855 25.5455C65.356 24.8712 65.1912 24.0833 65.1912 23.1818C65.1912 22.2727 65.356 21.4792 65.6855 20.8011C66.0189 20.1231 66.481 19.5966 67.0719 19.2216C67.6666 18.8466 68.3579 18.6591 69.1458 18.6591C69.9337 18.6591 70.623 18.8466 71.214 19.2216C71.8087 19.5966 72.2708 20.1231 72.6003 20.8011C72.9337 21.4792 73.1003 22.2727 73.1003 23.1818C73.1003 24.0833 72.9337 24.8712 72.6003 25.5455C72.2708 26.2197 71.8087 26.7443 71.214 27.1193C70.623 27.4943 69.9337 27.6818 69.1458 27.6818ZM69.1458 26.4773C69.7443 26.4773 70.2367 26.3239 70.623 26.017C71.0094 25.7102 71.2954 25.3068 71.481 24.8068C71.6666 24.3068 71.7594 23.7652 71.7594 23.1818C71.7594 22.5985 71.6666 22.0549 71.481 21.5511C71.2954 21.0473 71.0094 20.6402 70.623 20.3295C70.2367 20.0189 69.7443 19.8636 69.1458 19.8636C68.5473 19.8636 68.0549 20.0189 67.6685 20.3295C67.2821 20.6402 66.9962 21.0473 66.8105 21.5511C66.6249 22.0549 66.5321 22.5985 66.5321 23.1818C66.5321 23.7652 66.6249 24.3068 66.8105 24.8068C66.9962 25.3068 67.2821 25.7102 67.6685 26.017C68.0549 26.3239 68.5473 26.4773 69.1458 26.4773ZM75.1472 27.5V18.7727H76.4881V22.5682H77.3745L80.5108 18.7727H82.2381L78.7154 22.9773L82.2836 27.5H80.5563L77.6926 23.8182H76.4881V27.5H75.1472ZM86.927 27.6818C86.1088 27.6818 85.4043 27.4886 84.8134 27.1023C84.2225 26.7159 83.7679 26.1837 83.4498 25.5057C83.1316 24.8277 82.9725 24.053 82.9725 23.1818C82.9725 22.2955 83.1354 21.5133 83.4611 20.8352C83.7907 20.1534 84.249 19.6212 84.8361 19.2386C85.427 18.8523 86.1164 18.6591 86.9043 18.6591C87.5179 18.6591 88.071 18.7727 88.5634 19C89.0558 19.2273 89.4592 19.5455 89.7736 19.9545C90.088 20.3636 90.2831 20.8409 90.3588 21.3864H89.0179C88.9157 20.9886 88.6884 20.6364 88.3361 20.3295C87.9876 20.0189 87.5179 19.8636 86.927 19.8636C86.4043 19.8636 85.946 20 85.552 20.2727C85.1619 20.5417 84.8569 20.9223 84.6373 21.4148C84.4213 21.9034 84.3134 22.4773 84.3134 23.1364C84.3134 23.8106 84.4194 24.3977 84.6316 24.8977C84.8475 25.3977 85.1505 25.786 85.5407 26.0625C85.9346 26.339 86.3967 26.4773 86.927 26.4773C87.2755 26.4773 87.5918 26.4167 87.8759 26.2955C88.16 26.1742 88.4005 26 88.5975 25.7727C88.7944 25.5455 88.9346 25.2727 89.0179 24.9545H90.3588C90.2831 25.4697 90.0956 25.9337 89.7963 26.3466C89.5009 26.7557 89.1088 27.0814 88.6202 27.3239C88.1354 27.5625 87.571 27.6818 86.927 27.6818ZM94.8873 27.7045C94.3342 27.7045 93.8323 27.6004 93.3816 27.392C92.9308 27.1799 92.5729 26.875 92.3077 26.4773C92.0426 26.0758 91.91 25.5909 91.91 25.0227C91.91 24.5227 92.0085 24.1174 92.2054 23.8068C92.4024 23.4924 92.6657 23.2462 92.9952 23.0682C93.3248 22.8902 93.6884 22.7576 94.0861 22.6705C94.4876 22.5795 94.891 22.5076 95.2963 22.4545C95.8266 22.3864 96.2566 22.3352 96.5861 22.3011C96.9194 22.2633 97.1619 22.2008 97.3134 22.1136C97.4687 22.0265 97.5463 21.875 97.5463 21.6591V21.6136C97.5463 21.053 97.3929 20.6174 97.0861 20.3068C96.7831 19.9962 96.3229 19.8409 95.7054 19.8409C95.0653 19.8409 94.5634 19.9811 94.1998 20.2614C93.8361 20.5417 93.5804 20.8409 93.4327 21.1591L92.16 20.7045C92.3873 20.1742 92.6903 19.7614 93.0691 19.4659C93.4516 19.1667 93.8683 18.9583 94.3191 18.8409C94.7736 18.7197 95.2206 18.6591 95.66 18.6591C95.9403 18.6591 96.2623 18.6932 96.6259 18.7614C96.9933 18.8258 97.3475 18.9602 97.6884 19.1648C98.0331 19.3693 98.3191 19.678 98.5463 20.0909C98.7736 20.5038 98.8873 21.0568 98.8873 21.75V27.5H97.5463V26.3182H97.4782C97.3873 26.5076 97.2357 26.7102 97.0236 26.9261C96.8115 27.142 96.5293 27.3258 96.177 27.4773C95.8248 27.6288 95.3948 27.7045 94.8873 27.7045ZM95.0918 26.5C95.6221 26.5 96.0691 26.3958 96.4327 26.1875C96.8001 25.9792 97.0766 25.7102 97.2623 25.3807C97.4516 25.0511 97.5463 24.7045 97.5463 24.3409V23.1136C97.4895 23.1818 97.3645 23.2443 97.1713 23.3011C96.9819 23.3542 96.7623 23.4015 96.5123 23.4432C96.266 23.4811 96.0255 23.5152 95.7907 23.5455C95.5596 23.572 95.3721 23.5947 95.2282 23.6136C94.8797 23.6591 94.5539 23.733 94.2509 23.8352C93.9516 23.9337 93.7092 24.0833 93.5236 24.2841C93.3418 24.4811 93.2509 24.75 93.2509 25.0909C93.2509 25.5568 93.4232 25.9091 93.7679 26.1477C94.1164 26.3826 94.5577 26.5 95.0918 26.5ZM107.812 15.5L108.494 16.3182C108.229 16.5758 107.922 16.7557 107.573 16.858C107.225 16.9602 106.831 17.0227 106.392 17.0455C105.952 17.0682 105.463 17.0909 104.926 17.1136C104.32 17.1364 103.818 17.2841 103.42 17.5568C103.022 17.8295 102.715 18.2235 102.499 18.7386C102.284 19.2538 102.145 19.8864 102.085 20.6364H102.198C102.494 20.0909 102.903 19.6894 103.426 19.4318C103.948 19.1742 104.509 19.0455 105.107 19.0455C105.789 19.0455 106.403 19.2045 106.948 19.5227C107.494 19.8409 107.926 20.3125 108.244 20.9375C108.562 21.5625 108.721 22.3333 108.721 23.25C108.721 24.1629 108.558 24.9508 108.232 25.6136C107.91 26.2765 107.458 26.7879 106.874 27.1477C106.295 27.5038 105.615 27.6818 104.835 27.6818C104.054 27.6818 103.371 27.4981 102.784 27.1307C102.196 26.7595 101.74 26.2102 101.414 25.483C101.088 24.7519 100.926 23.8485 100.926 22.7727V21.8409C100.926 19.8977 101.255 18.4242 101.914 17.4205C102.577 16.4167 103.573 15.8977 104.903 15.8636C105.373 15.8485 105.791 15.8447 106.159 15.8523C106.526 15.8598 106.846 15.8428 107.119 15.8011C107.392 15.7595 107.623 15.6591 107.812 15.5ZM104.835 26.4773C105.361 26.4773 105.814 26.3447 106.193 26.0795C106.575 25.8144 106.869 25.4413 107.073 24.9602C107.278 24.4754 107.38 23.9053 107.38 23.25C107.38 22.6136 107.276 22.072 107.068 21.625C106.863 21.178 106.57 20.8371 106.187 20.6023C105.804 20.3674 105.346 20.25 104.812 20.25C104.422 20.25 104.071 20.3163 103.761 20.4489C103.45 20.5814 103.185 20.7765 102.965 21.0341C102.746 21.2917 102.575 21.6061 102.454 21.9773C102.337 22.3485 102.274 22.7727 102.267 23.25C102.267 24.2273 102.496 25.0095 102.954 25.5966C103.412 26.1837 104.039 26.4773 104.835 26.4773ZM113.34 27.7045C112.787 27.7045 112.285 27.6004 111.835 27.392C111.384 27.1799 111.026 26.875 110.761 26.4773C110.496 26.0758 110.363 25.5909 110.363 25.0227C110.363 24.5227 110.462 24.1174 110.659 23.8068C110.856 23.4924 111.119 23.2462 111.448 23.0682C111.778 22.8902 112.142 22.7576 112.539 22.6705C112.941 22.5795 113.344 22.5076 113.749 22.4545C114.28 22.3864 114.71 22.3352 115.039 22.3011C115.373 22.2633 115.615 22.2008 115.767 22.1136C115.922 22.0265 115.999 21.875 115.999 21.6591V21.6136C115.999 21.053 115.846 20.6174 115.539 20.3068C115.236 19.9962 114.776 19.8409 114.159 19.8409C113.518 19.8409 113.017 19.9811 112.653 20.2614C112.289 20.5417 112.034 20.8409 111.886 21.1591L110.613 20.7045C110.84 20.1742 111.143 19.7614 111.522 19.4659C111.905 19.1667 112.321 18.9583 112.772 18.8409C113.227 18.7197 113.674 18.6591 114.113 18.6591C114.393 18.6591 114.715 18.6932 115.079 18.7614C115.446 18.8258 115.801 18.9602 116.142 19.1648C116.486 19.3693 116.772 19.678 116.999 20.0909C117.227 20.5038 117.34 21.0568 117.34 21.75V27.5H115.999V26.3182H115.931C115.84 26.5076 115.689 26.7102 115.477 26.9261C115.265 27.142 114.982 27.3258 114.63 27.4773C114.278 27.6288 113.848 27.7045 113.34 27.7045ZM113.545 26.5C114.075 26.5 114.522 26.3958 114.886 26.1875C115.253 25.9792 115.53 25.7102 115.715 25.3807C115.905 25.0511 115.999 24.7045 115.999 24.3409V23.1136C115.943 23.1818 115.818 23.2443 115.624 23.3011C115.435 23.3542 115.215 23.4015 114.965 23.4432C114.719 23.4811 114.479 23.5152 114.244 23.5455C114.013 23.572 113.825 23.5947 113.681 23.6136C113.333 23.6591 113.007 23.733 112.704 23.8352C112.405 23.9337 112.162 24.0833 111.977 24.2841C111.795 24.4811 111.704 24.75 111.704 25.0909C111.704 25.5568 111.876 25.9091 112.221 26.1477C112.57 26.3826 113.011 26.5 113.545 26.5ZM125.629 22.5227V23.7727H120.811V22.5227H125.629ZM121.129 18.7727V27.5H119.788V18.7727H121.129ZM126.651 18.7727V27.5H125.311V18.7727H126.651Z" fill="black"/>
</svg>
