<svg width="144" height="43" viewBox="0 0 144 43" fill="none" xmlns="http://www.w3.org/2000/svg">
<rect x="0.226562" y="0.5" width="143.613" height="42" rx="13.5484" fill="#C9E1FE"/>
<path d="M34.4423 27V15.3636H38.5105C39.3211 15.3636 39.9896 15.5038 40.5162 15.7841C41.0427 16.0606 41.4347 16.4337 41.6923 16.9034C41.9499 17.3693 42.0787 17.8864 42.0787 18.4545C42.0787 18.9545 41.9896 19.3674 41.8116 19.6932C41.6374 20.0189 41.4063 20.2765 41.1184 20.4659C40.8343 20.6553 40.5256 20.7955 40.1923 20.8864V21C40.5484 21.0227 40.9063 21.1477 41.2662 21.375C41.626 21.6023 41.9271 21.928 42.1696 22.3523C42.412 22.7765 42.5332 23.2955 42.5332 23.9091C42.5332 24.4924 42.4006 25.017 42.1355 25.483C41.8703 25.9489 41.4518 26.3182 40.8798 26.5909C40.3078 26.8636 39.5635 27 38.6468 27H34.4423ZM35.8514 25.75H38.6468C39.5673 25.75 40.2207 25.572 40.6071 25.2159C40.9972 24.8561 41.1923 24.4205 41.1923 23.9091C41.1923 23.5152 41.0919 23.1515 40.8912 22.8182C40.6904 22.4811 40.4044 22.2121 40.0332 22.0114C39.662 21.8068 39.2226 21.7045 38.715 21.7045H35.8514V25.75ZM35.8514 20.4773H38.465C38.8893 20.4773 39.2718 20.3939 39.6127 20.2273C39.9574 20.0606 40.2302 19.8258 40.4309 19.5227C40.6355 19.2197 40.7377 18.8636 40.7377 18.4545C40.7377 17.9432 40.5597 17.5095 40.2037 17.1534C39.8476 16.7936 39.2832 16.6136 38.5105 16.6136H35.8514V20.4773ZM47.2349 27.2045C46.6819 27.2045 46.18 27.1004 45.7292 26.892C45.2785 26.6799 44.9205 26.375 44.6554 25.9773C44.3902 25.5758 44.2576 25.0909 44.2576 24.5227C44.2576 24.0227 44.3561 23.6174 44.5531 23.3068C44.7501 22.9924 45.0133 22.7462 45.3429 22.5682C45.6724 22.3902 46.036 22.2576 46.4338 22.1705C46.8353 22.0795 47.2387 22.0076 47.644 21.9545C48.1743 21.8864 48.6042 21.8352 48.9338 21.8011C49.2671 21.7633 49.5095 21.7008 49.661 21.6136C49.8163 21.5265 49.894 21.375 49.894 21.1591V21.1136C49.894 20.553 49.7406 20.1174 49.4338 19.8068C49.1307 19.4962 48.6705 19.3409 48.0531 19.3409C47.4129 19.3409 46.911 19.4811 46.5474 19.7614C46.1838 20.0417 45.9281 20.3409 45.7804 20.6591L44.5076 20.2045C44.7349 19.6742 45.0379 19.2614 45.4167 18.9659C45.7993 18.6667 46.216 18.4583 46.6667 18.3409C47.1213 18.2197 47.5682 18.1591 48.0076 18.1591C48.2879 18.1591 48.6099 18.1932 48.9735 18.2614C49.341 18.3258 49.6951 18.4602 50.036 18.6648C50.3807 18.8693 50.6667 19.178 50.894 19.5909C51.1213 20.0038 51.2349 20.5568 51.2349 21.25V27H49.894V25.8182H49.8258C49.7349 26.0076 49.5834 26.2102 49.3713 26.4261C49.1592 26.642 48.877 26.8258 48.5247 26.9773C48.1724 27.1288 47.7425 27.2045 47.2349 27.2045ZM47.4395 26C47.9698 26 48.4167 25.8958 48.7804 25.6875C49.1478 25.4792 49.4243 25.2102 49.6099 24.8807C49.7993 24.5511 49.894 24.2045 49.894 23.8409V22.6136C49.8372 22.6818 49.7122 22.7443 49.519 22.8011C49.3296 22.8542 49.1099 22.9015 48.8599 22.9432C48.6137 22.9811 48.3732 23.0152 48.1383 23.0455C47.9073 23.072 47.7198 23.0947 47.5758 23.1136C47.2273 23.1591 46.9016 23.233 46.5985 23.3352C46.2993 23.4337 46.0569 23.5833 45.8713 23.7841C45.6895 23.9811 45.5985 24.25 45.5985 24.5909C45.5985 25.0568 45.7709 25.4091 46.1156 25.6477C46.4641 25.8826 46.9054 26 47.4395 26ZM53.6824 30.2727V18.2727H54.9778V19.6591H55.1369C55.2354 19.5076 55.3717 19.3144 55.546 19.0795C55.724 18.8409 55.9778 18.6288 56.3074 18.4432C56.6407 18.2538 57.0914 18.1591 57.6596 18.1591C58.3945 18.1591 59.0422 18.3428 59.6028 18.7102C60.1634 19.0777 60.6009 19.5985 60.9153 20.2727C61.2297 20.947 61.3869 21.7424 61.3869 22.6591C61.3869 23.5833 61.2297 24.3845 60.9153 25.0625C60.6009 25.7367 60.1653 26.2595 59.6085 26.6307C59.0517 26.9981 58.4096 27.1818 57.6824 27.1818C57.1217 27.1818 56.6729 27.089 56.3358 26.9034C55.9986 26.714 55.7392 26.5 55.5574 26.2614C55.3755 26.0189 55.2354 25.8182 55.1369 25.6591H55.0233V30.2727H53.6824ZM55.0005 22.6364C55.0005 23.2955 55.0971 23.8769 55.2903 24.3807C55.4835 24.8807 55.7657 25.2727 56.1369 25.5568C56.5081 25.8371 56.9627 25.9773 57.5005 25.9773C58.0611 25.9773 58.5289 25.8295 58.9039 25.5341C59.2827 25.2348 59.5668 24.8333 59.7562 24.3295C59.9494 23.822 60.046 23.2576 60.046 22.6364C60.046 22.0227 59.9513 21.4697 59.7619 20.9773C59.5763 20.4811 59.2941 20.089 58.9153 19.8011C58.5403 19.5095 58.0687 19.3636 57.5005 19.3636C56.9551 19.3636 56.4967 19.5019 56.1255 19.7784C55.7543 20.0511 55.474 20.4337 55.2846 20.9261C55.0952 21.4148 55.0005 21.9848 55.0005 22.6364ZM66.9778 29.9773V15.3636H68.3187V29.9773H66.9778ZM66.9778 27.1818C66.3869 27.1818 65.849 27.0758 65.3642 26.8636C64.8793 26.6477 64.4627 26.3428 64.1142 25.9489C63.7657 25.5511 63.4967 25.0758 63.3074 24.5227C63.118 23.9697 63.0233 23.3561 63.0233 22.6818C63.0233 22 63.118 21.3826 63.3074 20.8295C63.4967 20.2727 63.7657 19.7955 64.1142 19.3977C64.4627 19 64.8793 18.6951 65.3642 18.483C65.849 18.267 66.3869 18.1591 66.9778 18.1591H67.3869V27.1818H66.9778ZM66.9778 25.9773H67.2051V19.3636H66.9778C66.5308 19.3636 66.1426 19.4545 65.813 19.6364C65.4835 19.8144 65.2108 20.0587 64.9949 20.3693C64.7827 20.6761 64.6236 21.0284 64.5176 21.4261C64.4153 21.8239 64.3642 22.2424 64.3642 22.6818C64.3642 23.2652 64.457 23.8068 64.6426 24.3068C64.8282 24.8068 65.1142 25.2102 65.5005 25.517C65.8869 25.8239 66.3793 25.9773 66.9778 25.9773ZM68.3187 27.1818H67.9096V18.1591H68.3187C68.9096 18.1591 69.4475 18.267 69.9324 18.483C70.4172 18.6951 70.8339 19 71.1824 19.3977C71.5308 19.7955 71.7998 20.2727 71.9892 20.8295C72.1786 21.3826 72.2733 22 72.2733 22.6818C72.2733 23.3561 72.1786 23.9697 71.9892 24.5227C71.7998 25.0758 71.5308 25.5511 71.1824 25.9489C70.8339 26.3428 70.4172 26.6477 69.9324 26.8636C69.4475 27.0758 68.9096 27.1818 68.3187 27.1818ZM68.3187 25.9773C68.7695 25.9773 69.1577 25.8902 69.4835 25.7159C69.813 25.5379 70.0839 25.2955 70.296 24.9886C70.5119 24.678 70.671 24.3258 70.7733 23.9318C70.8793 23.5341 70.9324 23.1174 70.9324 22.6818C70.9324 22.0985 70.8395 21.5549 70.6539 21.0511C70.4683 20.5473 70.1824 20.1402 69.796 19.8295C69.4096 19.5189 68.9172 19.3636 68.3187 19.3636H68.0914V25.9773H68.3187ZM76.8912 27.2045C76.3381 27.2045 75.8362 27.1004 75.3855 26.892C74.9347 26.6799 74.5768 26.375 74.3116 25.9773C74.0465 25.5758 73.9139 25.0909 73.9139 24.5227C73.9139 24.0227 74.0124 23.6174 74.2093 23.3068C74.4063 22.9924 74.6696 22.7462 74.9991 22.5682C75.3287 22.3902 75.6923 22.2576 76.09 22.1705C76.4915 22.0795 76.8949 22.0076 77.3002 21.9545C77.8306 21.8864 78.2605 21.8352 78.59 21.8011C78.9234 21.7633 79.1658 21.7008 79.3173 21.6136C79.4726 21.5265 79.5502 21.375 79.5502 21.1591V21.1136C79.5502 20.553 79.3968 20.1174 79.09 19.8068C78.787 19.4962 78.3268 19.3409 77.7093 19.3409C77.0692 19.3409 76.5673 19.4811 76.2037 19.7614C75.84 20.0417 75.5843 20.3409 75.4366 20.6591L74.1639 20.2045C74.3912 19.6742 74.6942 19.2614 75.073 18.9659C75.4556 18.6667 75.8722 18.4583 76.323 18.3409C76.7775 18.2197 77.2245 18.1591 77.6639 18.1591C77.9442 18.1591 78.2662 18.1932 78.6298 18.2614C78.9972 18.3258 79.3514 18.4602 79.6923 18.6648C80.037 18.8693 80.323 19.178 80.5502 19.5909C80.7775 20.0038 80.8912 20.5568 80.8912 21.25V27H79.5502V25.8182H79.4821C79.3912 26.0076 79.2396 26.2102 79.0275 26.4261C78.8154 26.642 78.5332 26.8258 78.1809 26.9773C77.8287 27.1288 77.3987 27.2045 76.8912 27.2045ZM77.0957 26C77.626 26 78.073 25.8958 78.4366 25.6875C78.804 25.4792 79.0806 25.2102 79.2662 24.8807C79.4556 24.5511 79.5502 24.2045 79.5502 23.8409V22.6136C79.4934 22.6818 79.3684 22.7443 79.1752 22.8011C78.9859 22.8542 78.7662 22.9015 78.5162 22.9432C78.2699 22.9811 78.0294 23.0152 77.7946 23.0455C77.5635 23.072 77.376 23.0947 77.2321 23.1136C76.8836 23.1591 76.5578 23.233 76.2548 23.3352C75.9556 23.4337 75.7131 23.5833 75.5275 23.7841C75.3457 23.9811 75.2548 24.25 75.2548 24.5909C75.2548 25.0568 75.4271 25.4091 75.7718 25.6477C76.1203 25.8826 76.5616 26 77.0957 26ZM83.3386 30.2727V18.2727H84.6341V19.6591H84.7931C84.8916 19.5076 85.028 19.3144 85.2022 19.0795C85.3803 18.8409 85.6341 18.6288 85.9636 18.4432C86.2969 18.2538 86.7477 18.1591 87.3159 18.1591C88.0507 18.1591 88.6984 18.3428 89.2591 18.7102C89.8197 19.0777 90.2572 19.5985 90.5716 20.2727C90.8859 20.947 91.0431 21.7424 91.0431 22.6591C91.0431 23.5833 90.8859 24.3845 90.5716 25.0625C90.2572 25.7367 89.8216 26.2595 89.2647 26.6307C88.7079 26.9981 88.0659 27.1818 87.3386 27.1818C86.778 27.1818 86.3291 27.089 85.992 26.9034C85.6549 26.714 85.3954 26.5 85.2136 26.2614C85.0318 26.0189 84.8916 25.8182 84.7931 25.6591H84.6795V30.2727H83.3386ZM84.6568 22.6364C84.6568 23.2955 84.7534 23.8769 84.9466 24.3807C85.1397 24.8807 85.4219 25.2727 85.7931 25.5568C86.1644 25.8371 86.6189 25.9773 87.1568 25.9773C87.7174 25.9773 88.1852 25.8295 88.5602 25.5341C88.939 25.2348 89.2231 24.8333 89.4125 24.3295C89.6056 23.822 89.7022 23.2576 89.7022 22.6364C89.7022 22.0227 89.6075 21.4697 89.4181 20.9773C89.2325 20.4811 88.9503 20.089 88.5716 19.8011C88.1966 19.5095 87.725 19.3636 87.1568 19.3636C86.6113 19.3636 86.153 19.5019 85.7818 19.7784C85.4106 20.0511 85.1303 20.4337 84.9409 20.9261C84.7515 21.4148 84.6568 21.9848 84.6568 22.6364ZM94.4295 25.0227L98.6341 18.2727H100.18V27H98.8386V20.25L94.6568 27H93.0886V18.2727H94.4295V25.0227ZM108.476 22.0227V23.2727H103.658V22.0227H108.476ZM103.976 18.2727V27H102.635V18.2727H103.976ZM109.499 18.2727V27H108.158V18.2727H109.499Z" fill="black"/>
</svg>
