<svg width="80" height="80" viewBox="0 0 80 80" fill="none" xmlns="http://www.w3.org/2000/svg">
<path d="M40 0L74.641 20V60L40 80L5.35898 60L5.35898 20L40 0Z" fill="#EBEBEB"/>
<path d="M39.9546 42.7242C38.0351 41.8711 35.6281 41.8407 33.6781 42.7242C33.4039 42.8461 33.3125 43.1813 33.4343 43.425C33.5562 43.6992 33.8914 43.7907 34.1351 43.6688C35.75 42.968 37.8218 42.9375 39.4671 43.6688C39.7414 43.7907 40.046 43.6992 40.1679 43.425C40.3203 43.1813 40.1984 42.8461 39.9546 42.7242ZM40.2593 35.1375C39.4671 35.1375 38.7968 35.7774 38.7968 36.6C38.7968 37.4227 39.4367 38.0625 40.2593 38.0625C41.082 38.0625 41.7218 37.4227 41.7218 36.6C41.7218 35.7774 41.0515 35.1375 40.2593 35.1375ZM40.2593 36.9657C40.0461 36.9657 39.8632 36.7828 39.8632 36.5696C39.8632 36.3563 40.0461 36.1735 40.2593 36.1735C40.4726 36.1735 40.6554 36.3563 40.6554 36.5696C40.6554 36.7828 40.4726 36.9657 40.2593 36.9657ZM34.775 36.6C34.775 35.8078 34.1351 35.1375 33.3125 35.1375C32.4898 35.1375 31.8804 35.7774 31.8804 36.6C31.8804 37.4227 32.5203 38.0625 33.3429 38.0625C34.1351 38.0321 34.775 37.3922 34.775 36.6ZM33.3429 36.9657C33.1296 36.9657 32.9468 36.7828 32.9468 36.5696C32.9468 36.3563 33.1296 36.1735 33.3429 36.1735C33.5562 36.1735 33.739 36.3563 33.739 36.5696C33.7085 36.7828 33.5562 36.9657 33.3429 36.9657ZM29.0164 30.2321H29.1078C29.3515 30.2321 29.5953 30.0492 29.6257 29.8055C29.7171 29.318 29.8086 28.861 29.9609 28.3735C30.0523 28.0992 29.8695 27.7946 29.5953 27.7336C29.3211 27.6727 29.0468 27.825 28.9554 28.0688C28.8031 28.5867 28.6812 29.0742 28.5898 29.6227C28.5289 29.9274 28.7117 30.2016 29.0164 30.2321Z" fill="#8F00FF"/>
<path d="M54.8563 29.0438C54.8563 25.3875 51.9008 22.4625 48.275 22.4625C46.7516 22.4625 45.2586 22.9805 44.0703 23.9555C41.8461 22.1883 38.9516 22.2797 36.8188 22.7063C34.0766 22.1578 30.4203 22.1883 28.1656 25.418C26.7945 27.4289 26.4898 30.8719 26.2766 34.8633C25.9109 35.5945 25.8805 36.4172 26.1547 37.1789C26.0938 38.7633 25.9109 40.3172 25.6367 41.8711C25.3625 42.8461 25.5758 43.882 26.1852 44.6742C27.1906 45.9539 29.3234 46.6547 32.5227 46.7461C32.7969 46.8984 33.0711 47.0508 33.3453 47.1727L33.1625 48.818H31.9742C27.6477 48.818 24.1438 52.3219 24.1133 56.6789V58.0195C24.1133 58.3242 24.357 58.5375 24.6617 58.568H48.9453C49.25 58.568 49.4938 58.3242 49.4938 58.0195V56.6789C49.4938 52.3523 45.9898 48.8484 41.6328 48.818H40.4445L40.2617 47.1727C40.5664 47.0508 40.8406 46.8984 41.1148 46.7461C44.3141 46.6547 46.4469 45.9539 47.4523 44.6742C48.0617 43.882 48.275 42.8461 48.0008 41.8711C47.7266 40.3172 47.5437 38.7633 47.4828 37.1789C47.6656 36.6609 47.7266 36.1125 47.6047 35.5945C51.4742 35.9906 54.8563 32.9438 54.8563 29.0438ZM53.7898 29.0438C53.7898 32.0906 51.3219 34.5891 48.2445 34.5891C45.1672 34.5891 42.6992 32.1211 42.6992 29.0438C42.6992 25.9969 45.1672 23.4984 48.2445 23.4984C51.3219 23.5289 53.7898 25.9969 53.7898 29.0438ZM45.5023 37.7883C45.5023 36.9656 45.4109 36.0211 45.2891 34.9242C45.6547 35.107 46.0203 35.2594 46.4164 35.3813C46.843 36.2953 46.5078 37.4531 45.5023 37.7883ZM36.8188 46.8375C32.8273 46.8375 29.5062 43.7297 29.2625 39.7383C29.1711 38.2758 29.1406 36.4172 29.5977 33.5531C30.1461 33.4008 30.6945 33.3094 31.2734 33.3094C32.4312 33.4008 35.1734 33.4313 36.8188 32.1211C38.4641 33.4313 41.2063 33.4008 42.3641 33.3094C42.6992 33.3094 43.0039 33.3398 43.3391 33.4008C43.5828 33.675 43.857 33.9187 44.1312 34.1625C44.4969 36.6305 44.4664 38.2453 44.375 39.7383C44.1008 43.7297 40.8102 46.8375 36.8188 46.8375ZM29.0188 26.0273C30.9688 23.2547 34.2594 23.2547 36.6969 23.7727H36.9102C38.7688 23.3766 41.3586 23.2547 43.2781 24.6867C41.45 26.7891 41.1148 29.8055 42.4859 32.2125C41.5719 32.2125 38.5859 32.4867 37.1844 31.0242C36.9711 30.8109 36.6359 30.8109 36.4227 31.0242C35.3867 32.1211 33.132 32.3648 31.3344 32.243C30.5422 32.2734 29.75 32.3648 28.9883 32.6086C28.775 32.6695 28.6227 32.8219 28.5922 33.0352C28.5617 33.1875 28.5312 33.3094 28.5312 33.4617H28.4703C28.1047 33.4617 27.7391 33.5531 27.4039 33.7359C27.5562 30.9328 27.8914 27.7031 29.0188 26.0273ZM28.3789 34.5281C28.2266 35.625 28.1656 36.6914 28.1352 37.7883C26.3984 37.2094 26.825 34.6195 28.3789 34.5281ZM27.0078 44.0039C26.6117 43.4555 26.4594 42.7547 26.6727 42.0844C26.9164 40.8961 27.0687 39.6773 27.1297 38.4586C27.4344 38.6719 27.8 38.8242 28.1656 38.8547C28.1656 39.1289 28.1961 39.4641 28.2266 39.7992C28.3484 41.993 29.3234 44.0648 30.9383 45.5578C28.9883 45.3445 27.6172 44.7961 27.0078 44.0039ZM40.475 49.8844H41.2367C41.0539 52.3219 38.9211 54.1805 36.4836 53.9977C34.2898 53.8453 32.5227 52.0781 32.3703 49.8844H33.132C33.3148 51.9258 35.1125 53.4188 37.1234 53.2359C38.9211 53.0836 40.3227 51.6516 40.475 49.8844ZM48.3969 56.6789V57.5016H25.2102V56.6789C25.2102 53.2055 27.8609 50.2805 31.3039 49.9453C31.4867 52.9922 34.107 55.2773 37.1539 55.0945C39.9266 54.9117 42.1203 52.718 42.3031 49.9453C45.7766 50.2805 48.3969 53.175 48.3969 56.6789ZM39.4086 49.275C39.5609 50.707 38.525 52.0172 37.0625 52.1695C35.6 52.3219 34.3203 51.2859 34.168 49.8234C34.1375 49.6406 34.1375 49.4578 34.168 49.275L34.3508 47.5687C35.9352 48.0258 37.6109 48.0258 39.2258 47.5687L39.4086 49.275ZM46.6297 44.0039C46.0203 44.7961 44.6492 45.3141 42.7297 45.5578C44.3445 44.0648 45.2891 41.993 45.4414 39.7992C45.4719 39.4641 45.4719 39.1594 45.5023 38.8547C45.868 38.7937 46.2336 38.6719 46.5383 38.4586C46.5992 39.6773 46.782 40.8961 46.9953 42.0844C47.1477 42.7547 47.0258 43.4555 46.6297 44.0039Z" fill="#8F00FF"/>
<path d="M50.2276 31.9383C50.7151 31.0852 50.7456 30.0188 50.319 29.1352C49.9534 28.343 49.4049 27.0938 48.7956 25.4789C48.6128 25.0219 47.9729 25.0219 47.7901 25.4789C47.1503 27.0938 46.6323 28.343 46.2667 29.1352C45.8096 30.0188 45.8401 31.0852 46.3581 31.9383C47.1807 33.3094 49.3135 33.3094 50.2276 31.9383ZM47.2112 29.5922C47.4854 29.0133 47.851 28.1602 48.2776 27.1242C48.7042 28.1602 49.0698 29.0133 49.344 29.5922C49.6182 30.1406 49.6182 30.8109 49.3135 31.3594C48.7651 32.0297 47.7292 32.0297 47.2112 31.3594C46.9065 30.8109 46.9065 30.1406 47.2112 29.5922Z" fill="#8F00FF"/>
</svg>
