<svg width="80" height="80" viewBox="0 0 80 80" fill="none" xmlns="http://www.w3.org/2000/svg">
<path d="M40 0L74.641 20V60L40 80L5.35898 60L5.35898 20L40 0Z" fill="#EBEBEB"/>
<g clip-path="url(#clip0_507_8712)">
<path d="M59.4332 34.0198V21.1366C59.4332 20.5701 59.2082 20.0269 58.8076 19.6264C58.4071 19.2259 57.8639 19.0009 57.2975 19.0009C56.731 19.0009 56.1878 19.2259 55.7873 19.6264C55.3868 20.0269 55.1617 20.5701 55.1617 21.1366V34.0198C54.5192 34.4733 54.0377 35.1196 53.787 35.865C53.5363 36.6105 53.5294 37.4164 53.7673 38.166C54.0052 38.9157 54.4755 39.5701 55.1102 40.0346C55.7449 40.499 56.511 40.7494 57.2975 40.7494C58.0839 40.7494 58.85 40.499 59.4847 40.0346C60.1194 39.5701 60.5898 38.9157 60.8277 38.166C61.0656 37.4164 61.0587 36.6105 60.8079 35.865C60.5572 35.1196 60.0757 34.4733 59.4332 34.0198ZM57.2975 20.2598C57.5293 20.26 57.7515 20.3522 57.9154 20.5161C58.0793 20.68 58.1715 20.9023 58.1717 21.1341V24.1323H56.4232V21.1366C56.423 21.0216 56.4454 20.9077 56.4892 20.8014C56.5331 20.695 56.5974 20.5984 56.6786 20.517C56.7598 20.4356 56.8563 20.3709 56.9624 20.3268C57.0686 20.2827 57.1825 20.2599 57.2975 20.2598ZM57.2975 39.4922C56.7572 39.4918 56.2323 39.3123 55.8048 38.9819C55.3774 38.6515 55.0714 38.1887 54.9349 37.666C54.7983 37.1433 54.8388 36.59 55.0501 36.0927C55.2613 35.5955 55.6313 35.1822 56.1024 34.9176C56.1998 34.8625 56.2808 34.7826 56.3372 34.6859C56.3936 34.5893 56.4232 34.4794 56.4232 34.3675V32.6357H56.9271C57.0862 32.6241 57.235 32.5527 57.3436 32.4358C57.4522 32.319 57.5126 32.1654 57.5126 32.0058C57.5126 31.8463 57.4522 31.6927 57.3436 31.5758C57.235 31.459 57.0862 31.3876 56.9271 31.376H56.4232V29.0168H56.9271C57.0862 29.0052 57.235 28.9338 57.3436 28.8169C57.4522 28.7001 57.5126 28.5465 57.5126 28.3869C57.5126 28.2274 57.4522 28.0738 57.3436 27.9569C57.235 27.8401 57.0862 27.7687 56.9271 27.7571H56.4232V25.3971H58.1717V34.3692C58.1717 34.4811 58.2015 34.5911 58.258 34.6878C58.3145 34.7845 58.3958 34.8644 58.4934 34.9193C58.9636 35.1843 59.3329 35.5976 59.5435 36.0946C59.7542 36.5916 59.7943 37.1444 59.6577 37.6666C59.5212 38.1889 59.2155 38.6512 58.7885 38.9814C58.3616 39.3117 57.8373 39.4913 57.2975 39.4922Z" fill="#8F00FF"/>
<path d="M48.8559 52.6324C46.6807 51.7858 44.634 51.1131 43.7597 50.8335V47.6782C44.833 46.7048 45.7392 45.5542 46.2616 44.4792C46.4757 44.0366 46.6639 43.3211 46.8318 42.2998C47.6289 42.2304 48.3735 41.8737 48.9272 41.2962C49.6159 40.6008 50.0568 39.6165 50.2038 38.4483C50.2795 37.9311 50.251 37.4039 50.1198 36.8979C50.7547 35.7221 53.2188 30.7981 52.1825 27.1692C51.5358 24.9016 50.0526 24.0307 48.923 23.6973C48.3536 23.533 47.7617 23.4602 47.1695 23.4814C46.5992 22.0957 45.0698 20.164 40.984 19.6736C38.619 19.3897 36.5866 20.0246 34.7969 20.5848C33.3339 21.0408 32.0733 21.4356 30.9067 21.2743C29.311 21.0551 28.4342 19.3645 28.4267 19.3486C28.3786 19.2552 28.3082 19.1751 28.2217 19.1156C28.1351 19.0561 28.0352 19.0189 27.9308 19.0074C27.8264 18.9959 27.7208 19.0105 27.6234 19.0498C27.526 19.0891 27.4398 19.1519 27.3727 19.2327C27.3113 19.3091 25.8551 21.124 25.0639 24.1751C24.3543 26.913 24.0746 31.1954 26.6739 36.1933C26.2968 36.7812 26.1624 37.5371 26.2775 38.4483C26.4245 39.6157 26.8654 40.6008 27.5541 41.2962C28.1088 41.8746 28.8551 42.2313 29.6537 42.2998C29.8216 43.3211 30.0089 44.0366 30.2239 44.4792C30.7463 45.5542 31.6517 46.7048 32.7258 47.6782V50.8301C31.8515 51.1098 29.8048 51.7825 27.6288 52.629C23.7042 54.155 21.2309 55.5047 20.2793 56.6401C18.4796 58.7859 18 60.6218 18 61.3693C18 61.5366 18.0665 61.697 18.1847 61.8153C18.303 61.9336 18.4634 62 18.6307 62H57.8514C57.9342 62 58.0163 61.9837 58.0928 61.952C58.1693 61.9203 58.2388 61.8739 58.2974 61.8153C58.356 61.7567 58.4024 61.6872 58.4341 61.6107C58.4658 61.5341 58.4821 61.4521 58.4821 61.3693C58.4821 60.6218 58.0026 58.7859 56.207 56.6435C55.2546 55.508 52.7813 54.1584 48.8559 52.6324ZM33.9831 48.6801C35.4226 49.6736 36.915 50.2153 38.2402 50.2153C39.5655 50.2153 41.0587 49.6736 42.4982 48.6801V51.1602C42.2916 51.5708 41.262 53.2547 38.2402 53.2547C35.2185 53.2547 34.1955 51.586 33.9831 51.1593V48.6801ZM26.2708 24.5489C26.6089 23.214 27.1433 21.9367 27.8564 20.7587C28.4057 21.4482 29.3606 22.3359 30.7346 22.5223C32.1799 22.7205 33.632 22.2704 35.1689 21.7875C36.9234 21.239 38.7366 20.6721 40.8353 20.9241C44.7188 21.3902 45.8215 23.2555 46.1339 24.3255C46.1776 24.474 46.2742 24.6013 46.4055 24.6833C46.5367 24.7654 46.6935 24.7964 46.8461 24.7706C47.4379 24.697 48.0385 24.7473 48.6098 24.9184C49.7856 25.2812 50.5834 26.1538 50.9714 27.5135C51.7407 30.2077 50.1576 33.9736 49.3379 35.6524C48.8592 35.2443 48.2117 35.0032 47.4323 34.9445C47.3554 34.3834 47.1356 33.8516 46.794 33.4C44.9069 30.9149 44.4786 28.0955 44.4744 28.0678C44.4709 28.0423 44.4655 28.017 44.4584 27.9922C44.3872 27.5477 44.1601 27.1429 43.8177 26.8506C43.4753 26.5582 43.04 26.3972 42.5898 26.3965H33.8915C33.3897 26.3972 32.9087 26.5969 32.554 26.9518C32.1993 27.3066 31.9998 27.7878 31.9994 28.2895V29.3679C31.1706 29.3548 30.3431 29.2988 29.5201 29.1999C29.4298 29.1879 29.338 29.1954 29.2509 29.2219C29.1638 29.2485 29.0834 29.2935 29.0152 29.3539C28.947 29.4143 28.8926 29.4887 28.8557 29.5719C28.8188 29.6552 28.8002 29.7454 28.8012 29.8365C28.8012 29.8617 28.8457 32.1805 28.9868 34.9487C28.5191 34.982 28.0626 35.107 27.6431 35.3165C25.8315 31.7035 25.3696 28.0829 26.2708 24.5489ZM33.2608 28.2912C33.261 28.124 33.3275 27.9637 33.4458 27.8455C33.564 27.7272 33.7243 27.6607 33.8915 27.6605H42.5898C42.757 27.6607 42.9173 27.7272 43.0355 27.8455C43.1538 27.9637 43.2203 28.124 43.2205 28.2912V31.7514C43.2205 31.9187 43.1541 32.0792 43.0358 32.1977C42.9176 32.3161 42.7571 32.3827 42.5898 32.3829H33.8915C33.7242 32.3827 33.5637 32.3161 33.4455 32.1977C33.3272 32.0792 33.2608 31.9187 33.2608 31.7514V28.2912ZM31.3535 43.9274C31.2217 43.6553 31.0176 43.0212 30.8093 41.5465C30.7522 41.0896 30.271 40.9275 29.8754 41.0426C28.8793 41.0426 27.7674 40.191 27.528 38.2879C27.444 37.5883 27.5457 37.0642 27.8404 36.7291C28.2327 36.2848 28.9222 36.1916 29.432 36.1916C29.8519 36.289 30.3155 36.001 30.281 35.5399C30.1643 33.4495 30.1047 31.5263 30.0786 30.5286C30.5338 30.568 31.1872 30.6125 31.9985 30.6293V31.748C31.999 32.2499 32.1984 32.7311 32.5531 33.0861C32.9078 33.4411 33.3888 33.641 33.8907 33.6419H42.5898C43.0477 33.6411 43.4898 33.4746 43.8345 33.1731C44.1791 32.8715 44.4028 32.4554 44.4643 32.0016C44.8353 32.763 45.2792 33.4867 45.7896 34.1626C46.0851 34.5563 46.2305 35.0427 46.1994 35.534C46.1608 35.9968 46.6278 36.2899 47.0485 36.1916C47.5583 36.1916 48.2478 36.2848 48.64 36.7291C48.9348 37.0651 49.0398 37.5883 48.9516 38.2879C48.7131 40.191 47.6011 41.0426 46.6051 41.0426C46.2095 40.9241 45.7283 41.0871 45.6712 41.5465C45.4629 43.0195 45.2588 43.6553 45.127 43.9274C43.9747 46.3 40.785 48.953 38.2402 48.953C35.6955 48.953 32.5066 46.3 31.3535 43.9274ZM19.3731 60.7403C19.5814 59.9844 20.113 58.8036 21.2418 57.4565C22.8022 55.5962 29.8712 53.0649 33.045 52.0554C33.5942 52.9154 35.0488 54.517 38.2402 54.517C41.4316 54.517 42.8871 52.9154 43.4363 52.0529C46.6093 53.0607 53.6824 55.5928 55.2395 57.4539C56.3699 58.8027 56.9016 59.9844 57.109 60.7403H19.3731Z" fill="#8F00FF"/>
<path d="M36.0048 44.2255C36.0814 44.2562 36.1634 44.2715 36.2461 44.2705C36.3287 44.2694 36.4102 44.2521 36.4862 44.2195C36.5621 44.1869 36.6308 44.1396 36.6884 44.0804C36.746 44.0212 36.7914 43.9512 36.8219 43.8745C36.9514 43.609 37.1529 43.3852 37.4034 43.2287C37.6539 43.0722 37.9434 42.9892 38.2387 42.9892C38.5341 42.9892 38.8236 43.0722 39.0741 43.2287C39.3246 43.3852 39.5261 43.609 39.6556 43.8745C39.6864 43.9513 39.7322 44.0214 39.7901 44.0806C39.848 44.1398 39.9171 44.187 39.9933 44.2195C40.0695 44.252 40.1513 44.2692 40.2342 44.2701C40.317 44.271 40.3992 44.2556 40.4761 44.2247C40.553 44.1938 40.623 44.1481 40.6822 44.0901C40.7414 44.0322 40.7886 43.9631 40.8211 43.887C40.8536 43.8108 40.8708 43.7289 40.8717 43.6461C40.8726 43.5632 40.8572 43.481 40.8263 43.4042C40.7994 43.3353 40.1401 41.7245 38.2387 41.7245C36.3373 41.7245 35.6789 43.3319 35.652 43.4042C35.5904 43.5599 35.5929 43.7337 35.659 43.8876C35.7251 44.0415 35.8494 44.1629 36.0048 44.2255ZM35.7192 36.5611C35.7809 36.4052 35.7781 36.2312 35.7115 36.0773C35.6449 35.9234 35.5199 35.8023 35.364 35.7406C35.208 35.6789 35.034 35.6817 34.8801 35.7483C34.7262 35.8149 34.6051 35.9399 34.5434 36.0958C34.5434 36.1026 34.2142 36.7761 32.8864 36.7089C32.7247 36.7094 32.5694 36.772 32.4524 36.8836C32.3354 36.9952 32.2657 37.1475 32.2577 37.3089C32.2496 37.4704 32.3038 37.6289 32.409 37.7516C32.5143 37.8743 32.6626 37.952 32.8234 37.9687C32.9074 37.9729 32.9864 37.9746 33.0645 37.9746C34.7114 37.9804 35.5067 37.1011 35.7192 36.5611ZM26.947 43.4327C26.816 43.3288 26.649 43.2812 26.4828 43.3004C26.3166 43.3197 26.1649 43.4041 26.061 43.5352C26.0249 43.5814 25.1649 44.6849 25.1649 46.4066C25.1649 47.3119 25.4731 47.9746 25.7377 48.5625C25.9896 49.1227 26.2365 49.6543 26.2365 50.4101C26.2321 50.4956 26.2451 50.581 26.2748 50.6613C26.3045 50.7416 26.3501 50.815 26.4091 50.877C26.468 50.9391 26.5389 50.9885 26.6175 51.0222C26.6962 51.056 26.7808 51.0734 26.8664 51.0734C26.952 51.0734 27.0367 51.056 27.1153 51.0222C27.1939 50.9885 27.2648 50.9391 27.3238 50.877C27.3827 50.815 27.4284 50.7416 27.458 50.6613C27.4877 50.581 27.5007 50.4956 27.4963 50.4101C27.4963 49.378 27.1704 48.6658 26.8824 48.0376C26.6371 47.5009 26.4247 47.0373 26.4247 46.4074C26.4181 45.6636 26.6361 44.935 27.0503 44.3171C27.1536 44.186 27.2007 44.0193 27.1814 43.8535C27.162 43.6878 27.0777 43.5365 26.947 43.4327ZM21.7938 52.4132C21.8021 52.5746 21.8721 52.7267 21.9893 52.838C22.1065 52.9493 22.262 53.0113 22.4236 53.0113C22.5853 53.0113 22.7408 52.9493 22.858 52.838C22.9752 52.7267 23.0452 52.5746 23.0535 52.4132C23.0535 51.3802 22.7277 50.6688 22.4404 50.0406C22.1952 49.5039 21.9827 49.0403 21.9827 48.4096C21.9818 47.9231 22.0736 47.4408 22.2531 46.9886C22.2837 46.9114 22.2987 46.8289 22.2974 46.7459C22.2961 46.6629 22.2784 46.581 22.2455 46.5048C22.2125 46.4286 22.1648 46.3596 22.1052 46.3019C22.0455 46.2441 21.9751 46.1986 21.8979 46.1681C21.8207 46.1375 21.7382 46.1225 21.6552 46.1238C21.5722 46.1251 21.4902 46.1428 21.4141 46.1758C21.3379 46.2088 21.2689 46.2564 21.2111 46.3161C21.1534 46.3757 21.1079 46.4461 21.0774 46.5233C20.8396 47.1238 20.7179 47.7638 20.7188 48.4096C20.7188 49.315 21.0228 49.9793 21.2907 50.5655C21.5519 51.1265 21.7938 51.6556 21.7938 52.4132ZM48.9803 50.4101C48.9759 50.4956 48.9889 50.581 49.0186 50.6613C49.0483 50.7416 49.0939 50.815 49.1529 50.877C49.2118 50.9391 49.2827 50.9885 49.3614 51.0222C49.44 51.056 49.5247 51.0734 49.6102 51.0734C49.6958 51.0734 49.7805 51.056 49.8591 51.0222C49.9377 50.9885 50.0086 50.9391 50.0676 50.877C50.1265 50.815 50.1722 50.7416 50.2018 50.6613C50.2315 50.581 50.2445 50.4956 50.2401 50.4101C50.2401 49.6543 50.4828 49.1235 50.739 48.5625C51.0069 47.9746 51.3109 47.3119 51.3109 46.4066C51.3109 44.6849 50.4517 43.5814 50.4148 43.5352C50.3642 43.4681 50.3008 43.4118 50.2282 43.3696C50.1556 43.3274 50.0753 43.3002 49.992 43.2894C49.9087 43.2787 49.8241 43.2847 49.7431 43.307C49.6622 43.3294 49.5865 43.3677 49.5206 43.4197C49.4547 43.4718 49.3998 43.5364 49.3592 43.6099C49.3186 43.6834 49.293 43.7643 49.2841 43.8478C49.2751 43.9313 49.283 44.0158 49.3071 44.0962C49.3312 44.1766 49.3712 44.2514 49.4246 44.3162C49.8385 44.9342 50.0563 45.6628 50.0495 46.4066C50.0495 47.0365 49.8378 47.4984 49.5917 48.0367C49.3062 48.6649 48.9803 49.3771 48.9803 50.4101ZM53.4231 52.4132C53.4314 52.5746 53.5014 52.7267 53.6187 52.838C53.7359 52.9493 53.8913 53.0113 54.053 53.0113C54.2146 53.0113 54.3701 52.9493 54.4873 52.838C54.6045 52.7267 54.6745 52.5746 54.6829 52.4132C54.6829 51.6573 54.9248 51.1265 55.1809 50.5655C55.4497 49.9776 55.7537 49.315 55.7537 48.4096C55.7545 47.7638 55.6328 47.1238 55.3951 46.5233C55.3334 46.3674 55.2123 46.2424 55.0584 46.1758C54.9045 46.1092 54.7305 46.1064 54.5745 46.1681C54.4186 46.2298 54.2936 46.3509 54.227 46.5048C54.1603 46.6586 54.1576 46.8327 54.2193 46.9886C54.3989 47.4408 54.4907 47.9231 54.4897 48.4096C54.4897 49.0403 54.2772 49.5014 54.032 50.0406C53.749 50.6688 53.4231 51.3802 53.4231 52.4132ZM40.7583 36.5611C40.6966 36.4052 40.6993 36.2312 40.766 36.0773C40.8326 35.9234 40.9576 35.8023 41.1135 35.7406C41.2694 35.6789 41.4435 35.6817 41.5974 35.7483C41.7512 35.8149 41.8723 35.9399 41.934 36.0958C41.934 36.1026 42.2633 36.7761 43.5911 36.7089C43.7527 36.7094 43.9081 36.772 44.025 36.8836C44.142 36.9952 44.2117 37.1475 44.2198 37.3089C44.2279 37.4704 44.1737 37.6289 44.0685 37.7516C43.9632 37.8743 43.8149 37.952 43.654 37.9687C43.5701 37.9729 43.4911 37.9746 43.413 37.9746C41.7661 37.9804 40.9716 37.1011 40.7583 36.5611Z" fill="#8F00FF"/>
</g>
<defs>
<clipPath id="clip0_507_8712">
<rect width="43" height="43" fill="white" transform="translate(18 19)"/>
</clipPath>
</defs>
</svg>
