<svg width="80" height="80" viewBox="0 0 80 80" fill="none" xmlns="http://www.w3.org/2000/svg">
<path d="M40 0L74.641 20V60L40 80L5.35898 60L5.35898 20L40 0Z" fill="#EBEBEB"/>
<path d="M46.8423 47.921C48.5643 46.937 49.7123 45.092 49.7123 43.001C49.7123 42.017 49.4663 41.115 49.0153 40.295C50.0813 40.008 50.8193 39.024 50.8193 37.876C50.8193 37.343 50.6553 36.81 50.3273 36.4C52.5823 33.12 53.5253 29.061 53.3613 23.69C53.3613 23.444 53.1973 23.239 52.9923 23.157C52.7873 23.075 52.5413 23.116 52.3363 23.239C50.2863 25.002 47.1703 24.141 43.8493 23.198C39.0113 21.845 33.5173 20.328 29.9913 26.724C28.4333 26.683 27.0803 27.503 26.3013 29.02C25.0713 31.357 25.3583 34.76 26.9573 36.892C26.8753 37.22 26.7933 37.548 26.7933 37.876C26.7933 39.024 27.5723 39.967 28.5973 40.295C28.1463 41.115 27.9003 42.058 27.9003 43.001C27.9003 45.133 29.0483 46.937 30.7703 47.921C28.3923 49.028 26.1783 50.873 26.1783 55.137V57.023C26.1783 58.089 27.0393 58.95 28.1053 58.95H49.4663C50.5323 58.95 51.3933 58.089 51.3933 57.023V55.137C51.4343 50.914 49.2203 49.069 46.8423 47.921ZM48.3593 39.147H48.2363L47.8673 38.778V36.605H48.3593C49.0563 36.605 49.6303 37.179 49.6303 37.876C49.6303 38.573 49.0563 39.147 48.3593 39.147ZM27.4493 29.635C27.9003 28.815 28.7613 27.831 30.3193 28.036C30.5653 28.077 30.8113 27.954 30.9343 27.708C34.0093 21.804 38.6423 23.075 43.5623 24.469C46.5963 25.33 49.7533 26.191 52.1723 24.92C52.2133 29.389 51.3113 32.833 49.4253 35.662C49.0973 35.498 48.7283 35.416 48.3593 35.416H47.8673V34.678C47.8673 34.022 47.6213 33.448 47.1293 33.079C46.6373 32.71 46.0223 32.587 45.3253 32.792C43.1113 33.366 41.2663 32.751 39.2573 32.095C36.7153 31.275 34.0913 30.414 30.9753 32.382C29.7863 33.161 29.7863 34.063 29.7863 35.047V35.375H29.2943C28.7203 35.375 28.1873 35.58 27.7773 35.908C26.6703 34.104 26.4653 31.439 27.4493 29.635ZM28.0233 37.876C28.0233 37.179 28.5973 36.605 29.2943 36.605H29.7863V38.778L29.4173 39.147H29.2943C28.5973 39.147 28.0233 38.573 28.0233 37.876ZM29.1713 43.001C29.1713 41.648 29.7863 40.377 30.8523 39.557C31.0163 39.434 31.0983 39.229 31.0983 39.065V35.006C31.0983 34.104 31.0983 33.776 31.7133 33.366C32.9023 32.628 33.9683 32.341 35.0343 32.341C36.3463 32.341 37.6173 32.751 38.9703 33.202C41.0203 33.858 43.1523 34.555 45.7353 33.899C46.0223 33.817 46.3093 33.858 46.4733 33.981C46.6783 34.145 46.7193 34.391 46.7193 34.596V39.024C46.7193 39.229 46.8013 39.393 46.9653 39.516C48.0313 40.377 48.6053 41.607 48.6053 42.96C48.6053 45.42 46.6373 47.388 44.1773 47.388H33.5993C31.1393 47.429 29.1713 45.461 29.1713 43.001ZM41.6763 48.659C41.1023 49.848 40.0363 50.627 38.8473 50.627C37.6583 50.627 36.5513 49.848 36.0183 48.659H41.6763ZM50.2043 57.023C50.2043 57.392 49.9173 57.72 49.5073 57.72H28.1463C27.7773 57.72 27.4493 57.392 27.4493 57.023V55.137C27.4493 51.406 29.2943 49.889 32.0413 48.741L32.4513 48.577C32.8203 48.659 33.1893 48.7 33.5583 48.7H34.6653C35.3213 50.627 36.9613 51.898 38.8063 51.898C40.6513 51.898 42.2913 50.586 42.9473 48.7H44.0543C44.4233 48.7 44.8333 48.659 45.1613 48.577L45.5713 48.741C48.3183 49.889 50.1633 51.406 50.1633 55.137V57.023H50.2043Z" fill="#8F00FF"/>
<path d="M34.176 39.475C34.299 39.639 34.463 39.68 34.627 39.68C34.75 39.68 34.914 39.639 35.037 39.516L36.472 38.286C36.595 38.163 36.677 37.999 36.677 37.835C36.677 37.671 36.595 37.466 36.472 37.384L35.037 36.154C34.791 35.949 34.381 35.949 34.176 36.236C33.971 36.482 33.971 36.892 34.258 37.097L35.16 37.835L34.258 38.573C34.012 38.86 33.971 39.229 34.176 39.475ZM42.622 39.557C42.745 39.639 42.868 39.721 43.032 39.721C43.196 39.721 43.36 39.639 43.483 39.516C43.688 39.27 43.688 38.86 43.401 38.655L42.499 37.917L43.401 37.179C43.647 36.974 43.688 36.564 43.483 36.318C43.278 36.072 42.868 36.031 42.622 36.236L41.187 37.466C41.064 37.589 40.982 37.753 40.982 37.917C40.982 38.081 41.064 38.286 41.187 38.368L42.622 39.557ZM36.062 41.73C35.816 41.484 35.447 41.484 35.201 41.73C34.955 41.976 34.955 42.345 35.201 42.591C35.775 43.165 35.775 44.108 35.201 44.641C34.955 44.887 34.955 45.256 35.201 45.502C35.324 45.625 35.488 45.666 35.652 45.666C35.816 45.666 35.98 45.625 36.103 45.502C36.472 45.133 36.718 44.682 36.8 44.231H40.9C41.023 44.723 41.228 45.133 41.597 45.502C41.72 45.625 41.884 45.666 42.048 45.666C42.212 45.666 42.376 45.625 42.499 45.502C42.745 45.256 42.745 44.887 42.499 44.641C41.925 44.067 41.925 43.124 42.499 42.591C42.745 42.345 42.745 41.976 42.499 41.73C42.253 41.484 41.884 41.484 41.638 41.73C41.269 42.099 41.023 42.55 40.941 43.001H36.841C36.677 42.55 36.431 42.099 36.062 41.73Z" fill="#8F00FF"/>
</svg>
