<svg width="80" height="80" viewBox="0 0 80 80" fill="none" xmlns="http://www.w3.org/2000/svg">
<path d="M40 0L74.641 20V60L40 80L5.35898 60L5.35898 20L40 0Z" fill="#EBEBEB"/>
<g clip-path="url(#clip0_507_8717)">
<path d="M42.2972 41.5439L49.121 34.7201C49.7837 34.0566 49.7837 32.9824 49.121 32.3197L47.6807 30.8794C47.018 30.2167 45.943 30.2167 45.2803 30.8794L29.8798 46.2799C29.2171 46.9426 29.2171 48.0176 29.8798 48.6802L31.3202 50.1206C31.9828 50.7833 33.0578 50.7833 33.7205 50.1206L40.2185 43.6226" stroke="#8F00FF" stroke-width="1.25979" stroke-miterlimit="10" stroke-linecap="round" stroke-linejoin="round"/>
<path d="M42.3394 30.6988L44.9254 28.1137C43.8554 26.9219 43.4464 25.348 43.6967 23.8631C43.7263 23.6885 43.817 23.5301 43.9524 23.416C44.0879 23.3019 44.2595 23.2395 44.4366 23.2399H44.4425C45.1924 23.2399 45.7997 22.6319 45.7997 21.8819C45.7997 21.6845 45.7577 21.4972 45.6821 21.3284C45.5385 21.0076 45.6628 20.6263 45.9584 20.4365C47.854 19.217 50.4071 19.3783 52.128 20.9362C53.2056 21.9113 53.7641 23.2282 53.8052 24.5585C53.8321 25.4488 54.5502 26.1677 55.4404 26.1937C56.7708 26.2349 58.0877 26.7934 59.0636 27.8709C60.8324 29.8253 60.7996 32.853 58.9914 34.7721C57.0782 36.802 53.922 36.9028 51.8853 35.0736L37.3935 49.5654M35.3148 51.6441L34.0727 52.8862C35.9019 54.9229 35.8011 58.0791 33.7712 59.9923C31.8521 61.8005 28.8244 61.8333 26.87 60.0637C25.7925 59.0886 25.234 57.7717 25.1928 56.4414C25.1668 55.5511 24.4479 54.8322 23.5576 54.8062C22.2273 54.765 20.9104 54.2065 19.9344 53.129C18.1657 51.1746 18.1985 48.1469 20.0067 46.2278C20.5887 45.6105 21.2858 45.1713 22.0316 44.9109C22.2693 44.8278 22.5389 44.9403 22.6396 45.1713C22.8488 45.6508 23.3275 45.9859 23.8843 45.9859C24.4059 45.9859 24.8594 45.692 25.087 45.2603C25.2054 45.0344 25.4792 44.9336 25.7135 45.0335C26.2261 45.2517 26.6989 45.5534 27.1127 45.9263L34.4968 38.5414C34.5251 38.5131 34.5587 38.4908 34.5958 38.4757C34.6328 38.4606 34.6725 38.453 34.7125 38.4535C34.7524 38.454 34.7919 38.4624 34.8286 38.4784C34.8653 38.4944 34.8984 38.5175 34.926 38.5464C34.9369 38.5582 34.947 38.5691 34.9579 38.5792C35.7642 39.3863 37.1281 39.2939 37.8075 38.3037C38.314 37.5655 38.1972 36.5534 37.5522 35.9328C37.5489 35.9303 37.5455 35.9269 37.5421 35.9235C37.4212 35.8085 37.4229 35.6153 37.5405 35.4977L40.2608 32.7774" stroke="#8F00FF" stroke-width="1.25979" stroke-miterlimit="10" stroke-linecap="round" stroke-linejoin="round"/>
</g>
<defs>
<clipPath id="clip0_507_8717">
<rect width="43" height="43" fill="white" transform="translate(18 19)"/>
</clipPath>
</defs>
</svg>
