<svg width="80" height="80" viewBox="0 0 80 80" fill="none" xmlns="http://www.w3.org/2000/svg">
<path d="M40 0L74.641 20V60L40 80L5.35898 60L5.35898 20L40 0Z" fill="#EBEBEB"/>
<path d="M46.25 15H33.75C32.0242 15 30.625 16.3992 30.625 18.125C30.625 19.4846 31.4947 20.6427 32.7078 21.0715V57.7078C32.7078 61.7347 35.9732 65 40 65C44.0268 65 47.2922 61.7347 47.2922 57.7078V21.0715C48.5053 20.6427 49.375 19.4846 49.375 18.125C49.375 16.3992 47.9758 15 46.25 15ZM45.2078 57.7078C45.2078 60.5796 42.8717 62.9157 40 62.9157C37.1283 62.9157 34.7922 60.5796 34.7922 57.7078V48.3328H37.9172C38.4925 48.3328 38.9578 47.8659 38.9578 47.2907C38.9579 47.154 38.931 47.0187 38.8788 46.8924C38.8265 46.7661 38.7499 46.6513 38.6532 46.5547C38.5566 46.458 38.4418 46.3813 38.3155 46.3291C38.1892 46.2768 38.0539 46.2499 37.9172 46.25H34.7922V42.0829H37.9172C38.4925 42.0829 38.9578 41.616 38.9578 41.0406C38.9579 40.9039 38.931 40.7686 38.8788 40.6423C38.8265 40.516 38.7498 40.4013 38.6532 40.3046C38.5565 40.208 38.4418 40.1313 38.3155 40.0791C38.1892 40.0268 38.0539 39.9999 37.9172 40H34.7922V35.8328H45.2078V57.7078ZM45.2078 33.75H34.7922V21.25H45.2078V33.75ZM46.25 19.1656H33.75C33.1763 19.1656 32.7078 18.6987 32.7078 18.125C32.7078 17.5497 33.1763 17.0828 33.75 17.0828H46.25C46.8237 17.0828 47.2922 17.5497 47.2922 18.125C47.2922 18.6987 46.8237 19.1656 46.25 19.1656Z" fill="#8F00FF"/>
</svg>
