<svg width="80" height="80" viewBox="0 0 80 80" fill="none" xmlns="http://www.w3.org/2000/svg">
<path d="M40 0L74.641 20V60L40 80L5.35898 60L5.35898 20L40 0Z" fill="#EBEBEB"/>
<path d="M59.1875 23.625V27.8438C54.0406 27.8438 46.8041 28.9055 39.8066 29.9306C32.6586 30.9783 25.2673 32.0625 19.8125 32.0625V27.8438C24.9594 27.8438 32.1959 26.782 39.1934 25.7569C46.3414 24.7092 53.7327 23.625 59.1875 23.625ZM59.1875 48.9375V53.1562C54.0406 53.1562 46.8041 54.218 39.8066 55.2431C32.6586 56.2908 25.2673 57.375 19.8125 57.375V53.1562C24.9594 53.1562 32.1959 52.0945 39.1934 51.0694C46.3414 50.0217 53.7327 48.9375 59.1875 48.9375ZM28.25 39.0938C28.25 41.4239 26.6764 43.3125 24.7344 43.3125C22.7923 43.3125 21.2188 41.4239 21.2188 39.0938C21.2188 36.7636 22.7923 34.875 24.7344 34.875C26.6764 34.875 28.25 36.7636 28.25 39.0938ZM39.5 44.0156C39.5 45.9577 37.6114 47.5312 35.2812 47.5312C32.9511 47.5312 31.0625 45.9577 31.0625 44.0156C31.0625 42.0736 32.9511 40.5 35.2812 40.5C37.6114 40.5 39.5 42.0736 39.5 44.0156ZM47.9375 36.2812C47.9375 38.6114 46.3639 40.5 44.4219 40.5C42.4798 40.5 40.9062 38.6114 40.9062 36.2812C40.9062 33.9511 42.4798 32.0625 44.4219 32.0625C46.3639 32.0625 47.9375 33.9511 47.9375 36.2812ZM57.7812 41.9062C57.7812 44.2364 56.2077 46.125 54.2656 46.125C52.3236 46.125 50.75 44.2364 50.75 41.9062C50.75 39.5761 52.3236 37.6875 54.2656 37.6875C56.2077 37.6875 57.7812 39.5761 57.7812 41.9062ZM54.9688 32.0625C54.9688 32.4355 54.8206 32.7931 54.5569 33.0569C54.2931 33.3206 53.9355 33.4688 53.5625 33.4688C53.1895 33.4688 52.8319 33.3206 52.5681 33.0569C52.3044 32.7931 52.1562 32.4355 52.1562 32.0625C52.1562 31.6895 52.3044 31.3319 52.5681 31.0681C52.8319 30.8044 53.1895 30.6562 53.5625 30.6562C53.9355 30.6562 54.2931 30.8044 54.5569 31.0681C54.8206 31.3319 54.9688 31.6895 54.9688 32.0625ZM46.5312 46.125C46.5312 46.498 46.3831 46.8556 46.1194 47.1194C45.8556 47.3831 45.498 47.5312 45.125 47.5312C44.752 47.5312 44.3944 47.3831 44.1306 47.1194C43.8669 46.8556 43.7188 46.498 43.7188 46.125C43.7188 45.752 43.8669 45.3944 44.1306 45.1306C44.3944 44.8669 44.752 44.7188 45.125 44.7188C45.498 44.7188 45.8556 44.8669 46.1194 45.1306C46.3831 45.3944 46.5312 45.752 46.5312 46.125ZM35.2812 36.2812C35.2812 36.6542 35.1331 37.0119 34.8694 37.2756C34.6056 37.5393 34.248 37.6875 33.875 37.6875C33.502 37.6875 33.1444 37.5393 32.8806 37.2756C32.6169 37.0119 32.4688 36.6542 32.4688 36.2812C32.4688 35.9083 32.6169 35.5506 32.8806 35.2869C33.1444 35.0232 33.502 34.875 33.875 34.875C34.248 34.875 34.6056 35.0232 34.8694 35.2869C35.1331 35.5506 35.2812 35.9083 35.2812 36.2812ZM26.8438 47.5312C26.8438 47.9042 26.6956 48.2619 26.4319 48.5256C26.1681 48.7893 25.8105 48.9375 25.4375 48.9375C25.0645 48.9375 24.7069 48.7893 24.4431 48.5256C24.1794 48.2619 24.0312 47.9042 24.0312 47.5312C24.0312 47.1583 24.1794 46.8006 24.4431 46.5369C24.7069 46.2732 25.0645 46.125 25.4375 46.125C25.8105 46.125 26.1681 46.2732 26.4319 46.5369C26.6956 46.8006 26.8438 47.1583 26.8438 47.5312Z" fill="#8F00FF"/>
</svg>
