<svg width="80.000000" height="80.000000" viewBox="0 0 80 80" fill="none" xmlns="http://www.w3.org/2000/svg" xmlns:xlink="http://www.w3.org/1999/xlink">
	<desc>
			Created with Pixso.
	</desc>
	<defs>
		<clipPath id="clip507_8210">
			<rect id="svg-gobbler (2) 1" width="40.000000" height="40.000000" transform="translate(20.062500 19.558105)" fill="white" fill-opacity="0"/>
		</clipPath>
	</defs>
	<path id="Polygon 3" d="M40 0L5.35 20L5.35 60L40 80L74.64 60L74.64 20L40 0Z" fill="#E8E8E8" fill-opacity="1.000000" fill-rule="evenodd"/>
	<rect id="svg-gobbler (2) 1" width="40.000000" height="40.000000" transform="translate(20.062500 19.558105)" fill="#FFFFFF" fill-opacity="0"/>
	<g clip-path="url(#clip507_8210)">
		<path id="Vector" d="M35.7 32.03C35.7 33.57 34.45 34.82 32.91 34.82C31.37 34.82 30.13 33.57 30.13 32.03C30.13 30.5 31.37 29.25 32.91 29.25C34.45 29.25 35.7 30.5 35.7 32.03Z" fill="#8F00FF" fill-opacity="1.000000" fill-rule="evenodd"/>
		<path id="Vector" d="M38.85 33.25C38.54 33.23 38.23 33.28 37.94 33.39C37.66 33.5 37.39 33.66 37.17 33.87C36.94 34.09 36.76 34.34 36.64 34.63C36.52 34.91 36.46 35.21 36.46 35.52L36.46 38.15L51.64 38.15C51.75 38.15 51.87 38.11 51.96 38.04C52.05 37.98 52.12 37.88 52.16 37.77C52.2 37.66 52.21 37.54 52.17 37.43C52.14 37.32 52.08 37.22 51.99 37.15C50.33 35.83 46.48 33.64 38.85 33.25ZM34.3 37.68C34.3 37.33 34.19 36.99 33.97 36.72C33.75 36.45 33.45 36.26 33.11 36.19L28 35.06C27.87 35.03 27.74 35.03 27.61 35.06C27.49 35.09 27.37 35.15 27.27 35.23C27.17 35.31 27.08 35.41 27.03 35.53C26.97 35.65 26.94 35.78 26.94 35.91L26.94 38.07L34.3 38.07L34.3 37.68Z" fill="#8F00FF" fill-opacity="1.000000" fill-rule="nonzero"/>
		<path id="Vector" d="M58.23 46.27L58.23 35.26C58.23 34.87 58.07 34.51 57.8 34.23C57.53 33.96 57.16 33.81 56.78 33.81C56.39 33.81 56.03 33.96 55.75 34.23C55.48 34.51 55.33 34.87 55.33 35.26L55.33 39.64L24.79 39.64L24.79 28.01C24.79 27.2 24.14 26.56 23.34 26.56C22.54 26.56 21.89 27.2 21.89 28.01L21.89 46.27C21.37 46.53 20.92 46.93 20.6 47.42C20.28 47.92 20.09 48.49 20.07 49.08C20.04 49.67 20.17 50.26 20.44 50.78C20.72 51.3 21.13 51.74 21.63 52.05C22.14 52.36 22.71 52.53 23.3 52.54C23.89 52.56 24.48 52.41 24.99 52.13C25.51 51.84 25.94 51.42 26.23 50.91C26.53 50.4 26.69 49.82 26.69 49.23C26.69 48.6 26.51 47.99 26.17 47.46C25.84 46.92 25.36 46.5 24.79 46.23L24.79 43.61L55.33 43.61L55.33 46.23C54.76 46.5 54.28 46.92 53.94 47.46C53.6 47.99 53.42 48.6 53.42 49.23C53.42 51.06 54.91 52.55 56.74 52.55C58.57 52.55 60.06 51.06 60.06 49.23C60.06 48.62 59.89 48.01 59.56 47.49C59.24 46.96 58.78 46.54 58.23 46.27ZM25.24 49.23C25.24 50.26 24.41 51.1 23.38 51.1C23.03 51.09 22.69 51 22.39 50.81C22.1 50.63 21.86 50.37 21.71 50.05C21.55 49.74 21.49 49.4 21.52 49.05C21.56 48.7 21.69 48.37 21.89 48.1L21.89 48.31C21.89 48.7 22.05 49.07 22.32 49.34C22.59 49.61 22.96 49.76 23.34 49.76C23.73 49.76 24.1 49.61 24.37 49.34C24.64 49.07 24.79 48.7 24.79 48.31L24.79 48.02C25.07 48.34 25.24 48.77 25.24 49.23ZM56.74 51.1C56.39 51.09 56.04 50.99 55.74 50.8C55.44 50.61 55.2 50.33 55.05 50.01C54.9 49.69 54.85 49.33 54.9 48.97C54.94 48.62 55.1 48.29 55.33 48.02L55.33 48.31C55.33 48.69 55.48 49.06 55.75 49.33C56.02 49.6 56.39 49.76 56.77 49.76C57.16 49.76 57.53 49.6 57.8 49.33C58.07 49.06 58.22 48.69 58.22 48.31L58.22 48.1C58.43 48.37 58.56 48.7 58.59 49.05C58.63 49.4 58.57 49.74 58.41 50.06C58.26 50.37 58.02 50.63 57.73 50.81C57.43 51 57.09 51.09 56.74 51.1Z" fill="#8F00FF" fill-opacity="1.000000" fill-rule="nonzero"/>
	</g>
</svg>
