<svg width="80.000000" height="80.000000" viewBox="0 0 80 80" fill="none" xmlns="http://www.w3.org/2000/svg" xmlns:xlink="http://www.w3.org/1999/xlink">
	<desc>
			Created with Pixso.
	</desc>
	<defs>
		<clipPath id="clip507_8233">
			<rect id="svg-gobbler 3" width="43.000000" height="48.068439" transform="translate(19.000000 16.000000)" fill="white" fill-opacity="0"/>
		</clipPath>
	</defs>
	<path id="Polygon 3" d="M40 0L5.35 20L5.35 60L40 80L74.64 60L74.64 20L40 0Z" fill="#E8E8E8" fill-opacity="1.000000" fill-rule="evenodd"/>
	<rect id="svg-gobbler 3" width="43.000000" height="48.068439" transform="translate(19.000000 16.000000)" fill="#FFFFFF" fill-opacity="0"/>
	<g clip-path="url(#clip507_8233)">
		<path id="Vector" d="M41.52 61.28C32.83 61.28 25.78 54.37 25.78 45.84C25.78 33.33 41.52 20.52 41.52 20.52C41.52 20.52 57.25 33.33 57.25 45.84C57.25 54.37 50.21 61.28 41.52 61.28Z" stroke="#8F00FF" stroke-opacity="1.000000" stroke-width="2.452471"/>
		<path id="Vector" d="M31.97 39.15L36.59 39.15L37.47 43.62" stroke="#8F00FF" stroke-opacity="1.000000" stroke-width="2.452471"/>
		<path id="Vector" d="M41.52 53.13C37.11 53.13 33.54 49.62 33.54 45.29C33.54 42.95 34.59 40.84 36.26 39.4M51.07 51.44L46.44 51.44L45.57 46.97" stroke="#8F00FF" stroke-opacity="1.000000" stroke-width="2.452471"/>
		<path id="Vector" d="M41.52 37.46C45.92 37.46 49.5 40.97 49.5 45.29C49.5 47.64 48.44 49.75 46.78 51.19" stroke="#8F00FF" stroke-opacity="1.000000" stroke-width="2.452471"/>
	</g>
	<rect id="svg-gobbler (1) 1" width="31.000000" height="31.000000" transform="translate(25.000000 24.000000)" fill="#FFFFFF" fill-opacity="0"/>
</svg>
