<svg width="80.000000" height="80.000000" viewBox="0 0 80 80" fill="none" xmlns="http://www.w3.org/2000/svg" xmlns:xlink="http://www.w3.org/1999/xlink">
	<desc>
			Created with Pixso.
	</desc>
	<defs>
		<clipPath id="clip507_8186">
			<rect id="svg-gobbler (1) 2" width="52.000000" height="57.969696" transform="translate(14.000000 11.000000)" fill="white" fill-opacity="0"/>
		</clipPath>
	</defs>
	<path id="Polygon 3" d="M40 0L5.35 20L5.35 60L40 80L74.64 60L74.64 20L40 0Z" fill="#E8E8E8" fill-opacity="1.000000" fill-rule="evenodd"/>
	<rect id="svg-gobbler (1) 2" width="52.000000" height="57.969696" transform="translate(14.000000 11.000000)" fill="#FFFFFF" fill-opacity="0"/>
	<g clip-path="url(#clip507_8186)">
		<path id="Vector" d="M28.92 35.13L26.01 32.91L27.01 30.32L29.97 31.11M30.93 29.8L30.23 26.18L32.18 25.27L34.05 27.86" stroke="#8F00FF" stroke-opacity="1.000000" stroke-width="1.453252" stroke-linejoin="round"/>
		<path id="Vector" d="M29.65 38.53C29.18 37.51 28.92 36.36 28.92 35.13C28.92 31.41 31.35 28.33 34.55 27.75M48.47 32.93C48.48 32.91 48.49 32.89 48.5 32.86C48.94 31.89 49.82 31.32 50.73 31.31C51.46 31.3 52.1 30.78 52.31 30.01C52.5 29.31 52.22 28.56 51.64 28.23C51.62 28.22 51.61 28.21 51.59 28.2C48.64 26.53 44.99 27.78 43.39 31" stroke="#8F00FF" stroke-opacity="1.000000" stroke-width="1.453252" stroke-linejoin="round"/>
		<path id="Vector" d="M43.76 31.06C47.78 31.06 51.04 34.69 51.04 39.18L51.04 39.15L51.04 51.47C51.04 56.1 47.67 59.85 43.52 59.85C35.38 59.85 28.78 52.49 28.78 43.41C28.78 37.66 32.28 32.82 37.05 31.41" stroke="#8F00FF" stroke-opacity="1.000000" stroke-width="1.453252" stroke-linejoin="round" stroke-linecap="round"/>
		<path id="Vector" d="M43.22 53.93C42.58 52.63 42.25 51.17 42.25 49.69C42.25 48.21 42.58 46.75 43.22 45.45C43.85 44.15 44.18 42.7 44.18 41.22C44.18 39.74 43.85 38.28 43.22 36.98" stroke="#8F00FF" stroke-opacity="1.000000" stroke-width="1.453252" stroke-linejoin="round" stroke-linecap="round"/>
		<path id="Vector" d="M38.46 45.61C39.75 45.26 40.94 44.55 41.92 43.55C42.91 42.56 43.65 41.3 44.08 39.91" stroke="#8F00FF" stroke-opacity="1.000000" stroke-width="1.453252" stroke-linejoin="round" stroke-linecap="round"/>
		<path id="Vector" d="M38.47 42.88C39.51 43.36 40.64 43.58 41.76 43.54M46.93 52.09C45.92 51.51 45.03 50.7 44.33 49.71C43.63 48.71 43.12 47.56 42.85 46.34" stroke="#8F00FF" stroke-opacity="1.000000" stroke-width="1.453252" stroke-linejoin="round"/>
		<path id="Vector" d="M47.49 49.44C46.38 49.63 45.24 49.56 44.15 49.22M35.01 32.18C34.67 31.19 34.49 30.11 34.49 28.99C34.49 24.02 38.1 20 42.56 20C43.12 20 43.66 20.06 44.18 20.18L43.76 23.74C41.95 23.74 40.48 25.38 40.48 27.4C40.48 29.42 41.95 31.06 43.76 31.06M58.75 36.94L56.68 38.21L57.61 39.24L55.55 40.5M55.55 50.96L57.61 52.23L56.68 53.26L58.75 54.53M26.19 40.5L24.13 39.24L25.06 38.21L23 36.94M23 54.53L25.06 53.26L24.13 52.23L26.19 50.96" stroke="#8F00FF" stroke-opacity="1.000000" stroke-width="1.453252" stroke-linejoin="round"/>
	</g>
</svg>
