<svg width="80.000000" height="80.000000" viewBox="0 0 80 80" fill="none" xmlns="http://www.w3.org/2000/svg" xmlns:xlink="http://www.w3.org/1999/xlink">
	<desc>
			Created with Pixso.
	</desc>
	<defs>
		<clipPath id="clip507_8244">
			<rect id="svg-gobbler (1) 3" width="36.000000" height="36.000000" transform="translate(22.000000 22.000000)" fill="white" fill-opacity="0"/>
		</clipPath>
	</defs>
	<path id="Polygon 3" d="M40 0L5.35 20L5.35 60L40 80L74.64 60L74.64 20L40 0Z" fill="#E8E8E8" fill-opacity="1.000000" fill-rule="evenodd"/>
	<rect id="svg-gobbler (1) 3" width="36.000000" height="36.000000" transform="translate(22.000000 22.000000)" fill="#FFFFFF" fill-opacity="0"/>
	<g clip-path="url(#clip507_8244)">
		<path id="Vector" d="M47.16 31.49C45.99 31.49 45.05 30.54 45.05 29.38C45.05 28.21 45.99 27.27 47.16 27.27C48.32 27.27 49.26 28.21 49.26 29.38C49.26 30.54 48.32 31.49 47.16 31.49Z" stroke="#8F00FF" stroke-opacity="1.000000" stroke-width="2.109375"/>
		<path id="Vector" d="M50.07 40.08C50.14 39.68 50.17 39.28 50.17 38.87C50.17 35.55 47.98 32.75 44.97 31.81" stroke="#8F00FF" stroke-opacity="1.000000" stroke-width="2.109375"/>
		<path id="Vector" d="M47.16 27.27L46.46 27.27C43.05 27.27 39.9 29.09 38.19 32.04L30.21 45.87C29.56 46.99 29.22 48.26 29.22 49.56C29.22 50.85 29.56 52.13 30.21 53.25C32.83 57.79 39.09 58.14 42.27 54.3" stroke="#8F00FF" stroke-opacity="1.000000" stroke-width="2.109375"/>
		<path id="Vector" d="M45.3 40.52C44.62 39.36 43.95 38.19 43.28 37.03C42.96 36.48 42.78 35.85 42.78 35.18C42.78 33.15 44.42 31.5 46.46 31.49L47.16 31.49M32.39 36.96C32.39 38.12 31.44 39.07 30.28 39.07C29.12 39.07 28.17 38.12 28.17 36.96L28.17 23.05L32.39 23.05L32.39 40.11C32.39 41.41 32.05 42.68 31.4 43.8" stroke="#8F00FF" stroke-opacity="1.000000" stroke-width="2.109375"/>
		<path id="Vector" d="M30.28 31.49C29.12 31.49 28.17 30.54 28.17 29.38C28.17 28.21 29.12 27.27 30.28 27.27C31.44 27.27 32.39 28.21 32.39 29.38C32.39 30.54 31.44 31.49 30.28 31.49Z" stroke="#8F00FF" stroke-opacity="1.000000" stroke-width="2.109375"/>
		<path id="Vector" d="M26.06 31.49C24.9 31.49 23.95 30.54 23.95 29.38C23.95 28.21 24.9 27.27 26.06 27.27C27.23 27.27 28.17 28.21 28.17 29.38C28.17 30.54 27.23 31.49 26.06 31.49Z" stroke="#8F00FF" stroke-opacity="1.000000" stroke-width="2.109375"/>
		<path id="Vector" d="M45.05 27.37L45.05 23.05L36.61 23.05L36.61 27.2C35.81 28.02 35.11 28.94 34.54 29.93L32.39 33.65M40.83 29.11L40.83 23.05M23.95 29.38L23.95 35.33C23.38 36.38 23.05 37.59 23.05 38.87C23.05 40.1 23.36 41.37 24.05 42.56L30.22 53.25" stroke="#8F00FF" stroke-opacity="1.000000" stroke-width="2.109375"/>
		<path id="Vector" d="M48.43 56.94C43.73 56.94 39.92 53.13 39.92 48.43C39.92 43.73 43.73 39.92 48.43 39.92C53.13 39.92 56.94 43.73 56.94 48.43C56.94 53.13 53.13 56.94 48.43 56.94Z" stroke="#8F00FF" stroke-opacity="1.000000" stroke-width="2.109375"/>
		<path id="Vector" d="M44.66 44.65L48.43 48.43L52.21 44.65" stroke="#8F00FF" stroke-opacity="1.000000" stroke-width="2.109375"/>
	</g>
</svg>
