<svg width="80.000000" height="80.000000" viewBox="0 0 80 80" fill="none" xmlns="http://www.w3.org/2000/svg" xmlns:xlink="http://www.w3.org/1999/xlink">
	<desc>
			Created with Pixso.
	</desc>
	<defs>
		<clipPath id="clip507_8287">
			<rect id="svg-gobbler (6) 1" width="41.000000" height="41.000000" transform="translate(19.000000 20.000000)" fill="white" fill-opacity="0"/>
		</clipPath>
	</defs>
	<path id="Polygon 3" d="M40 0L5.35 20L5.35 60L40 80L74.64 60L74.64 20L40 0Z" fill="#E8E8E8" fill-opacity="1.000000" fill-rule="evenodd"/>
	<rect id="svg-gobbler (6) 1" width="41.000000" height="41.000000" transform="translate(19.000000 20.000000)" fill="#FFFFFF" fill-opacity="0"/>
	<g clip-path="url(#clip507_8287)">
		<path id="Vector" d="M54.41 27.32C57.51 30.83 59.39 35.44 59.39 40.5C59.39 51.49 50.49 60.39 39.5 60.39C28.51 60.39 19.6 51.49 19.6 40.5C19.6 29.5 28.51 20.6 39.5 20.6C44.43 20.6 48.94 22.39 52.42 25.36" stroke="#8F00FF" stroke-opacity="1.000000" stroke-width="1.201172" stroke-linejoin="round" stroke-linecap="round"/>
		<path id="Vector" d="M28.91 54.43C28.28 53.95 27.69 53.43 27.12 52.87C25.49 51.23 23.99 49.51 26.29 46.15C26.3 46.13 26.3 46.12 26.3 46.1C26.3 46.09 26.3 46.08 26.29 46.06C26.28 46.05 26.28 46.04 26.26 46.03C26.25 46.02 26.24 46.02 26.22 46.02C22.17 45.94 22 42.8 22 40.49C22 35.82 23.82 31.43 27.12 28.12C30.41 24.84 36.25 20.9 39.44 24.3C39.44 24.31 39.46 24.32 39.46 24.32C39.48 24.32 39.48 24.33 39.5 24.33C39.51 24.33 39.52 24.32 39.53 24.32C39.54 24.32 39.55 24.31 39.55 24.3C42.75 20.9 48.58 24.84 51.87 28.12C55.17 31.43 57 35.82 57 40.49C57 42.8 56.82 45.94 52.77 46.02C52.76 46.02 52.74 46.02 52.73 46.03C52.72 46.04 52.71 46.05 52.7 46.06C52.69 46.08 52.69 46.09 52.69 46.1C52.69 46.12 52.7 46.13 52.71 46.15C55 49.51 53.5 51.23 51.87 52.87C48.56 56.17 44.17 57.99 39.5 57.99C36.58 57.99 33.76 57.28 31.26 55.94" stroke="#8F00FF" stroke-opacity="1.000000" stroke-width="1.201172" stroke-linejoin="round" stroke-linecap="round"/>
		<path id="Vector" d="M50.01 44.3C50.46 44.65 50.13 45.38 49.57 45.26C45.48 44.42 37.78 43.4 29.43 45.23C28.86 45.35 28.52 44.63 28.98 44.27C32.22 41.74 37.54 36.38 39.12 27.53C39.23 26.95 40.04 26.92 40.18 27.49C41.31 31.81 44.07 39.63 50.01 44.3ZM43.22 28.65C43.22 28.65 45.28 36.34 50.8 41.03M36.2 28.65C36.2 28.65 34.14 36.34 28.63 41.03M31.25 47.49C31.25 47.49 41.22 45.78 47.74 47.75" stroke="#8F00FF" stroke-opacity="1.000000" stroke-width="1.201172" stroke-linejoin="round"/>
	</g>
</svg>
