<svg width="80" height="80" viewBox="0 0 80 80" fill="none" xmlns="http://www.w3.org/2000/svg">
<path d="M40 0L74.641 20V60L40 80L5.35898 60L5.35898 20L40 0Z" fill="#E8E8E8"/>
<path fill-rule="evenodd" clip-rule="evenodd" d="M55.9808 55.4774V44.0354C55.9808 37.6614 51.9068 32.434 44.4252 31.8048C44.089 31.7764 43.7777 31.6157 43.56 31.3579C43.3423 31.1001 43.2359 30.7663 43.2642 30.4301C43.2926 30.0938 43.4533 29.7826 43.7111 29.5649C43.9689 29.3471 44.3027 29.2407 44.6389 29.2691C53.6521 30.0272 58.525 36.3571 58.525 44.0354V56.7563C58.525 57.0936 58.391 57.4172 58.1524 57.6558C57.9139 57.8943 57.5903 58.0284 57.2529 58.0284H56.4049C52.4688 58.0284 48.6939 56.4648 45.9107 53.6815C43.1275 50.8983 41.5639 47.1234 41.5639 43.1874C41.5639 42.85 41.6979 42.5264 41.9365 42.2879C42.175 42.0493 42.4986 41.9153 42.836 41.9153C43.1733 41.9153 43.4969 42.0493 43.7355 42.2879C43.974 42.5264 44.108 42.85 44.108 43.1874C44.1083 46.3752 45.3464 49.4384 47.5613 51.7312C49.7762 54.0239 52.7949 55.3671 55.9808 55.4774ZM24.6028 55.4774C27.7887 55.3671 30.8073 54.0239 33.0222 51.7312C35.2371 49.4384 36.4753 46.3752 36.4755 43.1874C36.4755 42.85 36.6096 42.5264 36.8481 42.2879C37.0867 42.0493 37.4103 41.9153 37.7476 41.9153C38.085 41.9153 38.4086 42.0493 38.6471 42.2879C38.8857 42.5264 39.0197 42.85 39.0197 43.1874C39.0197 45.1363 38.6358 47.0662 37.89 48.8668C37.1442 50.6674 36.051 52.3034 34.6729 53.6815C33.2948 55.0596 31.6587 56.1528 29.8581 56.8987C28.0575 57.6445 26.1277 58.0284 24.1787 58.0284H23.3307C22.9933 58.0284 22.6697 57.8943 22.4312 57.6558C22.1926 57.4172 22.0586 57.0936 22.0586 56.7563V44.0354C22.0586 36.3571 26.9315 30.0272 35.9447 29.2691C36.1112 29.2551 36.2788 29.2739 36.438 29.3247C36.5972 29.3755 36.7448 29.4571 36.8725 29.5649C37.0001 29.6727 37.1053 29.8046 37.182 29.953C37.2586 30.1015 37.3053 30.2636 37.3194 30.4301C37.3334 30.5966 37.3145 30.7642 37.2637 30.9234C37.213 31.0826 37.1314 31.2302 37.0236 31.3579C36.9158 31.4855 36.7839 31.5907 36.6354 31.6674C36.487 31.744 36.3249 31.7907 36.1584 31.8048C28.6768 32.434 24.6028 37.6614 24.6028 44.0354V55.4774ZM39.0197 22.834C39.0197 22.4967 39.1537 22.1731 39.3923 21.9345C39.6309 21.696 39.9544 21.562 40.2918 21.562C40.6292 21.562 40.9527 21.696 41.1913 21.9345C41.4299 22.1731 41.5639 22.4967 41.5639 22.834V33.0107C41.5639 33.3481 41.4299 33.6716 41.1913 33.9102C40.9527 34.1488 40.6292 34.2828 40.2918 34.2828C39.9544 34.2828 39.6309 34.1488 39.3923 33.9102C39.1537 33.6716 39.0197 33.3481 39.0197 33.0107V22.834Z" fill="#8F00FF"/>
<path fill-rule="evenodd" clip-rule="evenodd" d="M39.0195 32.1626C39.0195 31.8253 39.1536 31.5017 39.3921 31.2631C39.6307 31.0246 39.9542 30.8906 40.2916 30.8906C40.629 30.8906 40.9526 31.0246 41.1911 31.2631C41.4297 31.5017 41.5637 31.8253 41.5637 32.1626C41.5637 34.0745 42.3232 35.908 43.675 37.2598C45.0269 38.6117 46.8604 39.3711 48.7722 39.3711C49.1096 39.3711 49.4331 39.5051 49.6717 39.7437C49.9102 39.9823 50.0443 40.3058 50.0443 40.6432C50.0443 40.9806 49.9102 41.3041 49.6717 41.5427C49.4331 41.7813 49.1096 41.9153 48.7722 41.9153C46.1856 41.9153 43.705 40.8878 41.876 39.0588C40.047 37.2298 39.0195 34.7492 39.0195 32.1626Z" fill="#8F00FF"/>
<path fill-rule="evenodd" clip-rule="evenodd" d="M39.0196 32.1626C39.0196 31.8253 39.1536 31.5017 39.3922 31.2631C39.6308 31.0246 39.9543 30.8906 40.2917 30.8906C40.6291 30.8906 40.9526 31.0246 41.1912 31.2631C41.4298 31.5017 41.5638 31.8253 41.5638 32.1626C41.5638 34.7492 40.5363 37.2298 38.7073 39.0588C36.8783 40.8878 34.3977 41.9153 31.8111 41.9153C31.4738 41.9153 31.1502 41.7813 30.9116 41.5427C30.6731 41.3041 30.5391 40.9806 30.5391 40.6432C30.5391 40.3058 30.6731 39.9823 30.9116 39.7437C31.1502 39.5051 31.4738 39.3711 31.8111 39.3711C33.723 39.3711 35.5565 38.6117 36.9083 37.2598C38.2602 35.908 39.0196 34.0745 39.0196 32.1626ZM45.4309 39.846C45.3129 39.9641 45.1727 40.0577 45.0185 40.1216C44.8642 40.1855 44.6989 40.2184 44.532 40.2184C44.365 40.2184 44.1997 40.1855 44.0455 40.1216C43.8912 40.0577 43.7511 39.9641 43.633 39.846C43.515 39.728 43.4214 39.5878 43.3575 39.4336C43.2936 39.2794 43.2607 39.114 43.2607 38.9471C43.2607 38.7801 43.2936 38.6148 43.3575 38.4606C43.4214 38.3064 43.515 38.1662 43.633 38.0482L46.1772 35.504C46.2953 35.3859 46.4354 35.2923 46.5896 35.2284C46.7439 35.1645 46.9092 35.1316 47.0762 35.1316C47.2431 35.1316 47.4084 35.1645 47.5627 35.2284C47.7169 35.2923 47.857 35.3859 47.9751 35.504C48.0931 35.622 48.1868 35.7622 48.2507 35.9164C48.3146 36.0707 48.3474 36.236 48.3474 36.4029C48.3474 36.5699 48.3146 36.7352 48.2507 36.8894C48.1868 37.0437 48.0931 37.1838 47.9751 37.3019L45.4309 39.846Z" fill="#8F00FF"/>
<path fill-rule="evenodd" clip-rule="evenodd" d="M36.9488 38.0482C37.1872 38.2866 37.3211 38.6099 37.3211 38.9471C37.3211 39.2843 37.1872 39.6076 36.9488 39.8461C36.7104 40.0845 36.387 40.2184 36.0498 40.2184C35.7127 40.2184 35.3893 40.0845 35.1509 39.8461L32.6067 37.3019C32.4887 37.1838 32.395 37.0437 32.3311 36.8894C32.2673 36.7352 32.2344 36.5699 32.2344 36.4029C32.2344 36.236 32.2673 36.0707 32.3311 35.9164C32.395 35.7622 32.4887 35.6221 32.6067 35.504C32.7248 35.386 32.8649 35.2923 33.0192 35.2284C33.1734 35.1645 33.3387 35.1317 33.5057 35.1317C33.6726 35.1317 33.8379 35.1645 33.9922 35.2284C34.1464 35.2923 34.2866 35.386 34.4046 35.504L36.9488 38.0482Z" fill="#8F00FF"/>
</svg>
