<svg width="80" height="80" viewBox="0 0 80 80" fill="none" xmlns="http://www.w3.org/2000/svg">
<path d="M40 0L74.641 20V60L40 80L5.35898 60L5.35898 20L40 0Z" fill="#E8E8E8"/>
<g clip-path="url(#clip0_507_8257)">
<path d="M24.0683 27.9287H65.0589C65.1666 27.9287 65.2698 27.9715 65.3459 28.0476C65.4221 28.1237 65.4648 28.227 65.4648 28.3346V51.877C65.4648 51.9847 65.4221 52.0879 65.3459 52.1641C65.2698 52.2402 65.1666 52.283 65.0589 52.283H56.0783M52.2899 52.283H15.4372C15.3295 52.283 15.2263 52.2402 15.1501 52.1641C15.074 52.0879 15.0312 51.9847 15.0312 51.877V28.3346C15.0312 28.227 15.074 28.1237 15.1501 28.0476C15.2263 27.9715 15.3295 27.9287 15.4372 27.9287H20.5053" stroke="#8F00FF" stroke-width="1.52214" stroke-miterlimit="10" stroke-linecap="round" stroke-linejoin="round"/>
<path d="M65.4648 30.9726V49.2383H43.4956C42.4237 49.2383 41.5943 48.2988 41.7272 47.2352L42.2298 43.2116C42.3454 42.2857 41.7274 41.4275 40.8127 41.2435C40.4238 41.1653 40.0201 41.219 39.6652 41.3962C39.3104 41.5733 39.0248 41.8638 38.8537 42.2215L35.9815 48.2251C35.8364 48.5285 35.6084 48.7845 35.3239 48.9638C35.0394 49.1431 34.71 49.2382 34.3738 49.2382H15.0312V30.9726H49.2687C50.3222 30.9726 51.1293 31.9093 50.9736 32.9513L50.876 33.604C50.7203 34.6459 51.5274 35.5826 52.5809 35.5826H53.8181C54.5155 35.5826 55.1441 35.1625 55.4109 34.5183L56.4382 32.037C56.5687 31.7219 56.7896 31.4526 57.0732 31.2632C57.3567 31.0737 57.69 30.9726 58.031 30.9726H65.4648Z" stroke="#8F00FF" stroke-width="1.52214" stroke-miterlimit="10" stroke-linecap="round" stroke-linejoin="round"/>
<path d="M45.251 36.6042C45.4371 35.5485 44.7844 34.5511 43.793 34.3764C42.8017 34.2016 41.8472 34.9157 41.6612 35.9714C41.4751 37.0271 42.1278 38.0245 43.1192 38.1993C44.1105 38.374 45.0649 37.6599 45.251 36.6042Z" stroke="#8F00FF" stroke-width="1.52214" stroke-miterlimit="10" stroke-linecap="round" stroke-linejoin="round"/>
<path d="M29.691 39.334C30.5733 38.7253 30.8253 37.5602 30.2537 36.7316C29.6821 35.903 28.5035 35.7247 27.6211 36.3334C26.7387 36.9421 26.4868 38.1072 27.0584 38.9358C27.6299 39.7644 28.8086 39.9427 29.691 39.334Z" stroke="#8F00FF" stroke-width="1.52214" stroke-miterlimit="10" stroke-linecap="round" stroke-linejoin="round"/>
<path d="M36.6853 38.4535C37.6439 38.1465 38.1561 37.0701 37.8291 36.0492C37.5022 35.0283 36.46 34.4496 35.5014 34.7566C34.5428 35.0636 34.0306 36.14 34.3576 37.1609C34.6845 38.1818 35.7267 38.7605 36.6853 38.4535Z" stroke="#8F00FF" stroke-width="1.52214" stroke-miterlimit="10" stroke-linecap="round" stroke-linejoin="round"/>
<path d="M32.2574 45.767C33.1398 45.1583 33.3917 43.9932 32.8201 43.1646C32.2485 42.336 31.0699 42.1578 30.1875 42.7665C29.3051 43.3751 29.0532 44.5403 29.6248 45.3689C30.1964 46.1974 31.375 46.3757 32.2574 45.767Z" stroke="#8F00FF" stroke-width="1.52214" stroke-miterlimit="10" stroke-linecap="round" stroke-linejoin="round"/>
<path d="M24.4272 44.954C25.2557 44.3824 25.434 43.2038 24.8253 42.3214C24.2166 41.439 23.0515 41.1871 22.2229 41.7587C21.3944 42.3302 21.2161 43.5089 21.8248 44.3913C22.4335 45.2736 23.5986 45.5256 24.4272 44.954Z" stroke="#8F00FF" stroke-width="1.52214" stroke-miterlimit="10" stroke-linecap="round" stroke-linejoin="round"/>
<path d="M20.4704 38.2246C21.4754 38.1684 22.2416 37.2551 22.1816 36.1848C22.1217 35.1146 21.2584 34.2926 20.2534 34.3489C19.2483 34.4051 18.4822 35.3184 18.5421 36.3886C18.602 37.4589 19.4654 38.2809 20.4704 38.2246Z" stroke="#8F00FF" stroke-width="1.52214" stroke-miterlimit="10" stroke-linecap="round" stroke-linejoin="round"/>
<path d="M56.1104 43.0442C56.2965 41.9885 55.6437 40.991 54.6524 40.8163C53.6611 40.6416 52.7066 41.3557 52.5205 42.4114C52.3344 43.467 52.9872 44.4645 53.9785 44.6392C54.9698 44.814 55.9243 44.0998 56.1104 43.0442Z" stroke="#8F00FF" stroke-width="1.52214" stroke-miterlimit="10" stroke-linecap="round" stroke-linejoin="round"/>
</g>
<defs>
<clipPath id="clip0_507_8257">
<rect width="55" height="27.5" fill="white" transform="translate(13 26)"/>
</clipPath>
</defs>
</svg>
