<svg width="97" height="97" viewBox="0 0 97 97" fill="none" xmlns="http://www.w3.org/2000/svg">
<path d="M48.1493 0.597168L89.8479 24.6718V72.8212L48.1493 96.8959L6.45079 72.8212L6.45079 24.6718L48.1493 0.597168Z" fill="#EBEBEB"/>
<g clip-path="url(#clip0_119_89)">
<path d="M43.7619 51.6764H26.4404C26.2513 51.6764 26.0641 51.6392 25.8894 51.5668C25.7147 51.4945 25.5559 51.3884 25.4222 51.2547C25.2885 51.121 25.1825 50.9623 25.1101 50.7876C25.0377 50.6129 25.0005 50.4256 25.0005 50.2365C25.0005 50.0475 25.0377 49.8602 25.1101 49.6855C25.1825 49.5108 25.2885 49.3521 25.4222 49.2184C25.5559 49.0847 25.7147 48.9786 25.8894 48.9063C26.0641 48.8339 26.2513 48.7967 26.4404 48.7967H43.7619C44.1438 48.7967 44.51 48.9484 44.7801 49.2184C45.0501 49.4884 45.2018 49.8547 45.2018 50.2365C45.2018 50.6184 45.0501 50.9847 44.7801 51.2547C44.51 51.5247 44.1438 51.6764 43.7619 51.6764ZM68.5606 51.6764H51.239C51.05 51.6764 50.8627 51.6392 50.688 51.5668C50.5133 51.4945 50.3546 51.3884 50.2209 51.2547C50.0872 51.121 49.9811 50.9623 49.9088 50.7876C49.8364 50.6129 49.7992 50.4256 49.7992 50.2365C49.7992 50.0475 49.8364 49.8602 49.9088 49.6855C49.9811 49.5108 50.0872 49.3521 50.2209 49.2184C50.3546 49.0847 50.5133 48.9786 50.688 48.9063C50.8627 48.8339 51.05 48.7967 51.239 48.7967H68.5606C68.9425 48.7967 69.3087 48.9484 69.5788 49.2184C69.8488 49.4884 70.0005 49.8547 70.0005 50.2365C70.0005 50.6184 69.8488 50.9847 69.5788 51.2547C69.3087 51.5247 68.9425 51.6764 68.5606 51.6764ZM68.5606 70.9995H26.4404C26.0586 70.9995 25.6925 70.8478 25.4225 70.5779C25.1525 70.3079 25.0009 69.9418 25.0009 69.56C25.0009 69.1782 25.1525 68.8121 25.4225 68.5421C25.6925 68.2721 26.0586 68.1205 26.4404 68.1205H68.5606C68.9424 68.1205 69.3085 68.2721 69.5785 68.5421C69.8484 68.8121 70.0001 69.1782 70.0001 69.56C70.0001 69.9418 69.8484 70.3079 69.5785 70.5779C69.3085 70.8478 68.9424 70.9995 68.5606 70.9995ZM47.5005 38.5193C47.3114 38.5194 47.1241 38.4823 46.9493 38.4099C46.7746 38.3376 46.6158 38.2315 46.4821 38.0978C46.3484 37.9641 46.2423 37.8053 46.17 37.6306C46.0977 37.4558 46.0605 37.2686 46.0606 37.0794V31.9423C46.0606 31.5604 46.2123 31.1942 46.4823 30.9242C46.7524 30.6541 47.1186 30.5024 47.5005 30.5024C47.8824 30.5024 48.2486 30.6541 48.5186 30.9242C48.7887 31.1942 48.9404 31.5604 48.9404 31.9423V37.0802C48.9402 37.462 48.7884 37.828 48.5184 38.0979C48.2484 38.3677 47.8822 38.5193 47.5005 38.5193ZM47.502 43.1947C47.2457 43.1957 46.9916 43.146 46.7546 43.0483C46.5175 42.9507 46.3022 42.8071 46.1209 42.6258C45.9396 42.4445 45.796 42.2292 45.6984 41.9921C45.6007 41.7551 45.551 41.501 45.552 41.2447C45.552 40.7291 45.7548 40.2307 46.1207 39.8633C46.8468 39.1379 48.1565 39.1457 48.8819 39.8633C49.2407 40.2307 49.4513 40.7291 49.4513 41.2447C49.4513 41.7602 49.2399 42.2665 48.8819 42.6253C48.5153 42.9926 48.0168 43.1947 47.502 43.1947Z" fill="#8F00FF"/>
<path d="M47.5004 47.4556C41.5848 47.4556 36.7722 42.6429 36.7722 36.7274C36.7722 30.8118 41.5848 26 47.5004 26C53.4159 26 58.2286 30.8118 58.2286 36.7274C58.2286 42.6429 53.4159 47.4556 47.5004 47.4556ZM47.5004 28.879C43.1729 28.879 39.6512 32.4007 39.6512 36.7282C39.6512 41.0556 43.1729 44.5774 47.5004 44.5774C51.8279 44.5774 55.3496 41.0556 55.3496 36.7282C55.3496 32.4007 51.8279 28.879 47.5004 28.879Z" fill="#8F00FF"/>
<path d="M47.5004 53.9818C47.3113 53.9819 47.124 53.9447 46.9493 53.8724C46.7746 53.8 46.6158 53.694 46.4821 53.5602C46.3483 53.4265 46.2423 53.2677 46.1699 53.093C46.0976 52.9183 46.0604 52.731 46.0605 52.5419V46.0156C46.0605 45.6337 46.2122 45.2674 46.4823 44.9974C46.7523 44.7274 47.1186 44.5757 47.5004 44.5757C47.8823 44.5757 48.2486 44.7274 48.5186 44.9974C48.7886 45.2674 48.9403 45.6337 48.9403 46.0156V52.5419C48.9401 52.9237 48.7883 53.2898 48.5184 53.5598C48.2484 53.8298 47.8823 53.9815 47.5004 53.9818Z" fill="#8F00FF"/>
<path d="M47.5433 58.6119L47.4762 58.6112C46.2882 58.5956 45.1604 58.1744 44.3258 57.4661C42.8469 57.8312 41.4023 57.4958 40.2463 56.4903C38.4859 54.96 37.7706 52.2151 38.5077 49.8143C38.5631 49.6335 38.6536 49.4654 38.774 49.3196C38.8944 49.1737 39.0423 49.053 39.2093 48.9644C39.3763 48.8757 39.5592 48.8208 39.7474 48.8029C39.9357 48.7849 40.1256 48.8041 40.3064 48.8595C40.4872 48.915 40.6553 49.0054 40.8011 49.1258C40.9469 49.2462 41.0676 49.3941 41.1563 49.5612C41.2449 49.7282 41.2998 49.911 41.3178 50.0993C41.3358 50.2875 41.3165 50.4774 41.2611 50.6582C40.868 51.9413 41.2525 53.5482 42.1371 54.3165C42.6948 54.8016 43.3492 54.8586 44.137 54.4896C44.4507 54.3434 44.8066 54.3149 45.1396 54.4095C45.4725 54.504 45.7604 54.7152 45.9505 55.0044C46.2336 55.4373 46.8475 55.722 47.5144 55.7314C47.8561 55.7439 48.5869 55.676 49.0292 55.0364C49.2333 54.7432 49.539 54.5362 49.887 54.4555C50.235 54.3748 50.6006 54.4262 50.9129 54.5996C51.7202 55.0489 52.4136 55.0879 52.9737 54.7111C53.6975 54.2236 54.4393 52.8056 54.1444 50.4118C54.1185 50.2228 54.1305 50.0305 54.1795 49.8462C54.2285 49.6618 54.3137 49.4891 54.43 49.3379C54.5464 49.1868 54.6916 49.0602 54.8573 48.9657C55.023 48.8711 55.2058 48.8105 55.3951 48.7872C55.5844 48.7638 55.7765 48.7784 55.9601 48.8299C56.1438 48.8815 56.3154 48.969 56.4649 49.0874C56.6145 49.2059 56.739 49.3528 56.8312 49.5198C56.9235 49.6867 56.9817 49.8704 57.0024 50.06C57.3877 53.1886 56.4829 55.8203 54.5813 57.0995C53.4027 57.8936 51.9799 58.0535 50.5556 57.5784C49.7359 58.2391 48.6758 58.6119 47.5433 58.6119ZM39.8829 71C39.5747 70.9996 39.2748 70.9005 39.0272 70.7172C38.7795 70.5338 38.5972 70.2759 38.5069 69.9813C37.7706 67.5812 38.4859 64.8356 40.2456 63.3052C41.4023 62.2998 42.8476 61.9644 44.325 62.3294C45.1596 61.6212 46.2875 61.2 47.4754 61.1844C48.6595 61.1906 49.7187 61.5432 50.5541 62.2156C51.9776 61.7429 53.4011 61.902 54.5797 62.6945C56.4813 63.9745 57.3861 66.6062 57.0008 69.734C56.9782 69.9219 56.9186 70.1034 56.8255 70.2682C56.7325 70.4329 56.6078 70.5777 56.4586 70.6941C56.3094 70.8105 56.1387 70.8963 55.9563 70.9465C55.7739 70.9967 55.5833 71.0104 55.3956 70.9867C55.2079 70.9636 55.0266 70.9038 54.862 70.8106C54.6975 70.7175 54.5529 70.5928 54.4365 70.4437C54.3202 70.2946 54.2344 70.1241 54.184 69.9418C54.1336 69.7595 54.1196 69.5691 54.1429 69.3815C54.4377 66.9884 53.6959 65.5696 52.9721 65.0821C52.4128 64.7053 51.7194 64.7436 50.9113 65.1936C50.5991 65.3676 50.2334 65.4192 49.8852 65.3385C49.5371 65.2577 49.2314 65.0504 49.0276 64.7568C48.5854 64.1188 47.842 64.0657 47.5129 64.0618C46.8467 64.0712 46.2321 64.3559 45.9489 64.7888C45.7587 65.0779 45.4709 65.289 45.1379 65.3835C44.805 65.478 44.4492 65.4497 44.1354 65.3036C43.3468 64.9347 42.6924 64.9932 42.1355 65.4768C41.251 66.2451 40.8664 67.8526 41.2596 69.135C41.315 69.3158 41.3342 69.5057 41.3163 69.6939C41.2983 69.8822 41.2434 70.065 41.1547 70.2321C41.0661 70.3991 40.9454 70.547 40.7996 70.6674C40.6537 70.7878 40.4856 70.8783 40.3048 70.9337C40.1686 70.9781 40.0261 71.0005 39.8829 71ZM39.8891 61.8607C39.3746 61.8574 38.8817 61.6534 38.5155 61.292C38.1489 60.9247 37.9391 60.4262 37.9391 59.9106C37.9391 59.3951 38.1497 58.8888 38.5155 58.53C39.2417 57.8039 40.5443 57.8039 41.2689 58.53C41.6355 58.8888 41.8383 59.3951 41.8383 59.9106C41.8383 60.4262 41.6347 60.9247 41.2689 61.292C40.9002 61.6535 40.4054 61.8574 39.8891 61.8607ZM35.6919 57.6089C35.1857 57.6089 34.6779 57.4061 34.3191 57.0402C33.9525 56.6814 33.7419 56.1744 33.7419 55.6588C33.7419 55.1448 33.9533 54.6448 34.3191 54.286C35.0367 53.5606 36.3479 53.5606 37.0725 54.286C37.4391 54.6448 37.6411 55.1448 37.6411 55.6588C37.6411 56.1736 37.4383 56.6814 37.0725 57.0402C36.7067 57.4068 36.2067 57.6089 35.6919 57.6089ZM29.3817 57.0239C28.8754 57.0239 28.3677 56.8133 28.0088 56.4552C27.6422 56.0886 27.4316 55.5894 27.4316 55.0738C27.4316 54.5598 27.643 54.0598 28.0088 53.6932C28.7343 52.9678 30.0369 52.9678 30.7623 53.6932C31.1272 54.0602 31.332 54.5567 31.332 55.0742C31.332 55.5918 31.1272 56.0882 30.7623 56.4552C30.4042 56.814 29.8965 57.0239 29.3817 57.0239ZM28.0166 67.2739C27.5018 67.2739 26.9948 67.0625 26.636 66.6967C26.2694 66.3379 26.0588 65.8309 26.0588 65.3161C26.0588 64.8091 26.2702 64.3013 26.636 63.9425C27.3536 63.2171 28.6641 63.2171 29.3895 63.9425C29.7561 64.3013 29.9581 64.8083 29.9581 65.3161C29.9581 65.8301 29.7553 66.3379 29.3895 66.6967C29.2099 66.8785 28.9961 67.023 28.7606 67.1221C28.525 67.2211 28.2722 67.2727 28.0166 67.2739ZM66.1121 65.5423C65.598 65.5423 65.098 65.3309 64.7314 64.9729C64.3726 64.6063 64.162 64.1071 64.162 63.5923C64.162 63.0775 64.3734 62.5775 64.7314 62.2109C65.4568 61.4855 66.7673 61.4855 67.4927 62.2109C67.8515 62.5775 68.0613 63.0767 68.0613 63.5923C68.0613 64.1063 67.8507 64.6063 67.4927 64.9729C67.1268 65.3317 66.6269 65.5423 66.1121 65.5423ZM33.6296 65.8769C33.5706 65.8768 33.5117 65.8729 33.4533 65.8652C32.5578 65.7546 31.7335 65.3206 31.1358 64.6446C30.538 63.9687 30.2079 63.0976 30.2077 62.1953C30.2091 61.2157 30.5991 60.2766 31.2921 59.5842C31.9851 58.8918 32.9245 58.5026 33.9041 58.502C34.8251 58.4978 35.714 58.8396 36.3948 59.4598C37.0757 60.0799 37.4988 60.9332 37.5803 61.8505C37.5978 62.0388 37.578 62.2287 37.5221 62.4093C37.4662 62.59 37.3752 62.7578 37.2543 62.9033C37.1335 63.0487 36.9852 63.169 36.8179 63.2571C36.6506 63.3452 36.4675 63.3994 36.2792 63.4168C36.0908 63.4349 35.9007 63.4156 35.7198 63.3599C35.5389 63.3042 35.3708 63.2133 35.2252 63.0923C35.0796 62.9714 34.9594 62.8228 34.8715 62.6552C34.7836 62.4876 34.7297 62.3042 34.713 62.1157C34.6946 61.9143 34.6013 61.7271 34.4515 61.5912C34.3017 61.4553 34.1064 61.3805 33.9041 61.3817C33.4541 61.3817 33.0867 61.7476 33.0867 62.1961C33.0867 62.6087 33.3948 62.9581 33.8019 63.008C34.1678 63.0499 34.5037 63.2304 34.7405 63.5125C34.9772 63.7945 35.0969 64.1566 35.0748 64.5241C35.0527 64.8917 34.8906 65.2368 34.6217 65.4885C34.3529 65.7401 33.9978 65.8791 33.6296 65.8769ZM61.1263 62.4753C61.0673 62.4752 61.0084 62.4713 60.95 62.4636C60.0545 62.353 59.2302 61.919 58.6325 61.243C58.0347 60.5671 57.7046 59.696 57.7044 58.7937C57.7058 57.8141 58.0958 56.875 58.7888 56.1826C59.4818 55.4902 60.4212 55.101 61.4008 55.1004C62.3218 55.0962 63.2107 55.438 63.8915 56.0582C64.5724 56.6783 64.9955 57.5316 65.077 58.4489C65.0945 58.6372 65.0747 58.8271 65.0188 59.0077C64.9629 59.1884 64.8719 59.3562 64.7511 59.5017C64.6302 59.6471 64.4819 59.7674 64.3146 59.8555C64.1473 59.9436 63.9642 59.9978 63.7759 60.0152C63.5875 60.0334 63.3974 60.0142 63.2164 59.9585C63.0355 59.9029 62.8673 59.812 62.7217 59.691C62.5761 59.57 62.4559 59.4214 62.368 59.2538C62.2801 59.0861 62.2263 58.9027 62.2097 58.7141C62.1913 58.5127 62.098 58.3255 61.9482 58.1896C61.7984 58.0537 61.6031 57.9789 61.4008 57.9801C60.9508 57.9801 60.5834 58.346 60.5834 58.7945C60.5834 59.2071 60.8915 59.5565 61.2986 59.6064C61.6645 59.6483 62.0004 59.8288 62.2372 60.1109C62.4739 60.3929 62.5936 60.755 62.5715 61.1225C62.5494 61.4901 62.3873 61.8352 62.1184 62.0869C61.8496 62.3385 61.4945 62.4775 61.1263 62.4753Z" fill="#8F00FF"/>
</g>
<defs>
<clipPath id="clip0_119_89">
<rect width="45" height="45" fill="white" transform="translate(25 26)"/>
</clipPath>
</defs>
</svg>
