<svg width="216" height="63" viewBox="0 0 216 63" fill="none" xmlns="http://www.w3.org/2000/svg">
<rect x="0.0644531" width="215.419" height="63" rx="20.3226" fill="#ACE1F8"/>
<path d="M70.0184 24.877H72.8243C74.1407 24.877 75.3098 25.1715 76.3317 25.7604C77.3536 26.3492 78.1561 27.1691 78.7392 28.2199C79.3224 29.2706 79.6139 30.4888 79.6139 31.8745C79.6139 33.2601 79.3224 34.4812 78.7392 35.5377C78.1561 36.5943 77.3536 37.4199 76.3317 38.0145C75.3098 38.6092 74.1407 38.9065 72.8243 38.9065H70.0184C68.7021 38.9065 67.533 38.6121 66.5111 38.0232C65.4891 37.4343 64.6866 36.6145 64.1035 35.5637C63.5204 34.5129 63.2288 33.2947 63.2288 31.9091C63.2288 30.5235 63.5204 29.3024 64.1035 28.2458C64.6866 27.1893 65.4891 26.3637 66.5111 25.769C67.533 25.1743 68.7021 24.877 70.0184 24.877ZM70.0184 26.7823C69.0138 26.7823 68.1651 26.993 67.4723 27.4145C66.7853 27.8359 66.2628 28.4306 65.9048 29.1985C65.5527 29.9663 65.3766 30.8699 65.3766 31.9091C65.3766 32.9368 65.5527 33.8317 65.9048 34.5938C66.2628 35.3558 66.7853 35.9476 67.4723 36.3691C68.1651 36.7906 69.0138 37.0013 70.0184 37.0013H72.8243C73.8289 37.0013 74.6747 36.7906 75.3618 36.3691C76.0546 35.9476 76.5771 35.353 76.9293 34.5851C77.2872 33.8172 77.4662 32.9137 77.4662 31.8745C77.4662 30.8468 77.2872 29.9519 76.9293 29.1898C76.5771 28.4277 76.0546 27.8359 75.3618 27.4145C74.6747 26.993 73.8289 26.7823 72.8243 26.7823H70.0184ZM72.5126 22.4522V41.2275H70.3648V22.4522H72.5126ZM84.9789 37.4863L91.3874 27.1979H93.743V40.5H91.6992V30.2117L85.3253 40.5H82.9351V27.1979H84.9789V37.4863ZM107.359 22.2097L108.398 23.4567C107.994 23.8493 107.526 24.1236 106.995 24.2795C106.464 24.4353 105.864 24.5306 105.194 24.5652C104.524 24.5999 103.779 24.6345 102.96 24.6692C102.036 24.7038 101.271 24.929 100.665 25.3447C100.058 25.7604 99.5908 26.3608 99.2617 27.146C98.9326 27.9312 98.7219 28.8953 98.6295 30.0385H98.8027C99.2531 29.2071 99.8766 28.5951 100.673 28.2025C101.47 27.8099 102.325 27.6136 103.237 27.6136C104.276 27.6136 105.211 27.8561 106.043 28.3411C106.874 28.8261 107.532 29.5449 108.017 30.4975C108.502 31.4501 108.745 32.625 108.745 34.0222C108.745 35.4136 108.496 36.6145 108 37.6248C107.509 38.6352 106.819 39.4146 105.93 39.9631C105.047 40.5058 104.01 40.7771 102.821 40.7771C101.632 40.7771 100.59 40.4971 99.6947 39.9371C98.7998 39.3713 98.1041 38.5341 97.6076 37.4256C97.1111 36.3114 96.8629 34.9344 96.8629 33.2947V31.8745C96.8629 28.9127 97.3651 26.6668 98.3697 25.1368C99.3801 23.6069 100.898 22.8159 102.925 22.7639C103.641 22.7408 104.279 22.7351 104.839 22.7466C105.399 22.7582 105.887 22.7322 106.302 22.6687C106.718 22.6052 107.07 22.4522 107.359 22.2097ZM102.821 38.9412C103.624 38.9412 104.314 38.7391 104.891 38.335C105.474 37.9308 105.921 37.3621 106.233 36.6289C106.545 35.8899 106.701 35.021 106.701 34.0222C106.701 33.0522 106.542 32.2266 106.225 31.5454C105.913 30.8641 105.465 30.3445 104.882 29.9865C104.299 29.6286 103.6 29.4496 102.786 29.4496C102.192 29.4496 101.658 29.5506 101.184 29.7527C100.711 29.9548 100.307 30.2521 99.9719 30.6447C99.637 31.0373 99.3772 31.5165 99.1924 32.0823C99.0135 32.6481 98.9182 33.2947 98.9067 34.0222C98.9067 35.5117 99.256 36.7039 99.9545 37.5988C100.653 38.4937 101.609 38.9412 102.821 38.9412ZM111.871 45.4883V27.1979H113.845V29.311H114.088C114.238 29.0801 114.446 28.7856 114.712 28.4277C114.983 28.064 115.37 27.7407 115.872 27.4578C116.38 27.1691 117.067 27.0247 117.933 27.0247C119.053 27.0247 120.04 27.3048 120.895 27.8648C121.749 28.4248 122.416 29.2187 122.895 30.2463C123.375 31.274 123.614 32.4864 123.614 33.8836C123.614 35.2923 123.375 36.5134 122.895 37.5469C122.416 38.5746 121.752 39.3713 120.904 39.9371C120.055 40.4971 119.076 40.7771 117.968 40.7771C117.113 40.7771 116.429 40.6357 115.915 40.3528C115.401 40.0641 115.006 39.7379 114.729 39.3742C114.452 39.0047 114.238 38.6987 114.088 38.4562H113.915V45.4883H111.871ZM113.88 33.849C113.88 34.8536 114.027 35.7398 114.322 36.5077C114.616 37.2697 115.046 37.8673 115.612 38.3003C116.178 38.7275 116.871 38.9412 117.691 38.9412C118.545 38.9412 119.258 38.716 119.83 38.2657C120.407 37.8096 120.84 37.1976 121.129 36.4297C121.423 35.6561 121.57 34.7958 121.57 33.849C121.57 32.9137 121.426 32.0707 121.137 31.3202C120.854 30.5639 120.424 29.9663 119.847 29.5275C119.275 29.083 118.557 28.8607 117.691 28.8607C116.859 28.8607 116.161 29.0714 115.595 29.4929C115.029 29.9086 114.602 30.4917 114.313 31.2423C114.024 31.987 113.88 32.8559 113.88 33.849ZM128.776 37.4863L135.184 27.1979H137.54V40.5H135.496V30.2117L129.122 40.5H126.732V27.1979H128.776V37.4863ZM150.186 32.9137V34.8189H142.842V32.9137H150.186ZM143.327 27.1979V40.5H141.283V27.1979H143.327ZM151.745 27.1979V40.5H149.701V27.1979H151.745Z" fill="black"/>
</svg>
