<svg width="40" height="32" viewBox="0 0 40 32" fill="none" xmlns="http://www.w3.org/2000/svg">
<rect y="0.155762" width="40" height="31" rx="10" fill="#8F00FF"/>
<path d="M13.1136 11.4285V20.1558H12.0568V11.4285H13.1136ZM15.744 11.4285L17.994 15.0592H18.0621L20.3121 11.4285H21.5565L18.8121 15.7921L21.5565 20.1558H20.3121L18.0621 16.5933H17.994L15.744 20.1558H14.4996L17.3121 15.7921L14.4996 11.4285H15.744ZM24.7216 20.3092C24.3068 20.3092 23.9304 20.231 23.5923 20.0748C23.2543 19.9157 22.9858 19.687 22.7869 19.3887C22.5881 19.0876 22.4886 18.7239 22.4886 18.2978C22.4886 17.9228 22.5625 17.6188 22.7102 17.3859C22.858 17.1501 23.0554 16.9654 23.3026 16.8319C23.5497 16.6984 23.8224 16.5989 24.1207 16.5336C24.4219 16.4654 24.7244 16.4114 25.0284 16.3717C25.4261 16.3205 25.7486 16.2822 25.9957 16.2566C26.2457 16.2282 26.4276 16.1813 26.5412 16.116C26.6577 16.0506 26.7159 15.937 26.7159 15.7751V15.741C26.7159 15.3205 26.6009 14.9938 26.3707 14.7609C26.1435 14.5279 25.7983 14.4114 25.3352 14.4114C24.8551 14.4114 24.4787 14.5166 24.206 14.7268C23.9332 14.937 23.7415 15.1614 23.6307 15.4001L22.6761 15.0592C22.8466 14.6614 23.0739 14.3518 23.358 14.1302C23.6449 13.9058 23.9574 13.7495 24.2955 13.6614C24.6364 13.5705 24.9716 13.5251 25.3011 13.5251C25.5114 13.5251 25.7528 13.5506 26.0256 13.6018C26.3011 13.6501 26.5668 13.7509 26.8224 13.9043C27.081 14.0578 27.2955 14.2893 27.4659 14.5989C27.6364 14.9086 27.7216 15.3234 27.7216 15.8433V20.1558H26.7159V19.2694H26.6648C26.5966 19.4114 26.483 19.5634 26.3239 19.7254C26.1648 19.8873 25.9531 20.0251 25.6889 20.1387C25.4247 20.2524 25.1023 20.3092 24.7216 20.3092ZM24.875 19.4058C25.2727 19.4058 25.608 19.3276 25.8807 19.1714C26.1563 19.0151 26.3636 18.8134 26.5028 18.5663C26.6449 18.3191 26.7159 18.0592 26.7159 17.7864V16.866C26.6733 16.9171 26.5795 16.964 26.4347 17.0066C26.2926 17.0464 26.1278 17.0819 25.9403 17.1131C25.7557 17.1416 25.5753 17.1671 25.3991 17.1899C25.2259 17.2097 25.0852 17.2268 24.9773 17.241C24.7159 17.2751 24.4716 17.3305 24.2443 17.4072C24.0199 17.481 23.8381 17.5933 23.6989 17.7438C23.5625 17.8916 23.4943 18.0933 23.4943 18.3489C23.4943 18.6984 23.6236 18.9626 23.8821 19.1416C24.1435 19.3177 24.4744 19.4058 24.875 19.4058Z" fill="white"/>
</svg>
