<svg width="97" height="97" viewBox="0 0 97 97" fill="none" xmlns="http://www.w3.org/2000/svg">
<path d="M48.1493 0L89.8479 24.0747V72.224L48.1493 96.2987L6.45079 72.224L6.45079 24.0747L48.1493 0Z" fill="#EBEBEB"/>
<path d="M40.5217 37.8769H40.2662C37.5245 37.8769 35.308 35.9008 35.308 33.1591L35.302 31.4814" stroke="#8F00FF" stroke-width="2.63672" stroke-miterlimit="10"/>
<path d="M63.2629 62.788H61.0991L47.0655 55.3718V27.3184H28.3511C28.467 31.6294 29.2273 36.529 30.8937 40.6603C32.5996 44.8895 33.6361 49.3588 33.8646 53.9134L33.9795 56.2031L32.6029 61.5146C32.1673 64.2351 33.3773 66.6883 35.3585 68.2268C37.1821 69.6428 39.5875 70.0252 41.7985 69.368C44.9366 68.4354 48.9811 68.2411 52.0571 69.6798L63.2629 69.6816C65.1527 69.6816 66.6848 68.1385 66.6848 66.2348C66.6848 64.3312 65.1528 62.788 63.2629 62.788Z" stroke="#8F00FF" stroke-width="2.63672" stroke-miterlimit="10"/>
<path d="M46.9246 42.4382H44.6065C41.8648 42.4382 40.5242 40.4621 40.5242 37.7204L40.5182 34.0825M47.0655 42.4382H44.6315C41.8898 42.4382 40.517 45.0595 40.517 47.8012V50.8423M40.5212 46.3924L36.3396 44.6929" stroke="#8F00FF" stroke-width="2.63672" stroke-miterlimit="10"/>
</svg>
