<svg width="71" height="70" viewBox="0 0 71 70" fill="none" xmlns="http://www.w3.org/2000/svg">
<g clip-path="url(#clip0_61_16)">
<path d="M28.3969 42.0923C21.6561 35.353 10.2805 31.2397 3.77189 37.7469C-2.71211 44.2309 1.33834 55.5929 8.11731 62.3719C15.0247 69.2792 26.3689 73.0907 32.7423 66.7173C39.2263 60.232 35.1745 48.8713 28.3969 42.0923ZM24.7042 58.488C22.7841 57.9759 19.8549 56.7278 16.8082 53.681C13.7615 50.6343 12.5133 47.7051 12.0012 45.785L15.9601 44.7307C16.2728 45.9052 17.1755 48.254 19.706 50.7832C22.2352 53.3137 24.584 54.2164 25.7585 54.5291L24.7042 58.488ZM67.2271 21.3594C60.7418 14.8754 49.3811 18.9272 42.6021 25.7048C35.8614 32.4455 31.7495 43.8212 38.2567 50.3298C44.7407 56.8138 56.1027 52.7633 62.8817 45.9844C69.6197 39.2464 73.7357 27.8693 67.2271 21.3594ZM54.1908 37.2935C51.1441 40.3402 48.2149 41.5884 46.2948 42.1005L45.2405 38.1416C46.415 37.8288 48.7638 36.9262 51.293 34.3957C53.8235 31.8665 54.7262 29.5176 55.0389 28.3432L58.9979 29.3975C58.4857 31.3175 57.2376 34.2468 54.1908 37.2935ZM16.927 0.0296416C9.02409 0.0296416 0.539448 4.63317 0.539448 12.3203C0.539448 19.9705 8.9681 24.6109 16.927 24.6109C24.8299 24.6109 33.3145 20.0074 33.3145 12.3203C33.3145 4.67004 24.8858 0.0296416 16.927 0.0296416ZM16.927 14.3687C13.2056 14.3687 10.4088 12.9539 9.28766 11.5514L12.4873 8.99225C12.7072 9.23943 14.2094 10.2718 16.927 10.2718C19.6446 10.2718 21.1468 9.23943 21.3735 8.98406L24.5663 11.5514C23.4451 12.9539 20.6483 14.3687 16.927 14.3687ZM58.0324 57.6591C53.437 57.6591 49.8386 60.359 49.8386 63.8044C49.8386 67.2499 53.437 69.9498 58.0324 69.9498C62.6277 69.9498 66.2261 67.2499 66.2261 63.8044C66.2261 60.359 62.6277 57.6591 58.0324 57.6591ZM49.1653 2.95618C45.9165 -0.292647 41.4618 -0.929029 39.0256 1.50725C36.5893 3.94353 37.2257 8.3982 40.4745 11.647C43.4215 14.5941 47.9595 15.7494 50.6129 13.0946C53.3278 10.3797 52.0195 5.81034 49.1653 2.95618Z" fill="#8F00FF"/>
</g>
<defs>
<clipPath id="clip0_61_16">
<rect width="70" height="70" fill="white" transform="translate(0.5)"/>
</clipPath>
</defs>
</svg>
