<svg width="221" height="45" viewBox="0 0 221 45" fill="none" xmlns="http://www.w3.org/2000/svg">
<path opacity="0.97" fill-rule="evenodd" clip-rule="evenodd" d="M27.0988 5.6884C28.8655 5.49997 29.8492 6.285 30.0498 8.04347C30.0123 9.10912 29.5084 9.85796 28.5383 10.2898C27.38 10.439 26.2284 10.6323 25.0834 10.8696C24 11.5067 23.0283 12.2917 22.1684 13.2246C21.5226 14.1344 21.2347 15.1489 21.3047 16.2681C21.8683 17.6319 22.8639 18.5136 24.2917 18.913C25.4444 19.2635 26.62 19.3843 27.8185 19.2754C28.564 19.1397 29.3078 18.9948 30.0498 18.8406C31.9691 18.5097 33.4926 19.1256 34.6202 20.6884C35.555 22.5541 35.3031 24.2328 33.8645 25.7246C32.422 26.806 30.8625 26.9992 29.1861 26.3043C28.3021 25.8492 27.6664 25.1608 27.2787 24.2391C27.1011 23.4127 26.8371 22.6156 26.487 21.8478C26.1924 21.3669 25.7966 20.9926 25.2994 20.7246C24.1132 20.0414 22.8896 19.51 21.6286 19.1304C20.8545 18.8555 20.0628 18.7709 19.2534 18.8768C17.9299 19.0609 16.8143 18.6745 15.9066 17.7174C15.0909 16.4614 15.0909 15.2053 15.9066 13.9493C16.7034 13.0598 17.6991 12.6854 18.8936 12.8261C19.4989 12.7632 20.0988 12.6665 20.6929 12.5362C21.8274 12.0498 22.9071 11.4701 23.9318 10.7971C24.5061 10.2093 24.926 9.52086 25.1914 8.73187C25.326 8.23296 25.4219 7.72571 25.4793 7.21014C25.8033 6.46092 26.3432 5.95367 27.0988 5.6884Z" fill="white"/>
<path opacity="0.01" fill-rule="evenodd" clip-rule="evenodd" d="M14.5031 7.21014C14.599 7.25848 14.599 7.25848 14.5031 7.21014Z" fill="white"/>
<path opacity="0.031" fill-rule="evenodd" clip-rule="evenodd" d="M14.503 7.28262C14.455 7.33096 14.455 7.33096 14.503 7.28262V7.28262Z" fill="white"/>
<path opacity="0.045" fill-rule="evenodd" clip-rule="evenodd" d="M14.2871 7.42754C14.3117 7.36682 14.3597 7.34261 14.4311 7.35508C14.4064 7.4158 14.3585 7.44 14.2871 7.42754Z" fill="white"/>
<path opacity="0.979" fill-rule="evenodd" clip-rule="evenodd" d="M14.2871 7.42755C10.181 11.1201 8.41758 15.7336 8.99691 21.2681C9.76662 25.9744 12.1299 29.6096 16.0865 32.1739C21.3647 35.2174 26.6429 35.2174 31.9211 32.1739C36.5526 29.1187 38.9758 24.783 39.1906 19.1667C39.1081 16.1279 38.2684 13.326 36.6715 10.7609C40.2618 14.7324 41.8573 19.4183 41.4579 24.8189C40.7883 30.7281 38.0172 35.3295 33.1447 38.6232C28.4044 41.5065 23.3661 42.1828 18.0298 40.6522C12.4009 38.7531 8.50215 35.0212 6.33382 29.4565C4.14943 22.6271 5.32503 16.4677 9.86062 10.9783C11.1625 9.55704 12.638 8.37342 14.2871 7.42755Z" fill="white"/>
<path opacity="0.01" fill-rule="evenodd" clip-rule="evenodd" d="M36.5995 10.6884C36.5515 10.5918 36.5515 10.5918 36.5995 10.6884V10.6884Z" fill="white"/>
<path opacity="0.027" fill-rule="evenodd" clip-rule="evenodd" d="M36.5995 10.6884C36.6476 10.6884 36.6715 10.7125 36.6715 10.7609C36.6476 10.7367 36.6235 10.7125 36.5995 10.6884Z" fill="white"/>
<path opacity="0.01" fill-rule="evenodd" clip-rule="evenodd" d="M30.2657 17.7174C30.2943 17.6431 30.3422 17.631 30.4096 17.6812C30.3669 17.7148 30.3189 17.7269 30.2657 17.7174Z" fill="white"/>
<path d="M63.4131 30V13.488H79.3171V15.696H66.1651V20.304H74.1971V22.48H66.1651V27.728H79.4451V30H63.4131ZM86.0068 30V13.488H88.7588V27.696H101.271V30H86.0068ZM106.913 30V13.488H109.665V30H106.913ZM115.858 30L123.858 21.488L115.73 13.488H119.698L125.49 19.728L130.93 13.488H134.354L127.09 21.232L135.954 30H131.986L125.426 22.96L119.346 30H115.858ZM141.038 30V13.488H143.79V30H141.038ZM152.351 30V13.488H165.663C166.879 13.488 167.764 13.7333 168.319 14.224C168.873 14.7147 169.151 15.536 169.151 16.688V20.368C169.151 21.52 168.873 22.3413 168.319 22.832C167.764 23.3227 166.879 23.568 165.663 23.568H163.231L170.783 30H166.687L159.967 23.568H155.103V30H152.351ZM164.575 15.632H155.103V21.424H164.575C165.193 21.424 165.641 21.3173 165.919 21.104C166.217 20.8907 166.367 20.432 166.367 19.728V17.328C166.367 16.6453 166.217 16.1973 165.919 15.984C165.641 15.7493 165.193 15.632 164.575 15.632ZM176.726 30V13.488H192.63V15.696H179.478V20.304H187.51V22.48H179.478V27.728H192.758V30H176.726ZM208.407 13.488C209.815 13.488 211.031 13.584 212.055 13.776C213.101 13.9467 213.997 14.2773 214.743 14.768C215.81 15.4507 216.642 16.4 217.239 17.616C217.858 18.832 218.167 20.176 218.167 21.648C218.167 23.2053 217.869 24.6027 217.271 25.84C216.674 27.056 215.831 28.016 214.743 28.72C213.997 29.2107 213.101 29.552 212.055 29.744C211.031 29.9147 209.815 30 208.407 30H199.319V13.488H208.407ZM208.023 15.728H202.071V27.696H208.023C209.261 27.696 210.338 27.6 211.255 27.408C212.173 27.216 212.93 26.896 213.527 26.448C214.146 25.9787 214.605 25.36 214.903 24.592C215.202 23.8027 215.351 22.8213 215.351 21.648C215.351 20.5387 215.191 19.6107 214.871 18.864C214.573 18.096 214.114 17.4773 213.495 17.008C212.898 16.5387 212.141 16.208 211.223 16.016C210.306 15.824 209.239 15.728 208.023 15.728Z" fill="white"/>
</svg>
