<svg width="267" height="63" viewBox="0 0 267 63" fill="none" xmlns="http://www.w3.org/2000/svg">
<rect width="266.226" height="63" rx="20.3226" fill="#ACE1F8"/>
<path d="M50.7605 40.5V22.7639H52.9082V30.662H62.3652V22.7639H64.5129V40.5H62.3652V32.5673H52.9082V40.5H50.7605ZM70.5794 37.4863L76.9879 27.1979H79.3435V40.5H77.2997V30.2117L70.9258 40.5H68.5356V27.1979H70.5794V37.4863ZM81.2769 29.1032V27.1979H92.0848V29.1032H87.72V40.5H85.6762V29.1032H81.2769ZM97.1099 37.4863L103.518 27.1979H105.874V40.5H103.83V30.2117L97.4563 40.5H95.0661V27.1979H97.1099V37.4863ZM121.88 45.0379V22.7639H123.924V45.0379H121.88ZM121.88 40.7771C120.98 40.7771 120.16 40.6155 119.421 40.2922C118.682 39.9631 118.047 39.4983 117.515 38.8979C116.984 38.2917 116.574 37.5671 116.286 36.7242C115.997 35.8812 115.853 34.9459 115.853 33.9183C115.853 32.879 115.997 31.938 116.286 31.095C116.574 30.2463 116.984 29.5189 117.515 28.9127C118.047 28.3065 118.682 27.8417 119.421 27.5184C120.16 27.1893 120.98 27.0247 121.88 27.0247H122.504V40.7771H121.88ZM121.88 38.9412H122.227V28.8607H121.88C121.199 28.8607 120.607 28.9993 120.105 29.2764C119.603 29.5477 119.187 29.9201 118.858 30.3936C118.534 30.8612 118.292 31.3981 118.13 32.0044C117.974 32.6106 117.896 33.2485 117.896 33.9183C117.896 34.8074 118.038 35.633 118.321 36.3951C118.604 37.1572 119.04 37.772 119.629 38.2397C120.217 38.7073 120.968 38.9412 121.88 38.9412ZM123.924 40.7771H123.3V27.0247H123.924C124.825 27.0247 125.644 27.1893 126.383 27.5184C127.122 27.8417 127.758 28.3065 128.289 28.9127C128.82 29.5189 129.23 30.2463 129.518 31.095C129.807 31.938 129.951 32.879 129.951 33.9183C129.951 34.9459 129.807 35.8812 129.518 36.7242C129.23 37.5671 128.82 38.2917 128.289 38.8979C127.758 39.4983 127.122 39.9631 126.383 40.2922C125.644 40.6155 124.825 40.7771 123.924 40.7771ZM123.924 38.9412C124.611 38.9412 125.203 38.8084 125.699 38.5428C126.202 38.2714 126.614 37.9019 126.938 37.4343C127.267 36.9609 127.509 36.4239 127.665 35.8235C127.827 35.2173 127.908 34.5822 127.908 33.9183C127.908 33.0291 127.766 32.2007 127.483 31.4328C127.2 30.6649 126.765 30.0443 126.176 29.5708C125.587 29.0974 124.836 28.8607 123.924 28.8607H123.578V38.9412H123.924ZM135.119 37.4863L141.528 27.1979H143.884V40.5H141.84V30.2117L135.466 40.5H133.076V27.1979H135.119V37.4863ZM157.5 22.2097L158.539 23.4567C158.135 23.8493 157.667 24.1236 157.136 24.2795C156.605 24.4353 156.004 24.5306 155.334 24.5652C154.665 24.5999 153.92 24.6345 153.1 24.6692C152.176 24.7038 151.411 24.929 150.805 25.3447C150.199 25.7604 149.731 26.3608 149.402 27.146C149.073 27.9312 148.862 28.8953 148.77 30.0385H148.943C149.394 29.2071 150.017 28.5951 150.814 28.2025C151.611 27.8099 152.465 27.6136 153.377 27.6136C154.417 27.6136 155.352 27.8561 156.183 28.3411C157.015 28.8261 157.673 29.5449 158.158 30.4975C158.643 31.4501 158.885 32.625 158.885 34.0222C158.885 35.4136 158.637 36.6145 158.14 37.6248C157.65 38.6352 156.96 39.4146 156.071 39.9631C155.187 40.5058 154.151 40.7771 152.962 40.7771C151.772 40.7771 150.73 40.4971 149.835 39.9371C148.94 39.3713 148.245 38.5341 147.748 37.4256C147.252 36.3114 147.003 34.9344 147.003 33.2947V31.8745C147.003 28.9127 147.506 26.6668 148.51 25.1368C149.521 23.6069 151.039 22.8159 153.066 22.7639C153.781 22.7408 154.419 22.7351 154.979 22.7466C155.539 22.7582 156.027 22.7322 156.443 22.6687C156.859 22.6052 157.211 22.4522 157.5 22.2097ZM152.962 38.9412C153.764 38.9412 154.454 38.7391 155.031 38.335C155.615 37.9308 156.062 37.3621 156.374 36.6289C156.685 35.8899 156.841 35.021 156.841 34.0222C156.841 33.0522 156.683 32.2266 156.365 31.5454C156.053 30.8641 155.606 30.3445 155.023 29.9865C154.44 29.6286 153.741 29.4496 152.927 29.4496C152.332 29.4496 151.798 29.5506 151.325 29.7527C150.851 29.9548 150.447 30.2521 150.112 30.6447C149.778 31.0373 149.518 31.5165 149.333 32.0823C149.154 32.6481 149.059 33.2947 149.047 34.0222C149.047 35.5117 149.396 36.7039 150.095 37.5988C150.794 38.4937 151.749 38.9412 152.962 38.9412ZM162.011 45.4883V27.1979H163.986V29.311H164.229C164.379 29.0801 164.586 28.7856 164.852 28.4277C165.123 28.064 165.51 27.7407 166.013 27.4578C166.521 27.1691 167.208 27.0247 168.074 27.0247C169.194 27.0247 170.181 27.3048 171.035 27.8648C171.89 28.4248 172.557 29.2187 173.036 30.2463C173.515 31.274 173.755 32.4864 173.755 33.8836C173.755 35.2923 173.515 36.5134 173.036 37.5469C172.557 38.5746 171.893 39.3713 171.044 39.9371C170.195 40.4971 169.217 40.7771 168.108 40.7771C167.254 40.7771 166.57 40.6357 166.056 40.3528C165.542 40.0641 165.146 39.7379 164.869 39.3742C164.592 39.0047 164.379 38.6987 164.229 38.4562H164.055V45.4883H162.011ZM164.021 33.849C164.021 34.8536 164.168 35.7398 164.462 36.5077C164.757 37.2697 165.187 37.8673 165.753 38.3003C166.318 38.7275 167.011 38.9412 167.831 38.9412C168.686 38.9412 169.399 38.716 169.97 38.2657C170.548 37.8096 170.981 37.1976 171.269 36.4297C171.564 35.6561 171.711 34.7958 171.711 33.849C171.711 32.9137 171.567 32.0707 171.278 31.3202C170.995 30.5639 170.565 29.9663 169.988 29.5275C169.416 29.083 168.697 28.8607 167.831 28.8607C167 28.8607 166.301 29.0714 165.735 29.4929C165.17 29.9086 164.742 30.4917 164.454 31.2423C164.165 31.987 164.021 32.8559 164.021 33.849ZM178.916 37.4863L185.325 27.1979H187.68V40.5H185.636V30.2117L179.263 40.5H176.872V27.1979H178.916V37.4863ZM200.326 32.9137V34.8189H192.983V32.9137H200.326ZM193.467 27.1979V40.5H191.424V27.1979H193.467ZM201.885 27.1979V40.5H199.841V27.1979H201.885ZM209.532 40.8118C208.689 40.8118 207.924 40.653 207.237 40.3355C206.55 40.0121 206.005 39.5474 205.6 38.9412C205.196 38.3292 204.994 37.5902 204.994 36.7242C204.994 35.9621 205.144 35.3443 205.445 34.8709C205.745 34.3917 206.146 34.0164 206.648 33.7451C207.151 33.4737 207.705 33.2716 208.311 33.1388C208.923 33.0003 209.538 32.8906 210.156 32.8098C210.964 32.7058 211.619 32.6279 212.122 32.5759C212.63 32.5182 212.999 32.4229 213.23 32.2901C213.467 32.1573 213.585 31.9264 213.585 31.5973V31.528C213.585 30.6736 213.351 30.0096 212.884 29.5362C212.422 29.0628 211.72 28.8261 210.779 28.8261C209.803 28.8261 209.038 29.0397 208.484 29.4669C207.93 29.8942 207.54 30.3503 207.315 30.8352L205.375 30.1424C205.722 29.3341 206.184 28.7048 206.761 28.2545C207.344 27.7984 207.979 27.4808 208.666 27.3019C209.359 27.1171 210.04 27.0247 210.71 27.0247C211.137 27.0247 211.628 27.0767 212.182 27.1806C212.742 27.2788 213.282 27.4837 213.802 27.7955C214.327 28.1073 214.763 28.5778 215.109 29.2071C215.456 29.8364 215.629 30.6793 215.629 31.7359V40.5H213.585V38.6987H213.481C213.343 38.9874 213.112 39.2962 212.788 39.6253C212.465 39.9544 212.035 40.2344 211.498 40.4654C210.961 40.6963 210.306 40.8118 209.532 40.8118ZM209.844 38.9758C210.652 38.9758 211.333 38.817 211.888 38.4995C212.448 38.182 212.869 37.772 213.152 37.2697C213.441 36.7675 213.585 36.2392 213.585 35.6849V33.8143C213.498 33.9183 213.308 34.0135 213.014 34.1001C212.725 34.1809 212.39 34.2531 212.009 34.3166C211.634 34.3744 211.267 34.4263 210.909 34.4725C210.557 34.5129 210.271 34.5476 210.052 34.5764C209.521 34.6457 209.024 34.7583 208.562 34.9142C208.106 35.0643 207.737 35.2923 207.454 35.5983C207.177 35.8986 207.038 36.3085 207.038 36.8281C207.038 37.5382 207.301 38.0751 207.826 38.4389C208.357 38.7968 209.03 38.9758 209.844 38.9758Z" fill="black"/>
</svg>
