<svg width="106" height="32" viewBox="0 0 106 32" fill="none" xmlns="http://www.w3.org/2000/svg">
<rect y="0.155762" width="106" height="31" rx="10" fill="#ACE1F8"/>
<path d="M8.42045 20.1558V13.6103H13.5682V20.1558H12.5625V14.5478H9.42614V20.1558H8.42045ZM15.4048 22.6103V13.6103H16.3764V14.6501H16.4957C16.5696 14.5364 16.6719 14.3916 16.8026 14.2154C16.9361 14.0364 17.1264 13.8774 17.3736 13.7381C17.6236 13.5961 17.9616 13.5251 18.3878 13.5251C18.9389 13.5251 19.4247 13.6629 19.8452 13.9384C20.2656 14.214 20.5938 14.6046 20.8295 15.1103C21.0653 15.616 21.1832 16.2126 21.1832 16.9001C21.1832 17.5933 21.0653 18.1941 20.8295 18.7026C20.5938 19.2083 20.267 19.6004 19.8494 19.8788C19.4318 20.1543 18.9503 20.2921 18.4048 20.2921C17.9844 20.2921 17.6477 20.2225 17.3949 20.0833C17.142 19.9413 16.9474 19.7808 16.8111 19.6018C16.6747 19.42 16.5696 19.2694 16.4957 19.1501H16.4105V22.6103H15.4048ZM16.3935 16.883C16.3935 17.3774 16.4659 17.8134 16.6108 18.1913C16.7557 18.5663 16.9673 18.8603 17.2457 19.0734C17.5241 19.2836 17.8651 19.3887 18.2685 19.3887C18.6889 19.3887 19.0398 19.2779 19.321 19.0563C19.6051 18.8319 19.8182 18.5308 19.9602 18.1529C20.1051 17.7722 20.1776 17.3489 20.1776 16.883C20.1776 16.4228 20.1065 16.008 19.9645 15.6387C19.8253 15.2666 19.6136 14.9725 19.3295 14.7566C19.0483 14.5379 18.6946 14.4285 18.2685 14.4285C17.8594 14.4285 17.5156 14.5322 17.2372 14.7396C16.9588 14.9441 16.7486 15.231 16.6065 15.6004C16.4645 15.9668 16.3935 16.3944 16.3935 16.883ZM25.4616 20.2921C24.831 20.2921 24.2869 20.1529 23.8295 19.8745C23.375 19.5933 23.0241 19.2012 22.777 18.6984C22.5327 18.1927 22.4105 17.6046 22.4105 16.9342C22.4105 16.2637 22.5327 15.6728 22.777 15.1614C23.0241 14.6472 23.3679 14.2467 23.8082 13.9597C24.2514 13.67 24.7685 13.5251 25.3594 13.5251C25.7003 13.5251 26.0369 13.5819 26.3693 13.6955C26.7017 13.8092 27.0043 13.9938 27.277 14.2495C27.5497 14.5024 27.767 14.8376 27.929 15.2552C28.0909 15.6728 28.1719 16.187 28.1719 16.7978V17.2239H23.1264V16.3546H27.1491C27.1491 15.9853 27.0753 15.6558 26.9276 15.366C26.7827 15.0762 26.5753 14.8475 26.3054 14.6799C26.0384 14.5123 25.723 14.4285 25.3594 14.4285C24.9588 14.4285 24.6122 14.5279 24.3196 14.7268C24.0298 14.9228 23.8068 15.1785 23.6506 15.4938C23.4943 15.8092 23.4162 16.1472 23.4162 16.508V17.0876C23.4162 17.5819 23.5014 18.0009 23.6719 18.3447C23.8452 18.6856 24.0852 18.9455 24.392 19.1245C24.6989 19.3006 25.0554 19.3887 25.4616 19.3887C25.7259 19.3887 25.9645 19.3518 26.1776 19.2779C26.3935 19.2012 26.5795 19.0876 26.7358 18.937C26.892 18.7836 27.0128 18.5933 27.098 18.366L28.0696 18.6387C27.9673 18.9683 27.7955 19.258 27.554 19.508C27.3125 19.7552 27.0142 19.9484 26.6591 20.0876C26.304 20.2239 25.9048 20.2921 25.4616 20.2921ZM29.7017 20.1558V13.6103H30.7074V16.4569H31.3722L33.7244 13.6103H35.0199L32.3778 16.7637L35.054 20.1558H33.7585L31.6108 17.3944H30.7074V20.1558H29.7017ZM38.0732 20.3092C37.6584 20.3092 37.282 20.231 36.9439 20.0748C36.6058 19.9157 36.3374 19.687 36.1385 19.3887C35.9396 19.0876 35.8402 18.7239 35.8402 18.2978C35.8402 17.9228 35.9141 17.6188 36.0618 17.3859C36.2095 17.1501 36.407 16.9654 36.6541 16.8319C36.9013 16.6984 37.174 16.5989 37.4723 16.5336C37.7734 16.4654 38.076 16.4114 38.38 16.3717C38.7777 16.3205 39.1001 16.2822 39.3473 16.2566C39.5973 16.2282 39.7791 16.1813 39.8928 16.116C40.0092 16.0506 40.0675 15.937 40.0675 15.7751V15.741C40.0675 15.3205 39.9524 14.9938 39.7223 14.7609C39.495 14.5279 39.1499 14.4114 38.6868 14.4114C38.2067 14.4114 37.8303 14.5166 37.5575 14.7268C37.2848 14.937 37.093 15.1614 36.9822 15.4001L36.0277 15.0592C36.1982 14.6614 36.4254 14.3518 36.7095 14.1302C36.9964 13.9058 37.3089 13.7495 37.647 13.6614C37.9879 13.5705 38.3232 13.5251 38.6527 13.5251C38.8629 13.5251 39.1044 13.5506 39.3771 13.6018C39.6527 13.6501 39.9183 13.7509 40.174 13.9043C40.4325 14.0578 40.647 14.2893 40.8175 14.5989C40.9879 14.9086 41.0732 15.3234 41.0732 15.8433V20.1558H40.0675V19.2694H40.0163C39.9482 19.4114 39.8345 19.5634 39.6754 19.7254C39.5163 19.8873 39.3047 20.0251 39.0405 20.1387C38.7763 20.2524 38.4538 20.3092 38.0732 20.3092ZM38.2266 19.4058C38.6243 19.4058 38.9595 19.3276 39.2322 19.1714C39.5078 19.0151 39.7152 18.8134 39.8544 18.5663C39.9964 18.3191 40.0675 18.0592 40.0675 17.7864V16.866C40.0249 16.9171 39.9311 16.964 39.7862 17.0066C39.6442 17.0464 39.4794 17.0819 39.2919 17.1131C39.1072 17.1416 38.9268 17.1671 38.7507 17.1899C38.5774 17.2097 38.4368 17.2268 38.3288 17.241C38.0675 17.2751 37.8232 17.3305 37.5959 17.4072C37.3714 17.481 37.1896 17.5933 37.0504 17.7438C36.9141 17.8916 36.8459 18.0933 36.8459 18.3489C36.8459 18.6984 36.9751 18.9626 37.2337 19.1416C37.495 19.3177 37.826 19.4058 38.2266 19.4058ZM42.3292 20.1558V19.2183H42.5678C42.7638 19.2183 42.9272 19.1799 43.0579 19.1032C43.1886 19.0237 43.2937 18.8859 43.3732 18.6899C43.4556 18.491 43.5181 18.2154 43.5607 17.8631C43.6062 17.508 43.6388 17.0563 43.6587 16.508L43.7781 13.6103H48.1417V20.1558H47.136V14.5478H44.7326L44.6303 16.883C44.6076 17.42 44.5593 17.893 44.4854 18.3021C44.4144 18.7083 44.305 19.0492 44.1573 19.3248C44.0124 19.6004 43.8192 19.8078 43.5778 19.947C43.3363 20.0862 43.0337 20.1558 42.6701 20.1558H42.3292ZM49.4073 20.1558V19.2183H49.646C49.842 19.2183 50.0053 19.1799 50.136 19.1032C50.2667 19.0237 50.3718 18.8859 50.4513 18.6899C50.5337 18.491 50.5962 18.2154 50.6388 17.8631C50.6843 17.508 50.717 17.0563 50.7369 16.508L50.8562 13.6103H55.2198V20.1558H54.2141V14.5478H51.8107L51.7085 16.883C51.6857 17.42 51.6374 17.893 51.5636 18.3021C51.4925 18.7083 51.3832 19.0492 51.2354 19.3248C51.0906 19.6004 50.8974 19.8078 50.6559 19.947C50.4144 20.0862 50.1119 20.1558 49.7482 20.1558H49.4073ZM58.0707 18.6728L61.2241 13.6103H62.3832V20.1558H61.3775V15.0933L58.2411 20.1558H57.065V13.6103H58.0707V18.6728ZM64.2251 20.1558V13.6103H65.2308V16.4569H65.8956L68.2479 13.6103H69.5433L66.9013 16.7637L69.5774 20.1558H68.282L66.1342 17.3944H65.2308V20.1558H64.2251ZM70.6705 22.6103V13.6103H71.642V14.6501H71.7614C71.8352 14.5364 71.9375 14.3916 72.0682 14.2154C72.2017 14.0364 72.392 13.8774 72.6392 13.7381C72.8892 13.5961 73.2273 13.5251 73.6534 13.5251C74.2045 13.5251 74.6903 13.6629 75.1108 13.9384C75.5313 14.214 75.8594 14.6046 76.0952 15.1103C76.331 15.616 76.4489 16.2126 76.4489 16.9001C76.4489 17.5933 76.331 18.1941 76.0952 18.7026C75.8594 19.2083 75.5327 19.6004 75.1151 19.8788C74.6974 20.1543 74.2159 20.2921 73.6705 20.2921C73.25 20.2921 72.9134 20.2225 72.6605 20.0833C72.4077 19.9413 72.2131 19.7808 72.0767 19.6018C71.9403 19.42 71.8352 19.2694 71.7614 19.1501H71.6761V22.6103H70.6705ZM71.6591 16.883C71.6591 17.3774 71.7315 17.8134 71.8764 18.1913C72.0213 18.5663 72.233 18.8603 72.5114 19.0734C72.7898 19.2836 73.1307 19.3887 73.5341 19.3887C73.9545 19.3887 74.3054 19.2779 74.5866 19.0563C74.8707 18.8319 75.0838 18.5308 75.2259 18.1529C75.3707 17.7722 75.4432 17.3489 75.4432 16.883C75.4432 16.4228 75.3722 16.008 75.2301 15.6387C75.0909 15.2666 74.8793 14.9725 74.5952 14.7566C74.3139 14.5379 73.9602 14.4285 73.5341 14.4285C73.125 14.4285 72.7813 14.5322 72.5028 14.7396C72.2244 14.9441 72.0142 15.231 71.8722 15.6004C71.7301 15.9668 71.6591 16.3944 71.6591 16.883ZM80.7273 20.2921C80.0966 20.2921 79.5526 20.1529 79.0952 19.8745C78.6406 19.5933 78.2898 19.2012 78.0426 18.6984C77.7983 18.1927 77.6761 17.6046 77.6761 16.9342C77.6761 16.2637 77.7983 15.6728 78.0426 15.1614C78.2898 14.6472 78.6335 14.2467 79.0739 13.9597C79.517 13.67 80.0341 13.5251 80.625 13.5251C80.9659 13.5251 81.3026 13.5819 81.6349 13.6955C81.9673 13.8092 82.2699 13.9938 82.5426 14.2495C82.8153 14.5024 83.0327 14.8376 83.1946 15.2552C83.3565 15.6728 83.4375 16.187 83.4375 16.7978V17.2239H78.392V16.3546H82.4148C82.4148 15.9853 82.3409 15.6558 82.1932 15.366C82.0483 15.0762 81.8409 14.8475 81.571 14.6799C81.304 14.5123 80.9886 14.4285 80.625 14.4285C80.2244 14.4285 79.8778 14.5279 79.5852 14.7268C79.2955 14.9228 79.0724 15.1785 78.9162 15.4938C78.7599 15.8092 78.6818 16.1472 78.6818 16.508V17.0876C78.6818 17.5819 78.767 18.0009 78.9375 18.3447C79.1108 18.6856 79.3509 18.9455 79.6577 19.1245C79.9645 19.3006 80.321 19.3887 80.7273 19.3887C80.9915 19.3887 81.2301 19.3518 81.4432 19.2779C81.6591 19.2012 81.8452 19.0876 82.0014 18.937C82.1577 18.7836 82.2784 18.5933 82.3636 18.366L83.3352 18.6387C83.233 18.9683 83.0611 19.258 82.8196 19.508C82.5781 19.7552 82.2798 19.9484 81.9247 20.0876C81.5696 20.2239 81.1705 20.2921 80.7273 20.2921ZM85.973 18.6728L89.1264 13.6103H90.2855V20.1558H89.2798V15.0933L86.1435 20.1558H84.9673V13.6103H85.973V18.6728ZM96.5082 16.4228V17.3603H92.8945V16.4228H96.5082ZM93.1332 13.6103V20.1558H92.1275V13.6103H93.1332ZM97.2752 13.6103V20.1558H96.2695V13.6103H97.2752Z" fill="black"/>
</svg>
