<svg width="185" height="16" viewBox="0 0 185 16" fill="none" xmlns="http://www.w3.org/2000/svg">
<path d="M184.707 8.86288C185.098 8.47236 185.098 7.8392 184.707 7.44867L178.343 1.08471C177.953 0.694185 177.319 0.694185 176.929 1.08471C176.538 1.47523 176.538 2.1084 176.929 2.49892L182.586 8.15578L176.929 13.8126C176.538 14.2032 176.538 14.8363 176.929 15.2268C177.319 15.6174 177.953 15.6174 178.343 15.2268L184.707 8.86288ZM-8.74228e-08 9.15576L92 9.15577L92 7.15577L8.74228e-08 7.15576L-8.74228e-08 9.15576ZM92 9.15577L184 9.15578L184 7.15578L92 7.15577L92 9.15577Z" fill="black"/>
</svg>
