<svg width="40" height="32" viewBox="0 0 40 32" fill="none" xmlns="http://www.w3.org/2000/svg">
<rect y="0.155762" width="40" height="31" rx="10" fill="#8F00FF"/>
<path d="M10.4148 11.4285L13.0057 18.7751H13.108L15.6989 11.4285H16.8068L13.6023 20.1558H12.5114L9.30682 11.4285H10.4148ZM19.223 11.4285V20.1558H18.1662V11.4285H19.223ZM22.3988 11.4285V20.1558H21.342V11.4285H22.3988ZM26.3075 20.3092C25.8928 20.3092 25.5163 20.231 25.1783 20.0748C24.8402 19.9157 24.5717 19.687 24.3729 19.3887C24.174 19.0876 24.0746 18.7239 24.0746 18.2978C24.0746 17.9228 24.1484 17.6188 24.2962 17.3859C24.4439 17.1501 24.6413 16.9654 24.8885 16.8319C25.1357 16.6984 25.4084 16.5989 25.7067 16.5336C26.0078 16.4654 26.3104 16.4114 26.6143 16.3717C27.0121 16.3205 27.3345 16.2822 27.5817 16.2566C27.8317 16.2282 28.0135 16.1813 28.1271 16.116C28.2436 16.0506 28.3018 15.937 28.3018 15.7751V15.741C28.3018 15.3205 28.1868 14.9938 27.9567 14.7609C27.7294 14.5279 27.3842 14.4114 26.9212 14.4114C26.4411 14.4114 26.0646 14.5166 25.7919 14.7268C25.5192 14.937 25.3274 15.1614 25.2166 15.4001L24.2621 15.0592C24.4325 14.6614 24.6598 14.3518 24.9439 14.1302C25.2308 13.9058 25.5433 13.7495 25.8814 13.6614C26.2223 13.5705 26.5575 13.5251 26.8871 13.5251C27.0973 13.5251 27.3388 13.5506 27.6115 13.6018C27.8871 13.6501 28.1527 13.7509 28.4084 13.9043C28.6669 14.0578 28.8814 14.2893 29.0518 14.5989C29.2223 14.9086 29.3075 15.3234 29.3075 15.8433V20.1558H28.3018V19.2694H28.2507C28.1825 19.4114 28.0689 19.5634 27.9098 19.7254C27.7507 19.8873 27.5391 20.0251 27.2749 20.1387C27.0107 20.2524 26.6882 20.3092 26.3075 20.3092ZM26.4609 19.4058C26.8587 19.4058 27.1939 19.3276 27.4666 19.1714C27.7422 19.0151 27.9496 18.8134 28.0888 18.5663C28.2308 18.3191 28.3018 18.0592 28.3018 17.7864V16.866C28.2592 16.9171 28.1655 16.964 28.0206 17.0066C27.8786 17.0464 27.7138 17.0819 27.5263 17.1131C27.3416 17.1416 27.1612 17.1671 26.9851 17.1899C26.8118 17.2097 26.6712 17.2268 26.5632 17.241C26.3018 17.2751 26.0575 17.3305 25.8303 17.4072C25.6058 17.481 25.424 17.5933 25.2848 17.7438C25.1484 17.8916 25.0803 18.0933 25.0803 18.3489C25.0803 18.6984 25.2095 18.9626 25.468 19.1416C25.7294 19.3177 26.0604 19.4058 26.4609 19.4058Z" fill="white"/>
</svg>
