<svg width="106" height="32" viewBox="0 0 106 32" fill="none" xmlns="http://www.w3.org/2000/svg">
<rect y="0.155762" width="106" height="31" rx="10" fill="#ACE1F8"/>
<path d="M23.5852 11.4285V20.1558H22.5284V12.366H18.1307V20.1558H17.0739V11.4285H23.5852ZM25.5806 22.6103V13.6103H26.5522V14.6501H26.6715C26.7454 14.5364 26.8477 14.3916 26.9783 14.2154C27.1119 14.0364 27.3022 13.8774 27.5494 13.7381C27.7994 13.5961 28.1374 13.5251 28.5636 13.5251C29.1147 13.5251 29.6005 13.6629 30.021 13.9384C30.4414 14.214 30.7695 14.6046 31.0053 15.1103C31.2411 15.616 31.359 16.2126 31.359 16.9001C31.359 17.5933 31.2411 18.1941 31.0053 18.7026C30.7695 19.2083 30.4428 19.6004 30.0252 19.8788C29.6076 20.1543 29.1261 20.2921 28.5806 20.2921C28.1602 20.2921 27.8235 20.2225 27.5707 20.0833C27.3178 19.9413 27.1232 19.7808 26.9869 19.6018C26.8505 19.42 26.7454 19.2694 26.6715 19.1501H26.5863V22.6103H25.5806ZM26.5692 16.883C26.5692 17.3774 26.6417 17.8134 26.7866 18.1913C26.9315 18.5663 27.1431 18.8603 27.4215 19.0734C27.6999 19.2836 28.0408 19.3887 28.4442 19.3887C28.8647 19.3887 29.2156 19.2779 29.4968 19.0563C29.7809 18.8319 29.994 18.5308 30.136 18.1529C30.2809 17.7722 30.3533 17.3489 30.3533 16.883C30.3533 16.4228 30.2823 16.008 30.1403 15.6387C30.0011 15.2666 29.7894 14.9725 29.5053 14.7566C29.2241 14.5379 28.8704 14.4285 28.4442 14.4285C28.0352 14.4285 27.6914 14.5322 27.413 14.7396C27.1346 14.9441 26.9244 15.231 26.7823 15.6004C26.6403 15.9668 26.5692 16.3944 26.5692 16.883ZM35.5522 20.2921C34.9613 20.2921 34.4428 20.1515 33.9968 19.8703C33.5536 19.589 33.207 19.1955 32.957 18.6899C32.7099 18.1842 32.5863 17.5933 32.5863 16.9171C32.5863 16.2353 32.7099 15.6401 32.957 15.1316C33.207 14.6231 33.5536 14.2282 33.9968 13.947C34.4428 13.6657 34.9613 13.5251 35.5522 13.5251C36.1431 13.5251 36.6602 13.6657 37.1033 13.947C37.5494 14.2282 37.896 14.6231 38.1431 15.1316C38.3931 15.6401 38.5181 16.2353 38.5181 16.9171C38.5181 17.5933 38.3931 18.1842 38.1431 18.6899C37.896 19.1955 37.5494 19.589 37.1033 19.8703C36.6602 20.1515 36.1431 20.2921 35.5522 20.2921ZM35.5522 19.3887C36.0011 19.3887 36.3704 19.2737 36.6602 19.0435C36.9499 18.8134 37.1644 18.5109 37.3036 18.1359C37.4428 17.7609 37.5124 17.3546 37.5124 16.9171C37.5124 16.4796 37.4428 16.072 37.3036 15.6941C37.1644 15.3163 36.9499 15.0109 36.6602 14.7779C36.3704 14.545 36.0011 14.4285 35.5522 14.4285C35.1033 14.4285 34.734 14.545 34.4442 14.7779C34.1545 15.0109 33.94 15.3163 33.8008 15.6941C33.6616 16.072 33.592 16.4796 33.592 16.9171C33.592 17.3546 33.6616 17.7609 33.8008 18.1359C33.94 18.5109 34.1545 18.8134 34.4442 19.0435C34.734 19.2737 35.1033 19.3887 35.5522 19.3887ZM39.1978 14.5478V13.6103H44.516V14.5478H42.3683V20.1558H41.3626V14.5478H39.1978ZM45.983 22.6103V13.6103H46.9545V14.6501H47.0739C47.1477 14.5364 47.25 14.3916 47.3807 14.2154C47.5142 14.0364 47.7045 13.8774 47.9517 13.7381C48.2017 13.5961 48.5398 13.5251 48.9659 13.5251C49.517 13.5251 50.0028 13.6629 50.4233 13.9384C50.8438 14.214 51.1719 14.6046 51.4077 15.1103C51.6435 15.616 51.7614 16.2126 51.7614 16.9001C51.7614 17.5933 51.6435 18.1941 51.4077 18.7026C51.1719 19.2083 50.8452 19.6004 50.4276 19.8788C50.0099 20.1543 49.5284 20.2921 48.983 20.2921C48.5625 20.2921 48.2259 20.2225 47.973 20.0833C47.7202 19.9413 47.5256 19.7808 47.3892 19.6018C47.2528 19.42 47.1477 19.2694 47.0739 19.1501H46.9886V22.6103H45.983ZM46.9716 16.883C46.9716 17.3774 47.044 17.8134 47.1889 18.1913C47.3338 18.5663 47.5455 18.8603 47.8239 19.0734C48.1023 19.2836 48.4432 19.3887 48.8466 19.3887C49.267 19.3887 49.6179 19.2779 49.8991 19.0563C50.1832 18.8319 50.3963 18.5308 50.5384 18.1529C50.6832 17.7722 50.7557 17.3489 50.7557 16.883C50.7557 16.4228 50.6847 16.008 50.5426 15.6387C50.4034 15.2666 50.1918 14.9725 49.9077 14.7566C49.6264 14.5379 49.2727 14.4285 48.8466 14.4285C48.4375 14.4285 48.0938 14.5322 47.8153 14.7396C47.5369 14.9441 47.3267 15.231 47.1847 15.6004C47.0426 15.9668 46.9716 16.3944 46.9716 16.883ZM55.9545 20.2921C55.3636 20.2921 54.8452 20.1515 54.3991 19.8703C53.956 19.589 53.6094 19.1955 53.3594 18.6899C53.1122 18.1842 52.9886 17.5933 52.9886 16.9171C52.9886 16.2353 53.1122 15.6401 53.3594 15.1316C53.6094 14.6231 53.956 14.2282 54.3991 13.947C54.8452 13.6657 55.3636 13.5251 55.9545 13.5251C56.5455 13.5251 57.0625 13.6657 57.5057 13.947C57.9517 14.2282 58.2983 14.6231 58.5455 15.1316C58.7955 15.6401 58.9205 16.2353 58.9205 16.9171C58.9205 17.5933 58.7955 18.1842 58.5455 18.6899C58.2983 19.1955 57.9517 19.589 57.5057 19.8703C57.0625 20.1515 56.5455 20.2921 55.9545 20.2921ZM55.9545 19.3887C56.4034 19.3887 56.7727 19.2737 57.0625 19.0435C57.3523 18.8134 57.5668 18.5109 57.706 18.1359C57.8452 17.7609 57.9148 17.3546 57.9148 16.9171C57.9148 16.4796 57.8452 16.072 57.706 15.6941C57.5668 15.3163 57.3523 15.0109 57.0625 14.7779C56.7727 14.545 56.4034 14.4285 55.9545 14.4285C55.5057 14.4285 55.1364 14.545 54.8466 14.7779C54.5568 15.0109 54.3423 15.3163 54.2031 15.6941C54.0639 16.072 53.9943 16.4796 53.9943 16.9171C53.9943 17.3546 54.0639 17.7609 54.2031 18.1359C54.3423 18.5109 54.5568 18.8134 54.8466 19.0435C55.1364 19.2737 55.5057 19.3887 55.9545 19.3887ZM64.0352 18.7921L66.3192 13.6103H67.2738L64.4442 20.1558H63.6261L60.8477 13.6103H61.7852L64.0352 18.7921ZM61.4613 13.6103V20.1558H60.4556V13.6103H61.4613ZM66.609 20.1558V13.6103H67.6147V20.1558H66.609ZM74.3136 11.1558L74.8249 11.7694C74.6261 11.9626 74.396 12.0975 74.1346 12.1742C73.8732 12.2509 73.5778 12.2978 73.2482 12.3149C72.9187 12.3319 72.5522 12.3489 72.1488 12.366C71.6942 12.383 71.3178 12.4938 71.0195 12.6984C70.7212 12.9029 70.4911 13.1984 70.3292 13.5847C70.1673 13.9711 70.0636 14.4455 70.0181 15.008H70.1033C70.3249 14.5989 70.6317 14.2978 71.0238 14.1046C71.4158 13.9114 71.8363 13.8149 72.2852 13.8149C72.7965 13.8149 73.2567 13.9342 73.6658 14.1728C74.0749 14.4114 74.3988 14.7651 74.6374 15.2339C74.8761 15.7026 74.9954 16.2808 74.9954 16.9683C74.9954 17.6529 74.8732 18.2438 74.6289 18.741C74.3874 19.2381 74.0479 19.6217 73.6104 19.8916C73.1758 20.1586 72.6658 20.2921 72.0806 20.2921C71.4954 20.2921 70.9826 20.1543 70.5423 19.8788C70.1019 19.6004 69.7596 19.1884 69.5153 18.643C69.271 18.0947 69.1488 17.4171 69.1488 16.6103V15.9114C69.1488 14.4541 69.396 13.3489 69.8903 12.5961C70.3874 11.8433 71.1346 11.4541 72.1317 11.4285C72.484 11.4171 72.7979 11.4143 73.0735 11.42C73.3491 11.4256 73.5891 11.4129 73.7937 11.3816C73.9982 11.3504 74.1715 11.2751 74.3136 11.1558ZM72.0806 19.3887C72.4755 19.3887 72.815 19.2893 73.0991 19.0904C73.386 18.8916 73.6062 18.6117 73.7596 18.2509C73.913 17.8873 73.9897 17.4597 73.9897 16.9683C73.9897 16.491 73.9116 16.0847 73.7553 15.7495C73.6019 15.4143 73.3817 15.1586 73.0948 14.9825C72.8079 14.8063 72.4641 14.7183 72.0636 14.7183C71.771 14.7183 71.5082 14.768 71.2752 14.8674C71.0423 14.9668 70.8434 15.1131 70.6786 15.3063C70.5138 15.4995 70.386 15.7353 70.2951 16.0137C70.207 16.2921 70.1602 16.6103 70.1545 16.9683C70.1545 17.7012 70.3263 18.2879 70.6701 18.7282C71.0138 19.1685 71.484 19.3887 72.0806 19.3887ZM77.5394 18.6728L80.6928 13.6103H81.8519V20.1558H80.8462V15.0933L77.7099 20.1558H76.5337V13.6103H77.5394V18.6728ZM88.0746 16.4228V17.3603H84.4609V16.4228H88.0746ZM84.6996 13.6103V20.1558H83.6939V13.6103H84.6996ZM88.8416 13.6103V20.1558H87.8359V13.6103H88.8416Z" fill="black"/>
</svg>
