<svg width="40" height="32" viewBox="0 0 40 32" fill="none" xmlns="http://www.w3.org/2000/svg">
<rect y="0.155762" width="40" height="31" rx="10" fill="#8F00FF"/>
<path d="M14.0682 11.4285L16.3182 15.0592H16.3864L18.6364 11.4285H19.8807L17.1364 15.7921L19.8807 20.1558H18.6364L16.3864 16.5933H16.3182L14.0682 20.1558H12.8239L15.6364 15.7921L12.8239 11.4285H14.0682ZM23.0458 20.3092C22.631 20.3092 22.2546 20.231 21.9165 20.0748C21.5785 19.9157 21.31 19.687 21.1112 19.3887C20.9123 19.0876 20.8129 18.7239 20.8129 18.2978C20.8129 17.9228 20.8867 17.6188 21.0344 17.3859C21.1822 17.1501 21.3796 16.9654 21.6268 16.8319C21.8739 16.6984 22.1467 16.5989 22.445 16.5336C22.7461 16.4654 23.0487 16.4114 23.3526 16.3717C23.7504 16.3205 24.0728 16.2822 24.32 16.2566C24.57 16.2282 24.7518 16.1813 24.8654 16.116C24.9819 16.0506 25.0401 15.937 25.0401 15.7751V15.741C25.0401 15.3205 24.9251 14.9938 24.695 14.7609C24.4677 14.5279 24.1225 14.4114 23.6594 14.4114C23.1793 14.4114 22.8029 14.5166 22.5302 14.7268C22.2575 14.937 22.0657 15.1614 21.9549 15.4001L21.0004 15.0592C21.1708 14.6614 21.3981 14.3518 21.6822 14.1302C21.9691 13.9058 22.2816 13.7495 22.6197 13.6614C22.9606 13.5705 23.2958 13.5251 23.6254 13.5251C23.8356 13.5251 24.0771 13.5506 24.3498 13.6018C24.6254 13.6501 24.891 13.7509 25.1467 13.9043C25.4052 14.0578 25.6197 14.2893 25.7901 14.5989C25.9606 14.9086 26.0458 15.3234 26.0458 15.8433V20.1558H25.0401V19.2694H24.989C24.9208 19.4114 24.8072 19.5634 24.6481 19.7254C24.489 19.8873 24.2773 20.0251 24.0131 20.1387C23.7489 20.2524 23.4265 20.3092 23.0458 20.3092ZM23.1992 19.4058C23.5969 19.4058 23.9322 19.3276 24.2049 19.1714C24.4805 19.0151 24.6879 18.8134 24.8271 18.5663C24.9691 18.3191 25.0401 18.0592 25.0401 17.7864V16.866C24.9975 16.9171 24.9038 16.964 24.7589 17.0066C24.6168 17.0464 24.4521 17.0819 24.2646 17.1131C24.0799 17.1416 23.8995 17.1671 23.7234 17.1899C23.5501 17.2097 23.4094 17.2268 23.3015 17.241C23.0401 17.2751 22.7958 17.3305 22.5685 17.4072C22.3441 17.481 22.1623 17.5933 22.0231 17.7438C21.8867 17.8916 21.8185 18.0933 21.8185 18.3489C21.8185 18.6984 21.9478 18.9626 22.2063 19.1416C22.4677 19.3177 22.7987 19.4058 23.1992 19.4058Z" fill="white"/>
</svg>
