<svg width="40" height="32" viewBox="0 0 40 32" fill="none" xmlns="http://www.w3.org/2000/svg">
<rect y="0.155762" width="40" height="31" rx="10" fill="#8F00FF"/>
<path d="M11.0682 11.4285L13.3182 15.0592H13.3864L15.6364 11.4285H16.8807L14.1364 15.7921L16.8807 20.1558H15.6364L13.3864 16.5933H13.3182L11.0682 20.1558H9.82386L12.6364 15.7921L9.82386 11.4285H11.0682ZM19.3129 11.4285V20.1558H18.256V11.4285H19.3129ZM22.4886 11.4285V20.1558H21.4318V11.4285H22.4886ZM26.3974 20.3092C25.9826 20.3092 25.6062 20.231 25.2681 20.0748C24.93 19.9157 24.6616 19.687 24.4627 19.3887C24.2638 19.0876 24.1644 18.7239 24.1644 18.2978C24.1644 17.9228 24.2383 17.6188 24.386 17.3859C24.5337 17.1501 24.7312 16.9654 24.9783 16.8319C25.2255 16.6984 25.4982 16.5989 25.7965 16.5336C26.0977 16.4654 26.4002 16.4114 26.7042 16.3717C27.1019 16.3205 27.4244 16.2822 27.6715 16.2566C27.9215 16.2282 28.1033 16.1813 28.217 16.116C28.3335 16.0506 28.3917 15.937 28.3917 15.7751V15.741C28.3917 15.3205 28.2766 14.9938 28.0465 14.7609C27.8192 14.5279 27.4741 14.4114 27.011 14.4114C26.5309 14.4114 26.1545 14.5166 25.8817 14.7268C25.609 14.937 25.4173 15.1614 25.3065 15.4001L24.3519 15.0592C24.5224 14.6614 24.7496 14.3518 25.0337 14.1302C25.3207 13.9058 25.6332 13.7495 25.9712 13.6614C26.3121 13.5705 26.6474 13.5251 26.9769 13.5251C27.1871 13.5251 27.4286 13.5506 27.7013 13.6018C27.9769 13.6501 28.2425 13.7509 28.4982 13.9043C28.7567 14.0578 28.9712 14.2893 29.1417 14.5989C29.3121 14.9086 29.3974 15.3234 29.3974 15.8433V20.1558H28.3917V19.2694H28.3406C28.2724 19.4114 28.1587 19.5634 27.9996 19.7254C27.8406 19.8873 27.6289 20.0251 27.3647 20.1387C27.1005 20.2524 26.7781 20.3092 26.3974 20.3092ZM26.5508 19.4058C26.9485 19.4058 27.2837 19.3276 27.5565 19.1714C27.832 19.0151 28.0394 18.8134 28.1786 18.5663C28.3207 18.3191 28.3917 18.0592 28.3917 17.7864V16.866C28.3491 16.9171 28.2553 16.964 28.1104 17.0066C27.9684 17.0464 27.8036 17.0819 27.6161 17.1131C27.4315 17.1416 27.2511 17.1671 27.0749 17.1899C26.9016 17.2097 26.761 17.2268 26.6531 17.241C26.3917 17.2751 26.1474 17.3305 25.9201 17.4072C25.6957 17.481 25.5138 17.5933 25.3746 17.7438C25.2383 17.8916 25.1701 18.0933 25.1701 18.3489C25.1701 18.6984 25.2994 18.9626 25.5579 19.1416C25.8192 19.3177 26.1502 19.4058 26.5508 19.4058Z" fill="white"/>
</svg>
