<svg width="181" height="42" viewBox="0 0 181 42" fill="none" xmlns="http://www.w3.org/2000/svg">
<path opacity="0.97" fill-rule="evenodd" clip-rule="evenodd" d="M25.3691 5.30919C27.0231 5.13333 27.944 5.86602 28.1317 7.50726C28.0966 8.50187 27.6249 9.20079 26.7167 9.60388C25.6323 9.74313 24.5542 9.92351 23.4824 10.1449C22.4681 10.7396 21.5584 11.4722 20.7534 12.343C20.1488 13.1921 19.8793 14.139 19.9449 15.1836C20.4725 16.4565 21.4045 17.2794 22.7412 17.6522C23.8203 17.9793 24.9208 18.092 26.0429 17.9904C26.7408 17.8637 27.4371 17.7285 28.1317 17.5846C29.9285 17.2757 31.3547 17.8506 32.4104 19.3092C33.2856 21.0505 33.0497 22.6173 31.7029 24.0097C30.3525 25.019 28.8926 25.1993 27.3231 24.5507C26.4956 24.1259 25.9004 23.4834 25.5375 22.6232C25.3712 21.8518 25.1241 21.1079 24.7963 20.3913C24.5206 19.9425 24.15 19.5931 23.6845 19.343C22.5741 18.7053 21.4286 18.2093 20.2481 17.8551C19.5234 17.5985 18.7822 17.5196 18.0245 17.6184C16.7854 17.7902 15.741 17.4295 14.8913 16.5362C14.1276 15.364 14.1276 14.1916 14.8913 13.0193C15.6372 12.1891 16.5693 11.8397 17.6876 11.971C18.2543 11.9123 18.8159 11.8221 19.3721 11.7005C20.4342 11.2465 21.4449 10.7055 22.4043 10.0773C22.9419 9.52867 23.335 8.88616 23.5835 8.14977C23.7095 7.68412 23.7993 7.21069 23.853 6.72948C24.1563 6.03021 24.6617 5.55678 25.3691 5.30919Z" fill="#232323"/>
<path opacity="0.01" fill-rule="evenodd" clip-rule="evenodd" d="M13.5773 6.72946C13.6672 6.77457 13.6672 6.77457 13.5773 6.72946V6.72946Z" fill="#FEFFFE"/>
<path opacity="0.031" fill-rule="evenodd" clip-rule="evenodd" d="M13.5773 6.79709C13.5324 6.8422 13.5324 6.8422 13.5773 6.79709V6.79709Z" fill="#FEFFFE"/>
<path opacity="0.045" fill-rule="evenodd" clip-rule="evenodd" d="M13.3752 6.93235C13.3982 6.87568 13.4431 6.85309 13.5099 6.86472C13.4869 6.9214 13.442 6.94399 13.3752 6.93235Z" fill="#FEFFFE"/>
<path opacity="0.979" fill-rule="evenodd" clip-rule="evenodd" d="M13.3752 6.93237C9.53113 10.3787 7.88029 14.6847 8.42264 19.8502C9.14322 24.2427 11.3556 27.6356 15.0597 30.029C20.001 32.8696 24.9423 32.8696 29.8836 30.029C34.2194 27.1775 36.488 23.1308 36.6891 17.8889C36.6119 15.0527 35.8258 12.4376 34.3308 10.0435C37.6919 13.7502 39.1856 18.1238 38.8116 23.1643C38.1848 28.6795 35.5906 32.9742 31.0291 36.0483C26.5913 38.7394 21.8747 39.3706 16.879 37.942C11.6093 36.1696 7.95946 32.6865 5.92953 27.4928C3.88457 21.1186 4.98514 15.3698 9.23122 10.2464C10.45 8.9199 11.8313 7.81518 13.3752 6.93237Z" fill="#232323"/>
<path opacity="0.01" fill-rule="evenodd" clip-rule="evenodd" d="M34.2634 9.97585C34.2184 9.88569 34.2184 9.88569 34.2634 9.97585V9.97585Z" fill="#FEFFFE"/>
<path opacity="0.027" fill-rule="evenodd" clip-rule="evenodd" d="M34.2634 9.97583C34.3084 9.97583 34.3308 9.99835 34.3308 10.0435C34.3084 10.0209 34.2859 9.99835 34.2634 9.97583Z" fill="#FEFFFE"/>
<path opacity="0.01" fill-rule="evenodd" clip-rule="evenodd" d="M28.3339 16.5362C28.3606 16.4669 28.4055 16.4556 28.4686 16.5024C28.4286 16.5338 28.3837 16.5451 28.3339 16.5362Z" fill="#FEFFFE"/>
<path d="M52.7731 29V15.584H65.6951V17.378H55.0091V21.122H61.5351V22.89H55.0091V27.154H65.7991V29H52.7731ZM71.1305 29V15.584H73.3665V27.128H83.5325V29H71.1305ZM88.1168 29V15.584H90.3528V29H88.1168ZM95.3842 29L101.884 22.084L95.2802 15.584H98.5042L103.21 20.654L107.63 15.584H110.412L104.51 21.876L111.712 29H108.488L103.158 23.28L98.2182 29H95.3842ZM115.843 29V15.584H118.079V29H115.843ZM125.035 29V15.584H135.851C136.839 15.584 137.558 15.7833 138.009 16.182C138.459 16.5807 138.685 17.248 138.685 18.184V21.174C138.685 22.11 138.459 22.7773 138.009 23.176C137.558 23.5747 136.839 23.774 135.851 23.774H133.875L140.011 29H136.683L131.223 23.774H127.271V29H125.035ZM134.967 17.326H127.271V22.032H134.967C135.469 22.032 135.833 21.9453 136.059 21.772C136.301 21.5987 136.423 21.226 136.423 20.654V18.704C136.423 18.1493 136.301 17.7853 136.059 17.612C135.833 17.4213 135.469 17.326 134.967 17.326ZM144.839 29V15.584H157.761V17.378H147.075V21.122H153.601V22.89H147.075V27.154H157.865V29H144.839ZM170.581 15.584C171.725 15.584 172.713 15.662 173.545 15.818C174.394 15.9567 175.122 16.2253 175.729 16.624C176.596 17.1787 177.272 17.95 177.757 18.938C178.26 19.926 178.511 21.018 178.511 22.214C178.511 23.4793 178.268 24.6147 177.783 25.62C177.298 26.608 176.613 27.388 175.729 27.96C175.122 28.3587 174.394 28.636 173.545 28.792C172.713 28.9307 171.725 29 170.581 29H163.197V15.584H170.581ZM170.269 17.404H165.433V27.128H170.269C171.274 27.128 172.15 27.05 172.895 26.894C173.64 26.738 174.256 26.478 174.741 26.114C175.244 25.7327 175.616 25.23 175.859 24.606C176.102 23.9647 176.223 23.1673 176.223 22.214C176.223 21.3127 176.093 20.5587 175.833 19.952C175.59 19.328 175.218 18.8253 174.715 18.444C174.23 18.0627 173.614 17.794 172.869 17.638C172.124 17.482 171.257 17.404 170.269 17.404Z" fill="#232323"/>
</svg>
