<svg width="34" height="33" viewBox="0 0 34 33" fill="none" xmlns="http://www.w3.org/2000/svg">
<path opacity="0.979" fill-rule="evenodd" clip-rule="evenodd" d="M8.44274 0.648682C4.5987 4.09505 2.94786 8.40103 3.49021 13.5666C4.21078 17.959 6.42318 21.3519 10.1273 23.7453C15.0685 26.5859 20.0099 26.5859 24.9512 23.7453C29.287 20.8938 31.5555 16.8471 31.7567 11.6052C31.6795 8.76902 30.8933 6.15386 29.3983 3.75979C32.7595 7.46655 34.2532 11.8401 33.8792 16.8806C33.2523 22.3958 30.6582 26.6905 26.0966 29.7646C21.6589 32.4557 16.9422 33.0869 11.9466 31.6583C6.67687 29.8859 3.02703 26.4028 0.9971 21.2091C-1.04786 14.8349 0.0527031 9.08615 4.29878 3.96269C5.51758 2.63621 6.89889 1.53149 8.44274 0.648682Z" fill="#232323"/>
</svg>
